%TF.GenerationSoftware,KiCad,Pcbnew,6.0.11+dfsg-1~bpo11+1*%
%TF.CreationDate,2023-04-14T14:38:55+08:00*%
%TF.ProjectId,MiniMix - Main,4d696e69-4d69-4782-902d-204d61696e2e,rev?*%
%TF.SameCoordinates,Original*%
%TF.FileFunction,Legend,Bot*%
%TF.FilePolarity,Positive*%
%FSLAX46Y46*%
G04 Gerber Fmt 4.6, Leading zero omitted, Abs format (unit mm)*
G04 Created by KiCad (PCBNEW 6.0.11+dfsg-1~bpo11+1) date 2023-04-14 14:38:55*
%MOMM*%
%LPD*%
G01*
G04 APERTURE LIST*
%ADD10C,0.300000*%
%ADD11C,0.150000*%
%ADD12C,0.120000*%
G04 APERTURE END LIST*
D10*
X193807142Y-139078571D02*
X193807142Y-137578571D01*
X193807142Y-138150000D02*
X193664285Y-138078571D01*
X193378571Y-138078571D01*
X193235714Y-138150000D01*
X193164285Y-138221428D01*
X193092857Y-138364285D01*
X193092857Y-138792857D01*
X193164285Y-138935714D01*
X193235714Y-139007142D01*
X193378571Y-139078571D01*
X193664285Y-139078571D01*
X193807142Y-139007142D01*
X192592857Y-138078571D02*
X192235714Y-139078571D01*
X191878571Y-138078571D02*
X192235714Y-139078571D01*
X192378571Y-139435714D01*
X192450000Y-139507142D01*
X192592857Y-139578571D01*
X190164285Y-139078571D02*
X190164285Y-137578571D01*
X190164285Y-138150000D02*
X190021428Y-138078571D01*
X189735714Y-138078571D01*
X189592857Y-138150000D01*
X189521428Y-138221428D01*
X189450000Y-138364285D01*
X189450000Y-138792857D01*
X189521428Y-138935714D01*
X189592857Y-139007142D01*
X189735714Y-139078571D01*
X190021428Y-139078571D01*
X190164285Y-139007142D01*
X188235714Y-139007142D02*
X188378571Y-139078571D01*
X188664285Y-139078571D01*
X188807142Y-139007142D01*
X188878571Y-138864285D01*
X188878571Y-138292857D01*
X188807142Y-138150000D01*
X188664285Y-138078571D01*
X188378571Y-138078571D01*
X188235714Y-138150000D01*
X188164285Y-138292857D01*
X188164285Y-138435714D01*
X188878571Y-138578571D01*
X187521428Y-138078571D02*
X187521428Y-139078571D01*
X187521428Y-138221428D02*
X187450000Y-138150000D01*
X187307142Y-138078571D01*
X187092857Y-138078571D01*
X186950000Y-138150000D01*
X186878571Y-138292857D01*
X186878571Y-139078571D01*
X186164285Y-138078571D02*
X186164285Y-139364285D01*
X186235714Y-139507142D01*
X186378571Y-139578571D01*
X186450000Y-139578571D01*
X186164285Y-137578571D02*
X186235714Y-137650000D01*
X186164285Y-137721428D01*
X186092857Y-137650000D01*
X186164285Y-137578571D01*
X186164285Y-137721428D01*
X185450000Y-139078571D02*
X185450000Y-138078571D01*
X185450000Y-137578571D02*
X185521428Y-137650000D01*
X185450000Y-137721428D01*
X185378571Y-137650000D01*
X185450000Y-137578571D01*
X185450000Y-137721428D01*
X184092857Y-139078571D02*
X184092857Y-138292857D01*
X184164285Y-138150000D01*
X184307142Y-138078571D01*
X184592857Y-138078571D01*
X184735714Y-138150000D01*
X184092857Y-139007142D02*
X184235714Y-139078571D01*
X184592857Y-139078571D01*
X184735714Y-139007142D01*
X184807142Y-138864285D01*
X184807142Y-138721428D01*
X184735714Y-138578571D01*
X184592857Y-138507142D01*
X184235714Y-138507142D01*
X184092857Y-138435714D01*
X183164285Y-139078571D02*
X183307142Y-139007142D01*
X183378571Y-138935714D01*
X183450000Y-138792857D01*
X183450000Y-138364285D01*
X183378571Y-138221428D01*
X183307142Y-138150000D01*
X183164285Y-138078571D01*
X182950000Y-138078571D01*
X182807142Y-138150000D01*
X182735714Y-138221428D01*
X182664285Y-138364285D01*
X182664285Y-138792857D01*
X182735714Y-138935714D01*
X182807142Y-139007142D01*
X182950000Y-139078571D01*
X183164285Y-139078571D01*
X182021428Y-139078571D02*
X182021428Y-138078571D01*
X182021428Y-138221428D02*
X181950000Y-138150000D01*
X181807142Y-138078571D01*
X181592857Y-138078571D01*
X181450000Y-138150000D01*
X181378571Y-138292857D01*
X181378571Y-139078571D01*
X181378571Y-138292857D02*
X181307142Y-138150000D01*
X181164285Y-138078571D01*
X180950000Y-138078571D01*
X180807142Y-138150000D01*
X180735714Y-138292857D01*
X180735714Y-139078571D01*
X179807142Y-139078571D02*
X179950000Y-139007142D01*
X180021428Y-138935714D01*
X180092857Y-138792857D01*
X180092857Y-138364285D01*
X180021428Y-138221428D01*
X179950000Y-138150000D01*
X179807142Y-138078571D01*
X179592857Y-138078571D01*
X179450000Y-138150000D01*
X179378571Y-138221428D01*
X179307142Y-138364285D01*
X179307142Y-138792857D01*
X179378571Y-138935714D01*
X179450000Y-139007142D01*
X179592857Y-139078571D01*
X179807142Y-139078571D01*
X178021428Y-139078571D02*
X178021428Y-137578571D01*
X178021428Y-139007142D02*
X178164285Y-139078571D01*
X178450000Y-139078571D01*
X178592857Y-139007142D01*
X178664285Y-138935714D01*
X178735714Y-138792857D01*
X178735714Y-138364285D01*
X178664285Y-138221428D01*
X178592857Y-138150000D01*
X178450000Y-138078571D01*
X178164285Y-138078571D01*
X178021428Y-138150000D01*
X176664285Y-138078571D02*
X176664285Y-139078571D01*
X177307142Y-138078571D02*
X177307142Y-138864285D01*
X177235714Y-139007142D01*
X177092857Y-139078571D01*
X176878571Y-139078571D01*
X176735714Y-139007142D01*
X176664285Y-138935714D01*
X175735714Y-139078571D02*
X175878571Y-139007142D01*
X175950000Y-138864285D01*
X175950000Y-137578571D01*
X174521428Y-139078571D02*
X174521428Y-138292857D01*
X174592857Y-138150000D01*
X174735714Y-138078571D01*
X175021428Y-138078571D01*
X175164285Y-138150000D01*
X174521428Y-139007142D02*
X174664285Y-139078571D01*
X175021428Y-139078571D01*
X175164285Y-139007142D01*
X175235714Y-138864285D01*
X175235714Y-138721428D01*
X175164285Y-138578571D01*
X175021428Y-138507142D01*
X174664285Y-138507142D01*
X174521428Y-138435714D01*
X173807142Y-139078571D02*
X173807142Y-138078571D01*
X173807142Y-138364285D02*
X173735714Y-138221428D01*
X173664285Y-138150000D01*
X173521428Y-138078571D01*
X173378571Y-138078571D01*
X193842857Y-137078571D02*
X193842857Y-135578571D01*
X193342857Y-136650000D01*
X192842857Y-135578571D01*
X192842857Y-137078571D01*
X192128571Y-137078571D02*
X192128571Y-136078571D01*
X192128571Y-135578571D02*
X192200000Y-135650000D01*
X192128571Y-135721428D01*
X192057142Y-135650000D01*
X192128571Y-135578571D01*
X192128571Y-135721428D01*
X191414285Y-136078571D02*
X191414285Y-137078571D01*
X191414285Y-136221428D02*
X191342857Y-136150000D01*
X191200000Y-136078571D01*
X190985714Y-136078571D01*
X190842857Y-136150000D01*
X190771428Y-136292857D01*
X190771428Y-137078571D01*
X190057142Y-137078571D02*
X190057142Y-136078571D01*
X190057142Y-135578571D02*
X190128571Y-135650000D01*
X190057142Y-135721428D01*
X189985714Y-135650000D01*
X190057142Y-135578571D01*
X190057142Y-135721428D01*
X189342857Y-137078571D02*
X189342857Y-135578571D01*
X188842857Y-136650000D01*
X188342857Y-135578571D01*
X188342857Y-137078571D01*
X187628571Y-137078571D02*
X187628571Y-136078571D01*
X187628571Y-135578571D02*
X187700000Y-135650000D01*
X187628571Y-135721428D01*
X187557142Y-135650000D01*
X187628571Y-135578571D01*
X187628571Y-135721428D01*
X187057142Y-137078571D02*
X186271428Y-136078571D01*
X187057142Y-136078571D02*
X186271428Y-137078571D01*
X184700000Y-136078571D02*
X184342857Y-137078571D01*
X183985714Y-136078571D01*
X182628571Y-137078571D02*
X183485714Y-137078571D01*
X183057142Y-137078571D02*
X183057142Y-135578571D01*
X183200000Y-135792857D01*
X183342857Y-135935714D01*
X183485714Y-136007142D01*
X181985714Y-136935714D02*
X181914285Y-137007142D01*
X181985714Y-137078571D01*
X182057142Y-137007142D01*
X181985714Y-136935714D01*
X181985714Y-137078571D01*
X180985714Y-135578571D02*
X180842857Y-135578571D01*
X180700000Y-135650000D01*
X180628571Y-135721428D01*
X180557142Y-135864285D01*
X180485714Y-136150000D01*
X180485714Y-136507142D01*
X180557142Y-136792857D01*
X180628571Y-136935714D01*
X180700000Y-137007142D01*
X180842857Y-137078571D01*
X180985714Y-137078571D01*
X181128571Y-137007142D01*
X181200000Y-136935714D01*
X181271428Y-136792857D01*
X181342857Y-136507142D01*
X181342857Y-136150000D01*
X181271428Y-135864285D01*
X181200000Y-135721428D01*
X181128571Y-135650000D01*
X180985714Y-135578571D01*
D11*
%TO.C,R12*%
X173952380Y-96057142D02*
X173476190Y-95723809D01*
X173952380Y-95485714D02*
X172952380Y-95485714D01*
X172952380Y-95866666D01*
X173000000Y-95961904D01*
X173047619Y-96009523D01*
X173142857Y-96057142D01*
X173285714Y-96057142D01*
X173380952Y-96009523D01*
X173428571Y-95961904D01*
X173476190Y-95866666D01*
X173476190Y-95485714D01*
X173952380Y-97009523D02*
X173952380Y-96438095D01*
X173952380Y-96723809D02*
X172952380Y-96723809D01*
X173095238Y-96628571D01*
X173190476Y-96533333D01*
X173238095Y-96438095D01*
X173047619Y-97390476D02*
X173000000Y-97438095D01*
X172952380Y-97533333D01*
X172952380Y-97771428D01*
X173000000Y-97866666D01*
X173047619Y-97914285D01*
X173142857Y-97961904D01*
X173238095Y-97961904D01*
X173380952Y-97914285D01*
X173952380Y-97342857D01*
X173952380Y-97961904D01*
%TO.C,R8*%
X172452380Y-96933333D02*
X171976190Y-96600000D01*
X172452380Y-96361904D02*
X171452380Y-96361904D01*
X171452380Y-96742857D01*
X171500000Y-96838095D01*
X171547619Y-96885714D01*
X171642857Y-96933333D01*
X171785714Y-96933333D01*
X171880952Y-96885714D01*
X171928571Y-96838095D01*
X171976190Y-96742857D01*
X171976190Y-96361904D01*
X171880952Y-97504761D02*
X171833333Y-97409523D01*
X171785714Y-97361904D01*
X171690476Y-97314285D01*
X171642857Y-97314285D01*
X171547619Y-97361904D01*
X171500000Y-97409523D01*
X171452380Y-97504761D01*
X171452380Y-97695238D01*
X171500000Y-97790476D01*
X171547619Y-97838095D01*
X171642857Y-97885714D01*
X171690476Y-97885714D01*
X171785714Y-97838095D01*
X171833333Y-97790476D01*
X171880952Y-97695238D01*
X171880952Y-97504761D01*
X171928571Y-97409523D01*
X171976190Y-97361904D01*
X172071428Y-97314285D01*
X172261904Y-97314285D01*
X172357142Y-97361904D01*
X172404761Y-97409523D01*
X172452380Y-97504761D01*
X172452380Y-97695238D01*
X172404761Y-97790476D01*
X172357142Y-97838095D01*
X172261904Y-97885714D01*
X172071428Y-97885714D01*
X171976190Y-97838095D01*
X171928571Y-97790476D01*
X171880952Y-97695238D01*
%TO.C,C12*%
X166742857Y-103757142D02*
X166790476Y-103804761D01*
X166933333Y-103852380D01*
X167028571Y-103852380D01*
X167171428Y-103804761D01*
X167266666Y-103709523D01*
X167314285Y-103614285D01*
X167361904Y-103423809D01*
X167361904Y-103280952D01*
X167314285Y-103090476D01*
X167266666Y-102995238D01*
X167171428Y-102900000D01*
X167028571Y-102852380D01*
X166933333Y-102852380D01*
X166790476Y-102900000D01*
X166742857Y-102947619D01*
X165790476Y-103852380D02*
X166361904Y-103852380D01*
X166076190Y-103852380D02*
X166076190Y-102852380D01*
X166171428Y-102995238D01*
X166266666Y-103090476D01*
X166361904Y-103138095D01*
X165409523Y-102947619D02*
X165361904Y-102900000D01*
X165266666Y-102852380D01*
X165028571Y-102852380D01*
X164933333Y-102900000D01*
X164885714Y-102947619D01*
X164838095Y-103042857D01*
X164838095Y-103138095D01*
X164885714Y-103280952D01*
X165457142Y-103852380D01*
X164838095Y-103852380D01*
%TO.C,C5*%
X167466666Y-88657142D02*
X167514285Y-88704761D01*
X167657142Y-88752380D01*
X167752380Y-88752380D01*
X167895238Y-88704761D01*
X167990476Y-88609523D01*
X168038095Y-88514285D01*
X168085714Y-88323809D01*
X168085714Y-88180952D01*
X168038095Y-87990476D01*
X167990476Y-87895238D01*
X167895238Y-87800000D01*
X167752380Y-87752380D01*
X167657142Y-87752380D01*
X167514285Y-87800000D01*
X167466666Y-87847619D01*
X166561904Y-87752380D02*
X167038095Y-87752380D01*
X167085714Y-88228571D01*
X167038095Y-88180952D01*
X166942857Y-88133333D01*
X166704761Y-88133333D01*
X166609523Y-88180952D01*
X166561904Y-88228571D01*
X166514285Y-88323809D01*
X166514285Y-88561904D01*
X166561904Y-88657142D01*
X166609523Y-88704761D01*
X166704761Y-88752380D01*
X166942857Y-88752380D01*
X167038095Y-88704761D01*
X167085714Y-88657142D01*
%TO.C,R22*%
X165552380Y-110257142D02*
X165076190Y-109923809D01*
X165552380Y-109685714D02*
X164552380Y-109685714D01*
X164552380Y-110066666D01*
X164600000Y-110161904D01*
X164647619Y-110209523D01*
X164742857Y-110257142D01*
X164885714Y-110257142D01*
X164980952Y-110209523D01*
X165028571Y-110161904D01*
X165076190Y-110066666D01*
X165076190Y-109685714D01*
X164647619Y-110638095D02*
X164600000Y-110685714D01*
X164552380Y-110780952D01*
X164552380Y-111019047D01*
X164600000Y-111114285D01*
X164647619Y-111161904D01*
X164742857Y-111209523D01*
X164838095Y-111209523D01*
X164980952Y-111161904D01*
X165552380Y-110590476D01*
X165552380Y-111209523D01*
X164647619Y-111590476D02*
X164600000Y-111638095D01*
X164552380Y-111733333D01*
X164552380Y-111971428D01*
X164600000Y-112066666D01*
X164647619Y-112114285D01*
X164742857Y-112161904D01*
X164838095Y-112161904D01*
X164980952Y-112114285D01*
X165552380Y-111542857D01*
X165552380Y-112161904D01*
%TO.C,R3*%
X151166666Y-88952380D02*
X151500000Y-88476190D01*
X151738095Y-88952380D02*
X151738095Y-87952380D01*
X151357142Y-87952380D01*
X151261904Y-88000000D01*
X151214285Y-88047619D01*
X151166666Y-88142857D01*
X151166666Y-88285714D01*
X151214285Y-88380952D01*
X151261904Y-88428571D01*
X151357142Y-88476190D01*
X151738095Y-88476190D01*
X150833333Y-87952380D02*
X150214285Y-87952380D01*
X150547619Y-88333333D01*
X150404761Y-88333333D01*
X150309523Y-88380952D01*
X150261904Y-88428571D01*
X150214285Y-88523809D01*
X150214285Y-88761904D01*
X150261904Y-88857142D01*
X150309523Y-88904761D01*
X150404761Y-88952380D01*
X150690476Y-88952380D01*
X150785714Y-88904761D01*
X150833333Y-88857142D01*
%TO.C,R9*%
X169352380Y-96933333D02*
X168876190Y-96600000D01*
X169352380Y-96361904D02*
X168352380Y-96361904D01*
X168352380Y-96742857D01*
X168400000Y-96838095D01*
X168447619Y-96885714D01*
X168542857Y-96933333D01*
X168685714Y-96933333D01*
X168780952Y-96885714D01*
X168828571Y-96838095D01*
X168876190Y-96742857D01*
X168876190Y-96361904D01*
X169352380Y-97409523D02*
X169352380Y-97600000D01*
X169304761Y-97695238D01*
X169257142Y-97742857D01*
X169114285Y-97838095D01*
X168923809Y-97885714D01*
X168542857Y-97885714D01*
X168447619Y-97838095D01*
X168400000Y-97790476D01*
X168352380Y-97695238D01*
X168352380Y-97504761D01*
X168400000Y-97409523D01*
X168447619Y-97361904D01*
X168542857Y-97314285D01*
X168780952Y-97314285D01*
X168876190Y-97361904D01*
X168923809Y-97409523D01*
X168971428Y-97504761D01*
X168971428Y-97695238D01*
X168923809Y-97790476D01*
X168876190Y-97838095D01*
X168780952Y-97885714D01*
%TO.C,R20*%
X177652380Y-102057142D02*
X177176190Y-101723809D01*
X177652380Y-101485714D02*
X176652380Y-101485714D01*
X176652380Y-101866666D01*
X176700000Y-101961904D01*
X176747619Y-102009523D01*
X176842857Y-102057142D01*
X176985714Y-102057142D01*
X177080952Y-102009523D01*
X177128571Y-101961904D01*
X177176190Y-101866666D01*
X177176190Y-101485714D01*
X176747619Y-102438095D02*
X176700000Y-102485714D01*
X176652380Y-102580952D01*
X176652380Y-102819047D01*
X176700000Y-102914285D01*
X176747619Y-102961904D01*
X176842857Y-103009523D01*
X176938095Y-103009523D01*
X177080952Y-102961904D01*
X177652380Y-102390476D01*
X177652380Y-103009523D01*
X176652380Y-103628571D02*
X176652380Y-103723809D01*
X176700000Y-103819047D01*
X176747619Y-103866666D01*
X176842857Y-103914285D01*
X177033333Y-103961904D01*
X177271428Y-103961904D01*
X177461904Y-103914285D01*
X177557142Y-103866666D01*
X177604761Y-103819047D01*
X177652380Y-103723809D01*
X177652380Y-103628571D01*
X177604761Y-103533333D01*
X177557142Y-103485714D01*
X177461904Y-103438095D01*
X177271428Y-103390476D01*
X177033333Y-103390476D01*
X176842857Y-103438095D01*
X176747619Y-103485714D01*
X176700000Y-103533333D01*
X176652380Y-103628571D01*
%TO.C,R7*%
X170952380Y-96933333D02*
X170476190Y-96600000D01*
X170952380Y-96361904D02*
X169952380Y-96361904D01*
X169952380Y-96742857D01*
X170000000Y-96838095D01*
X170047619Y-96885714D01*
X170142857Y-96933333D01*
X170285714Y-96933333D01*
X170380952Y-96885714D01*
X170428571Y-96838095D01*
X170476190Y-96742857D01*
X170476190Y-96361904D01*
X169952380Y-97266666D02*
X169952380Y-97933333D01*
X170952380Y-97504761D01*
%TO.C,C11*%
X175987142Y-110657142D02*
X176034761Y-110609523D01*
X176082380Y-110466666D01*
X176082380Y-110371428D01*
X176034761Y-110228571D01*
X175939523Y-110133333D01*
X175844285Y-110085714D01*
X175653809Y-110038095D01*
X175510952Y-110038095D01*
X175320476Y-110085714D01*
X175225238Y-110133333D01*
X175130000Y-110228571D01*
X175082380Y-110371428D01*
X175082380Y-110466666D01*
X175130000Y-110609523D01*
X175177619Y-110657142D01*
X176082380Y-111609523D02*
X176082380Y-111038095D01*
X176082380Y-111323809D02*
X175082380Y-111323809D01*
X175225238Y-111228571D01*
X175320476Y-111133333D01*
X175368095Y-111038095D01*
X176082380Y-112561904D02*
X176082380Y-111990476D01*
X176082380Y-112276190D02*
X175082380Y-112276190D01*
X175225238Y-112180952D01*
X175320476Y-112085714D01*
X175368095Y-111990476D01*
%TO.C,R11*%
X192342857Y-92652380D02*
X192676190Y-92176190D01*
X192914285Y-92652380D02*
X192914285Y-91652380D01*
X192533333Y-91652380D01*
X192438095Y-91700000D01*
X192390476Y-91747619D01*
X192342857Y-91842857D01*
X192342857Y-91985714D01*
X192390476Y-92080952D01*
X192438095Y-92128571D01*
X192533333Y-92176190D01*
X192914285Y-92176190D01*
X191390476Y-92652380D02*
X191961904Y-92652380D01*
X191676190Y-92652380D02*
X191676190Y-91652380D01*
X191771428Y-91795238D01*
X191866666Y-91890476D01*
X191961904Y-91938095D01*
X190438095Y-92652380D02*
X191009523Y-92652380D01*
X190723809Y-92652380D02*
X190723809Y-91652380D01*
X190819047Y-91795238D01*
X190914285Y-91890476D01*
X191009523Y-91938095D01*
%TO.C,C6*%
X175166666Y-90057142D02*
X175214285Y-90104761D01*
X175357142Y-90152380D01*
X175452380Y-90152380D01*
X175595238Y-90104761D01*
X175690476Y-90009523D01*
X175738095Y-89914285D01*
X175785714Y-89723809D01*
X175785714Y-89580952D01*
X175738095Y-89390476D01*
X175690476Y-89295238D01*
X175595238Y-89200000D01*
X175452380Y-89152380D01*
X175357142Y-89152380D01*
X175214285Y-89200000D01*
X175166666Y-89247619D01*
X174309523Y-89152380D02*
X174500000Y-89152380D01*
X174595238Y-89200000D01*
X174642857Y-89247619D01*
X174738095Y-89390476D01*
X174785714Y-89580952D01*
X174785714Y-89961904D01*
X174738095Y-90057142D01*
X174690476Y-90104761D01*
X174595238Y-90152380D01*
X174404761Y-90152380D01*
X174309523Y-90104761D01*
X174261904Y-90057142D01*
X174214285Y-89961904D01*
X174214285Y-89723809D01*
X174261904Y-89628571D01*
X174309523Y-89580952D01*
X174404761Y-89533333D01*
X174595238Y-89533333D01*
X174690476Y-89580952D01*
X174738095Y-89628571D01*
X174785714Y-89723809D01*
%TO.C,C4*%
X159457142Y-146283333D02*
X159504761Y-146235714D01*
X159552380Y-146092857D01*
X159552380Y-145997619D01*
X159504761Y-145854761D01*
X159409523Y-145759523D01*
X159314285Y-145711904D01*
X159123809Y-145664285D01*
X158980952Y-145664285D01*
X158790476Y-145711904D01*
X158695238Y-145759523D01*
X158600000Y-145854761D01*
X158552380Y-145997619D01*
X158552380Y-146092857D01*
X158600000Y-146235714D01*
X158647619Y-146283333D01*
X158885714Y-147140476D02*
X159552380Y-147140476D01*
X158504761Y-146902380D02*
X159219047Y-146664285D01*
X159219047Y-147283333D01*
%TO.C,U2*%
X183811904Y-93502380D02*
X183811904Y-94311904D01*
X183764285Y-94407142D01*
X183716666Y-94454761D01*
X183621428Y-94502380D01*
X183430952Y-94502380D01*
X183335714Y-94454761D01*
X183288095Y-94407142D01*
X183240476Y-94311904D01*
X183240476Y-93502380D01*
X182811904Y-93597619D02*
X182764285Y-93550000D01*
X182669047Y-93502380D01*
X182430952Y-93502380D01*
X182335714Y-93550000D01*
X182288095Y-93597619D01*
X182240476Y-93692857D01*
X182240476Y-93788095D01*
X182288095Y-93930952D01*
X182859523Y-94502380D01*
X182240476Y-94502380D01*
%TO.C,C9*%
X181887142Y-86033333D02*
X181934761Y-85985714D01*
X181982380Y-85842857D01*
X181982380Y-85747619D01*
X181934761Y-85604761D01*
X181839523Y-85509523D01*
X181744285Y-85461904D01*
X181553809Y-85414285D01*
X181410952Y-85414285D01*
X181220476Y-85461904D01*
X181125238Y-85509523D01*
X181030000Y-85604761D01*
X180982380Y-85747619D01*
X180982380Y-85842857D01*
X181030000Y-85985714D01*
X181077619Y-86033333D01*
X181982380Y-86509523D02*
X181982380Y-86700000D01*
X181934761Y-86795238D01*
X181887142Y-86842857D01*
X181744285Y-86938095D01*
X181553809Y-86985714D01*
X181172857Y-86985714D01*
X181077619Y-86938095D01*
X181030000Y-86890476D01*
X180982380Y-86795238D01*
X180982380Y-86604761D01*
X181030000Y-86509523D01*
X181077619Y-86461904D01*
X181172857Y-86414285D01*
X181410952Y-86414285D01*
X181506190Y-86461904D01*
X181553809Y-86509523D01*
X181601428Y-86604761D01*
X181601428Y-86795238D01*
X181553809Y-86890476D01*
X181506190Y-86938095D01*
X181410952Y-86985714D01*
%TO.C,C2*%
X157887142Y-85883333D02*
X157934761Y-85835714D01*
X157982380Y-85692857D01*
X157982380Y-85597619D01*
X157934761Y-85454761D01*
X157839523Y-85359523D01*
X157744285Y-85311904D01*
X157553809Y-85264285D01*
X157410952Y-85264285D01*
X157220476Y-85311904D01*
X157125238Y-85359523D01*
X157030000Y-85454761D01*
X156982380Y-85597619D01*
X156982380Y-85692857D01*
X157030000Y-85835714D01*
X157077619Y-85883333D01*
X157077619Y-86264285D02*
X157030000Y-86311904D01*
X156982380Y-86407142D01*
X156982380Y-86645238D01*
X157030000Y-86740476D01*
X157077619Y-86788095D01*
X157172857Y-86835714D01*
X157268095Y-86835714D01*
X157410952Y-86788095D01*
X157982380Y-86216666D01*
X157982380Y-86835714D01*
%TO.C,C3*%
X159457142Y-138383333D02*
X159504761Y-138335714D01*
X159552380Y-138192857D01*
X159552380Y-138097619D01*
X159504761Y-137954761D01*
X159409523Y-137859523D01*
X159314285Y-137811904D01*
X159123809Y-137764285D01*
X158980952Y-137764285D01*
X158790476Y-137811904D01*
X158695238Y-137859523D01*
X158600000Y-137954761D01*
X158552380Y-138097619D01*
X158552380Y-138192857D01*
X158600000Y-138335714D01*
X158647619Y-138383333D01*
X158552380Y-138716666D02*
X158552380Y-139335714D01*
X158933333Y-139002380D01*
X158933333Y-139145238D01*
X158980952Y-139240476D01*
X159028571Y-139288095D01*
X159123809Y-139335714D01*
X159361904Y-139335714D01*
X159457142Y-139288095D01*
X159504761Y-139240476D01*
X159552380Y-139145238D01*
X159552380Y-138859523D01*
X159504761Y-138764285D01*
X159457142Y-138716666D01*
%TO.C,R1*%
X167366666Y-87152380D02*
X167700000Y-86676190D01*
X167938095Y-87152380D02*
X167938095Y-86152380D01*
X167557142Y-86152380D01*
X167461904Y-86200000D01*
X167414285Y-86247619D01*
X167366666Y-86342857D01*
X167366666Y-86485714D01*
X167414285Y-86580952D01*
X167461904Y-86628571D01*
X167557142Y-86676190D01*
X167938095Y-86676190D01*
X166414285Y-87152380D02*
X166985714Y-87152380D01*
X166700000Y-87152380D02*
X166700000Y-86152380D01*
X166795238Y-86295238D01*
X166890476Y-86390476D01*
X166985714Y-86438095D01*
%TO.C,R5*%
X175166666Y-91752380D02*
X175500000Y-91276190D01*
X175738095Y-91752380D02*
X175738095Y-90752380D01*
X175357142Y-90752380D01*
X175261904Y-90800000D01*
X175214285Y-90847619D01*
X175166666Y-90942857D01*
X175166666Y-91085714D01*
X175214285Y-91180952D01*
X175261904Y-91228571D01*
X175357142Y-91276190D01*
X175738095Y-91276190D01*
X174261904Y-90752380D02*
X174738095Y-90752380D01*
X174785714Y-91228571D01*
X174738095Y-91180952D01*
X174642857Y-91133333D01*
X174404761Y-91133333D01*
X174309523Y-91180952D01*
X174261904Y-91228571D01*
X174214285Y-91323809D01*
X174214285Y-91561904D01*
X174261904Y-91657142D01*
X174309523Y-91704761D01*
X174404761Y-91752380D01*
X174642857Y-91752380D01*
X174738095Y-91704761D01*
X174785714Y-91657142D01*
%TO.C,R16*%
X176152380Y-102157142D02*
X175676190Y-101823809D01*
X176152380Y-101585714D02*
X175152380Y-101585714D01*
X175152380Y-101966666D01*
X175200000Y-102061904D01*
X175247619Y-102109523D01*
X175342857Y-102157142D01*
X175485714Y-102157142D01*
X175580952Y-102109523D01*
X175628571Y-102061904D01*
X175676190Y-101966666D01*
X175676190Y-101585714D01*
X176152380Y-103109523D02*
X176152380Y-102538095D01*
X176152380Y-102823809D02*
X175152380Y-102823809D01*
X175295238Y-102728571D01*
X175390476Y-102633333D01*
X175438095Y-102538095D01*
X175152380Y-103966666D02*
X175152380Y-103776190D01*
X175200000Y-103680952D01*
X175247619Y-103633333D01*
X175390476Y-103538095D01*
X175580952Y-103490476D01*
X175961904Y-103490476D01*
X176057142Y-103538095D01*
X176104761Y-103585714D01*
X176152380Y-103680952D01*
X176152380Y-103871428D01*
X176104761Y-103966666D01*
X176057142Y-104014285D01*
X175961904Y-104061904D01*
X175723809Y-104061904D01*
X175628571Y-104014285D01*
X175580952Y-103966666D01*
X175533333Y-103871428D01*
X175533333Y-103680952D01*
X175580952Y-103585714D01*
X175628571Y-103538095D01*
X175723809Y-103490476D01*
%TO.C,J6*%
X157852380Y-154666666D02*
X158566666Y-154666666D01*
X158709523Y-154619047D01*
X158804761Y-154523809D01*
X158852380Y-154380952D01*
X158852380Y-154285714D01*
X157852380Y-155571428D02*
X157852380Y-155380952D01*
X157900000Y-155285714D01*
X157947619Y-155238095D01*
X158090476Y-155142857D01*
X158280952Y-155095238D01*
X158661904Y-155095238D01*
X158757142Y-155142857D01*
X158804761Y-155190476D01*
X158852380Y-155285714D01*
X158852380Y-155476190D01*
X158804761Y-155571428D01*
X158757142Y-155619047D01*
X158661904Y-155666666D01*
X158423809Y-155666666D01*
X158328571Y-155619047D01*
X158280952Y-155571428D01*
X158233333Y-155476190D01*
X158233333Y-155285714D01*
X158280952Y-155190476D01*
X158328571Y-155142857D01*
X158423809Y-155095238D01*
%TO.C,U1*%
X159811904Y-93352380D02*
X159811904Y-94161904D01*
X159764285Y-94257142D01*
X159716666Y-94304761D01*
X159621428Y-94352380D01*
X159430952Y-94352380D01*
X159335714Y-94304761D01*
X159288095Y-94257142D01*
X159240476Y-94161904D01*
X159240476Y-93352380D01*
X158240476Y-94352380D02*
X158811904Y-94352380D01*
X158526190Y-94352380D02*
X158526190Y-93352380D01*
X158621428Y-93495238D01*
X158716666Y-93590476D01*
X158811904Y-93638095D01*
%TO.C,U3*%
X171961904Y-109702380D02*
X171961904Y-110511904D01*
X171914285Y-110607142D01*
X171866666Y-110654761D01*
X171771428Y-110702380D01*
X171580952Y-110702380D01*
X171485714Y-110654761D01*
X171438095Y-110607142D01*
X171390476Y-110511904D01*
X171390476Y-109702380D01*
X171009523Y-109702380D02*
X170390476Y-109702380D01*
X170723809Y-110083333D01*
X170580952Y-110083333D01*
X170485714Y-110130952D01*
X170438095Y-110178571D01*
X170390476Y-110273809D01*
X170390476Y-110511904D01*
X170438095Y-110607142D01*
X170485714Y-110654761D01*
X170580952Y-110702380D01*
X170866666Y-110702380D01*
X170961904Y-110654761D01*
X171009523Y-110607142D01*
%TO.C,C10*%
X192342857Y-91007142D02*
X192390476Y-91054761D01*
X192533333Y-91102380D01*
X192628571Y-91102380D01*
X192771428Y-91054761D01*
X192866666Y-90959523D01*
X192914285Y-90864285D01*
X192961904Y-90673809D01*
X192961904Y-90530952D01*
X192914285Y-90340476D01*
X192866666Y-90245238D01*
X192771428Y-90150000D01*
X192628571Y-90102380D01*
X192533333Y-90102380D01*
X192390476Y-90150000D01*
X192342857Y-90197619D01*
X191390476Y-91102380D02*
X191961904Y-91102380D01*
X191676190Y-91102380D02*
X191676190Y-90102380D01*
X191771428Y-90245238D01*
X191866666Y-90340476D01*
X191961904Y-90388095D01*
X190771428Y-90102380D02*
X190676190Y-90102380D01*
X190580952Y-90150000D01*
X190533333Y-90197619D01*
X190485714Y-90292857D01*
X190438095Y-90483333D01*
X190438095Y-90721428D01*
X190485714Y-90911904D01*
X190533333Y-91007142D01*
X190580952Y-91054761D01*
X190676190Y-91102380D01*
X190771428Y-91102380D01*
X190866666Y-91054761D01*
X190914285Y-91007142D01*
X190961904Y-90911904D01*
X191009523Y-90721428D01*
X191009523Y-90483333D01*
X190961904Y-90292857D01*
X190914285Y-90197619D01*
X190866666Y-90150000D01*
X190771428Y-90102380D01*
%TO.C,R4*%
X167366666Y-90252380D02*
X167700000Y-89776190D01*
X167938095Y-90252380D02*
X167938095Y-89252380D01*
X167557142Y-89252380D01*
X167461904Y-89300000D01*
X167414285Y-89347619D01*
X167366666Y-89442857D01*
X167366666Y-89585714D01*
X167414285Y-89680952D01*
X167461904Y-89728571D01*
X167557142Y-89776190D01*
X167938095Y-89776190D01*
X166509523Y-89585714D02*
X166509523Y-90252380D01*
X166747619Y-89204761D02*
X166985714Y-89919047D01*
X166366666Y-89919047D01*
%TO.C,C1*%
X163787142Y-94783333D02*
X163834761Y-94735714D01*
X163882380Y-94592857D01*
X163882380Y-94497619D01*
X163834761Y-94354761D01*
X163739523Y-94259523D01*
X163644285Y-94211904D01*
X163453809Y-94164285D01*
X163310952Y-94164285D01*
X163120476Y-94211904D01*
X163025238Y-94259523D01*
X162930000Y-94354761D01*
X162882380Y-94497619D01*
X162882380Y-94592857D01*
X162930000Y-94735714D01*
X162977619Y-94783333D01*
X163882380Y-95735714D02*
X163882380Y-95164285D01*
X163882380Y-95450000D02*
X162882380Y-95450000D01*
X163025238Y-95354761D01*
X163120476Y-95259523D01*
X163168095Y-95164285D01*
%TO.C,R10*%
X192322857Y-89592380D02*
X192656190Y-89116190D01*
X192894285Y-89592380D02*
X192894285Y-88592380D01*
X192513333Y-88592380D01*
X192418095Y-88640000D01*
X192370476Y-88687619D01*
X192322857Y-88782857D01*
X192322857Y-88925714D01*
X192370476Y-89020952D01*
X192418095Y-89068571D01*
X192513333Y-89116190D01*
X192894285Y-89116190D01*
X191370476Y-89592380D02*
X191941904Y-89592380D01*
X191656190Y-89592380D02*
X191656190Y-88592380D01*
X191751428Y-88735238D01*
X191846666Y-88830476D01*
X191941904Y-88878095D01*
X190751428Y-88592380D02*
X190656190Y-88592380D01*
X190560952Y-88640000D01*
X190513333Y-88687619D01*
X190465714Y-88782857D01*
X190418095Y-88973333D01*
X190418095Y-89211428D01*
X190465714Y-89401904D01*
X190513333Y-89497142D01*
X190560952Y-89544761D01*
X190656190Y-89592380D01*
X190751428Y-89592380D01*
X190846666Y-89544761D01*
X190894285Y-89497142D01*
X190941904Y-89401904D01*
X190989523Y-89211428D01*
X190989523Y-88973333D01*
X190941904Y-88782857D01*
X190894285Y-88687619D01*
X190846666Y-88640000D01*
X190751428Y-88592380D01*
%TO.C,R2*%
X175166666Y-88652380D02*
X175500000Y-88176190D01*
X175738095Y-88652380D02*
X175738095Y-87652380D01*
X175357142Y-87652380D01*
X175261904Y-87700000D01*
X175214285Y-87747619D01*
X175166666Y-87842857D01*
X175166666Y-87985714D01*
X175214285Y-88080952D01*
X175261904Y-88128571D01*
X175357142Y-88176190D01*
X175738095Y-88176190D01*
X174785714Y-87747619D02*
X174738095Y-87700000D01*
X174642857Y-87652380D01*
X174404761Y-87652380D01*
X174309523Y-87700000D01*
X174261904Y-87747619D01*
X174214285Y-87842857D01*
X174214285Y-87938095D01*
X174261904Y-88080952D01*
X174833333Y-88652380D01*
X174214285Y-88652380D01*
%TO.C,C7*%
X151166666Y-90357142D02*
X151214285Y-90404761D01*
X151357142Y-90452380D01*
X151452380Y-90452380D01*
X151595238Y-90404761D01*
X151690476Y-90309523D01*
X151738095Y-90214285D01*
X151785714Y-90023809D01*
X151785714Y-89880952D01*
X151738095Y-89690476D01*
X151690476Y-89595238D01*
X151595238Y-89500000D01*
X151452380Y-89452380D01*
X151357142Y-89452380D01*
X151214285Y-89500000D01*
X151166666Y-89547619D01*
X150833333Y-89452380D02*
X150166666Y-89452380D01*
X150595238Y-90452380D01*
%TO.C,R21*%
X167052380Y-110257142D02*
X166576190Y-109923809D01*
X167052380Y-109685714D02*
X166052380Y-109685714D01*
X166052380Y-110066666D01*
X166100000Y-110161904D01*
X166147619Y-110209523D01*
X166242857Y-110257142D01*
X166385714Y-110257142D01*
X166480952Y-110209523D01*
X166528571Y-110161904D01*
X166576190Y-110066666D01*
X166576190Y-109685714D01*
X166147619Y-110638095D02*
X166100000Y-110685714D01*
X166052380Y-110780952D01*
X166052380Y-111019047D01*
X166100000Y-111114285D01*
X166147619Y-111161904D01*
X166242857Y-111209523D01*
X166338095Y-111209523D01*
X166480952Y-111161904D01*
X167052380Y-110590476D01*
X167052380Y-111209523D01*
X167052380Y-112161904D02*
X167052380Y-111590476D01*
X167052380Y-111876190D02*
X166052380Y-111876190D01*
X166195238Y-111780952D01*
X166290476Y-111685714D01*
X166338095Y-111590476D01*
%TO.C,C8*%
X187837142Y-94933333D02*
X187884761Y-94885714D01*
X187932380Y-94742857D01*
X187932380Y-94647619D01*
X187884761Y-94504761D01*
X187789523Y-94409523D01*
X187694285Y-94361904D01*
X187503809Y-94314285D01*
X187360952Y-94314285D01*
X187170476Y-94361904D01*
X187075238Y-94409523D01*
X186980000Y-94504761D01*
X186932380Y-94647619D01*
X186932380Y-94742857D01*
X186980000Y-94885714D01*
X187027619Y-94933333D01*
X187360952Y-95504761D02*
X187313333Y-95409523D01*
X187265714Y-95361904D01*
X187170476Y-95314285D01*
X187122857Y-95314285D01*
X187027619Y-95361904D01*
X186980000Y-95409523D01*
X186932380Y-95504761D01*
X186932380Y-95695238D01*
X186980000Y-95790476D01*
X187027619Y-95838095D01*
X187122857Y-95885714D01*
X187170476Y-95885714D01*
X187265714Y-95838095D01*
X187313333Y-95790476D01*
X187360952Y-95695238D01*
X187360952Y-95504761D01*
X187408571Y-95409523D01*
X187456190Y-95361904D01*
X187551428Y-95314285D01*
X187741904Y-95314285D01*
X187837142Y-95361904D01*
X187884761Y-95409523D01*
X187932380Y-95504761D01*
X187932380Y-95695238D01*
X187884761Y-95790476D01*
X187837142Y-95838095D01*
X187741904Y-95885714D01*
X187551428Y-95885714D01*
X187456190Y-95838095D01*
X187408571Y-95790476D01*
X187360952Y-95695238D01*
%TO.C,R6*%
X151166666Y-91952380D02*
X151500000Y-91476190D01*
X151738095Y-91952380D02*
X151738095Y-90952380D01*
X151357142Y-90952380D01*
X151261904Y-91000000D01*
X151214285Y-91047619D01*
X151166666Y-91142857D01*
X151166666Y-91285714D01*
X151214285Y-91380952D01*
X151261904Y-91428571D01*
X151357142Y-91476190D01*
X151738095Y-91476190D01*
X150309523Y-90952380D02*
X150500000Y-90952380D01*
X150595238Y-91000000D01*
X150642857Y-91047619D01*
X150738095Y-91190476D01*
X150785714Y-91380952D01*
X150785714Y-91761904D01*
X150738095Y-91857142D01*
X150690476Y-91904761D01*
X150595238Y-91952380D01*
X150404761Y-91952380D01*
X150309523Y-91904761D01*
X150261904Y-91857142D01*
X150214285Y-91761904D01*
X150214285Y-91523809D01*
X150261904Y-91428571D01*
X150309523Y-91380952D01*
X150404761Y-91333333D01*
X150595238Y-91333333D01*
X150690476Y-91380952D01*
X150738095Y-91428571D01*
X150785714Y-91523809D01*
D12*
%TO.C,R12*%
X174072500Y-100004724D02*
X174072500Y-99495276D01*
X173027500Y-100004724D02*
X173027500Y-99495276D01*
%TO.C,R8*%
X172522500Y-100004724D02*
X172522500Y-99495276D01*
X171477500Y-100004724D02*
X171477500Y-99495276D01*
%TO.C,C12*%
X169003733Y-103860000D02*
X169296267Y-103860000D01*
X169003733Y-102840000D02*
X169296267Y-102840000D01*
%TO.C,C5*%
X164416233Y-87740000D02*
X164708767Y-87740000D01*
X164416233Y-88760000D02*
X164708767Y-88760000D01*
%TO.C,R22*%
X164577500Y-108154724D02*
X164577500Y-107645276D01*
X165622500Y-108154724D02*
X165622500Y-107645276D01*
%TO.C,R3*%
X153345276Y-89022500D02*
X153854724Y-89022500D01*
X153345276Y-87977500D02*
X153854724Y-87977500D01*
%TO.C,R9*%
X169422500Y-100004724D02*
X169422500Y-99495276D01*
X168377500Y-100004724D02*
X168377500Y-99495276D01*
%TO.C,R20*%
X177772500Y-106054724D02*
X177772500Y-105545276D01*
X176727500Y-106054724D02*
X176727500Y-105545276D01*
%TO.C,R7*%
X170972500Y-100004724D02*
X170972500Y-99495276D01*
X169927500Y-100004724D02*
X169927500Y-99495276D01*
%TO.C,C11*%
X173690000Y-111446267D02*
X173690000Y-111153733D01*
X174710000Y-111446267D02*
X174710000Y-111153733D01*
%TO.C,R11*%
X188854724Y-91677500D02*
X188345276Y-91677500D01*
X188854724Y-92722500D02*
X188345276Y-92722500D01*
%TO.C,C6*%
X177746267Y-89190000D02*
X177453733Y-89190000D01*
X177746267Y-90210000D02*
X177453733Y-90210000D01*
%TO.C,C4*%
X158365000Y-149188748D02*
X158365000Y-149711252D01*
X159835000Y-149188748D02*
X159835000Y-149711252D01*
%TO.C,U2*%
X183050000Y-93210000D02*
X185000000Y-93210000D01*
X183050000Y-93210000D02*
X179600000Y-93210000D01*
X183050000Y-88090000D02*
X185000000Y-88090000D01*
X183050000Y-88090000D02*
X181100000Y-88090000D01*
%TO.C,C9*%
X180610000Y-86346267D02*
X180610000Y-86053733D01*
X179590000Y-86346267D02*
X179590000Y-86053733D01*
%TO.C,C2*%
X155590000Y-86196267D02*
X155590000Y-85903733D01*
X156610000Y-86196267D02*
X156610000Y-85903733D01*
%TO.C,C3*%
X159835000Y-141138748D02*
X159835000Y-141661252D01*
X158365000Y-141138748D02*
X158365000Y-141661252D01*
%TO.C,R1*%
X164817224Y-86177500D02*
X164307776Y-86177500D01*
X164817224Y-87222500D02*
X164307776Y-87222500D01*
%TO.C,R5*%
X177345276Y-90727500D02*
X177854724Y-90727500D01*
X177345276Y-91772500D02*
X177854724Y-91772500D01*
%TO.C,R16*%
X176222500Y-106054724D02*
X176222500Y-105545276D01*
X175177500Y-106054724D02*
X175177500Y-105545276D01*
%TO.C,J6*%
X147120000Y-151000000D02*
X147120000Y-150000000D01*
X149820000Y-143370000D02*
X148510000Y-143370000D01*
X149820000Y-147470000D02*
X149820000Y-154410000D01*
X149820000Y-143370000D02*
X149820000Y-143370000D01*
X148510000Y-147470000D02*
X149820000Y-147470000D01*
X148120000Y-150500000D02*
X147120000Y-151000000D01*
X148510000Y-155710000D02*
X157630000Y-155710000D01*
X156320000Y-154410000D02*
X156320000Y-136430000D01*
X157630000Y-155710000D02*
X157630000Y-135130000D01*
X156320000Y-136430000D02*
X149820000Y-136430000D01*
X157630000Y-135130000D02*
X148510000Y-135130000D01*
X149820000Y-136430000D02*
X149820000Y-143370000D01*
X147120000Y-150000000D02*
X148120000Y-150500000D01*
X148510000Y-135130000D02*
X148510000Y-155710000D01*
X149820000Y-154410000D02*
X156320000Y-154410000D01*
%TO.C,U1*%
X159050000Y-87940000D02*
X161000000Y-87940000D01*
X159050000Y-93060000D02*
X155600000Y-93060000D01*
X159050000Y-87940000D02*
X157100000Y-87940000D01*
X159050000Y-93060000D02*
X161000000Y-93060000D01*
%TO.C,U3*%
X171200000Y-104290000D02*
X173150000Y-104290000D01*
X171200000Y-109410000D02*
X173150000Y-109410000D01*
X171200000Y-104290000D02*
X169250000Y-104290000D01*
X171200000Y-109410000D02*
X167750000Y-109410000D01*
%TO.C,C10*%
X188453733Y-91160000D02*
X188746267Y-91160000D01*
X188453733Y-90140000D02*
X188746267Y-90140000D01*
%TO.C,R4*%
X164817224Y-90322500D02*
X164307776Y-90322500D01*
X164817224Y-89277500D02*
X164307776Y-89277500D01*
%TO.C,C1*%
X161490000Y-95096267D02*
X161490000Y-94803733D01*
X162510000Y-95096267D02*
X162510000Y-94803733D01*
%TO.C,R10*%
X188854724Y-89647500D02*
X188345276Y-89647500D01*
X188854724Y-88602500D02*
X188345276Y-88602500D01*
%TO.C,R2*%
X177345276Y-87627500D02*
X177854724Y-87627500D01*
X177345276Y-88672500D02*
X177854724Y-88672500D01*
%TO.C,C7*%
X153746267Y-89490000D02*
X153453733Y-89490000D01*
X153746267Y-90510000D02*
X153453733Y-90510000D01*
%TO.C,R21*%
X167172500Y-108154724D02*
X167172500Y-107645276D01*
X166127500Y-108154724D02*
X166127500Y-107645276D01*
%TO.C,C8*%
X186560000Y-95246267D02*
X186560000Y-94953733D01*
X185540000Y-95246267D02*
X185540000Y-94953733D01*
%TO.C,R6*%
X153345276Y-92022500D02*
X153854724Y-92022500D01*
X153345276Y-90977500D02*
X153854724Y-90977500D01*
%TD*%
M02*
