%TF.GenerationSoftware,KiCad,Pcbnew,6.0.11+dfsg-1~bpo11+1*%
%TF.CreationDate,2023-04-14T14:38:57+08:00*%
%TF.ProjectId,MiniMix - Main,4d696e69-4d69-4782-902d-204d61696e2e,rev?*%
%TF.SameCoordinates,Original*%
%TF.FileFunction,Drillmap*%
%TF.FilePolarity,Positive*%
%FSLAX45Y45*%
G04 Gerber Fmt 4.5, Leading zero omitted, Abs format (unit mm)*
G04 Created by KiCad (PCBNEW 6.0.11+dfsg-1~bpo11+1) date 2023-04-14 14:38:57*
%MOMM*%
%LPD*%
G01*
G04 APERTURE LIST*
%ADD10C,0.100000*%
%ADD11C,0.200000*%
%ADD12C,0.040000*%
%ADD13C,0.110000*%
%ADD14C,0.120000*%
%ADD15C,0.122000*%
%ADD16C,0.142000*%
%ADD17C,0.143000*%
%ADD18C,0.170000*%
G04 APERTURE END LIST*
D10*
X14720000Y-15680000D02*
X19520000Y-15680000D01*
X19520000Y-15680000D02*
X19520000Y-5760000D01*
X19520000Y-5760000D02*
X14720000Y-5760000D01*
X14720000Y-5760000D02*
X14720000Y-15680000D01*
D11*
D12*
X14880000Y-8405000D02*
X14920000Y-8445000D01*
X14920000Y-8405000D02*
X14880000Y-8445000D01*
X14902594Y-6418183D02*
X14942594Y-6458183D01*
X14942594Y-6418183D02*
X14902594Y-6458183D01*
X14938000Y-9115000D02*
X14978000Y-9155000D01*
X14978000Y-9115000D02*
X14938000Y-9155000D01*
X14960000Y-5986000D02*
X15000000Y-6026000D01*
X15000000Y-5986000D02*
X14960000Y-6026000D01*
X14967000Y-9837000D02*
X15007000Y-9877000D01*
X15007000Y-9837000D02*
X14967000Y-9877000D01*
X14974000Y-10439000D02*
X15014000Y-10479000D01*
X15014000Y-10439000D02*
X14974000Y-10479000D01*
X14989000Y-11106000D02*
X15029000Y-11146000D01*
X15029000Y-11106000D02*
X14989000Y-11146000D01*
X15010550Y-8259587D02*
X15050550Y-8299587D01*
X15050550Y-8259587D02*
X15010550Y-8299587D01*
X15268550Y-10364745D02*
X15308550Y-10404745D01*
X15308550Y-10364745D02*
X15268550Y-10404745D01*
X15413450Y-9368513D02*
X15453450Y-9408513D01*
X15453450Y-9368513D02*
X15413450Y-9408513D01*
X15413450Y-9594379D02*
X15453450Y-9634379D01*
X15453450Y-9594379D02*
X15413450Y-9634379D01*
X15431250Y-8655000D02*
X15471250Y-8695000D01*
X15471250Y-8655000D02*
X15431250Y-8695000D01*
X15446000Y-12052000D02*
X15486000Y-12092000D01*
X15486000Y-12052000D02*
X15446000Y-12092000D01*
X15489000Y-11099000D02*
X15529000Y-11139000D01*
X15529000Y-11099000D02*
X15489000Y-11139000D01*
X15493000Y-9721000D02*
X15533000Y-9761000D01*
X15533000Y-9721000D02*
X15493000Y-9761000D01*
X15500000Y-10787000D02*
X15540000Y-10827000D01*
X15540000Y-10787000D02*
X15500000Y-10827000D01*
X15616000Y-8325000D02*
X15656000Y-8365000D01*
X15656000Y-8325000D02*
X15616000Y-8365000D01*
X15630000Y-10181000D02*
X15670000Y-10221000D01*
X15670000Y-10181000D02*
X15630000Y-10221000D01*
X15641000Y-11139000D02*
X15681000Y-11179000D01*
X15681000Y-11139000D02*
X15641000Y-11179000D01*
X15674000Y-11621000D02*
X15714000Y-11661000D01*
X15714000Y-11621000D02*
X15674000Y-11661000D01*
X15739000Y-9768000D02*
X15779000Y-9808000D01*
X15779000Y-9768000D02*
X15739000Y-9808000D01*
X15755000Y-7657500D02*
X15795000Y-7697500D01*
X15795000Y-7657500D02*
X15755000Y-7697500D01*
X15812000Y-10580000D02*
X15852000Y-10620000D01*
X15852000Y-10580000D02*
X15812000Y-10620000D01*
X15813500Y-9396500D02*
X15853500Y-9436500D01*
X15853500Y-9396500D02*
X15813500Y-9436500D01*
X15820000Y-6192500D02*
X15860000Y-6232500D01*
X15860000Y-6192500D02*
X15820000Y-6232500D01*
X15855000Y-6605000D02*
X15895000Y-6645000D01*
X15895000Y-6605000D02*
X15855000Y-6645000D01*
X15855000Y-7052500D02*
X15895000Y-7092500D01*
X15895000Y-7052500D02*
X15855000Y-7092500D01*
X15870000Y-8347000D02*
X15910000Y-8387000D01*
X15910000Y-8347000D02*
X15870000Y-8387000D01*
X15872500Y-5835000D02*
X15912500Y-5875000D01*
X15912500Y-5835000D02*
X15872500Y-5875000D01*
X15892500Y-7382500D02*
X15932500Y-7422500D01*
X15932500Y-7382500D02*
X15892500Y-7422500D01*
X15942000Y-12252000D02*
X15982000Y-12292000D01*
X15982000Y-12252000D02*
X15942000Y-12292000D01*
X16055000Y-12404000D02*
X16095000Y-12444000D01*
X16095000Y-12404000D02*
X16055000Y-12444000D01*
X16149000Y-10776000D02*
X16189000Y-10816000D01*
X16189000Y-10776000D02*
X16149000Y-10816000D01*
X16162000Y-10326000D02*
X16202000Y-10366000D01*
X16202000Y-10326000D02*
X16162000Y-10366000D01*
X16287000Y-11033000D02*
X16327000Y-11073000D01*
X16327000Y-11033000D02*
X16287000Y-11073000D01*
X16338000Y-11519000D02*
X16378000Y-11559000D01*
X16378000Y-11519000D02*
X16338000Y-11559000D01*
X16341194Y-9179944D02*
X16381194Y-9219944D01*
X16381194Y-9179944D02*
X16341194Y-9219944D01*
X16345000Y-8505000D02*
X16385000Y-8545000D01*
X16385000Y-8505000D02*
X16345000Y-8545000D01*
X16488000Y-11093414D02*
X16528000Y-11133414D01*
X16528000Y-11093414D02*
X16488000Y-11133414D01*
X16656250Y-9863750D02*
X16696250Y-9903750D01*
X16696250Y-9863750D02*
X16656250Y-9903750D01*
X16794000Y-11218000D02*
X16834000Y-11258000D01*
X16834000Y-11218000D02*
X16794000Y-11258000D01*
X16817000Y-11753000D02*
X16857000Y-11793000D01*
X16857000Y-11753000D02*
X16817000Y-11793000D01*
X16870625Y-9709375D02*
X16910625Y-9749375D01*
X16910625Y-9709375D02*
X16870625Y-9749375D01*
X17067500Y-6322500D02*
X17107500Y-6362500D01*
X17107500Y-6322500D02*
X17067500Y-6362500D01*
X17085000Y-7030000D02*
X17125000Y-7070000D01*
X17125000Y-7030000D02*
X17085000Y-7070000D01*
X17087500Y-6650000D02*
X17127500Y-6690000D01*
X17127500Y-6650000D02*
X17087500Y-6690000D01*
X17087500Y-7310000D02*
X17127500Y-7350000D01*
X17127500Y-7310000D02*
X17087500Y-7350000D01*
X17095000Y-5870000D02*
X17135000Y-5910000D01*
X17135000Y-5870000D02*
X17095000Y-5910000D01*
X17121000Y-8680000D02*
X17161000Y-8720000D01*
X17161000Y-8680000D02*
X17121000Y-8720000D01*
X17168000Y-9039000D02*
X17208000Y-9079000D01*
X17208000Y-9039000D02*
X17168000Y-9079000D01*
X17168000Y-9474000D02*
X17208000Y-9514000D01*
X17208000Y-9474000D02*
X17168000Y-9514000D01*
X17396000Y-11606000D02*
X17436000Y-11646000D01*
X17436000Y-11606000D02*
X17396000Y-11646000D01*
X17411000Y-8586000D02*
X17451000Y-8626000D01*
X17451000Y-8586000D02*
X17411000Y-8626000D01*
X17425000Y-9170000D02*
X17465000Y-9210000D01*
X17465000Y-9170000D02*
X17425000Y-9210000D01*
X17796450Y-12163332D02*
X17836450Y-12203332D01*
X17836450Y-12163332D02*
X17796450Y-12203332D01*
X17817314Y-8645076D02*
X17857314Y-8685076D01*
X17857314Y-8645076D02*
X17817314Y-8685076D01*
X17969000Y-12161000D02*
X18009000Y-12201000D01*
X18009000Y-12161000D02*
X17969000Y-12201000D01*
X18063000Y-11483000D02*
X18103000Y-11523000D01*
X18103000Y-11483000D02*
X18063000Y-11523000D01*
X18270000Y-5900000D02*
X18310000Y-5940000D01*
X18310000Y-5900000D02*
X18270000Y-5940000D01*
X18275000Y-6200000D02*
X18315000Y-6240000D01*
X18315000Y-6200000D02*
X18275000Y-6240000D01*
X18287500Y-7410000D02*
X18327500Y-7450000D01*
X18327500Y-7410000D02*
X18287500Y-7450000D01*
X18292500Y-6930000D02*
X18332500Y-6970000D01*
X18332500Y-6930000D02*
X18292500Y-6970000D01*
X18300000Y-6532500D02*
X18340000Y-6572500D01*
X18340000Y-6532500D02*
X18300000Y-6572500D01*
X18328000Y-10903000D02*
X18368000Y-10943000D01*
X18368000Y-10903000D02*
X18328000Y-10943000D01*
X18335000Y-8387000D02*
X18375000Y-8427000D01*
X18375000Y-8387000D02*
X18335000Y-8427000D01*
X18346000Y-8586000D02*
X18386000Y-8626000D01*
X18386000Y-8586000D02*
X18346000Y-8626000D01*
X18357000Y-11244000D02*
X18397000Y-11284000D01*
X18397000Y-11244000D02*
X18357000Y-11284000D01*
X18546000Y-8205000D02*
X18586000Y-8245000D01*
X18586000Y-8205000D02*
X18546000Y-8245000D01*
X18622000Y-10083000D02*
X18662000Y-10123000D01*
X18662000Y-10083000D02*
X18622000Y-10123000D01*
X18669000Y-10403000D02*
X18709000Y-10443000D01*
X18709000Y-10403000D02*
X18669000Y-10443000D01*
X18748750Y-8754053D02*
X18788750Y-8794053D01*
X18788750Y-8754053D02*
X18748750Y-8794053D01*
X18781000Y-11925000D02*
X18821000Y-11965000D01*
X18821000Y-11925000D02*
X18781000Y-11965000D01*
X18800000Y-11389000D02*
X18840000Y-11429000D01*
X18840000Y-11389000D02*
X18800000Y-11429000D01*
X18861000Y-10591000D02*
X18901000Y-10631000D01*
X18901000Y-10591000D02*
X18861000Y-10631000D01*
X18925000Y-8086000D02*
X18965000Y-8126000D01*
X18965000Y-8086000D02*
X18925000Y-8126000D01*
X18941000Y-8430000D02*
X18981000Y-8470000D01*
X18981000Y-8430000D02*
X18941000Y-8470000D01*
X19120378Y-10341799D02*
X19160378Y-10381799D01*
X19160378Y-10341799D02*
X19120378Y-10381799D01*
X19133000Y-11269000D02*
X19173000Y-11309000D01*
X19173000Y-11269000D02*
X19133000Y-11309000D01*
X19144000Y-9790000D02*
X19184000Y-9830000D01*
X19184000Y-9790000D02*
X19144000Y-9830000D01*
X19195000Y-8698000D02*
X19235000Y-8738000D01*
X19235000Y-8698000D02*
X19195000Y-8738000D01*
X19238000Y-11980000D02*
X19278000Y-12020000D01*
X19278000Y-11980000D02*
X19238000Y-12020000D01*
X19275000Y-5957000D02*
X19315000Y-5997000D01*
X19315000Y-5957000D02*
X19275000Y-5997000D01*
D10*
X15230000Y-14034000D02*
G75*
G03*
X15230000Y-14034000I-50000J0D01*
G01*
X15230000Y-14288000D02*
G75*
G03*
X15230000Y-14288000I-50000J0D01*
G01*
X15230000Y-14542000D02*
G75*
G03*
X15230000Y-14542000I-50000J0D01*
G01*
X15230000Y-14796000D02*
G75*
G03*
X15230000Y-14796000I-50000J0D01*
G01*
X15230000Y-15050000D02*
G75*
G03*
X15230000Y-15050000I-50000J0D01*
G01*
X15484000Y-14034000D02*
G75*
G03*
X15484000Y-14034000I-50000J0D01*
G01*
X15484000Y-14288000D02*
G75*
G03*
X15484000Y-14288000I-50000J0D01*
G01*
X15484000Y-14542000D02*
G75*
G03*
X15484000Y-14542000I-50000J0D01*
G01*
X15484000Y-14796000D02*
G75*
G03*
X15484000Y-14796000I-50000J0D01*
G01*
X15484000Y-15050000D02*
G75*
G03*
X15484000Y-15050000I-50000J0D01*
G01*
X18400000Y-15500000D02*
G75*
G03*
X18400000Y-15500000I-50000J0D01*
G01*
X18650000Y-15500000D02*
G75*
G03*
X18650000Y-15500000I-50000J0D01*
G01*
X18900000Y-15500000D02*
G75*
G03*
X18900000Y-15500000I-50000J0D01*
G01*
D13*
X18120000Y-14695000D02*
X18120000Y-14805000D01*
X18065000Y-14750000D02*
X18175000Y-14750000D01*
D11*
X18175000Y-14810000D02*
X18175000Y-14690000D01*
X18065000Y-14810000D02*
X18065000Y-14690000D01*
X18175000Y-14690000D02*
G75*
G03*
X18065000Y-14690000I-55000J0D01*
G01*
X18065000Y-14810000D02*
G75*
G03*
X18175000Y-14810000I55000J0D01*
G01*
D13*
X19080000Y-14695000D02*
X19080000Y-14805000D01*
X19025000Y-14750000D02*
X19135000Y-14750000D01*
D11*
X19135000Y-14810000D02*
X19135000Y-14690000D01*
X19025000Y-14810000D02*
X19025000Y-14690000D01*
X19135000Y-14690000D02*
G75*
G03*
X19025000Y-14690000I-55000J0D01*
G01*
X19025000Y-14810000D02*
G75*
G03*
X19135000Y-14810000I55000J0D01*
G01*
D14*
X15180354Y-7522427D02*
X15180354Y-7437573D01*
X15095501Y-7437573D01*
X15095501Y-7522427D01*
X15180354Y-7522427D01*
X15530354Y-7522427D02*
X15530354Y-7437573D01*
X15445501Y-7437573D01*
X15445501Y-7522427D01*
X15530354Y-7522427D01*
X15530354Y-13372427D02*
X15530354Y-13287573D01*
X15445501Y-13287573D01*
X15445501Y-13372427D01*
X15530354Y-13372427D01*
X16380354Y-7522427D02*
X16380354Y-7437573D01*
X16295501Y-7437573D01*
X16295501Y-7522427D01*
X16380354Y-7522427D01*
X16730354Y-7522427D02*
X16730354Y-7437573D01*
X16645501Y-7437573D01*
X16645501Y-7522427D01*
X16730354Y-7522427D01*
X16730354Y-13372427D02*
X16730354Y-13287573D01*
X16645501Y-13287573D01*
X16645501Y-13372427D01*
X16730354Y-13372427D01*
X17581427Y-7534427D02*
X17581427Y-7449573D01*
X17496573Y-7449573D01*
X17496573Y-7534427D01*
X17581427Y-7534427D01*
X17931427Y-7534427D02*
X17931427Y-7449573D01*
X17846573Y-7449573D01*
X17846573Y-7534427D01*
X17931427Y-7534427D01*
X17931427Y-13384427D02*
X17931427Y-13299573D01*
X17846573Y-13299573D01*
X17846573Y-13384427D01*
X17931427Y-13384427D01*
X18760354Y-7522427D02*
X18760354Y-7437573D01*
X18675501Y-7437573D01*
X18675501Y-7522427D01*
X18760354Y-7522427D01*
X19110354Y-7522427D02*
X19110354Y-7437573D01*
X19025501Y-7437573D01*
X19025501Y-7522427D01*
X19110354Y-7522427D01*
X19110354Y-13372427D02*
X19110354Y-13287573D01*
X19025501Y-13287573D01*
X19025501Y-13372427D01*
X19110354Y-13372427D01*
D15*
X15312927Y-5941000D02*
X15373927Y-5880000D01*
X15312927Y-5819000D01*
X15251927Y-5880000D01*
X15312927Y-5941000D01*
X16507927Y-5941000D02*
X16568927Y-5880000D01*
X16507927Y-5819000D01*
X16446927Y-5880000D01*
X16507927Y-5941000D01*
X17100000Y-14168000D02*
X17161000Y-14107000D01*
X17100000Y-14046000D01*
X17039000Y-14107000D01*
X17100000Y-14168000D01*
X17707928Y-5943000D02*
X17768928Y-5882000D01*
X17707928Y-5821000D01*
X17646928Y-5882000D01*
X17707928Y-5943000D01*
X18887928Y-5943000D02*
X18948928Y-5882000D01*
X18887928Y-5821000D01*
X18826928Y-5882000D01*
X18887928Y-5943000D01*
D16*
X15241927Y-6119000D02*
X15383927Y-6261000D01*
X15383927Y-6119000D02*
X15241927Y-6261000D01*
X15383927Y-6190000D02*
G75*
G03*
X15383927Y-6190000I-71000J0D01*
G01*
X16436927Y-6119000D02*
X16578927Y-6261000D01*
X16578927Y-6119000D02*
X16436927Y-6261000D01*
X16578927Y-6190000D02*
G75*
G03*
X16578927Y-6190000I-71000J0D01*
G01*
X17029000Y-14346000D02*
X17171000Y-14488000D01*
X17171000Y-14346000D02*
X17029000Y-14488000D01*
X17171000Y-14417000D02*
G75*
G03*
X17171000Y-14417000I-71000J0D01*
G01*
X17636928Y-6121000D02*
X17778928Y-6263000D01*
X17778928Y-6121000D02*
X17636928Y-6263000D01*
X17778928Y-6192000D02*
G75*
G03*
X17778928Y-6192000I-71000J0D01*
G01*
X18816928Y-6121000D02*
X18958928Y-6263000D01*
X18958928Y-6121000D02*
X18816928Y-6263000D01*
X18958928Y-6192000D02*
G75*
G03*
X18958928Y-6192000I-71000J0D01*
G01*
D17*
X15241427Y-6948500D02*
X15384427Y-7091500D01*
X15384427Y-6948500D02*
X15241427Y-7091500D01*
X15312927Y-6948500D02*
X15312927Y-7091500D01*
X15241427Y-7020000D02*
X15384427Y-7020000D01*
X16436427Y-6948500D02*
X16579427Y-7091500D01*
X16579427Y-6948500D02*
X16436427Y-7091500D01*
X16507927Y-6948500D02*
X16507927Y-7091500D01*
X16436427Y-7020000D02*
X16579427Y-7020000D01*
X17028500Y-15175500D02*
X17171500Y-15318500D01*
X17171500Y-15175500D02*
X17028500Y-15318500D01*
X17100000Y-15175500D02*
X17100000Y-15318500D01*
X17028500Y-15247000D02*
X17171500Y-15247000D01*
X17636428Y-6950500D02*
X17779428Y-7093500D01*
X17779428Y-6950500D02*
X17636428Y-7093500D01*
X17707928Y-6950500D02*
X17707928Y-7093500D01*
X17636428Y-7022000D02*
X17779428Y-7022000D01*
X18816428Y-6950500D02*
X18959428Y-7093500D01*
X18959428Y-6950500D02*
X18816428Y-7093500D01*
X18887928Y-6950500D02*
X18887928Y-7093500D01*
X18816428Y-7022000D02*
X18959428Y-7022000D01*
D18*
X14807927Y-7810000D02*
X14977927Y-7980000D01*
X14977927Y-7810000D02*
X14807927Y-7980000D01*
X14953032Y-7955105D02*
X14953032Y-7834895D01*
X14832823Y-7834895D01*
X14832823Y-7955105D01*
X14953032Y-7955105D01*
X14807927Y-12830000D02*
X14977927Y-13000000D01*
X14977927Y-12830000D02*
X14807927Y-13000000D01*
X14953032Y-12975105D02*
X14953032Y-12854895D01*
X14832823Y-12854895D01*
X14832823Y-12975105D01*
X14953032Y-12975105D01*
X15647927Y-7930000D02*
X15817927Y-8100000D01*
X15817927Y-7930000D02*
X15647927Y-8100000D01*
X15793032Y-8075105D02*
X15793032Y-7954895D01*
X15672823Y-7954895D01*
X15672823Y-8075105D01*
X15793032Y-8075105D01*
X15647927Y-12710000D02*
X15817927Y-12880000D01*
X15817927Y-12710000D02*
X15647927Y-12880000D01*
X15793032Y-12855105D02*
X15793032Y-12734895D01*
X15672823Y-12734895D01*
X15672823Y-12855105D01*
X15793032Y-12855105D01*
X16007927Y-7810000D02*
X16177927Y-7980000D01*
X16177927Y-7810000D02*
X16007927Y-7980000D01*
X16153032Y-7955105D02*
X16153032Y-7834895D01*
X16032823Y-7834895D01*
X16032823Y-7955105D01*
X16153032Y-7955105D01*
X16007927Y-12830000D02*
X16177927Y-13000000D01*
X16177927Y-12830000D02*
X16007927Y-13000000D01*
X16153032Y-12975105D02*
X16153032Y-12854895D01*
X16032823Y-12854895D01*
X16032823Y-12975105D01*
X16153032Y-12975105D01*
X16847928Y-7930000D02*
X17017928Y-8100000D01*
X17017928Y-7930000D02*
X16847928Y-8100000D01*
X16993032Y-8075105D02*
X16993032Y-7954895D01*
X16872823Y-7954895D01*
X16872823Y-8075105D01*
X16993032Y-8075105D01*
X16847928Y-12710000D02*
X17017928Y-12880000D01*
X17017928Y-12710000D02*
X16847928Y-12880000D01*
X16993032Y-12855105D02*
X16993032Y-12734895D01*
X16872823Y-12734895D01*
X16872823Y-12855105D01*
X16993032Y-12855105D01*
X17209000Y-7822000D02*
X17379000Y-7992000D01*
X17379000Y-7822000D02*
X17209000Y-7992000D01*
X17354105Y-7967105D02*
X17354105Y-7846895D01*
X17233895Y-7846895D01*
X17233895Y-7967105D01*
X17354105Y-7967105D01*
X17209000Y-12842000D02*
X17379000Y-13012000D01*
X17379000Y-12842000D02*
X17209000Y-13012000D01*
X17354105Y-12987105D02*
X17354105Y-12866895D01*
X17233895Y-12866895D01*
X17233895Y-12987105D01*
X17354105Y-12987105D01*
X18049000Y-7942000D02*
X18219000Y-8112000D01*
X18219000Y-7942000D02*
X18049000Y-8112000D01*
X18194105Y-8087105D02*
X18194105Y-7966895D01*
X18073895Y-7966895D01*
X18073895Y-8087105D01*
X18194105Y-8087105D01*
X18049000Y-12722000D02*
X18219000Y-12892000D01*
X18219000Y-12722000D02*
X18049000Y-12892000D01*
X18194105Y-12867105D02*
X18194105Y-12746895D01*
X18073895Y-12746895D01*
X18073895Y-12867105D01*
X18194105Y-12867105D01*
X18387928Y-7810000D02*
X18557928Y-7980000D01*
X18557928Y-7810000D02*
X18387928Y-7980000D01*
X18533032Y-7955105D02*
X18533032Y-7834895D01*
X18412823Y-7834895D01*
X18412823Y-7955105D01*
X18533032Y-7955105D01*
X18387928Y-12830000D02*
X18557928Y-13000000D01*
X18557928Y-12830000D02*
X18387928Y-13000000D01*
X18533032Y-12975105D02*
X18533032Y-12854895D01*
X18412823Y-12854895D01*
X18412823Y-12975105D01*
X18533032Y-12975105D01*
X19227928Y-7930000D02*
X19397928Y-8100000D01*
X19397928Y-7930000D02*
X19227928Y-8100000D01*
X19373032Y-8075105D02*
X19373032Y-7954895D01*
X19252823Y-7954895D01*
X19252823Y-8075105D01*
X19373032Y-8075105D01*
X19227928Y-12710000D02*
X19397928Y-12880000D01*
X19397928Y-12710000D02*
X19227928Y-12880000D01*
X19373032Y-12855105D02*
X19373032Y-12734895D01*
X19252823Y-12734895D01*
X19252823Y-12855105D01*
X19373032Y-12855105D01*
D11*
X14972619Y-15995476D02*
X14972619Y-15795476D01*
X15020238Y-15795476D01*
X15048809Y-15805000D01*
X15067857Y-15824048D01*
X15077381Y-15843095D01*
X15086905Y-15881190D01*
X15086905Y-15909762D01*
X15077381Y-15947857D01*
X15067857Y-15966905D01*
X15048809Y-15985952D01*
X15020238Y-15995476D01*
X14972619Y-15995476D01*
X15172619Y-15995476D02*
X15172619Y-15862143D01*
X15172619Y-15900238D02*
X15182143Y-15881190D01*
X15191667Y-15871667D01*
X15210714Y-15862143D01*
X15229762Y-15862143D01*
X15296428Y-15995476D02*
X15296428Y-15862143D01*
X15296428Y-15795476D02*
X15286905Y-15805000D01*
X15296428Y-15814524D01*
X15305952Y-15805000D01*
X15296428Y-15795476D01*
X15296428Y-15814524D01*
X15420238Y-15995476D02*
X15401190Y-15985952D01*
X15391667Y-15966905D01*
X15391667Y-15795476D01*
X15525000Y-15995476D02*
X15505952Y-15985952D01*
X15496428Y-15966905D01*
X15496428Y-15795476D01*
X15753571Y-15995476D02*
X15753571Y-15795476D01*
X15820238Y-15938333D01*
X15886905Y-15795476D01*
X15886905Y-15995476D01*
X16067857Y-15995476D02*
X16067857Y-15890714D01*
X16058333Y-15871667D01*
X16039286Y-15862143D01*
X16001190Y-15862143D01*
X15982143Y-15871667D01*
X16067857Y-15985952D02*
X16048809Y-15995476D01*
X16001190Y-15995476D01*
X15982143Y-15985952D01*
X15972619Y-15966905D01*
X15972619Y-15947857D01*
X15982143Y-15928809D01*
X16001190Y-15919286D01*
X16048809Y-15919286D01*
X16067857Y-15909762D01*
X16163095Y-15862143D02*
X16163095Y-16062143D01*
X16163095Y-15871667D02*
X16182143Y-15862143D01*
X16220238Y-15862143D01*
X16239286Y-15871667D01*
X16248809Y-15881190D01*
X16258333Y-15900238D01*
X16258333Y-15957381D01*
X16248809Y-15976428D01*
X16239286Y-15985952D01*
X16220238Y-15995476D01*
X16182143Y-15995476D01*
X16163095Y-15985952D01*
X16344048Y-15976428D02*
X16353571Y-15985952D01*
X16344048Y-15995476D01*
X16334524Y-15985952D01*
X16344048Y-15976428D01*
X16344048Y-15995476D01*
X16344048Y-15871667D02*
X16353571Y-15881190D01*
X16344048Y-15890714D01*
X16334524Y-15881190D01*
X16344048Y-15871667D01*
X16344048Y-15890714D01*
D12*
X14675000Y-16305000D02*
X14715000Y-16345000D01*
X14715000Y-16305000D02*
X14675000Y-16345000D01*
D11*
X15010714Y-16215476D02*
X15029762Y-16215476D01*
X15048809Y-16225000D01*
X15058333Y-16234524D01*
X15067857Y-16253571D01*
X15077381Y-16291667D01*
X15077381Y-16339286D01*
X15067857Y-16377381D01*
X15058333Y-16396428D01*
X15048809Y-16405952D01*
X15029762Y-16415476D01*
X15010714Y-16415476D01*
X14991667Y-16405952D01*
X14982143Y-16396428D01*
X14972619Y-16377381D01*
X14963095Y-16339286D01*
X14963095Y-16291667D01*
X14972619Y-16253571D01*
X14982143Y-16234524D01*
X14991667Y-16225000D01*
X15010714Y-16215476D01*
X15163095Y-16396428D02*
X15172619Y-16405952D01*
X15163095Y-16415476D01*
X15153571Y-16405952D01*
X15163095Y-16396428D01*
X15163095Y-16415476D01*
X15344048Y-16282143D02*
X15344048Y-16415476D01*
X15296428Y-16205952D02*
X15248809Y-16348809D01*
X15372619Y-16348809D01*
X15486905Y-16215476D02*
X15505952Y-16215476D01*
X15525000Y-16225000D01*
X15534524Y-16234524D01*
X15544048Y-16253571D01*
X15553571Y-16291667D01*
X15553571Y-16339286D01*
X15544048Y-16377381D01*
X15534524Y-16396428D01*
X15525000Y-16405952D01*
X15505952Y-16415476D01*
X15486905Y-16415476D01*
X15467857Y-16405952D01*
X15458333Y-16396428D01*
X15448809Y-16377381D01*
X15439286Y-16339286D01*
X15439286Y-16291667D01*
X15448809Y-16253571D01*
X15458333Y-16234524D01*
X15467857Y-16225000D01*
X15486905Y-16215476D01*
X15677381Y-16215476D02*
X15696428Y-16215476D01*
X15715476Y-16225000D01*
X15725000Y-16234524D01*
X15734524Y-16253571D01*
X15744048Y-16291667D01*
X15744048Y-16339286D01*
X15734524Y-16377381D01*
X15725000Y-16396428D01*
X15715476Y-16405952D01*
X15696428Y-16415476D01*
X15677381Y-16415476D01*
X15658333Y-16405952D01*
X15648809Y-16396428D01*
X15639286Y-16377381D01*
X15629762Y-16339286D01*
X15629762Y-16291667D01*
X15639286Y-16253571D01*
X15648809Y-16234524D01*
X15658333Y-16225000D01*
X15677381Y-16215476D01*
X15829762Y-16415476D02*
X15829762Y-16282143D01*
X15829762Y-16301190D02*
X15839286Y-16291667D01*
X15858333Y-16282143D01*
X15886905Y-16282143D01*
X15905952Y-16291667D01*
X15915476Y-16310714D01*
X15915476Y-16415476D01*
X15915476Y-16310714D02*
X15925000Y-16291667D01*
X15944048Y-16282143D01*
X15972619Y-16282143D01*
X15991667Y-16291667D01*
X16001190Y-16310714D01*
X16001190Y-16415476D01*
X16096428Y-16415476D02*
X16096428Y-16282143D01*
X16096428Y-16301190D02*
X16105952Y-16291667D01*
X16125000Y-16282143D01*
X16153571Y-16282143D01*
X16172619Y-16291667D01*
X16182143Y-16310714D01*
X16182143Y-16415476D01*
X16182143Y-16310714D02*
X16191667Y-16291667D01*
X16210714Y-16282143D01*
X16239286Y-16282143D01*
X16258333Y-16291667D01*
X16267857Y-16310714D01*
X16267857Y-16415476D01*
X16658333Y-16205952D02*
X16486905Y-16463095D01*
X16915476Y-16215476D02*
X16934524Y-16215476D01*
X16953571Y-16225000D01*
X16963095Y-16234524D01*
X16972619Y-16253571D01*
X16982143Y-16291667D01*
X16982143Y-16339286D01*
X16972619Y-16377381D01*
X16963095Y-16396428D01*
X16953571Y-16405952D01*
X16934524Y-16415476D01*
X16915476Y-16415476D01*
X16896429Y-16405952D01*
X16886905Y-16396428D01*
X16877381Y-16377381D01*
X16867857Y-16339286D01*
X16867857Y-16291667D01*
X16877381Y-16253571D01*
X16886905Y-16234524D01*
X16896429Y-16225000D01*
X16915476Y-16215476D01*
X17067857Y-16396428D02*
X17077381Y-16405952D01*
X17067857Y-16415476D01*
X17058333Y-16405952D01*
X17067857Y-16396428D01*
X17067857Y-16415476D01*
X17201190Y-16215476D02*
X17220238Y-16215476D01*
X17239286Y-16225000D01*
X17248810Y-16234524D01*
X17258333Y-16253571D01*
X17267857Y-16291667D01*
X17267857Y-16339286D01*
X17258333Y-16377381D01*
X17248810Y-16396428D01*
X17239286Y-16405952D01*
X17220238Y-16415476D01*
X17201190Y-16415476D01*
X17182143Y-16405952D01*
X17172619Y-16396428D01*
X17163095Y-16377381D01*
X17153571Y-16339286D01*
X17153571Y-16291667D01*
X17163095Y-16253571D01*
X17172619Y-16234524D01*
X17182143Y-16225000D01*
X17201190Y-16215476D01*
X17458333Y-16415476D02*
X17344048Y-16415476D01*
X17401190Y-16415476D02*
X17401190Y-16215476D01*
X17382143Y-16244048D01*
X17363095Y-16263095D01*
X17344048Y-16272619D01*
X17639286Y-16215476D02*
X17544048Y-16215476D01*
X17534524Y-16310714D01*
X17544048Y-16301190D01*
X17563095Y-16291667D01*
X17610714Y-16291667D01*
X17629762Y-16301190D01*
X17639286Y-16310714D01*
X17648810Y-16329762D01*
X17648810Y-16377381D01*
X17639286Y-16396428D01*
X17629762Y-16405952D01*
X17610714Y-16415476D01*
X17563095Y-16415476D01*
X17544048Y-16405952D01*
X17534524Y-16396428D01*
X17715476Y-16215476D02*
X17848810Y-16215476D01*
X17763095Y-16415476D01*
X17915476Y-16215476D02*
X17915476Y-16253571D01*
X17991667Y-16215476D02*
X17991667Y-16253571D01*
X18286905Y-16491667D02*
X18277381Y-16482143D01*
X18258333Y-16453571D01*
X18248810Y-16434524D01*
X18239286Y-16405952D01*
X18229762Y-16358333D01*
X18229762Y-16320238D01*
X18239286Y-16272619D01*
X18248810Y-16244048D01*
X18258333Y-16225000D01*
X18277381Y-16196428D01*
X18286905Y-16186905D01*
X18391667Y-16301190D02*
X18372619Y-16291667D01*
X18363095Y-16282143D01*
X18353571Y-16263095D01*
X18353571Y-16253571D01*
X18363095Y-16234524D01*
X18372619Y-16225000D01*
X18391667Y-16215476D01*
X18429762Y-16215476D01*
X18448810Y-16225000D01*
X18458333Y-16234524D01*
X18467857Y-16253571D01*
X18467857Y-16263095D01*
X18458333Y-16282143D01*
X18448810Y-16291667D01*
X18429762Y-16301190D01*
X18391667Y-16301190D01*
X18372619Y-16310714D01*
X18363095Y-16320238D01*
X18353571Y-16339286D01*
X18353571Y-16377381D01*
X18363095Y-16396428D01*
X18372619Y-16405952D01*
X18391667Y-16415476D01*
X18429762Y-16415476D01*
X18448810Y-16405952D01*
X18458333Y-16396428D01*
X18467857Y-16377381D01*
X18467857Y-16339286D01*
X18458333Y-16320238D01*
X18448810Y-16310714D01*
X18429762Y-16301190D01*
X18544048Y-16234524D02*
X18553571Y-16225000D01*
X18572619Y-16215476D01*
X18620238Y-16215476D01*
X18639286Y-16225000D01*
X18648810Y-16234524D01*
X18658333Y-16253571D01*
X18658333Y-16272619D01*
X18648810Y-16301190D01*
X18534524Y-16415476D01*
X18658333Y-16415476D01*
X18896429Y-16415476D02*
X18896429Y-16215476D01*
X18982143Y-16415476D02*
X18982143Y-16310714D01*
X18972619Y-16291667D01*
X18953571Y-16282143D01*
X18925000Y-16282143D01*
X18905952Y-16291667D01*
X18896429Y-16301190D01*
X19105952Y-16415476D02*
X19086905Y-16405952D01*
X19077381Y-16396428D01*
X19067857Y-16377381D01*
X19067857Y-16320238D01*
X19077381Y-16301190D01*
X19086905Y-16291667D01*
X19105952Y-16282143D01*
X19134524Y-16282143D01*
X19153571Y-16291667D01*
X19163095Y-16301190D01*
X19172619Y-16320238D01*
X19172619Y-16377381D01*
X19163095Y-16396428D01*
X19153571Y-16405952D01*
X19134524Y-16415476D01*
X19105952Y-16415476D01*
X19286905Y-16415476D02*
X19267857Y-16405952D01*
X19258333Y-16386905D01*
X19258333Y-16215476D01*
X19439286Y-16405952D02*
X19420238Y-16415476D01*
X19382143Y-16415476D01*
X19363095Y-16405952D01*
X19353571Y-16386905D01*
X19353571Y-16310714D01*
X19363095Y-16291667D01*
X19382143Y-16282143D01*
X19420238Y-16282143D01*
X19439286Y-16291667D01*
X19448810Y-16310714D01*
X19448810Y-16329762D01*
X19353571Y-16348809D01*
X19525000Y-16405952D02*
X19544048Y-16415476D01*
X19582143Y-16415476D01*
X19601190Y-16405952D01*
X19610714Y-16386905D01*
X19610714Y-16377381D01*
X19601190Y-16358333D01*
X19582143Y-16348809D01*
X19553571Y-16348809D01*
X19534524Y-16339286D01*
X19525000Y-16320238D01*
X19525000Y-16310714D01*
X19534524Y-16291667D01*
X19553571Y-16282143D01*
X19582143Y-16282143D01*
X19601190Y-16291667D01*
X19677381Y-16491667D02*
X19686905Y-16482143D01*
X19705952Y-16453571D01*
X19715476Y-16434524D01*
X19725000Y-16405952D01*
X19734524Y-16358333D01*
X19734524Y-16320238D01*
X19725000Y-16272619D01*
X19715476Y-16244048D01*
X19705952Y-16225000D01*
X19686905Y-16196428D01*
X19677381Y-16186905D01*
D10*
X14715000Y-16589000D02*
G75*
G03*
X14715000Y-16589000I-50000J0D01*
G01*
D11*
X15077381Y-16679476D02*
X14963095Y-16679476D01*
X15020238Y-16679476D02*
X15020238Y-16479476D01*
X15001190Y-16508048D01*
X14982143Y-16527095D01*
X14963095Y-16536619D01*
X15163095Y-16660428D02*
X15172619Y-16669952D01*
X15163095Y-16679476D01*
X15153571Y-16669952D01*
X15163095Y-16660428D01*
X15163095Y-16679476D01*
X15296428Y-16479476D02*
X15315476Y-16479476D01*
X15334524Y-16489000D01*
X15344048Y-16498524D01*
X15353571Y-16517571D01*
X15363095Y-16555667D01*
X15363095Y-16603286D01*
X15353571Y-16641381D01*
X15344048Y-16660428D01*
X15334524Y-16669952D01*
X15315476Y-16679476D01*
X15296428Y-16679476D01*
X15277381Y-16669952D01*
X15267857Y-16660428D01*
X15258333Y-16641381D01*
X15248809Y-16603286D01*
X15248809Y-16555667D01*
X15258333Y-16517571D01*
X15267857Y-16498524D01*
X15277381Y-16489000D01*
X15296428Y-16479476D01*
X15486905Y-16479476D02*
X15505952Y-16479476D01*
X15525000Y-16489000D01*
X15534524Y-16498524D01*
X15544048Y-16517571D01*
X15553571Y-16555667D01*
X15553571Y-16603286D01*
X15544048Y-16641381D01*
X15534524Y-16660428D01*
X15525000Y-16669952D01*
X15505952Y-16679476D01*
X15486905Y-16679476D01*
X15467857Y-16669952D01*
X15458333Y-16660428D01*
X15448809Y-16641381D01*
X15439286Y-16603286D01*
X15439286Y-16555667D01*
X15448809Y-16517571D01*
X15458333Y-16498524D01*
X15467857Y-16489000D01*
X15486905Y-16479476D01*
X15677381Y-16479476D02*
X15696428Y-16479476D01*
X15715476Y-16489000D01*
X15725000Y-16498524D01*
X15734524Y-16517571D01*
X15744048Y-16555667D01*
X15744048Y-16603286D01*
X15734524Y-16641381D01*
X15725000Y-16660428D01*
X15715476Y-16669952D01*
X15696428Y-16679476D01*
X15677381Y-16679476D01*
X15658333Y-16669952D01*
X15648809Y-16660428D01*
X15639286Y-16641381D01*
X15629762Y-16603286D01*
X15629762Y-16555667D01*
X15639286Y-16517571D01*
X15648809Y-16498524D01*
X15658333Y-16489000D01*
X15677381Y-16479476D01*
X15829762Y-16679476D02*
X15829762Y-16546143D01*
X15829762Y-16565190D02*
X15839286Y-16555667D01*
X15858333Y-16546143D01*
X15886905Y-16546143D01*
X15905952Y-16555667D01*
X15915476Y-16574714D01*
X15915476Y-16679476D01*
X15915476Y-16574714D02*
X15925000Y-16555667D01*
X15944048Y-16546143D01*
X15972619Y-16546143D01*
X15991667Y-16555667D01*
X16001190Y-16574714D01*
X16001190Y-16679476D01*
X16096428Y-16679476D02*
X16096428Y-16546143D01*
X16096428Y-16565190D02*
X16105952Y-16555667D01*
X16125000Y-16546143D01*
X16153571Y-16546143D01*
X16172619Y-16555667D01*
X16182143Y-16574714D01*
X16182143Y-16679476D01*
X16182143Y-16574714D02*
X16191667Y-16555667D01*
X16210714Y-16546143D01*
X16239286Y-16546143D01*
X16258333Y-16555667D01*
X16267857Y-16574714D01*
X16267857Y-16679476D01*
X16658333Y-16469952D02*
X16486905Y-16727095D01*
X16915476Y-16479476D02*
X16934524Y-16479476D01*
X16953571Y-16489000D01*
X16963095Y-16498524D01*
X16972619Y-16517571D01*
X16982143Y-16555667D01*
X16982143Y-16603286D01*
X16972619Y-16641381D01*
X16963095Y-16660428D01*
X16953571Y-16669952D01*
X16934524Y-16679476D01*
X16915476Y-16679476D01*
X16896429Y-16669952D01*
X16886905Y-16660428D01*
X16877381Y-16641381D01*
X16867857Y-16603286D01*
X16867857Y-16555667D01*
X16877381Y-16517571D01*
X16886905Y-16498524D01*
X16896429Y-16489000D01*
X16915476Y-16479476D01*
X17067857Y-16660428D02*
X17077381Y-16669952D01*
X17067857Y-16679476D01*
X17058333Y-16669952D01*
X17067857Y-16660428D01*
X17067857Y-16679476D01*
X17201190Y-16479476D02*
X17220238Y-16479476D01*
X17239286Y-16489000D01*
X17248810Y-16498524D01*
X17258333Y-16517571D01*
X17267857Y-16555667D01*
X17267857Y-16603286D01*
X17258333Y-16641381D01*
X17248810Y-16660428D01*
X17239286Y-16669952D01*
X17220238Y-16679476D01*
X17201190Y-16679476D01*
X17182143Y-16669952D01*
X17172619Y-16660428D01*
X17163095Y-16641381D01*
X17153571Y-16603286D01*
X17153571Y-16555667D01*
X17163095Y-16517571D01*
X17172619Y-16498524D01*
X17182143Y-16489000D01*
X17201190Y-16479476D01*
X17334524Y-16479476D02*
X17458333Y-16479476D01*
X17391667Y-16555667D01*
X17420238Y-16555667D01*
X17439286Y-16565190D01*
X17448810Y-16574714D01*
X17458333Y-16593762D01*
X17458333Y-16641381D01*
X17448810Y-16660428D01*
X17439286Y-16669952D01*
X17420238Y-16679476D01*
X17363095Y-16679476D01*
X17344048Y-16669952D01*
X17334524Y-16660428D01*
X17553571Y-16679476D02*
X17591667Y-16679476D01*
X17610714Y-16669952D01*
X17620238Y-16660428D01*
X17639286Y-16631857D01*
X17648810Y-16593762D01*
X17648810Y-16517571D01*
X17639286Y-16498524D01*
X17629762Y-16489000D01*
X17610714Y-16479476D01*
X17572619Y-16479476D01*
X17553571Y-16489000D01*
X17544048Y-16498524D01*
X17534524Y-16517571D01*
X17534524Y-16565190D01*
X17544048Y-16584238D01*
X17553571Y-16593762D01*
X17572619Y-16603286D01*
X17610714Y-16603286D01*
X17629762Y-16593762D01*
X17639286Y-16584238D01*
X17648810Y-16565190D01*
X17820238Y-16546143D02*
X17820238Y-16679476D01*
X17772619Y-16469952D02*
X17725000Y-16612809D01*
X17848810Y-16612809D01*
X17915476Y-16479476D02*
X17915476Y-16517571D01*
X17991667Y-16479476D02*
X17991667Y-16517571D01*
X18286905Y-16755667D02*
X18277381Y-16746143D01*
X18258333Y-16717571D01*
X18248810Y-16698524D01*
X18239286Y-16669952D01*
X18229762Y-16622333D01*
X18229762Y-16584238D01*
X18239286Y-16536619D01*
X18248810Y-16508048D01*
X18258333Y-16489000D01*
X18277381Y-16460428D01*
X18286905Y-16450905D01*
X18467857Y-16679476D02*
X18353571Y-16679476D01*
X18410714Y-16679476D02*
X18410714Y-16479476D01*
X18391667Y-16508048D01*
X18372619Y-16527095D01*
X18353571Y-16536619D01*
X18534524Y-16479476D02*
X18658333Y-16479476D01*
X18591667Y-16555667D01*
X18620238Y-16555667D01*
X18639286Y-16565190D01*
X18648810Y-16574714D01*
X18658333Y-16593762D01*
X18658333Y-16641381D01*
X18648810Y-16660428D01*
X18639286Y-16669952D01*
X18620238Y-16679476D01*
X18563095Y-16679476D01*
X18544048Y-16669952D01*
X18534524Y-16660428D01*
X18896429Y-16679476D02*
X18896429Y-16479476D01*
X18982143Y-16679476D02*
X18982143Y-16574714D01*
X18972619Y-16555667D01*
X18953571Y-16546143D01*
X18925000Y-16546143D01*
X18905952Y-16555667D01*
X18896429Y-16565190D01*
X19105952Y-16679476D02*
X19086905Y-16669952D01*
X19077381Y-16660428D01*
X19067857Y-16641381D01*
X19067857Y-16584238D01*
X19077381Y-16565190D01*
X19086905Y-16555667D01*
X19105952Y-16546143D01*
X19134524Y-16546143D01*
X19153571Y-16555667D01*
X19163095Y-16565190D01*
X19172619Y-16584238D01*
X19172619Y-16641381D01*
X19163095Y-16660428D01*
X19153571Y-16669952D01*
X19134524Y-16679476D01*
X19105952Y-16679476D01*
X19286905Y-16679476D02*
X19267857Y-16669952D01*
X19258333Y-16650905D01*
X19258333Y-16479476D01*
X19439286Y-16669952D02*
X19420238Y-16679476D01*
X19382143Y-16679476D01*
X19363095Y-16669952D01*
X19353571Y-16650905D01*
X19353571Y-16574714D01*
X19363095Y-16555667D01*
X19382143Y-16546143D01*
X19420238Y-16546143D01*
X19439286Y-16555667D01*
X19448810Y-16574714D01*
X19448810Y-16593762D01*
X19353571Y-16612809D01*
X19525000Y-16669952D02*
X19544048Y-16679476D01*
X19582143Y-16679476D01*
X19601190Y-16669952D01*
X19610714Y-16650905D01*
X19610714Y-16641381D01*
X19601190Y-16622333D01*
X19582143Y-16612809D01*
X19553571Y-16612809D01*
X19534524Y-16603286D01*
X19525000Y-16584238D01*
X19525000Y-16574714D01*
X19534524Y-16555667D01*
X19553571Y-16546143D01*
X19582143Y-16546143D01*
X19601190Y-16555667D01*
X19677381Y-16755667D02*
X19686905Y-16746143D01*
X19705952Y-16717571D01*
X19715476Y-16698524D01*
X19725000Y-16669952D01*
X19734524Y-16622333D01*
X19734524Y-16584238D01*
X19725000Y-16536619D01*
X19715476Y-16508048D01*
X19705952Y-16489000D01*
X19686905Y-16460428D01*
X19677381Y-16450905D01*
D13*
X14660000Y-16798000D02*
X14660000Y-16908000D01*
X14605000Y-16853000D02*
X14715000Y-16853000D01*
D11*
X15077381Y-16943476D02*
X14963095Y-16943476D01*
X15020238Y-16943476D02*
X15020238Y-16743476D01*
X15001190Y-16772048D01*
X14982143Y-16791095D01*
X14963095Y-16800619D01*
X15163095Y-16924429D02*
X15172619Y-16933952D01*
X15163095Y-16943476D01*
X15153571Y-16933952D01*
X15163095Y-16924429D01*
X15163095Y-16943476D01*
X15363095Y-16943476D02*
X15248809Y-16943476D01*
X15305952Y-16943476D02*
X15305952Y-16743476D01*
X15286905Y-16772048D01*
X15267857Y-16791095D01*
X15248809Y-16800619D01*
X15486905Y-16743476D02*
X15505952Y-16743476D01*
X15525000Y-16753000D01*
X15534524Y-16762524D01*
X15544048Y-16781571D01*
X15553571Y-16819667D01*
X15553571Y-16867286D01*
X15544048Y-16905381D01*
X15534524Y-16924429D01*
X15525000Y-16933952D01*
X15505952Y-16943476D01*
X15486905Y-16943476D01*
X15467857Y-16933952D01*
X15458333Y-16924429D01*
X15448809Y-16905381D01*
X15439286Y-16867286D01*
X15439286Y-16819667D01*
X15448809Y-16781571D01*
X15458333Y-16762524D01*
X15467857Y-16753000D01*
X15486905Y-16743476D01*
X15677381Y-16743476D02*
X15696428Y-16743476D01*
X15715476Y-16753000D01*
X15725000Y-16762524D01*
X15734524Y-16781571D01*
X15744048Y-16819667D01*
X15744048Y-16867286D01*
X15734524Y-16905381D01*
X15725000Y-16924429D01*
X15715476Y-16933952D01*
X15696428Y-16943476D01*
X15677381Y-16943476D01*
X15658333Y-16933952D01*
X15648809Y-16924429D01*
X15639286Y-16905381D01*
X15629762Y-16867286D01*
X15629762Y-16819667D01*
X15639286Y-16781571D01*
X15648809Y-16762524D01*
X15658333Y-16753000D01*
X15677381Y-16743476D01*
X15829762Y-16943476D02*
X15829762Y-16810143D01*
X15829762Y-16829190D02*
X15839286Y-16819667D01*
X15858333Y-16810143D01*
X15886905Y-16810143D01*
X15905952Y-16819667D01*
X15915476Y-16838714D01*
X15915476Y-16943476D01*
X15915476Y-16838714D02*
X15925000Y-16819667D01*
X15944048Y-16810143D01*
X15972619Y-16810143D01*
X15991667Y-16819667D01*
X16001190Y-16838714D01*
X16001190Y-16943476D01*
X16096428Y-16943476D02*
X16096428Y-16810143D01*
X16096428Y-16829190D02*
X16105952Y-16819667D01*
X16125000Y-16810143D01*
X16153571Y-16810143D01*
X16172619Y-16819667D01*
X16182143Y-16838714D01*
X16182143Y-16943476D01*
X16182143Y-16838714D02*
X16191667Y-16819667D01*
X16210714Y-16810143D01*
X16239286Y-16810143D01*
X16258333Y-16819667D01*
X16267857Y-16838714D01*
X16267857Y-16943476D01*
X16658333Y-16733952D02*
X16486905Y-16991095D01*
X16915476Y-16743476D02*
X16934524Y-16743476D01*
X16953571Y-16753000D01*
X16963095Y-16762524D01*
X16972619Y-16781571D01*
X16982143Y-16819667D01*
X16982143Y-16867286D01*
X16972619Y-16905381D01*
X16963095Y-16924429D01*
X16953571Y-16933952D01*
X16934524Y-16943476D01*
X16915476Y-16943476D01*
X16896429Y-16933952D01*
X16886905Y-16924429D01*
X16877381Y-16905381D01*
X16867857Y-16867286D01*
X16867857Y-16819667D01*
X16877381Y-16781571D01*
X16886905Y-16762524D01*
X16896429Y-16753000D01*
X16915476Y-16743476D01*
X17067857Y-16924429D02*
X17077381Y-16933952D01*
X17067857Y-16943476D01*
X17058333Y-16933952D01*
X17067857Y-16924429D01*
X17067857Y-16943476D01*
X17201190Y-16743476D02*
X17220238Y-16743476D01*
X17239286Y-16753000D01*
X17248810Y-16762524D01*
X17258333Y-16781571D01*
X17267857Y-16819667D01*
X17267857Y-16867286D01*
X17258333Y-16905381D01*
X17248810Y-16924429D01*
X17239286Y-16933952D01*
X17220238Y-16943476D01*
X17201190Y-16943476D01*
X17182143Y-16933952D01*
X17172619Y-16924429D01*
X17163095Y-16905381D01*
X17153571Y-16867286D01*
X17153571Y-16819667D01*
X17163095Y-16781571D01*
X17172619Y-16762524D01*
X17182143Y-16753000D01*
X17201190Y-16743476D01*
X17439286Y-16810143D02*
X17439286Y-16943476D01*
X17391667Y-16733952D02*
X17344048Y-16876810D01*
X17467857Y-16876810D01*
X17525000Y-16743476D02*
X17648810Y-16743476D01*
X17582143Y-16819667D01*
X17610714Y-16819667D01*
X17629762Y-16829190D01*
X17639286Y-16838714D01*
X17648810Y-16857762D01*
X17648810Y-16905381D01*
X17639286Y-16924429D01*
X17629762Y-16933952D01*
X17610714Y-16943476D01*
X17553571Y-16943476D01*
X17534524Y-16933952D01*
X17525000Y-16924429D01*
X17715476Y-16743476D02*
X17839286Y-16743476D01*
X17772619Y-16819667D01*
X17801190Y-16819667D01*
X17820238Y-16829190D01*
X17829762Y-16838714D01*
X17839286Y-16857762D01*
X17839286Y-16905381D01*
X17829762Y-16924429D01*
X17820238Y-16933952D01*
X17801190Y-16943476D01*
X17744048Y-16943476D01*
X17725000Y-16933952D01*
X17715476Y-16924429D01*
X17915476Y-16743476D02*
X17915476Y-16781571D01*
X17991667Y-16743476D02*
X17991667Y-16781571D01*
X18286905Y-17019667D02*
X18277381Y-17010143D01*
X18258333Y-16981571D01*
X18248810Y-16962524D01*
X18239286Y-16933952D01*
X18229762Y-16886333D01*
X18229762Y-16848238D01*
X18239286Y-16800619D01*
X18248810Y-16772048D01*
X18258333Y-16753000D01*
X18277381Y-16724428D01*
X18286905Y-16714905D01*
X18401190Y-16743476D02*
X18420238Y-16743476D01*
X18439286Y-16753000D01*
X18448810Y-16762524D01*
X18458333Y-16781571D01*
X18467857Y-16819667D01*
X18467857Y-16867286D01*
X18458333Y-16905381D01*
X18448810Y-16924429D01*
X18439286Y-16933952D01*
X18420238Y-16943476D01*
X18401190Y-16943476D01*
X18382143Y-16933952D01*
X18372619Y-16924429D01*
X18363095Y-16905381D01*
X18353571Y-16867286D01*
X18353571Y-16819667D01*
X18363095Y-16781571D01*
X18372619Y-16762524D01*
X18382143Y-16753000D01*
X18401190Y-16743476D01*
X18705952Y-16943476D02*
X18705952Y-16743476D01*
X18791667Y-16943476D02*
X18791667Y-16838714D01*
X18782143Y-16819667D01*
X18763095Y-16810143D01*
X18734524Y-16810143D01*
X18715476Y-16819667D01*
X18705952Y-16829190D01*
X18915476Y-16943476D02*
X18896429Y-16933952D01*
X18886905Y-16924429D01*
X18877381Y-16905381D01*
X18877381Y-16848238D01*
X18886905Y-16829190D01*
X18896429Y-16819667D01*
X18915476Y-16810143D01*
X18944048Y-16810143D01*
X18963095Y-16819667D01*
X18972619Y-16829190D01*
X18982143Y-16848238D01*
X18982143Y-16905381D01*
X18972619Y-16924429D01*
X18963095Y-16933952D01*
X18944048Y-16943476D01*
X18915476Y-16943476D01*
X19096429Y-16943476D02*
X19077381Y-16933952D01*
X19067857Y-16914905D01*
X19067857Y-16743476D01*
X19248810Y-16933952D02*
X19229762Y-16943476D01*
X19191667Y-16943476D01*
X19172619Y-16933952D01*
X19163095Y-16914905D01*
X19163095Y-16838714D01*
X19172619Y-16819667D01*
X19191667Y-16810143D01*
X19229762Y-16810143D01*
X19248810Y-16819667D01*
X19258333Y-16838714D01*
X19258333Y-16857762D01*
X19163095Y-16876810D01*
X19334524Y-16933952D02*
X19353571Y-16943476D01*
X19391667Y-16943476D01*
X19410714Y-16933952D01*
X19420238Y-16914905D01*
X19420238Y-16905381D01*
X19410714Y-16886333D01*
X19391667Y-16876810D01*
X19363095Y-16876810D01*
X19344048Y-16867286D01*
X19334524Y-16848238D01*
X19334524Y-16838714D01*
X19344048Y-16819667D01*
X19363095Y-16810143D01*
X19391667Y-16810143D01*
X19410714Y-16819667D01*
X19658333Y-16867286D02*
X19810714Y-16867286D01*
X19734524Y-16943476D02*
X19734524Y-16791095D01*
X20048810Y-16762524D02*
X20058333Y-16753000D01*
X20077381Y-16743476D01*
X20125000Y-16743476D01*
X20144048Y-16753000D01*
X20153571Y-16762524D01*
X20163095Y-16781571D01*
X20163095Y-16800619D01*
X20153571Y-16829190D01*
X20039286Y-16943476D01*
X20163095Y-16943476D01*
X20391667Y-16933952D02*
X20410714Y-16943476D01*
X20448810Y-16943476D01*
X20467857Y-16933952D01*
X20477381Y-16914905D01*
X20477381Y-16905381D01*
X20467857Y-16886333D01*
X20448810Y-16876810D01*
X20420238Y-16876810D01*
X20401190Y-16867286D01*
X20391667Y-16848238D01*
X20391667Y-16838714D01*
X20401190Y-16819667D01*
X20420238Y-16810143D01*
X20448810Y-16810143D01*
X20467857Y-16819667D01*
X20591667Y-16943476D02*
X20572619Y-16933952D01*
X20563095Y-16914905D01*
X20563095Y-16743476D01*
X20696429Y-16943476D02*
X20677381Y-16933952D01*
X20667857Y-16924429D01*
X20658333Y-16905381D01*
X20658333Y-16848238D01*
X20667857Y-16829190D01*
X20677381Y-16819667D01*
X20696429Y-16810143D01*
X20725000Y-16810143D01*
X20744048Y-16819667D01*
X20753571Y-16829190D01*
X20763095Y-16848238D01*
X20763095Y-16905381D01*
X20753571Y-16924429D01*
X20744048Y-16933952D01*
X20725000Y-16943476D01*
X20696429Y-16943476D01*
X20820238Y-16810143D02*
X20896429Y-16810143D01*
X20848810Y-16743476D02*
X20848810Y-16914905D01*
X20858333Y-16933952D01*
X20877381Y-16943476D01*
X20896429Y-16943476D01*
X20953571Y-16933952D02*
X20972619Y-16943476D01*
X21010714Y-16943476D01*
X21029762Y-16933952D01*
X21039286Y-16914905D01*
X21039286Y-16905381D01*
X21029762Y-16886333D01*
X21010714Y-16876810D01*
X20982143Y-16876810D01*
X20963095Y-16867286D01*
X20953571Y-16848238D01*
X20953571Y-16838714D01*
X20963095Y-16819667D01*
X20982143Y-16810143D01*
X21010714Y-16810143D01*
X21029762Y-16819667D01*
X21105952Y-17019667D02*
X21115476Y-17010143D01*
X21134524Y-16981571D01*
X21144048Y-16962524D01*
X21153571Y-16933952D01*
X21163095Y-16886333D01*
X21163095Y-16848238D01*
X21153571Y-16800619D01*
X21144048Y-16772048D01*
X21134524Y-16753000D01*
X21115476Y-16724428D01*
X21105952Y-16714905D01*
D14*
X14697427Y-17159427D02*
X14697427Y-17074573D01*
X14612573Y-17074573D01*
X14612573Y-17159427D01*
X14697427Y-17159427D01*
D11*
X15077381Y-17207476D02*
X14963095Y-17207476D01*
X15020238Y-17207476D02*
X15020238Y-17007476D01*
X15001190Y-17036048D01*
X14982143Y-17055095D01*
X14963095Y-17064619D01*
X15163095Y-17188429D02*
X15172619Y-17197952D01*
X15163095Y-17207476D01*
X15153571Y-17197952D01*
X15163095Y-17188429D01*
X15163095Y-17207476D01*
X15248809Y-17026524D02*
X15258333Y-17017000D01*
X15277381Y-17007476D01*
X15325000Y-17007476D01*
X15344048Y-17017000D01*
X15353571Y-17026524D01*
X15363095Y-17045571D01*
X15363095Y-17064619D01*
X15353571Y-17093190D01*
X15239286Y-17207476D01*
X15363095Y-17207476D01*
X15486905Y-17007476D02*
X15505952Y-17007476D01*
X15525000Y-17017000D01*
X15534524Y-17026524D01*
X15544048Y-17045571D01*
X15553571Y-17083667D01*
X15553571Y-17131286D01*
X15544048Y-17169381D01*
X15534524Y-17188429D01*
X15525000Y-17197952D01*
X15505952Y-17207476D01*
X15486905Y-17207476D01*
X15467857Y-17197952D01*
X15458333Y-17188429D01*
X15448809Y-17169381D01*
X15439286Y-17131286D01*
X15439286Y-17083667D01*
X15448809Y-17045571D01*
X15458333Y-17026524D01*
X15467857Y-17017000D01*
X15486905Y-17007476D01*
X15677381Y-17007476D02*
X15696428Y-17007476D01*
X15715476Y-17017000D01*
X15725000Y-17026524D01*
X15734524Y-17045571D01*
X15744048Y-17083667D01*
X15744048Y-17131286D01*
X15734524Y-17169381D01*
X15725000Y-17188429D01*
X15715476Y-17197952D01*
X15696428Y-17207476D01*
X15677381Y-17207476D01*
X15658333Y-17197952D01*
X15648809Y-17188429D01*
X15639286Y-17169381D01*
X15629762Y-17131286D01*
X15629762Y-17083667D01*
X15639286Y-17045571D01*
X15648809Y-17026524D01*
X15658333Y-17017000D01*
X15677381Y-17007476D01*
X15829762Y-17207476D02*
X15829762Y-17074143D01*
X15829762Y-17093190D02*
X15839286Y-17083667D01*
X15858333Y-17074143D01*
X15886905Y-17074143D01*
X15905952Y-17083667D01*
X15915476Y-17102714D01*
X15915476Y-17207476D01*
X15915476Y-17102714D02*
X15925000Y-17083667D01*
X15944048Y-17074143D01*
X15972619Y-17074143D01*
X15991667Y-17083667D01*
X16001190Y-17102714D01*
X16001190Y-17207476D01*
X16096428Y-17207476D02*
X16096428Y-17074143D01*
X16096428Y-17093190D02*
X16105952Y-17083667D01*
X16125000Y-17074143D01*
X16153571Y-17074143D01*
X16172619Y-17083667D01*
X16182143Y-17102714D01*
X16182143Y-17207476D01*
X16182143Y-17102714D02*
X16191667Y-17083667D01*
X16210714Y-17074143D01*
X16239286Y-17074143D01*
X16258333Y-17083667D01*
X16267857Y-17102714D01*
X16267857Y-17207476D01*
X16658333Y-16997952D02*
X16486905Y-17255095D01*
X16915476Y-17007476D02*
X16934524Y-17007476D01*
X16953571Y-17017000D01*
X16963095Y-17026524D01*
X16972619Y-17045571D01*
X16982143Y-17083667D01*
X16982143Y-17131286D01*
X16972619Y-17169381D01*
X16963095Y-17188429D01*
X16953571Y-17197952D01*
X16934524Y-17207476D01*
X16915476Y-17207476D01*
X16896429Y-17197952D01*
X16886905Y-17188429D01*
X16877381Y-17169381D01*
X16867857Y-17131286D01*
X16867857Y-17083667D01*
X16877381Y-17045571D01*
X16886905Y-17026524D01*
X16896429Y-17017000D01*
X16915476Y-17007476D01*
X17067857Y-17188429D02*
X17077381Y-17197952D01*
X17067857Y-17207476D01*
X17058333Y-17197952D01*
X17067857Y-17188429D01*
X17067857Y-17207476D01*
X17201190Y-17007476D02*
X17220238Y-17007476D01*
X17239286Y-17017000D01*
X17248810Y-17026524D01*
X17258333Y-17045571D01*
X17267857Y-17083667D01*
X17267857Y-17131286D01*
X17258333Y-17169381D01*
X17248810Y-17188429D01*
X17239286Y-17197952D01*
X17220238Y-17207476D01*
X17201190Y-17207476D01*
X17182143Y-17197952D01*
X17172619Y-17188429D01*
X17163095Y-17169381D01*
X17153571Y-17131286D01*
X17153571Y-17083667D01*
X17163095Y-17045571D01*
X17172619Y-17026524D01*
X17182143Y-17017000D01*
X17201190Y-17007476D01*
X17439286Y-17074143D02*
X17439286Y-17207476D01*
X17391667Y-16997952D02*
X17344048Y-17140810D01*
X17467857Y-17140810D01*
X17525000Y-17007476D02*
X17658333Y-17007476D01*
X17572619Y-17207476D01*
X17725000Y-17026524D02*
X17734524Y-17017000D01*
X17753571Y-17007476D01*
X17801190Y-17007476D01*
X17820238Y-17017000D01*
X17829762Y-17026524D01*
X17839286Y-17045571D01*
X17839286Y-17064619D01*
X17829762Y-17093190D01*
X17715476Y-17207476D01*
X17839286Y-17207476D01*
X17915476Y-17007476D02*
X17915476Y-17045571D01*
X17991667Y-17007476D02*
X17991667Y-17045571D01*
X18286905Y-17283667D02*
X18277381Y-17274143D01*
X18258333Y-17245571D01*
X18248810Y-17226524D01*
X18239286Y-17197952D01*
X18229762Y-17150333D01*
X18229762Y-17112238D01*
X18239286Y-17064619D01*
X18248810Y-17036048D01*
X18258333Y-17017000D01*
X18277381Y-16988429D01*
X18286905Y-16978905D01*
X18467857Y-17207476D02*
X18353571Y-17207476D01*
X18410714Y-17207476D02*
X18410714Y-17007476D01*
X18391667Y-17036048D01*
X18372619Y-17055095D01*
X18353571Y-17064619D01*
X18544048Y-17026524D02*
X18553571Y-17017000D01*
X18572619Y-17007476D01*
X18620238Y-17007476D01*
X18639286Y-17017000D01*
X18648810Y-17026524D01*
X18658333Y-17045571D01*
X18658333Y-17064619D01*
X18648810Y-17093190D01*
X18534524Y-17207476D01*
X18658333Y-17207476D01*
X18896429Y-17207476D02*
X18896429Y-17007476D01*
X18982143Y-17207476D02*
X18982143Y-17102714D01*
X18972619Y-17083667D01*
X18953571Y-17074143D01*
X18925000Y-17074143D01*
X18905952Y-17083667D01*
X18896429Y-17093190D01*
X19105952Y-17207476D02*
X19086905Y-17197952D01*
X19077381Y-17188429D01*
X19067857Y-17169381D01*
X19067857Y-17112238D01*
X19077381Y-17093190D01*
X19086905Y-17083667D01*
X19105952Y-17074143D01*
X19134524Y-17074143D01*
X19153571Y-17083667D01*
X19163095Y-17093190D01*
X19172619Y-17112238D01*
X19172619Y-17169381D01*
X19163095Y-17188429D01*
X19153571Y-17197952D01*
X19134524Y-17207476D01*
X19105952Y-17207476D01*
X19286905Y-17207476D02*
X19267857Y-17197952D01*
X19258333Y-17178905D01*
X19258333Y-17007476D01*
X19439286Y-17197952D02*
X19420238Y-17207476D01*
X19382143Y-17207476D01*
X19363095Y-17197952D01*
X19353571Y-17178905D01*
X19353571Y-17102714D01*
X19363095Y-17083667D01*
X19382143Y-17074143D01*
X19420238Y-17074143D01*
X19439286Y-17083667D01*
X19448810Y-17102714D01*
X19448810Y-17121762D01*
X19353571Y-17140810D01*
X19525000Y-17197952D02*
X19544048Y-17207476D01*
X19582143Y-17207476D01*
X19601190Y-17197952D01*
X19610714Y-17178905D01*
X19610714Y-17169381D01*
X19601190Y-17150333D01*
X19582143Y-17140810D01*
X19553571Y-17140810D01*
X19534524Y-17131286D01*
X19525000Y-17112238D01*
X19525000Y-17102714D01*
X19534524Y-17083667D01*
X19553571Y-17074143D01*
X19582143Y-17074143D01*
X19601190Y-17083667D01*
X19677381Y-17283667D02*
X19686905Y-17274143D01*
X19705952Y-17245571D01*
X19715476Y-17226524D01*
X19725000Y-17197952D01*
X19734524Y-17150333D01*
X19734524Y-17112238D01*
X19725000Y-17064619D01*
X19715476Y-17036048D01*
X19705952Y-17017000D01*
X19686905Y-16988429D01*
X19677381Y-16978905D01*
D15*
X14654000Y-17442000D02*
X14715000Y-17381000D01*
X14654000Y-17320000D01*
X14593000Y-17381000D01*
X14654000Y-17442000D01*
D11*
X15077381Y-17471476D02*
X14963095Y-17471476D01*
X15020238Y-17471476D02*
X15020238Y-17271476D01*
X15001190Y-17300048D01*
X14982143Y-17319095D01*
X14963095Y-17328619D01*
X15163095Y-17452429D02*
X15172619Y-17461952D01*
X15163095Y-17471476D01*
X15153571Y-17461952D01*
X15163095Y-17452429D01*
X15163095Y-17471476D01*
X15248809Y-17290524D02*
X15258333Y-17281000D01*
X15277381Y-17271476D01*
X15325000Y-17271476D01*
X15344048Y-17281000D01*
X15353571Y-17290524D01*
X15363095Y-17309571D01*
X15363095Y-17328619D01*
X15353571Y-17357190D01*
X15239286Y-17471476D01*
X15363095Y-17471476D01*
X15439286Y-17290524D02*
X15448809Y-17281000D01*
X15467857Y-17271476D01*
X15515476Y-17271476D01*
X15534524Y-17281000D01*
X15544048Y-17290524D01*
X15553571Y-17309571D01*
X15553571Y-17328619D01*
X15544048Y-17357190D01*
X15429762Y-17471476D01*
X15553571Y-17471476D01*
X15677381Y-17271476D02*
X15696428Y-17271476D01*
X15715476Y-17281000D01*
X15725000Y-17290524D01*
X15734524Y-17309571D01*
X15744048Y-17347667D01*
X15744048Y-17395286D01*
X15734524Y-17433381D01*
X15725000Y-17452429D01*
X15715476Y-17461952D01*
X15696428Y-17471476D01*
X15677381Y-17471476D01*
X15658333Y-17461952D01*
X15648809Y-17452429D01*
X15639286Y-17433381D01*
X15629762Y-17395286D01*
X15629762Y-17347667D01*
X15639286Y-17309571D01*
X15648809Y-17290524D01*
X15658333Y-17281000D01*
X15677381Y-17271476D01*
X15829762Y-17471476D02*
X15829762Y-17338143D01*
X15829762Y-17357190D02*
X15839286Y-17347667D01*
X15858333Y-17338143D01*
X15886905Y-17338143D01*
X15905952Y-17347667D01*
X15915476Y-17366714D01*
X15915476Y-17471476D01*
X15915476Y-17366714D02*
X15925000Y-17347667D01*
X15944048Y-17338143D01*
X15972619Y-17338143D01*
X15991667Y-17347667D01*
X16001190Y-17366714D01*
X16001190Y-17471476D01*
X16096428Y-17471476D02*
X16096428Y-17338143D01*
X16096428Y-17357190D02*
X16105952Y-17347667D01*
X16125000Y-17338143D01*
X16153571Y-17338143D01*
X16172619Y-17347667D01*
X16182143Y-17366714D01*
X16182143Y-17471476D01*
X16182143Y-17366714D02*
X16191667Y-17347667D01*
X16210714Y-17338143D01*
X16239286Y-17338143D01*
X16258333Y-17347667D01*
X16267857Y-17366714D01*
X16267857Y-17471476D01*
X16658333Y-17261952D02*
X16486905Y-17519095D01*
X16915476Y-17271476D02*
X16934524Y-17271476D01*
X16953571Y-17281000D01*
X16963095Y-17290524D01*
X16972619Y-17309571D01*
X16982143Y-17347667D01*
X16982143Y-17395286D01*
X16972619Y-17433381D01*
X16963095Y-17452429D01*
X16953571Y-17461952D01*
X16934524Y-17471476D01*
X16915476Y-17471476D01*
X16896429Y-17461952D01*
X16886905Y-17452429D01*
X16877381Y-17433381D01*
X16867857Y-17395286D01*
X16867857Y-17347667D01*
X16877381Y-17309571D01*
X16886905Y-17290524D01*
X16896429Y-17281000D01*
X16915476Y-17271476D01*
X17067857Y-17452429D02*
X17077381Y-17461952D01*
X17067857Y-17471476D01*
X17058333Y-17461952D01*
X17067857Y-17452429D01*
X17067857Y-17471476D01*
X17201190Y-17271476D02*
X17220238Y-17271476D01*
X17239286Y-17281000D01*
X17248810Y-17290524D01*
X17258333Y-17309571D01*
X17267857Y-17347667D01*
X17267857Y-17395286D01*
X17258333Y-17433381D01*
X17248810Y-17452429D01*
X17239286Y-17461952D01*
X17220238Y-17471476D01*
X17201190Y-17471476D01*
X17182143Y-17461952D01*
X17172619Y-17452429D01*
X17163095Y-17433381D01*
X17153571Y-17395286D01*
X17153571Y-17347667D01*
X17163095Y-17309571D01*
X17172619Y-17290524D01*
X17182143Y-17281000D01*
X17201190Y-17271476D01*
X17439286Y-17338143D02*
X17439286Y-17471476D01*
X17391667Y-17261952D02*
X17344048Y-17404810D01*
X17467857Y-17404810D01*
X17572619Y-17357190D02*
X17553571Y-17347667D01*
X17544048Y-17338143D01*
X17534524Y-17319095D01*
X17534524Y-17309571D01*
X17544048Y-17290524D01*
X17553571Y-17281000D01*
X17572619Y-17271476D01*
X17610714Y-17271476D01*
X17629762Y-17281000D01*
X17639286Y-17290524D01*
X17648810Y-17309571D01*
X17648810Y-17319095D01*
X17639286Y-17338143D01*
X17629762Y-17347667D01*
X17610714Y-17357190D01*
X17572619Y-17357190D01*
X17553571Y-17366714D01*
X17544048Y-17376238D01*
X17534524Y-17395286D01*
X17534524Y-17433381D01*
X17544048Y-17452429D01*
X17553571Y-17461952D01*
X17572619Y-17471476D01*
X17610714Y-17471476D01*
X17629762Y-17461952D01*
X17639286Y-17452429D01*
X17648810Y-17433381D01*
X17648810Y-17395286D01*
X17639286Y-17376238D01*
X17629762Y-17366714D01*
X17610714Y-17357190D01*
X17772619Y-17271476D02*
X17791667Y-17271476D01*
X17810714Y-17281000D01*
X17820238Y-17290524D01*
X17829762Y-17309571D01*
X17839286Y-17347667D01*
X17839286Y-17395286D01*
X17829762Y-17433381D01*
X17820238Y-17452429D01*
X17810714Y-17461952D01*
X17791667Y-17471476D01*
X17772619Y-17471476D01*
X17753571Y-17461952D01*
X17744048Y-17452429D01*
X17734524Y-17433381D01*
X17725000Y-17395286D01*
X17725000Y-17347667D01*
X17734524Y-17309571D01*
X17744048Y-17290524D01*
X17753571Y-17281000D01*
X17772619Y-17271476D01*
X17915476Y-17271476D02*
X17915476Y-17309571D01*
X17991667Y-17271476D02*
X17991667Y-17309571D01*
X18286905Y-17547667D02*
X18277381Y-17538143D01*
X18258333Y-17509571D01*
X18248810Y-17490524D01*
X18239286Y-17461952D01*
X18229762Y-17414333D01*
X18229762Y-17376238D01*
X18239286Y-17328619D01*
X18248810Y-17300048D01*
X18258333Y-17281000D01*
X18277381Y-17252429D01*
X18286905Y-17242905D01*
X18458333Y-17271476D02*
X18363095Y-17271476D01*
X18353571Y-17366714D01*
X18363095Y-17357190D01*
X18382143Y-17347667D01*
X18429762Y-17347667D01*
X18448810Y-17357190D01*
X18458333Y-17366714D01*
X18467857Y-17385762D01*
X18467857Y-17433381D01*
X18458333Y-17452429D01*
X18448810Y-17461952D01*
X18429762Y-17471476D01*
X18382143Y-17471476D01*
X18363095Y-17461952D01*
X18353571Y-17452429D01*
X18705952Y-17471476D02*
X18705952Y-17271476D01*
X18791667Y-17471476D02*
X18791667Y-17366714D01*
X18782143Y-17347667D01*
X18763095Y-17338143D01*
X18734524Y-17338143D01*
X18715476Y-17347667D01*
X18705952Y-17357190D01*
X18915476Y-17471476D02*
X18896429Y-17461952D01*
X18886905Y-17452429D01*
X18877381Y-17433381D01*
X18877381Y-17376238D01*
X18886905Y-17357190D01*
X18896429Y-17347667D01*
X18915476Y-17338143D01*
X18944048Y-17338143D01*
X18963095Y-17347667D01*
X18972619Y-17357190D01*
X18982143Y-17376238D01*
X18982143Y-17433381D01*
X18972619Y-17452429D01*
X18963095Y-17461952D01*
X18944048Y-17471476D01*
X18915476Y-17471476D01*
X19096429Y-17471476D02*
X19077381Y-17461952D01*
X19067857Y-17442905D01*
X19067857Y-17271476D01*
X19248810Y-17461952D02*
X19229762Y-17471476D01*
X19191667Y-17471476D01*
X19172619Y-17461952D01*
X19163095Y-17442905D01*
X19163095Y-17366714D01*
X19172619Y-17347667D01*
X19191667Y-17338143D01*
X19229762Y-17338143D01*
X19248810Y-17347667D01*
X19258333Y-17366714D01*
X19258333Y-17385762D01*
X19163095Y-17404810D01*
X19334524Y-17461952D02*
X19353571Y-17471476D01*
X19391667Y-17471476D01*
X19410714Y-17461952D01*
X19420238Y-17442905D01*
X19420238Y-17433381D01*
X19410714Y-17414333D01*
X19391667Y-17404810D01*
X19363095Y-17404810D01*
X19344048Y-17395286D01*
X19334524Y-17376238D01*
X19334524Y-17366714D01*
X19344048Y-17347667D01*
X19363095Y-17338143D01*
X19391667Y-17338143D01*
X19410714Y-17347667D01*
X19486905Y-17547667D02*
X19496429Y-17538143D01*
X19515476Y-17509571D01*
X19525000Y-17490524D01*
X19534524Y-17461952D01*
X19544048Y-17414333D01*
X19544048Y-17376238D01*
X19534524Y-17328619D01*
X19525000Y-17300048D01*
X19515476Y-17281000D01*
X19496429Y-17252429D01*
X19486905Y-17242905D01*
D16*
X14573000Y-17574000D02*
X14715000Y-17716000D01*
X14715000Y-17574000D02*
X14573000Y-17716000D01*
X14715000Y-17645000D02*
G75*
G03*
X14715000Y-17645000I-71000J0D01*
G01*
D11*
X15077381Y-17735476D02*
X14963095Y-17735476D01*
X15020238Y-17735476D02*
X15020238Y-17535476D01*
X15001190Y-17564048D01*
X14982143Y-17583095D01*
X14963095Y-17592619D01*
X15163095Y-17716429D02*
X15172619Y-17725952D01*
X15163095Y-17735476D01*
X15153571Y-17725952D01*
X15163095Y-17716429D01*
X15163095Y-17735476D01*
X15344048Y-17602143D02*
X15344048Y-17735476D01*
X15296428Y-17525952D02*
X15248809Y-17668810D01*
X15372619Y-17668810D01*
X15439286Y-17554524D02*
X15448809Y-17545000D01*
X15467857Y-17535476D01*
X15515476Y-17535476D01*
X15534524Y-17545000D01*
X15544048Y-17554524D01*
X15553571Y-17573571D01*
X15553571Y-17592619D01*
X15544048Y-17621190D01*
X15429762Y-17735476D01*
X15553571Y-17735476D01*
X15677381Y-17535476D02*
X15696428Y-17535476D01*
X15715476Y-17545000D01*
X15725000Y-17554524D01*
X15734524Y-17573571D01*
X15744048Y-17611667D01*
X15744048Y-17659286D01*
X15734524Y-17697381D01*
X15725000Y-17716429D01*
X15715476Y-17725952D01*
X15696428Y-17735476D01*
X15677381Y-17735476D01*
X15658333Y-17725952D01*
X15648809Y-17716429D01*
X15639286Y-17697381D01*
X15629762Y-17659286D01*
X15629762Y-17611667D01*
X15639286Y-17573571D01*
X15648809Y-17554524D01*
X15658333Y-17545000D01*
X15677381Y-17535476D01*
X15829762Y-17735476D02*
X15829762Y-17602143D01*
X15829762Y-17621190D02*
X15839286Y-17611667D01*
X15858333Y-17602143D01*
X15886905Y-17602143D01*
X15905952Y-17611667D01*
X15915476Y-17630714D01*
X15915476Y-17735476D01*
X15915476Y-17630714D02*
X15925000Y-17611667D01*
X15944048Y-17602143D01*
X15972619Y-17602143D01*
X15991667Y-17611667D01*
X16001190Y-17630714D01*
X16001190Y-17735476D01*
X16096428Y-17735476D02*
X16096428Y-17602143D01*
X16096428Y-17621190D02*
X16105952Y-17611667D01*
X16125000Y-17602143D01*
X16153571Y-17602143D01*
X16172619Y-17611667D01*
X16182143Y-17630714D01*
X16182143Y-17735476D01*
X16182143Y-17630714D02*
X16191667Y-17611667D01*
X16210714Y-17602143D01*
X16239286Y-17602143D01*
X16258333Y-17611667D01*
X16267857Y-17630714D01*
X16267857Y-17735476D01*
X16658333Y-17525952D02*
X16486905Y-17783095D01*
X16915476Y-17535476D02*
X16934524Y-17535476D01*
X16953571Y-17545000D01*
X16963095Y-17554524D01*
X16972619Y-17573571D01*
X16982143Y-17611667D01*
X16982143Y-17659286D01*
X16972619Y-17697381D01*
X16963095Y-17716429D01*
X16953571Y-17725952D01*
X16934524Y-17735476D01*
X16915476Y-17735476D01*
X16896429Y-17725952D01*
X16886905Y-17716429D01*
X16877381Y-17697381D01*
X16867857Y-17659286D01*
X16867857Y-17611667D01*
X16877381Y-17573571D01*
X16886905Y-17554524D01*
X16896429Y-17545000D01*
X16915476Y-17535476D01*
X17067857Y-17716429D02*
X17077381Y-17725952D01*
X17067857Y-17735476D01*
X17058333Y-17725952D01*
X17067857Y-17716429D01*
X17067857Y-17735476D01*
X17201190Y-17535476D02*
X17220238Y-17535476D01*
X17239286Y-17545000D01*
X17248810Y-17554524D01*
X17258333Y-17573571D01*
X17267857Y-17611667D01*
X17267857Y-17659286D01*
X17258333Y-17697381D01*
X17248810Y-17716429D01*
X17239286Y-17725952D01*
X17220238Y-17735476D01*
X17201190Y-17735476D01*
X17182143Y-17725952D01*
X17172619Y-17716429D01*
X17163095Y-17697381D01*
X17153571Y-17659286D01*
X17153571Y-17611667D01*
X17163095Y-17573571D01*
X17172619Y-17554524D01*
X17182143Y-17545000D01*
X17201190Y-17535476D01*
X17448810Y-17535476D02*
X17353571Y-17535476D01*
X17344048Y-17630714D01*
X17353571Y-17621190D01*
X17372619Y-17611667D01*
X17420238Y-17611667D01*
X17439286Y-17621190D01*
X17448810Y-17630714D01*
X17458333Y-17649762D01*
X17458333Y-17697381D01*
X17448810Y-17716429D01*
X17439286Y-17725952D01*
X17420238Y-17735476D01*
X17372619Y-17735476D01*
X17353571Y-17725952D01*
X17344048Y-17716429D01*
X17639286Y-17535476D02*
X17544048Y-17535476D01*
X17534524Y-17630714D01*
X17544048Y-17621190D01*
X17563095Y-17611667D01*
X17610714Y-17611667D01*
X17629762Y-17621190D01*
X17639286Y-17630714D01*
X17648810Y-17649762D01*
X17648810Y-17697381D01*
X17639286Y-17716429D01*
X17629762Y-17725952D01*
X17610714Y-17735476D01*
X17563095Y-17735476D01*
X17544048Y-17725952D01*
X17534524Y-17716429D01*
X17744048Y-17735476D02*
X17782143Y-17735476D01*
X17801190Y-17725952D01*
X17810714Y-17716429D01*
X17829762Y-17687857D01*
X17839286Y-17649762D01*
X17839286Y-17573571D01*
X17829762Y-17554524D01*
X17820238Y-17545000D01*
X17801190Y-17535476D01*
X17763095Y-17535476D01*
X17744048Y-17545000D01*
X17734524Y-17554524D01*
X17725000Y-17573571D01*
X17725000Y-17621190D01*
X17734524Y-17640238D01*
X17744048Y-17649762D01*
X17763095Y-17659286D01*
X17801190Y-17659286D01*
X17820238Y-17649762D01*
X17829762Y-17640238D01*
X17839286Y-17621190D01*
X17915476Y-17535476D02*
X17915476Y-17573571D01*
X17991667Y-17535476D02*
X17991667Y-17573571D01*
X18286905Y-17811667D02*
X18277381Y-17802143D01*
X18258333Y-17773571D01*
X18248810Y-17754524D01*
X18239286Y-17725952D01*
X18229762Y-17678333D01*
X18229762Y-17640238D01*
X18239286Y-17592619D01*
X18248810Y-17564048D01*
X18258333Y-17545000D01*
X18277381Y-17516429D01*
X18286905Y-17506905D01*
X18458333Y-17535476D02*
X18363095Y-17535476D01*
X18353571Y-17630714D01*
X18363095Y-17621190D01*
X18382143Y-17611667D01*
X18429762Y-17611667D01*
X18448810Y-17621190D01*
X18458333Y-17630714D01*
X18467857Y-17649762D01*
X18467857Y-17697381D01*
X18458333Y-17716429D01*
X18448810Y-17725952D01*
X18429762Y-17735476D01*
X18382143Y-17735476D01*
X18363095Y-17725952D01*
X18353571Y-17716429D01*
X18705952Y-17735476D02*
X18705952Y-17535476D01*
X18791667Y-17735476D02*
X18791667Y-17630714D01*
X18782143Y-17611667D01*
X18763095Y-17602143D01*
X18734524Y-17602143D01*
X18715476Y-17611667D01*
X18705952Y-17621190D01*
X18915476Y-17735476D02*
X18896429Y-17725952D01*
X18886905Y-17716429D01*
X18877381Y-17697381D01*
X18877381Y-17640238D01*
X18886905Y-17621190D01*
X18896429Y-17611667D01*
X18915476Y-17602143D01*
X18944048Y-17602143D01*
X18963095Y-17611667D01*
X18972619Y-17621190D01*
X18982143Y-17640238D01*
X18982143Y-17697381D01*
X18972619Y-17716429D01*
X18963095Y-17725952D01*
X18944048Y-17735476D01*
X18915476Y-17735476D01*
X19096429Y-17735476D02*
X19077381Y-17725952D01*
X19067857Y-17706905D01*
X19067857Y-17535476D01*
X19248810Y-17725952D02*
X19229762Y-17735476D01*
X19191667Y-17735476D01*
X19172619Y-17725952D01*
X19163095Y-17706905D01*
X19163095Y-17630714D01*
X19172619Y-17611667D01*
X19191667Y-17602143D01*
X19229762Y-17602143D01*
X19248810Y-17611667D01*
X19258333Y-17630714D01*
X19258333Y-17649762D01*
X19163095Y-17668810D01*
X19334524Y-17725952D02*
X19353571Y-17735476D01*
X19391667Y-17735476D01*
X19410714Y-17725952D01*
X19420238Y-17706905D01*
X19420238Y-17697381D01*
X19410714Y-17678333D01*
X19391667Y-17668810D01*
X19363095Y-17668810D01*
X19344048Y-17659286D01*
X19334524Y-17640238D01*
X19334524Y-17630714D01*
X19344048Y-17611667D01*
X19363095Y-17602143D01*
X19391667Y-17602143D01*
X19410714Y-17611667D01*
X19486905Y-17811667D02*
X19496429Y-17802143D01*
X19515476Y-17773571D01*
X19525000Y-17754524D01*
X19534524Y-17725952D01*
X19544048Y-17678333D01*
X19544048Y-17640238D01*
X19534524Y-17592619D01*
X19525000Y-17564048D01*
X19515476Y-17545000D01*
X19496429Y-17516429D01*
X19486905Y-17506905D01*
D17*
X14572000Y-17837500D02*
X14715000Y-17980500D01*
X14715000Y-17837500D02*
X14572000Y-17980500D01*
X14643500Y-17837500D02*
X14643500Y-17980500D01*
X14572000Y-17909000D02*
X14715000Y-17909000D01*
D11*
X15077381Y-17999476D02*
X14963095Y-17999476D01*
X15020238Y-17999476D02*
X15020238Y-17799476D01*
X15001190Y-17828048D01*
X14982143Y-17847095D01*
X14963095Y-17856619D01*
X15163095Y-17980429D02*
X15172619Y-17989952D01*
X15163095Y-17999476D01*
X15153571Y-17989952D01*
X15163095Y-17980429D01*
X15163095Y-17999476D01*
X15344048Y-17866143D02*
X15344048Y-17999476D01*
X15296428Y-17789952D02*
X15248809Y-17932810D01*
X15372619Y-17932810D01*
X15429762Y-17799476D02*
X15553571Y-17799476D01*
X15486905Y-17875667D01*
X15515476Y-17875667D01*
X15534524Y-17885190D01*
X15544048Y-17894714D01*
X15553571Y-17913762D01*
X15553571Y-17961381D01*
X15544048Y-17980429D01*
X15534524Y-17989952D01*
X15515476Y-17999476D01*
X15458333Y-17999476D01*
X15439286Y-17989952D01*
X15429762Y-17980429D01*
X15677381Y-17799476D02*
X15696428Y-17799476D01*
X15715476Y-17809000D01*
X15725000Y-17818524D01*
X15734524Y-17837571D01*
X15744048Y-17875667D01*
X15744048Y-17923286D01*
X15734524Y-17961381D01*
X15725000Y-17980429D01*
X15715476Y-17989952D01*
X15696428Y-17999476D01*
X15677381Y-17999476D01*
X15658333Y-17989952D01*
X15648809Y-17980429D01*
X15639286Y-17961381D01*
X15629762Y-17923286D01*
X15629762Y-17875667D01*
X15639286Y-17837571D01*
X15648809Y-17818524D01*
X15658333Y-17809000D01*
X15677381Y-17799476D01*
X15829762Y-17999476D02*
X15829762Y-17866143D01*
X15829762Y-17885190D02*
X15839286Y-17875667D01*
X15858333Y-17866143D01*
X15886905Y-17866143D01*
X15905952Y-17875667D01*
X15915476Y-17894714D01*
X15915476Y-17999476D01*
X15915476Y-17894714D02*
X15925000Y-17875667D01*
X15944048Y-17866143D01*
X15972619Y-17866143D01*
X15991667Y-17875667D01*
X16001190Y-17894714D01*
X16001190Y-17999476D01*
X16096428Y-17999476D02*
X16096428Y-17866143D01*
X16096428Y-17885190D02*
X16105952Y-17875667D01*
X16125000Y-17866143D01*
X16153571Y-17866143D01*
X16172619Y-17875667D01*
X16182143Y-17894714D01*
X16182143Y-17999476D01*
X16182143Y-17894714D02*
X16191667Y-17875667D01*
X16210714Y-17866143D01*
X16239286Y-17866143D01*
X16258333Y-17875667D01*
X16267857Y-17894714D01*
X16267857Y-17999476D01*
X16658333Y-17789952D02*
X16486905Y-18047095D01*
X16915476Y-17799476D02*
X16934524Y-17799476D01*
X16953571Y-17809000D01*
X16963095Y-17818524D01*
X16972619Y-17837571D01*
X16982143Y-17875667D01*
X16982143Y-17923286D01*
X16972619Y-17961381D01*
X16963095Y-17980429D01*
X16953571Y-17989952D01*
X16934524Y-17999476D01*
X16915476Y-17999476D01*
X16896429Y-17989952D01*
X16886905Y-17980429D01*
X16877381Y-17961381D01*
X16867857Y-17923286D01*
X16867857Y-17875667D01*
X16877381Y-17837571D01*
X16886905Y-17818524D01*
X16896429Y-17809000D01*
X16915476Y-17799476D01*
X17067857Y-17980429D02*
X17077381Y-17989952D01*
X17067857Y-17999476D01*
X17058333Y-17989952D01*
X17067857Y-17980429D01*
X17067857Y-17999476D01*
X17201190Y-17799476D02*
X17220238Y-17799476D01*
X17239286Y-17809000D01*
X17248810Y-17818524D01*
X17258333Y-17837571D01*
X17267857Y-17875667D01*
X17267857Y-17923286D01*
X17258333Y-17961381D01*
X17248810Y-17980429D01*
X17239286Y-17989952D01*
X17220238Y-17999476D01*
X17201190Y-17999476D01*
X17182143Y-17989952D01*
X17172619Y-17980429D01*
X17163095Y-17961381D01*
X17153571Y-17923286D01*
X17153571Y-17875667D01*
X17163095Y-17837571D01*
X17172619Y-17818524D01*
X17182143Y-17809000D01*
X17201190Y-17799476D01*
X17448810Y-17799476D02*
X17353571Y-17799476D01*
X17344048Y-17894714D01*
X17353571Y-17885190D01*
X17372619Y-17875667D01*
X17420238Y-17875667D01*
X17439286Y-17885190D01*
X17448810Y-17894714D01*
X17458333Y-17913762D01*
X17458333Y-17961381D01*
X17448810Y-17980429D01*
X17439286Y-17989952D01*
X17420238Y-17999476D01*
X17372619Y-17999476D01*
X17353571Y-17989952D01*
X17344048Y-17980429D01*
X17629762Y-17799476D02*
X17591667Y-17799476D01*
X17572619Y-17809000D01*
X17563095Y-17818524D01*
X17544048Y-17847095D01*
X17534524Y-17885190D01*
X17534524Y-17961381D01*
X17544048Y-17980429D01*
X17553571Y-17989952D01*
X17572619Y-17999476D01*
X17610714Y-17999476D01*
X17629762Y-17989952D01*
X17639286Y-17980429D01*
X17648810Y-17961381D01*
X17648810Y-17913762D01*
X17639286Y-17894714D01*
X17629762Y-17885190D01*
X17610714Y-17875667D01*
X17572619Y-17875667D01*
X17553571Y-17885190D01*
X17544048Y-17894714D01*
X17534524Y-17913762D01*
X17715476Y-17799476D02*
X17839286Y-17799476D01*
X17772619Y-17875667D01*
X17801190Y-17875667D01*
X17820238Y-17885190D01*
X17829762Y-17894714D01*
X17839286Y-17913762D01*
X17839286Y-17961381D01*
X17829762Y-17980429D01*
X17820238Y-17989952D01*
X17801190Y-17999476D01*
X17744048Y-17999476D01*
X17725000Y-17989952D01*
X17715476Y-17980429D01*
X17915476Y-17799476D02*
X17915476Y-17837571D01*
X17991667Y-17799476D02*
X17991667Y-17837571D01*
X18286905Y-18075667D02*
X18277381Y-18066143D01*
X18258333Y-18037571D01*
X18248810Y-18018524D01*
X18239286Y-17989952D01*
X18229762Y-17942333D01*
X18229762Y-17904238D01*
X18239286Y-17856619D01*
X18248810Y-17828048D01*
X18258333Y-17809000D01*
X18277381Y-17780429D01*
X18286905Y-17770905D01*
X18458333Y-17799476D02*
X18363095Y-17799476D01*
X18353571Y-17894714D01*
X18363095Y-17885190D01*
X18382143Y-17875667D01*
X18429762Y-17875667D01*
X18448810Y-17885190D01*
X18458333Y-17894714D01*
X18467857Y-17913762D01*
X18467857Y-17961381D01*
X18458333Y-17980429D01*
X18448810Y-17989952D01*
X18429762Y-17999476D01*
X18382143Y-17999476D01*
X18363095Y-17989952D01*
X18353571Y-17980429D01*
X18705952Y-17999476D02*
X18705952Y-17799476D01*
X18791667Y-17999476D02*
X18791667Y-17894714D01*
X18782143Y-17875667D01*
X18763095Y-17866143D01*
X18734524Y-17866143D01*
X18715476Y-17875667D01*
X18705952Y-17885190D01*
X18915476Y-17999476D02*
X18896429Y-17989952D01*
X18886905Y-17980429D01*
X18877381Y-17961381D01*
X18877381Y-17904238D01*
X18886905Y-17885190D01*
X18896429Y-17875667D01*
X18915476Y-17866143D01*
X18944048Y-17866143D01*
X18963095Y-17875667D01*
X18972619Y-17885190D01*
X18982143Y-17904238D01*
X18982143Y-17961381D01*
X18972619Y-17980429D01*
X18963095Y-17989952D01*
X18944048Y-17999476D01*
X18915476Y-17999476D01*
X19096429Y-17999476D02*
X19077381Y-17989952D01*
X19067857Y-17970905D01*
X19067857Y-17799476D01*
X19248810Y-17989952D02*
X19229762Y-17999476D01*
X19191667Y-17999476D01*
X19172619Y-17989952D01*
X19163095Y-17970905D01*
X19163095Y-17894714D01*
X19172619Y-17875667D01*
X19191667Y-17866143D01*
X19229762Y-17866143D01*
X19248810Y-17875667D01*
X19258333Y-17894714D01*
X19258333Y-17913762D01*
X19163095Y-17932810D01*
X19334524Y-17989952D02*
X19353571Y-17999476D01*
X19391667Y-17999476D01*
X19410714Y-17989952D01*
X19420238Y-17970905D01*
X19420238Y-17961381D01*
X19410714Y-17942333D01*
X19391667Y-17932810D01*
X19363095Y-17932810D01*
X19344048Y-17923286D01*
X19334524Y-17904238D01*
X19334524Y-17894714D01*
X19344048Y-17875667D01*
X19363095Y-17866143D01*
X19391667Y-17866143D01*
X19410714Y-17875667D01*
X19486905Y-18075667D02*
X19496429Y-18066143D01*
X19515476Y-18037571D01*
X19525000Y-18018524D01*
X19534524Y-17989952D01*
X19544048Y-17942333D01*
X19544048Y-17904238D01*
X19534524Y-17856619D01*
X19525000Y-17828048D01*
X19515476Y-17809000D01*
X19496429Y-17780429D01*
X19486905Y-17770905D01*
D18*
X14545000Y-18088000D02*
X14715000Y-18258000D01*
X14715000Y-18088000D02*
X14545000Y-18258000D01*
X14690105Y-18233105D02*
X14690105Y-18112895D01*
X14569895Y-18112895D01*
X14569895Y-18233105D01*
X14690105Y-18233105D01*
D11*
X15077381Y-18263476D02*
X14963095Y-18263476D01*
X15020238Y-18263476D02*
X15020238Y-18063476D01*
X15001190Y-18092048D01*
X14982143Y-18111095D01*
X14963095Y-18120619D01*
X15163095Y-18244429D02*
X15172619Y-18253952D01*
X15163095Y-18263476D01*
X15153571Y-18253952D01*
X15163095Y-18244429D01*
X15163095Y-18263476D01*
X15239286Y-18063476D02*
X15372619Y-18063476D01*
X15286905Y-18263476D01*
X15486905Y-18063476D02*
X15505952Y-18063476D01*
X15525000Y-18073000D01*
X15534524Y-18082524D01*
X15544048Y-18101571D01*
X15553571Y-18139667D01*
X15553571Y-18187286D01*
X15544048Y-18225381D01*
X15534524Y-18244429D01*
X15525000Y-18253952D01*
X15505952Y-18263476D01*
X15486905Y-18263476D01*
X15467857Y-18253952D01*
X15458333Y-18244429D01*
X15448809Y-18225381D01*
X15439286Y-18187286D01*
X15439286Y-18139667D01*
X15448809Y-18101571D01*
X15458333Y-18082524D01*
X15467857Y-18073000D01*
X15486905Y-18063476D01*
X15677381Y-18063476D02*
X15696428Y-18063476D01*
X15715476Y-18073000D01*
X15725000Y-18082524D01*
X15734524Y-18101571D01*
X15744048Y-18139667D01*
X15744048Y-18187286D01*
X15734524Y-18225381D01*
X15725000Y-18244429D01*
X15715476Y-18253952D01*
X15696428Y-18263476D01*
X15677381Y-18263476D01*
X15658333Y-18253952D01*
X15648809Y-18244429D01*
X15639286Y-18225381D01*
X15629762Y-18187286D01*
X15629762Y-18139667D01*
X15639286Y-18101571D01*
X15648809Y-18082524D01*
X15658333Y-18073000D01*
X15677381Y-18063476D01*
X15829762Y-18263476D02*
X15829762Y-18130143D01*
X15829762Y-18149190D02*
X15839286Y-18139667D01*
X15858333Y-18130143D01*
X15886905Y-18130143D01*
X15905952Y-18139667D01*
X15915476Y-18158714D01*
X15915476Y-18263476D01*
X15915476Y-18158714D02*
X15925000Y-18139667D01*
X15944048Y-18130143D01*
X15972619Y-18130143D01*
X15991667Y-18139667D01*
X16001190Y-18158714D01*
X16001190Y-18263476D01*
X16096428Y-18263476D02*
X16096428Y-18130143D01*
X16096428Y-18149190D02*
X16105952Y-18139667D01*
X16125000Y-18130143D01*
X16153571Y-18130143D01*
X16172619Y-18139667D01*
X16182143Y-18158714D01*
X16182143Y-18263476D01*
X16182143Y-18158714D02*
X16191667Y-18139667D01*
X16210714Y-18130143D01*
X16239286Y-18130143D01*
X16258333Y-18139667D01*
X16267857Y-18158714D01*
X16267857Y-18263476D01*
X16658333Y-18053952D02*
X16486905Y-18311095D01*
X16915476Y-18063476D02*
X16934524Y-18063476D01*
X16953571Y-18073000D01*
X16963095Y-18082524D01*
X16972619Y-18101571D01*
X16982143Y-18139667D01*
X16982143Y-18187286D01*
X16972619Y-18225381D01*
X16963095Y-18244429D01*
X16953571Y-18253952D01*
X16934524Y-18263476D01*
X16915476Y-18263476D01*
X16896429Y-18253952D01*
X16886905Y-18244429D01*
X16877381Y-18225381D01*
X16867857Y-18187286D01*
X16867857Y-18139667D01*
X16877381Y-18101571D01*
X16886905Y-18082524D01*
X16896429Y-18073000D01*
X16915476Y-18063476D01*
X17067857Y-18244429D02*
X17077381Y-18253952D01*
X17067857Y-18263476D01*
X17058333Y-18253952D01*
X17067857Y-18244429D01*
X17067857Y-18263476D01*
X17201190Y-18063476D02*
X17220238Y-18063476D01*
X17239286Y-18073000D01*
X17248810Y-18082524D01*
X17258333Y-18101571D01*
X17267857Y-18139667D01*
X17267857Y-18187286D01*
X17258333Y-18225381D01*
X17248810Y-18244429D01*
X17239286Y-18253952D01*
X17220238Y-18263476D01*
X17201190Y-18263476D01*
X17182143Y-18253952D01*
X17172619Y-18244429D01*
X17163095Y-18225381D01*
X17153571Y-18187286D01*
X17153571Y-18139667D01*
X17163095Y-18101571D01*
X17172619Y-18082524D01*
X17182143Y-18073000D01*
X17201190Y-18063476D01*
X17439286Y-18063476D02*
X17401190Y-18063476D01*
X17382143Y-18073000D01*
X17372619Y-18082524D01*
X17353571Y-18111095D01*
X17344048Y-18149190D01*
X17344048Y-18225381D01*
X17353571Y-18244429D01*
X17363095Y-18253952D01*
X17382143Y-18263476D01*
X17420238Y-18263476D01*
X17439286Y-18253952D01*
X17448810Y-18244429D01*
X17458333Y-18225381D01*
X17458333Y-18177762D01*
X17448810Y-18158714D01*
X17439286Y-18149190D01*
X17420238Y-18139667D01*
X17382143Y-18139667D01*
X17363095Y-18149190D01*
X17353571Y-18158714D01*
X17344048Y-18177762D01*
X17629762Y-18063476D02*
X17591667Y-18063476D01*
X17572619Y-18073000D01*
X17563095Y-18082524D01*
X17544048Y-18111095D01*
X17534524Y-18149190D01*
X17534524Y-18225381D01*
X17544048Y-18244429D01*
X17553571Y-18253952D01*
X17572619Y-18263476D01*
X17610714Y-18263476D01*
X17629762Y-18253952D01*
X17639286Y-18244429D01*
X17648810Y-18225381D01*
X17648810Y-18177762D01*
X17639286Y-18158714D01*
X17629762Y-18149190D01*
X17610714Y-18139667D01*
X17572619Y-18139667D01*
X17553571Y-18149190D01*
X17544048Y-18158714D01*
X17534524Y-18177762D01*
X17744048Y-18263476D02*
X17782143Y-18263476D01*
X17801190Y-18253952D01*
X17810714Y-18244429D01*
X17829762Y-18215857D01*
X17839286Y-18177762D01*
X17839286Y-18101571D01*
X17829762Y-18082524D01*
X17820238Y-18073000D01*
X17801190Y-18063476D01*
X17763095Y-18063476D01*
X17744048Y-18073000D01*
X17734524Y-18082524D01*
X17725000Y-18101571D01*
X17725000Y-18149190D01*
X17734524Y-18168238D01*
X17744048Y-18177762D01*
X17763095Y-18187286D01*
X17801190Y-18187286D01*
X17820238Y-18177762D01*
X17829762Y-18168238D01*
X17839286Y-18149190D01*
X17915476Y-18063476D02*
X17915476Y-18101571D01*
X17991667Y-18063476D02*
X17991667Y-18101571D01*
X18286905Y-18339667D02*
X18277381Y-18330143D01*
X18258333Y-18301571D01*
X18248810Y-18282524D01*
X18239286Y-18253952D01*
X18229762Y-18206333D01*
X18229762Y-18168238D01*
X18239286Y-18120619D01*
X18248810Y-18092048D01*
X18258333Y-18073000D01*
X18277381Y-18044429D01*
X18286905Y-18034905D01*
X18467857Y-18263476D02*
X18353571Y-18263476D01*
X18410714Y-18263476D02*
X18410714Y-18063476D01*
X18391667Y-18092048D01*
X18372619Y-18111095D01*
X18353571Y-18120619D01*
X18639286Y-18063476D02*
X18601190Y-18063476D01*
X18582143Y-18073000D01*
X18572619Y-18082524D01*
X18553571Y-18111095D01*
X18544048Y-18149190D01*
X18544048Y-18225381D01*
X18553571Y-18244429D01*
X18563095Y-18253952D01*
X18582143Y-18263476D01*
X18620238Y-18263476D01*
X18639286Y-18253952D01*
X18648810Y-18244429D01*
X18658333Y-18225381D01*
X18658333Y-18177762D01*
X18648810Y-18158714D01*
X18639286Y-18149190D01*
X18620238Y-18139667D01*
X18582143Y-18139667D01*
X18563095Y-18149190D01*
X18553571Y-18158714D01*
X18544048Y-18177762D01*
X18896429Y-18263476D02*
X18896429Y-18063476D01*
X18982143Y-18263476D02*
X18982143Y-18158714D01*
X18972619Y-18139667D01*
X18953571Y-18130143D01*
X18925000Y-18130143D01*
X18905952Y-18139667D01*
X18896429Y-18149190D01*
X19105952Y-18263476D02*
X19086905Y-18253952D01*
X19077381Y-18244429D01*
X19067857Y-18225381D01*
X19067857Y-18168238D01*
X19077381Y-18149190D01*
X19086905Y-18139667D01*
X19105952Y-18130143D01*
X19134524Y-18130143D01*
X19153571Y-18139667D01*
X19163095Y-18149190D01*
X19172619Y-18168238D01*
X19172619Y-18225381D01*
X19163095Y-18244429D01*
X19153571Y-18253952D01*
X19134524Y-18263476D01*
X19105952Y-18263476D01*
X19286905Y-18263476D02*
X19267857Y-18253952D01*
X19258333Y-18234905D01*
X19258333Y-18063476D01*
X19439286Y-18253952D02*
X19420238Y-18263476D01*
X19382143Y-18263476D01*
X19363095Y-18253952D01*
X19353571Y-18234905D01*
X19353571Y-18158714D01*
X19363095Y-18139667D01*
X19382143Y-18130143D01*
X19420238Y-18130143D01*
X19439286Y-18139667D01*
X19448810Y-18158714D01*
X19448810Y-18177762D01*
X19353571Y-18196810D01*
X19525000Y-18253952D02*
X19544048Y-18263476D01*
X19582143Y-18263476D01*
X19601190Y-18253952D01*
X19610714Y-18234905D01*
X19610714Y-18225381D01*
X19601190Y-18206333D01*
X19582143Y-18196810D01*
X19553571Y-18196810D01*
X19534524Y-18187286D01*
X19525000Y-18168238D01*
X19525000Y-18158714D01*
X19534524Y-18139667D01*
X19553571Y-18130143D01*
X19582143Y-18130143D01*
X19601190Y-18139667D01*
X19677381Y-18339667D02*
X19686905Y-18330143D01*
X19705952Y-18301571D01*
X19715476Y-18282524D01*
X19725000Y-18253952D01*
X19734524Y-18206333D01*
X19734524Y-18168238D01*
X19725000Y-18120619D01*
X19715476Y-18092048D01*
X19705952Y-18073000D01*
X19686905Y-18044429D01*
X19677381Y-18034905D01*
M02*
