%TF.GenerationSoftware,KiCad,Pcbnew,6.0.11+dfsg-1~bpo11+1*%
%TF.CreationDate,2023-04-14T14:38:57+08:00*%
%TF.ProjectId,MiniMix - Main,4d696e69-4d69-4782-902d-204d61696e2e,rev?*%
%TF.SameCoordinates,Original*%
%TF.FileFunction,Drillmap*%
%TF.FilePolarity,Positive*%
%FSLAX45Y45*%
G04 Gerber Fmt 4.5, Leading zero omitted, Abs format (unit mm)*
G04 Created by KiCad (PCBNEW 6.0.11+dfsg-1~bpo11+1) date 2023-04-14 14:38:57*
%MOMM*%
%LPD*%
G01*
G04 APERTURE LIST*
%ADD10C,0.100000*%
%ADD11C,0.200000*%
G04 APERTURE END LIST*
D10*
X14720000Y-15680000D02*
X19520000Y-15680000D01*
X19520000Y-15680000D02*
X19520000Y-5760000D01*
X19520000Y-5760000D02*
X14720000Y-5760000D01*
X14720000Y-5760000D02*
X14720000Y-15680000D01*
D11*
X14972619Y-15995476D02*
X14972619Y-15795476D01*
X15020238Y-15795476D01*
X15048809Y-15805000D01*
X15067857Y-15824048D01*
X15077381Y-15843095D01*
X15086905Y-15881190D01*
X15086905Y-15909762D01*
X15077381Y-15947857D01*
X15067857Y-15966905D01*
X15048809Y-15985952D01*
X15020238Y-15995476D01*
X14972619Y-15995476D01*
X15172619Y-15995476D02*
X15172619Y-15862143D01*
X15172619Y-15900238D02*
X15182143Y-15881190D01*
X15191667Y-15871667D01*
X15210714Y-15862143D01*
X15229762Y-15862143D01*
X15296428Y-15995476D02*
X15296428Y-15862143D01*
X15296428Y-15795476D02*
X15286905Y-15805000D01*
X15296428Y-15814524D01*
X15305952Y-15805000D01*
X15296428Y-15795476D01*
X15296428Y-15814524D01*
X15420238Y-15995476D02*
X15401190Y-15985952D01*
X15391667Y-15966905D01*
X15391667Y-15795476D01*
X15525000Y-15995476D02*
X15505952Y-15985952D01*
X15496428Y-15966905D01*
X15496428Y-15795476D01*
X15753571Y-15995476D02*
X15753571Y-15795476D01*
X15820238Y-15938333D01*
X15886905Y-15795476D01*
X15886905Y-15995476D01*
X16067857Y-15995476D02*
X16067857Y-15890714D01*
X16058333Y-15871667D01*
X16039286Y-15862143D01*
X16001190Y-15862143D01*
X15982143Y-15871667D01*
X16067857Y-15985952D02*
X16048809Y-15995476D01*
X16001190Y-15995476D01*
X15982143Y-15985952D01*
X15972619Y-15966905D01*
X15972619Y-15947857D01*
X15982143Y-15928809D01*
X16001190Y-15919286D01*
X16048809Y-15919286D01*
X16067857Y-15909762D01*
X16163095Y-15862143D02*
X16163095Y-16062143D01*
X16163095Y-15871667D02*
X16182143Y-15862143D01*
X16220238Y-15862143D01*
X16239286Y-15871667D01*
X16248809Y-15881190D01*
X16258333Y-15900238D01*
X16258333Y-15957381D01*
X16248809Y-15976428D01*
X16239286Y-15985952D01*
X16220238Y-15995476D01*
X16182143Y-15995476D01*
X16163095Y-15985952D01*
X16344048Y-15976428D02*
X16353571Y-15985952D01*
X16344048Y-15995476D01*
X16334524Y-15985952D01*
X16344048Y-15976428D01*
X16344048Y-15995476D01*
X16344048Y-15871667D02*
X16353571Y-15881190D01*
X16344048Y-15890714D01*
X16334524Y-15881190D01*
X16344048Y-15871667D01*
X16344048Y-15890714D01*
M02*
