%TF.GenerationSoftware,KiCad,Pcbnew,6.0.11+dfsg-1~bpo11+1*%
%TF.CreationDate,2023-04-14T14:38:55+08:00*%
%TF.ProjectId,MiniMix - Main,4d696e69-4d69-4782-902d-204d61696e2e,rev?*%
%TF.SameCoordinates,Original*%
%TF.FileFunction,Paste,Bot*%
%TF.FilePolarity,Positive*%
%FSLAX46Y46*%
G04 Gerber Fmt 4.6, Leading zero omitted, Abs format (unit mm)*
G04 Created by KiCad (PCBNEW 6.0.11+dfsg-1~bpo11+1) date 2023-04-14 14:38:55*
%MOMM*%
%LPD*%
G01*
G04 APERTURE LIST*
G04 Aperture macros list*
%AMRoundRect*
0 Rectangle with rounded corners*
0 $1 Rounding radius*
0 $2 $3 $4 $5 $6 $7 $8 $9 X,Y pos of 4 corners*
0 Add a 4 corners polygon primitive as box body*
4,1,4,$2,$3,$4,$5,$6,$7,$8,$9,$2,$3,0*
0 Add four circle primitives for the rounded corners*
1,1,$1+$1,$2,$3*
1,1,$1+$1,$4,$5*
1,1,$1+$1,$6,$7*
1,1,$1+$1,$8,$9*
0 Add four rect primitives between the rounded corners*
20,1,$1+$1,$2,$3,$4,$5,0*
20,1,$1+$1,$4,$5,$6,$7,0*
20,1,$1+$1,$6,$7,$8,$9,0*
20,1,$1+$1,$8,$9,$2,$3,0*%
G04 Aperture macros list end*
%ADD10RoundRect,0.237500X0.237500X-0.250000X0.237500X0.250000X-0.237500X0.250000X-0.237500X-0.250000X0*%
%ADD11RoundRect,0.237500X-0.300000X-0.237500X0.300000X-0.237500X0.300000X0.237500X-0.300000X0.237500X0*%
%ADD12RoundRect,0.237500X-0.250000X-0.237500X0.250000X-0.237500X0.250000X0.237500X-0.250000X0.237500X0*%
%ADD13RoundRect,0.237500X0.237500X-0.300000X0.237500X0.300000X-0.237500X0.300000X-0.237500X-0.300000X0*%
%ADD14RoundRect,0.237500X0.250000X0.237500X-0.250000X0.237500X-0.250000X-0.237500X0.250000X-0.237500X0*%
%ADD15RoundRect,0.237500X0.300000X0.237500X-0.300000X0.237500X-0.300000X-0.237500X0.300000X-0.237500X0*%
%ADD16RoundRect,0.250000X-0.475000X0.337500X-0.475000X-0.337500X0.475000X-0.337500X0.475000X0.337500X0*%
%ADD17RoundRect,0.150000X-0.825000X-0.150000X0.825000X-0.150000X0.825000X0.150000X-0.825000X0.150000X0*%
G04 APERTURE END LIST*
D10*
%TO.C,R12*%
X173550000Y-100662500D03*
X173550000Y-98837500D03*
%TD*%
%TO.C,R8*%
X172000000Y-100662500D03*
X172000000Y-98837500D03*
%TD*%
D11*
%TO.C,C12*%
X168287500Y-103350000D03*
X170012500Y-103350000D03*
%TD*%
%TO.C,C5*%
X163700000Y-88250000D03*
X165425000Y-88250000D03*
%TD*%
D10*
%TO.C,R22*%
X165100000Y-108812500D03*
X165100000Y-106987500D03*
%TD*%
D12*
%TO.C,R3*%
X152687500Y-88500000D03*
X154512500Y-88500000D03*
%TD*%
D10*
%TO.C,R9*%
X168900000Y-100662500D03*
X168900000Y-98837500D03*
%TD*%
%TO.C,R20*%
X177250000Y-106712500D03*
X177250000Y-104887500D03*
%TD*%
%TO.C,R7*%
X170450000Y-100662500D03*
X170450000Y-98837500D03*
%TD*%
D13*
%TO.C,C11*%
X174200000Y-112162500D03*
X174200000Y-110437500D03*
%TD*%
D14*
%TO.C,R11*%
X189512500Y-92200000D03*
X187687500Y-92200000D03*
%TD*%
D15*
%TO.C,C6*%
X178462500Y-89700000D03*
X176737500Y-89700000D03*
%TD*%
D16*
%TO.C,C4*%
X159100000Y-148412500D03*
X159100000Y-150487500D03*
%TD*%
D17*
%TO.C,U2*%
X180575000Y-92555000D03*
X180575000Y-91285000D03*
X180575000Y-90015000D03*
X180575000Y-88745000D03*
X185525000Y-88745000D03*
X185525000Y-90015000D03*
X185525000Y-91285000D03*
X185525000Y-92555000D03*
%TD*%
D13*
%TO.C,C9*%
X180100000Y-87062500D03*
X180100000Y-85337500D03*
%TD*%
%TO.C,C2*%
X156100000Y-86912500D03*
X156100000Y-85187500D03*
%TD*%
D16*
%TO.C,C3*%
X159100000Y-140362500D03*
X159100000Y-142437500D03*
%TD*%
D14*
%TO.C,R1*%
X165475000Y-86700000D03*
X163650000Y-86700000D03*
%TD*%
D12*
%TO.C,R5*%
X176687500Y-91250000D03*
X178512500Y-91250000D03*
%TD*%
D10*
%TO.C,R16*%
X175700000Y-106712500D03*
X175700000Y-104887500D03*
%TD*%
D17*
%TO.C,U1*%
X156575000Y-92405000D03*
X156575000Y-91135000D03*
X156575000Y-89865000D03*
X156575000Y-88595000D03*
X161525000Y-88595000D03*
X161525000Y-89865000D03*
X161525000Y-91135000D03*
X161525000Y-92405000D03*
%TD*%
%TO.C,U3*%
X168725000Y-108755000D03*
X168725000Y-107485000D03*
X168725000Y-106215000D03*
X168725000Y-104945000D03*
X173675000Y-104945000D03*
X173675000Y-106215000D03*
X173675000Y-107485000D03*
X173675000Y-108755000D03*
%TD*%
D11*
%TO.C,C10*%
X187737500Y-90650000D03*
X189462500Y-90650000D03*
%TD*%
D14*
%TO.C,R4*%
X165475000Y-89800000D03*
X163650000Y-89800000D03*
%TD*%
D13*
%TO.C,C1*%
X162000000Y-95812500D03*
X162000000Y-94087500D03*
%TD*%
D14*
%TO.C,R10*%
X189512500Y-89125000D03*
X187687500Y-89125000D03*
%TD*%
D12*
%TO.C,R2*%
X176687500Y-88150000D03*
X178512500Y-88150000D03*
%TD*%
D15*
%TO.C,C7*%
X154462500Y-90000000D03*
X152737500Y-90000000D03*
%TD*%
D10*
%TO.C,R21*%
X166650000Y-108812500D03*
X166650000Y-106987500D03*
%TD*%
D13*
%TO.C,C8*%
X186050000Y-95962500D03*
X186050000Y-94237500D03*
%TD*%
D12*
%TO.C,R6*%
X152687500Y-91500000D03*
X154512500Y-91500000D03*
%TD*%
M02*
