%TF.GenerationSoftware,KiCad,Pcbnew,6.0.11+dfsg-1~bpo11+1*%
%TF.CreationDate,2023-04-14T14:38:55+08:00*%
%TF.ProjectId,MiniMix - Main,4d696e69-4d69-4782-902d-204d61696e2e,rev?*%
%TF.SameCoordinates,Original*%
%TF.FileFunction,Legend,Top*%
%TF.FilePolarity,Positive*%
%FSLAX46Y46*%
G04 Gerber Fmt 4.6, Leading zero omitted, Abs format (unit mm)*
G04 Created by KiCad (PCBNEW 6.0.11+dfsg-1~bpo11+1) date 2023-04-14 14:38:55*
%MOMM*%
%LPD*%
G01*
G04 APERTURE LIST*
%ADD10C,0.150000*%
%ADD11C,0.120000*%
G04 APERTURE END LIST*
D10*
%TO.C,RV1*%
X159331655Y-104645238D02*
X158855465Y-104978571D01*
X159331655Y-105216666D02*
X158331655Y-105216666D01*
X158331655Y-104835714D01*
X158379275Y-104740476D01*
X158426894Y-104692857D01*
X158522132Y-104645238D01*
X158664989Y-104645238D01*
X158760227Y-104692857D01*
X158807846Y-104740476D01*
X158855465Y-104835714D01*
X158855465Y-105216666D01*
X158331655Y-104359523D02*
X159331655Y-104026190D01*
X158331655Y-103692857D01*
X159331655Y-102835714D02*
X159331655Y-103407142D01*
X159331655Y-103121428D02*
X158331655Y-103121428D01*
X158474513Y-103216666D01*
X158569751Y-103311904D01*
X158617370Y-103407142D01*
X148278571Y-73116666D02*
X148754761Y-73116666D01*
X148183333Y-73402380D02*
X148516666Y-72402380D01*
X148850000Y-73402380D01*
X149707142Y-73402380D02*
X149135714Y-73402380D01*
X149421428Y-73402380D02*
X149421428Y-72402380D01*
X149326190Y-72545238D01*
X149230952Y-72640476D01*
X149135714Y-72688095D01*
X150326190Y-72402380D02*
X150421428Y-72402380D01*
X150516666Y-72450000D01*
X150564285Y-72497619D01*
X150611904Y-72592857D01*
X150659523Y-72783333D01*
X150659523Y-73021428D01*
X150611904Y-73211904D01*
X150564285Y-73307142D01*
X150516666Y-73354761D01*
X150421428Y-73402380D01*
X150326190Y-73402380D01*
X150230952Y-73354761D01*
X150183333Y-73307142D01*
X150135714Y-73211904D01*
X150088095Y-73021428D01*
X150088095Y-72783333D01*
X150135714Y-72592857D01*
X150183333Y-72497619D01*
X150230952Y-72450000D01*
X150326190Y-72402380D01*
X151278571Y-72402380D02*
X151373809Y-72402380D01*
X151469047Y-72450000D01*
X151516666Y-72497619D01*
X151564285Y-72592857D01*
X151611904Y-72783333D01*
X151611904Y-73021428D01*
X151564285Y-73211904D01*
X151516666Y-73307142D01*
X151469047Y-73354761D01*
X151373809Y-73402380D01*
X151278571Y-73402380D01*
X151183333Y-73354761D01*
X151135714Y-73307142D01*
X151088095Y-73211904D01*
X151040476Y-73021428D01*
X151040476Y-72783333D01*
X151088095Y-72592857D01*
X151135714Y-72497619D01*
X151183333Y-72450000D01*
X151278571Y-72402380D01*
X152040476Y-73402380D02*
X152040476Y-72402380D01*
X152135714Y-73021428D02*
X152421428Y-73402380D01*
X152421428Y-72735714D02*
X152040476Y-73116666D01*
%TO.C,J3*%
X181046666Y-72062380D02*
X181046666Y-72776666D01*
X180999047Y-72919523D01*
X180903809Y-73014761D01*
X180760952Y-73062380D01*
X180665714Y-73062380D01*
X181427619Y-72062380D02*
X182046666Y-72062380D01*
X181713333Y-72443333D01*
X181856190Y-72443333D01*
X181951428Y-72490952D01*
X181999047Y-72538571D01*
X182046666Y-72633809D01*
X182046666Y-72871904D01*
X181999047Y-72967142D01*
X181951428Y-73014761D01*
X181856190Y-73062380D01*
X181570476Y-73062380D01*
X181475238Y-73014761D01*
X181427619Y-72967142D01*
%TO.C,J2*%
X164745941Y-55752380D02*
X164745941Y-56466666D01*
X164698322Y-56609523D01*
X164603084Y-56704761D01*
X164460227Y-56752380D01*
X164364989Y-56752380D01*
X165174513Y-55847619D02*
X165222132Y-55800000D01*
X165317370Y-55752380D01*
X165555465Y-55752380D01*
X165650703Y-55800000D01*
X165698322Y-55847619D01*
X165745941Y-55942857D01*
X165745941Y-56038095D01*
X165698322Y-56180952D01*
X165126894Y-56752380D01*
X165745941Y-56752380D01*
%TO.C,RV4*%
X194852380Y-104645238D02*
X194376190Y-104978571D01*
X194852380Y-105216666D02*
X193852380Y-105216666D01*
X193852380Y-104835714D01*
X193900000Y-104740476D01*
X193947619Y-104692857D01*
X194042857Y-104645238D01*
X194185714Y-104645238D01*
X194280952Y-104692857D01*
X194328571Y-104740476D01*
X194376190Y-104835714D01*
X194376190Y-105216666D01*
X193852380Y-104359523D02*
X194852380Y-104026190D01*
X193852380Y-103692857D01*
X194185714Y-102930952D02*
X194852380Y-102930952D01*
X193804761Y-103169047D02*
X194519047Y-103407142D01*
X194519047Y-102788095D01*
X184028571Y-73066666D02*
X184504761Y-73066666D01*
X183933333Y-73352380D02*
X184266666Y-72352380D01*
X184600000Y-73352380D01*
X185457142Y-73352380D02*
X184885714Y-73352380D01*
X185171428Y-73352380D02*
X185171428Y-72352380D01*
X185076190Y-72495238D01*
X184980952Y-72590476D01*
X184885714Y-72638095D01*
X186076190Y-72352380D02*
X186171428Y-72352380D01*
X186266666Y-72400000D01*
X186314285Y-72447619D01*
X186361904Y-72542857D01*
X186409523Y-72733333D01*
X186409523Y-72971428D01*
X186361904Y-73161904D01*
X186314285Y-73257142D01*
X186266666Y-73304761D01*
X186171428Y-73352380D01*
X186076190Y-73352380D01*
X185980952Y-73304761D01*
X185933333Y-73257142D01*
X185885714Y-73161904D01*
X185838095Y-72971428D01*
X185838095Y-72733333D01*
X185885714Y-72542857D01*
X185933333Y-72447619D01*
X185980952Y-72400000D01*
X186076190Y-72352380D01*
X187028571Y-72352380D02*
X187123809Y-72352380D01*
X187219047Y-72400000D01*
X187266666Y-72447619D01*
X187314285Y-72542857D01*
X187361904Y-72733333D01*
X187361904Y-72971428D01*
X187314285Y-73161904D01*
X187266666Y-73257142D01*
X187219047Y-73304761D01*
X187123809Y-73352380D01*
X187028571Y-73352380D01*
X186933333Y-73304761D01*
X186885714Y-73257142D01*
X186838095Y-73161904D01*
X186790476Y-72971428D01*
X186790476Y-72733333D01*
X186838095Y-72542857D01*
X186885714Y-72447619D01*
X186933333Y-72400000D01*
X187028571Y-72352380D01*
X187790476Y-73352380D02*
X187790476Y-72352380D01*
X187885714Y-72971428D02*
X188171428Y-73352380D01*
X188171428Y-72685714D02*
X187790476Y-73066666D01*
%TO.C,RV5*%
X178952380Y-148095238D02*
X178476190Y-148428571D01*
X178952380Y-148666666D02*
X177952380Y-148666666D01*
X177952380Y-148285714D01*
X178000000Y-148190476D01*
X178047619Y-148142857D01*
X178142857Y-148095238D01*
X178285714Y-148095238D01*
X178380952Y-148142857D01*
X178428571Y-148190476D01*
X178476190Y-148285714D01*
X178476190Y-148666666D01*
X177952380Y-147809523D02*
X178952380Y-147476190D01*
X177952380Y-147142857D01*
X177952380Y-146333333D02*
X177952380Y-146809523D01*
X178428571Y-146857142D01*
X178380952Y-146809523D01*
X178333333Y-146714285D01*
X178333333Y-146476190D01*
X178380952Y-146380952D01*
X178428571Y-146333333D01*
X178523809Y-146285714D01*
X178761904Y-146285714D01*
X178857142Y-146333333D01*
X178904761Y-146380952D01*
X178952380Y-146476190D01*
X178952380Y-146714285D01*
X178904761Y-146809523D01*
X178857142Y-146857142D01*
%TO.C,J1*%
X152795941Y-55752380D02*
X152795941Y-56466666D01*
X152748322Y-56609523D01*
X152653084Y-56704761D01*
X152510227Y-56752380D01*
X152414989Y-56752380D01*
X153795941Y-56752380D02*
X153224513Y-56752380D01*
X153510227Y-56752380D02*
X153510227Y-55752380D01*
X153414989Y-55895238D01*
X153319751Y-55990476D01*
X153224513Y-56038095D01*
%TO.C,J5*%
X170666666Y-138022380D02*
X170666666Y-138736666D01*
X170619047Y-138879523D01*
X170523809Y-138974761D01*
X170380952Y-139022380D01*
X170285714Y-139022380D01*
X171619047Y-138022380D02*
X171142857Y-138022380D01*
X171095238Y-138498571D01*
X171142857Y-138450952D01*
X171238095Y-138403333D01*
X171476190Y-138403333D01*
X171571428Y-138450952D01*
X171619047Y-138498571D01*
X171666666Y-138593809D01*
X171666666Y-138831904D01*
X171619047Y-138927142D01*
X171571428Y-138974761D01*
X171476190Y-139022380D01*
X171238095Y-139022380D01*
X171142857Y-138974761D01*
X171095238Y-138927142D01*
X163857142Y-155236666D02*
X164333333Y-155236666D01*
X163761904Y-155522380D02*
X164095238Y-154522380D01*
X164428571Y-155522380D01*
X165190476Y-154855714D02*
X165190476Y-155522380D01*
X164761904Y-154855714D02*
X164761904Y-155379523D01*
X164809523Y-155474761D01*
X164904761Y-155522380D01*
X165047619Y-155522380D01*
X165142857Y-155474761D01*
X165190476Y-155427142D01*
X166095238Y-155522380D02*
X166095238Y-154522380D01*
X166095238Y-155474761D02*
X166000000Y-155522380D01*
X165809523Y-155522380D01*
X165714285Y-155474761D01*
X165666666Y-155427142D01*
X165619047Y-155331904D01*
X165619047Y-155046190D01*
X165666666Y-154950952D01*
X165714285Y-154903333D01*
X165809523Y-154855714D01*
X166000000Y-154855714D01*
X166095238Y-154903333D01*
X166571428Y-155522380D02*
X166571428Y-154855714D01*
X166571428Y-154522380D02*
X166523809Y-154570000D01*
X166571428Y-154617619D01*
X166619047Y-154570000D01*
X166571428Y-154522380D01*
X166571428Y-154617619D01*
X167190476Y-155522380D02*
X167095238Y-155474761D01*
X167047619Y-155427142D01*
X167000000Y-155331904D01*
X167000000Y-155046190D01*
X167047619Y-154950952D01*
X167095238Y-154903333D01*
X167190476Y-154855714D01*
X167333333Y-154855714D01*
X167428571Y-154903333D01*
X167476190Y-154950952D01*
X167523809Y-155046190D01*
X167523809Y-155331904D01*
X167476190Y-155427142D01*
X167428571Y-155474761D01*
X167333333Y-155522380D01*
X167190476Y-155522380D01*
X168238095Y-154522380D02*
X168238095Y-155236666D01*
X168190476Y-155379523D01*
X168095238Y-155474761D01*
X167952380Y-155522380D01*
X167857142Y-155522380D01*
X169142857Y-155522380D02*
X169142857Y-154998571D01*
X169095238Y-154903333D01*
X169000000Y-154855714D01*
X168809523Y-154855714D01*
X168714285Y-154903333D01*
X169142857Y-155474761D02*
X169047619Y-155522380D01*
X168809523Y-155522380D01*
X168714285Y-155474761D01*
X168666666Y-155379523D01*
X168666666Y-155284285D01*
X168714285Y-155189047D01*
X168809523Y-155141428D01*
X169047619Y-155141428D01*
X169142857Y-155093809D01*
X170047619Y-155474761D02*
X169952380Y-155522380D01*
X169761904Y-155522380D01*
X169666666Y-155474761D01*
X169619047Y-155427142D01*
X169571428Y-155331904D01*
X169571428Y-155046190D01*
X169619047Y-154950952D01*
X169666666Y-154903333D01*
X169761904Y-154855714D01*
X169952380Y-154855714D01*
X170047619Y-154903333D01*
X170476190Y-155522380D02*
X170476190Y-154522380D01*
X170571428Y-155141428D02*
X170857142Y-155522380D01*
X170857142Y-154855714D02*
X170476190Y-155236666D01*
X171238095Y-154617619D02*
X171285714Y-154570000D01*
X171380952Y-154522380D01*
X171619047Y-154522380D01*
X171714285Y-154570000D01*
X171761904Y-154617619D01*
X171809523Y-154712857D01*
X171809523Y-154808095D01*
X171761904Y-154950952D01*
X171190476Y-155522380D01*
X171809523Y-155522380D01*
X172000000Y-155617619D02*
X172761904Y-155617619D01*
X172952380Y-155474761D02*
X173095238Y-155522380D01*
X173333333Y-155522380D01*
X173428571Y-155474761D01*
X173476190Y-155427142D01*
X173523809Y-155331904D01*
X173523809Y-155236666D01*
X173476190Y-155141428D01*
X173428571Y-155093809D01*
X173333333Y-155046190D01*
X173142857Y-154998571D01*
X173047619Y-154950952D01*
X173000000Y-154903333D01*
X172952380Y-154808095D01*
X172952380Y-154712857D01*
X173000000Y-154617619D01*
X173047619Y-154570000D01*
X173142857Y-154522380D01*
X173380952Y-154522380D01*
X173523809Y-154570000D01*
X173857142Y-154855714D02*
X174047619Y-155522380D01*
X174238095Y-155046190D01*
X174428571Y-155522380D01*
X174619047Y-154855714D01*
X175000000Y-155522380D02*
X175000000Y-154855714D01*
X175000000Y-154522380D02*
X174952380Y-154570000D01*
X175000000Y-154617619D01*
X175047619Y-154570000D01*
X175000000Y-154522380D01*
X175000000Y-154617619D01*
X175333333Y-154855714D02*
X175714285Y-154855714D01*
X175476190Y-154522380D02*
X175476190Y-155379523D01*
X175523809Y-155474761D01*
X175619047Y-155522380D01*
X175714285Y-155522380D01*
X176476190Y-155474761D02*
X176380952Y-155522380D01*
X176190476Y-155522380D01*
X176095238Y-155474761D01*
X176047619Y-155427142D01*
X176000000Y-155331904D01*
X176000000Y-155046190D01*
X176047619Y-154950952D01*
X176095238Y-154903333D01*
X176190476Y-154855714D01*
X176380952Y-154855714D01*
X176476190Y-154903333D01*
X176904761Y-155522380D02*
X176904761Y-154522380D01*
X177333333Y-155522380D02*
X177333333Y-154998571D01*
X177285714Y-154903333D01*
X177190476Y-154855714D01*
X177047619Y-154855714D01*
X176952380Y-154903333D01*
X176904761Y-154950952D01*
X177666666Y-154522380D02*
X178238095Y-154522380D01*
X177952380Y-155522380D02*
X177952380Y-154522380D01*
%TO.C,J4*%
X192206666Y-71522380D02*
X192206666Y-72236666D01*
X192159047Y-72379523D01*
X192063809Y-72474761D01*
X191920952Y-72522380D01*
X191825714Y-72522380D01*
X193111428Y-71855714D02*
X193111428Y-72522380D01*
X192873333Y-71474761D02*
X192635238Y-72189047D01*
X193254285Y-72189047D01*
%TO.C,RV3*%
X183342380Y-104765238D02*
X182866190Y-105098571D01*
X183342380Y-105336666D02*
X182342380Y-105336666D01*
X182342380Y-104955714D01*
X182390000Y-104860476D01*
X182437619Y-104812857D01*
X182532857Y-104765238D01*
X182675714Y-104765238D01*
X182770952Y-104812857D01*
X182818571Y-104860476D01*
X182866190Y-104955714D01*
X182866190Y-105336666D01*
X182342380Y-104479523D02*
X183342380Y-104146190D01*
X182342380Y-103812857D01*
X182342380Y-103574761D02*
X182342380Y-102955714D01*
X182723333Y-103289047D01*
X182723333Y-103146190D01*
X182770952Y-103050952D01*
X182818571Y-103003333D01*
X182913809Y-102955714D01*
X183151904Y-102955714D01*
X183247142Y-103003333D01*
X183294761Y-103050952D01*
X183342380Y-103146190D01*
X183342380Y-103431904D01*
X183294761Y-103527142D01*
X183247142Y-103574761D01*
X172239296Y-73186666D02*
X172715486Y-73186666D01*
X172144058Y-73472380D02*
X172477391Y-72472380D01*
X172810725Y-73472380D01*
X173667867Y-73472380D02*
X173096439Y-73472380D01*
X173382153Y-73472380D02*
X173382153Y-72472380D01*
X173286915Y-72615238D01*
X173191677Y-72710476D01*
X173096439Y-72758095D01*
X174286915Y-72472380D02*
X174382153Y-72472380D01*
X174477391Y-72520000D01*
X174525010Y-72567619D01*
X174572629Y-72662857D01*
X174620248Y-72853333D01*
X174620248Y-73091428D01*
X174572629Y-73281904D01*
X174525010Y-73377142D01*
X174477391Y-73424761D01*
X174382153Y-73472380D01*
X174286915Y-73472380D01*
X174191677Y-73424761D01*
X174144058Y-73377142D01*
X174096439Y-73281904D01*
X174048820Y-73091428D01*
X174048820Y-72853333D01*
X174096439Y-72662857D01*
X174144058Y-72567619D01*
X174191677Y-72520000D01*
X174286915Y-72472380D01*
X175239296Y-72472380D02*
X175334534Y-72472380D01*
X175429772Y-72520000D01*
X175477391Y-72567619D01*
X175525010Y-72662857D01*
X175572629Y-72853333D01*
X175572629Y-73091428D01*
X175525010Y-73281904D01*
X175477391Y-73377142D01*
X175429772Y-73424761D01*
X175334534Y-73472380D01*
X175239296Y-73472380D01*
X175144058Y-73424761D01*
X175096439Y-73377142D01*
X175048820Y-73281904D01*
X175001201Y-73091428D01*
X175001201Y-72853333D01*
X175048820Y-72662857D01*
X175096439Y-72567619D01*
X175144058Y-72520000D01*
X175239296Y-72472380D01*
X176001201Y-73472380D02*
X176001201Y-72472380D01*
X176096439Y-73091428D02*
X176382153Y-73472380D01*
X176382153Y-72805714D02*
X176001201Y-73186666D01*
%TO.C,RV2*%
X171331655Y-104645238D02*
X170855465Y-104978571D01*
X171331655Y-105216666D02*
X170331655Y-105216666D01*
X170331655Y-104835714D01*
X170379275Y-104740476D01*
X170426894Y-104692857D01*
X170522132Y-104645238D01*
X170664989Y-104645238D01*
X170760227Y-104692857D01*
X170807846Y-104740476D01*
X170855465Y-104835714D01*
X170855465Y-105216666D01*
X170331655Y-104359523D02*
X171331655Y-104026190D01*
X170331655Y-103692857D01*
X170426894Y-103407142D02*
X170379275Y-103359523D01*
X170331655Y-103264285D01*
X170331655Y-103026190D01*
X170379275Y-102930952D01*
X170426894Y-102883333D01*
X170522132Y-102835714D01*
X170617370Y-102835714D01*
X170760227Y-102883333D01*
X171331655Y-103454761D01*
X171331655Y-102835714D01*
X160278571Y-73116666D02*
X160754761Y-73116666D01*
X160183333Y-73402380D02*
X160516666Y-72402380D01*
X160850000Y-73402380D01*
X161707142Y-73402380D02*
X161135714Y-73402380D01*
X161421428Y-73402380D02*
X161421428Y-72402380D01*
X161326190Y-72545238D01*
X161230952Y-72640476D01*
X161135714Y-72688095D01*
X162326190Y-72402380D02*
X162421428Y-72402380D01*
X162516666Y-72450000D01*
X162564285Y-72497619D01*
X162611904Y-72592857D01*
X162659523Y-72783333D01*
X162659523Y-73021428D01*
X162611904Y-73211904D01*
X162564285Y-73307142D01*
X162516666Y-73354761D01*
X162421428Y-73402380D01*
X162326190Y-73402380D01*
X162230952Y-73354761D01*
X162183333Y-73307142D01*
X162135714Y-73211904D01*
X162088095Y-73021428D01*
X162088095Y-72783333D01*
X162135714Y-72592857D01*
X162183333Y-72497619D01*
X162230952Y-72450000D01*
X162326190Y-72402380D01*
X163278571Y-72402380D02*
X163373809Y-72402380D01*
X163469047Y-72450000D01*
X163516666Y-72497619D01*
X163564285Y-72592857D01*
X163611904Y-72783333D01*
X163611904Y-73021428D01*
X163564285Y-73211904D01*
X163516666Y-73307142D01*
X163469047Y-73354761D01*
X163373809Y-73402380D01*
X163278571Y-73402380D01*
X163183333Y-73354761D01*
X163135714Y-73307142D01*
X163088095Y-73211904D01*
X163040476Y-73021428D01*
X163040476Y-72783333D01*
X163088095Y-72592857D01*
X163135714Y-72497619D01*
X163183333Y-72450000D01*
X163278571Y-72402380D01*
X164040476Y-73402380D02*
X164040476Y-72402380D01*
X164135714Y-73021428D02*
X164421428Y-73402380D01*
X164421428Y-72735714D02*
X164040476Y-73116666D01*
D11*
%TO.C,RV1*%
X153879275Y-82300000D02*
X153129275Y-81550000D01*
X154629275Y-126550000D02*
X151629275Y-126550000D01*
X154056275Y-134170000D02*
X148509275Y-134170000D01*
X153879275Y-125800000D02*
X153129275Y-126550000D01*
X157749275Y-73930000D02*
X157749275Y-78515000D01*
X148509275Y-80586000D02*
X148509275Y-127515000D01*
X153704275Y-73930000D02*
X152201275Y-73930000D01*
X153129275Y-126550000D02*
X152379275Y-125800000D01*
X154629275Y-81550000D02*
X151629275Y-81550000D01*
X148509275Y-73930000D02*
X148509275Y-77315000D01*
X154379275Y-73125000D02*
X154879275Y-73625000D01*
X148509275Y-130786000D02*
X148509275Y-134170000D01*
X154879275Y-73625000D02*
X155379275Y-73125000D01*
X150556275Y-73930000D02*
X148509275Y-73930000D01*
X155379275Y-73125000D02*
X154379275Y-73125000D01*
X157749275Y-134170000D02*
X155702275Y-134170000D01*
X153129275Y-81550000D02*
X152379275Y-82300000D01*
X157749275Y-73930000D02*
X156054275Y-73930000D01*
X153129275Y-81550000D02*
X153129275Y-126550000D01*
X157749275Y-81786000D02*
X157749275Y-126315000D01*
X157749275Y-129586000D02*
X157749275Y-134170000D01*
%TO.C,J3*%
X176019275Y-57820000D02*
X176879275Y-57820000D01*
X172579275Y-60800000D02*
X172579275Y-71300000D01*
X176579275Y-71300000D02*
X172579275Y-71300000D01*
X176019275Y-57820000D02*
X176019275Y-58620000D01*
X176729275Y-60800000D02*
X172579275Y-60800000D01*
X181579275Y-71300000D02*
X177579275Y-71300000D01*
X181579275Y-60800000D02*
X181579275Y-71300000D01*
X181579275Y-60800000D02*
X177429275Y-60800000D01*
X178879275Y-65300000D02*
G75*
G03*
X178879275Y-65300000I-1800000J0D01*
G01*
%TO.C,J2*%
X164729275Y-60780000D02*
X160579275Y-60780000D01*
X169579275Y-71280000D02*
X165579275Y-71280000D01*
X164579275Y-71280000D02*
X160579275Y-71280000D01*
X169579275Y-60780000D02*
X165429275Y-60780000D01*
X160579275Y-60780000D02*
X160579275Y-71280000D01*
X164019275Y-57800000D02*
X164879275Y-57800000D01*
X169579275Y-60780000D02*
X169579275Y-71280000D01*
X164019275Y-57800000D02*
X164019275Y-58600000D01*
X166879275Y-65280000D02*
G75*
G03*
X166879275Y-65280000I-1800000J0D01*
G01*
%TO.C,RV4*%
X188929275Y-81550000D02*
X188929275Y-126550000D01*
X190429275Y-81550000D02*
X187429275Y-81550000D01*
X193549275Y-73930000D02*
X191854275Y-73930000D01*
X184309275Y-130786000D02*
X184309275Y-134170000D01*
X188929275Y-81550000D02*
X188179275Y-82300000D01*
X190429275Y-126550000D02*
X187429275Y-126550000D01*
X191179275Y-73125000D02*
X190179275Y-73125000D01*
X193549275Y-73930000D02*
X193549275Y-78515000D01*
X186356275Y-73930000D02*
X184309275Y-73930000D01*
X193549275Y-134170000D02*
X191502275Y-134170000D01*
X188929275Y-126550000D02*
X188179275Y-125800000D01*
X189856275Y-134170000D02*
X184309275Y-134170000D01*
X189679275Y-82300000D02*
X188929275Y-81550000D01*
X184309275Y-73930000D02*
X184309275Y-77315000D01*
X189504275Y-73930000D02*
X188001275Y-73930000D01*
X189679275Y-125800000D02*
X188929275Y-126550000D01*
X193549275Y-129586000D02*
X193549275Y-134170000D01*
X190679275Y-73625000D02*
X191179275Y-73125000D01*
X190179275Y-73125000D02*
X190679275Y-73625000D01*
X184309275Y-80586000D02*
X184309275Y-127515000D01*
X193549275Y-81786000D02*
X193549275Y-126315000D01*
%TO.C,RV5*%
X190870000Y-145590000D02*
X190870000Y-142530000D01*
X181120000Y-154120000D02*
X181120000Y-149400000D01*
X185210000Y-154120000D02*
X184680000Y-154120000D01*
X187660000Y-154120000D02*
X186830000Y-154120000D01*
X181130000Y-145590000D02*
X181130000Y-142530000D01*
X190870000Y-154120000D02*
X189380000Y-154120000D01*
X190870000Y-154120000D02*
X190870000Y-149400000D01*
X182310000Y-154120000D02*
X181130000Y-154120000D01*
X190870000Y-142530000D02*
X181130000Y-142530000D01*
%TO.C,J1*%
X152069275Y-57800000D02*
X152929275Y-57800000D01*
X152779275Y-60780000D02*
X148629275Y-60780000D01*
X152629275Y-71280000D02*
X148629275Y-71280000D01*
X157629275Y-71280000D02*
X153629275Y-71280000D01*
X152069275Y-57800000D02*
X152069275Y-58600000D01*
X157629275Y-60780000D02*
X153479275Y-60780000D01*
X157629275Y-60780000D02*
X157629275Y-71280000D01*
X148629275Y-60780000D02*
X148629275Y-71280000D01*
X154929275Y-65280000D02*
G75*
G03*
X154929275Y-65280000I-1800000J0D01*
G01*
%TO.C,J5*%
X175500000Y-143050000D02*
X175500000Y-153550000D01*
X170650000Y-143050000D02*
X166500000Y-143050000D01*
X169940000Y-140070000D02*
X169940000Y-140870000D01*
X169940000Y-140070000D02*
X170800000Y-140070000D01*
X166500000Y-143050000D02*
X166500000Y-153550000D01*
X175500000Y-143050000D02*
X171350000Y-143050000D01*
X175500000Y-153550000D02*
X171500000Y-153550000D01*
X170500000Y-153550000D02*
X166500000Y-153550000D01*
X172800000Y-147550000D02*
G75*
G03*
X172800000Y-147550000I-1800000J0D01*
G01*
%TO.C,J4*%
X188529275Y-60800000D02*
X184379275Y-60800000D01*
X188379275Y-71300000D02*
X184379275Y-71300000D01*
X187819275Y-57820000D02*
X188679275Y-57820000D01*
X193379275Y-60800000D02*
X193379275Y-71300000D01*
X184379275Y-60800000D02*
X184379275Y-71300000D01*
X193379275Y-71300000D02*
X189379275Y-71300000D01*
X193379275Y-60800000D02*
X189229275Y-60800000D01*
X187819275Y-57820000D02*
X187819275Y-58620000D01*
X190679275Y-65300000D02*
G75*
G03*
X190679275Y-65300000I-1800000J0D01*
G01*
%TO.C,RV3*%
X178390000Y-73245000D02*
X178890000Y-73745000D01*
X178640000Y-81670000D02*
X175640000Y-81670000D01*
X181760000Y-81906000D02*
X181760000Y-126435000D01*
X172520000Y-74050000D02*
X172520000Y-77435000D01*
X177715000Y-74050000D02*
X176212000Y-74050000D01*
X174567000Y-74050000D02*
X172520000Y-74050000D01*
X181760000Y-74050000D02*
X181760000Y-78635000D01*
X172520000Y-80706000D02*
X172520000Y-127635000D01*
X172520000Y-130906000D02*
X172520000Y-134290000D01*
X181760000Y-129706000D02*
X181760000Y-134290000D01*
X181760000Y-74050000D02*
X180065000Y-74050000D01*
X177890000Y-125920000D02*
X177140000Y-126670000D01*
X177140000Y-126670000D02*
X176390000Y-125920000D01*
X181760000Y-134290000D02*
X179713000Y-134290000D01*
X177890000Y-82420000D02*
X177140000Y-81670000D01*
X177140000Y-81670000D02*
X177140000Y-126670000D01*
X177140000Y-81670000D02*
X176390000Y-82420000D01*
X178067000Y-134290000D02*
X172520000Y-134290000D01*
X178640000Y-126670000D02*
X175640000Y-126670000D01*
X179390000Y-73245000D02*
X178390000Y-73245000D01*
X178890000Y-73745000D02*
X179390000Y-73245000D01*
%TO.C,RV2*%
X160509275Y-80586000D02*
X160509275Y-127515000D01*
X169749275Y-73930000D02*
X169749275Y-78515000D01*
X166629275Y-126550000D02*
X163629275Y-126550000D01*
X169749275Y-129586000D02*
X169749275Y-134170000D01*
X169749275Y-81786000D02*
X169749275Y-126315000D01*
X160509275Y-130786000D02*
X160509275Y-134170000D01*
X162556275Y-73930000D02*
X160509275Y-73930000D01*
X165879275Y-125800000D02*
X165129275Y-126550000D01*
X169749275Y-134170000D02*
X167702275Y-134170000D01*
X166056275Y-134170000D02*
X160509275Y-134170000D01*
X166879275Y-73625000D02*
X167379275Y-73125000D01*
X165129275Y-81550000D02*
X164379275Y-82300000D01*
X165879275Y-82300000D02*
X165129275Y-81550000D01*
X165704275Y-73930000D02*
X164201275Y-73930000D01*
X165129275Y-126550000D02*
X164379275Y-125800000D01*
X166379275Y-73125000D02*
X166879275Y-73625000D01*
X160509275Y-73930000D02*
X160509275Y-77315000D01*
X167379275Y-73125000D02*
X166379275Y-73125000D01*
X165129275Y-81550000D02*
X165129275Y-126550000D01*
X169749275Y-73930000D02*
X168054275Y-73930000D01*
X166629275Y-81550000D02*
X163629275Y-81550000D01*
%TD*%
M02*
