M48
; DRILL file {KiCad 6.0.11+dfsg-1~bpo11+1} date Friday, 14 April, 2023 02:38:56 PM
; FORMAT={-:-/ absolute / inch / decimal}
; #@! TF.CreationDate,2023-04-14T14:38:56+08:00
; #@! TF.GenerationSoftware,Kicad,Pcbnew,6.0.11+dfsg-1~bpo11+1
; #@! TF.FileFunction,Plated,1,2,PTH
FMAT,2
INCH
; #@! TA.AperFunction,Plated,PTH,ViaDrill
T1C0.0157
; #@! TA.AperFunction,Plated,PTH,ComponentDrill
T2C0.0394
; #@! TA.AperFunction,Plated,PTH,ComponentDrill
T3C0.0433
; #@! TA.AperFunction,Plated,PTH,ComponentDrill
T4C0.0472
; #@! TA.AperFunction,Plated,PTH,ComponentDrill
T5C0.0480
; #@! TA.AperFunction,Plated,PTH,ComponentDrill
T6C0.0559
; #@! TA.AperFunction,Plated,PTH,ComponentDrill
T7C0.0563
; #@! TA.AperFunction,Plated,PTH,ComponentDrill
T8C0.0669
%
G90
G05
T1
X5.8661Y-3.3169
X5.875Y-2.5347
X5.889Y-3.5965
X5.8976Y-2.3646
X5.9004Y-3.8807
X5.9031Y-4.1177
X5.9091Y-4.3803
X5.9175Y-3.2597
X6.0191Y-4.0885
X6.0762Y-3.6963
X6.0762Y-3.7852
X6.0832Y-3.4154
X6.089Y-4.7528
X6.1059Y-4.3776
X6.1075Y-3.835
X6.1102Y-4.2547
X6.1559Y-3.2854
X6.1614Y-4.0161
X6.1657Y-4.3933
X6.1787Y-4.5831
X6.2043Y-3.8535
X6.2106Y-3.0226
X6.2331Y-4.1732
X6.2337Y-3.7073
X6.2362Y-2.4459
X6.25Y-2.6083
X6.25Y-2.7844
X6.2559Y-3.2941
X6.2569Y-2.3051
X6.2648Y-2.9144
X6.2843Y-4.8315
X6.3287Y-4.8913
X6.3657Y-4.2504
X6.3709Y-4.0732
X6.4201Y-4.3516
X6.4402Y-4.5429
X6.4414Y-3.622
X6.4429Y-3.3563
X6.4992Y-4.3754
X6.5655Y-3.8912
X6.6197Y-4.4244
X6.6287Y-4.635
X6.6499Y-3.8305
X6.7274Y-2.497
X6.7343Y-2.7756
X6.7352Y-2.626
X6.7352Y-2.8858
X6.7382Y-2.3189
X6.7484Y-3.4252
X6.7669Y-3.5665
X6.7669Y-3.7378
X6.8567Y-4.5772
X6.8626Y-3.3882
X6.8681Y-3.6181
X7.0144Y-4.7966
X7.0226Y-3.4114
X7.0823Y-4.7957
X7.1193Y-4.5287
X7.2008Y-2.3307
X7.2028Y-2.4488
X7.2077Y-2.9252
X7.2096Y-2.7362
X7.2126Y-2.5797
X7.2236Y-4.3004
X7.2264Y-3.3098
X7.2307Y-3.3882
X7.235Y-4.4346
X7.3094Y-3.2382
X7.3394Y-3.9776
X7.3579Y-4.1035
X7.3893Y-3.4544
X7.402Y-4.7028
X7.4094Y-4.4917
X7.4335Y-4.1776
X7.4587Y-3.1913
X7.465Y-3.3268
X7.5356Y-4.0794
X7.5406Y-4.4445
X7.5449Y-3.8622
X7.565Y-3.4323
X7.5819Y-4.7244
X7.5965Y-2.3531
T2
X5.9764Y-5.5252
X5.9764Y-5.6252
X5.9764Y-5.7252
X5.9764Y-5.8252
X5.9764Y-5.9252
X6.0764Y-5.5252
X6.0764Y-5.6252
X6.0764Y-5.7252
X6.0764Y-5.8252
X6.0764Y-5.9252
X7.2244Y-6.1024
X7.3228Y-6.1024
X7.4213Y-6.1024
T4
X5.9598Y-2.9449
X6.0976Y-2.9449
X6.0976Y-5.248
X6.4323Y-2.9449
X6.5701Y-2.9449
X6.5701Y-5.248
X6.9051Y-2.9496
X7.0429Y-2.9496
X7.0429Y-5.2528
X7.3693Y-2.9449
X7.5071Y-2.9449
X7.5071Y-5.248
T5
X6.0287Y-2.315
X6.4992Y-2.315
X6.7323Y-5.5539
X6.9716Y-2.3157
X7.4362Y-2.3157
T6
X6.0287Y-2.437
X6.4992Y-2.437
X6.7323Y-5.676
X6.9716Y-2.4378
X7.4362Y-2.4378
T7
X6.0287Y-2.7638
X6.4992Y-2.7638
X6.7323Y-6.0028
X6.9716Y-2.7646
X7.4362Y-2.7646
T8
X5.8634Y-3.1083
X5.8634Y-5.0846
X6.1941Y-3.1555
X6.1941Y-5.0374
X6.3358Y-3.1083
X6.3358Y-5.0846
X6.6665Y-3.1555
X6.6665Y-5.0374
X6.8087Y-3.113
X6.8087Y-5.0894
X7.1394Y-3.1602
X7.1394Y-5.0421
X7.2728Y-3.1083
X7.2728Y-5.0846
X7.6035Y-3.1555
X7.6035Y-5.0374
T3
G00X7.1339Y-5.8307
M15
G01X7.1339Y-5.7835
M16
G05
G00X7.5118Y-5.8307
M15
G01X7.5118Y-5.7835
M16
G05
T0
M30
