%TF.GenerationSoftware,KiCad,Pcbnew,6.0.11+dfsg-1~bpo11+1*%
%TF.CreationDate,2023-04-14T14:39:14+08:00*%
%TF.ProjectId,MiniMix - Front,4d696e69-4d69-4782-902d-2046726f6e74,rev?*%
%TF.SameCoordinates,Original*%
%TF.FileFunction,Legend,Top*%
%TF.FilePolarity,Positive*%
%FSLAX46Y46*%
G04 Gerber Fmt 4.6, Leading zero omitted, Abs format (unit mm)*
G04 Created by KiCad (PCBNEW 6.0.11+dfsg-1~bpo11+1) date 2023-04-14 14:39:14*
%MOMM*%
%LPD*%
G01*
G04 APERTURE LIST*
%ADD10C,0.100000*%
%ADD11C,0.099999*%
%ADD12C,0.000000*%
G04 APERTURE END LIST*
D10*
X126061230Y-154008648D02*
X125756931Y-153813566D01*
X108756069Y-63871099D02*
X108829936Y-63857908D01*
X131593389Y-64690313D02*
X131626515Y-64625636D01*
X134993083Y-142042813D02*
X135253553Y-142291148D01*
X120163249Y-64096801D02*
X120224109Y-64057784D01*
X134228313Y-66118428D02*
X134189296Y-66179288D01*
D11*
X137445473Y-70340624D02*
X128445473Y-70340624D01*
D10*
X131380232Y-150232364D02*
X131250878Y-150298616D01*
X123536053Y-151483471D02*
X123355462Y-151169394D01*
X134297556Y-65990936D02*
X134264431Y-66055613D01*
X127030914Y-140683836D02*
X127371501Y-140549546D01*
X121376786Y-66793400D02*
X121304215Y-66810150D01*
X130336202Y-140104207D02*
X130717084Y-140133170D01*
X134189296Y-64501960D02*
X134228313Y-64562820D01*
X131662633Y-66118428D02*
X131626515Y-66055613D01*
X108905005Y-63848369D02*
X108981181Y-63842576D01*
X127635307Y-149502726D02*
X127546247Y-149389396D01*
X95795855Y-64625636D02*
X95831973Y-64562820D01*
X108104232Y-64183152D02*
X108160897Y-64138621D01*
X107605595Y-64965751D02*
X107625808Y-64894570D01*
D11*
X128445473Y-70340624D02*
X128445473Y-70340624D01*
D10*
X121304215Y-66810150D02*
X121230348Y-66823341D01*
X109286806Y-66823341D02*
X109211737Y-66832880D01*
X107649390Y-64824874D02*
X107676248Y-64756757D01*
X131536492Y-65856374D02*
X131512910Y-65786678D01*
X136710671Y-144342888D02*
X136860865Y-144675110D01*
X97037624Y-66838672D02*
X96961447Y-66832880D01*
X127462606Y-145917121D02*
X127546247Y-145799501D01*
X96812511Y-63871099D02*
X96886378Y-63857908D01*
X98012287Y-66542627D02*
X97953478Y-66584448D01*
X120848547Y-63848369D02*
X120924723Y-63842576D01*
X108104232Y-66498097D02*
X108049805Y-66450951D01*
X129950253Y-140094448D02*
X129950253Y-140094448D01*
X129950253Y-150594448D02*
X129795873Y-150590545D01*
X108049805Y-64230297D02*
X108104232Y-64183152D01*
X133247775Y-66810150D02*
X133173908Y-66823341D01*
X134414998Y-65642926D02*
X134398249Y-65715497D01*
X97343249Y-63857908D02*
X97417116Y-63871099D01*
X98358637Y-66179288D02*
X98316816Y-66238098D01*
X127729599Y-145577317D02*
X127828933Y-145473129D01*
X110541087Y-65569059D02*
X110527896Y-65642926D01*
X96054153Y-66401284D02*
X96004486Y-66349190D01*
X108343382Y-64021666D02*
X108408059Y-63988541D01*
X110119031Y-66401284D02*
X110066936Y-66450951D01*
X96337009Y-66623464D02*
X96276149Y-66584448D01*
X134327595Y-64756757D02*
X134354453Y-64824874D01*
X95762730Y-65990936D02*
X95732691Y-65924492D01*
X96004486Y-66349190D02*
X95957340Y-66294763D01*
X133842946Y-64138621D02*
X133899612Y-64183152D01*
X133173908Y-66823341D02*
X133098839Y-66832880D01*
X123355462Y-144019503D02*
X123536053Y-143705426D01*
X119682955Y-66055613D02*
X119649830Y-65990936D01*
X128649629Y-144890281D02*
X128782518Y-144830204D01*
X107560322Y-65417814D02*
X107558371Y-65340624D01*
D12*
G36*
X133377029Y-138392592D02*
G01*
X133376268Y-138360975D01*
X133376015Y-138328564D01*
X133377029Y-138262640D01*
X133380072Y-138200330D01*
X133385143Y-138141637D01*
X133392242Y-138086559D01*
X133396553Y-138060376D01*
X133401371Y-138035097D01*
X133406695Y-138010722D01*
X133412527Y-137987251D01*
X133418866Y-137964684D01*
X133425712Y-137943022D01*
X133433065Y-137922263D01*
X133440926Y-137902409D01*
X133449668Y-137883017D01*
X133458961Y-137864353D01*
X133468805Y-137846417D01*
X133479201Y-137829208D01*
X133490148Y-137812727D01*
X133501646Y-137796974D01*
X133513696Y-137781947D01*
X133526296Y-137767649D01*
X133539448Y-137754078D01*
X133553151Y-137741235D01*
X133567405Y-137729119D01*
X133582211Y-137717731D01*
X133597568Y-137707071D01*
X133613476Y-137697138D01*
X133629935Y-137687933D01*
X133646946Y-137679455D01*
X133664894Y-137671254D01*
X133683460Y-137663582D01*
X133702643Y-137656438D01*
X133722443Y-137649824D01*
X133742860Y-137643738D01*
X133763895Y-137638182D01*
X133785547Y-137633155D01*
X133807816Y-137628657D01*
X133830703Y-137624688D01*
X133854207Y-137621248D01*
X133878328Y-137618337D01*
X133903066Y-137615955D01*
X133928422Y-137614103D01*
X133954396Y-137612780D01*
X133980986Y-137611986D01*
X134008194Y-137611721D01*
X134008198Y-137611721D01*
X134046331Y-137612162D01*
X134083119Y-137613485D01*
X134118562Y-137615690D01*
X134152660Y-137618777D01*
X134185413Y-137622745D01*
X134216821Y-137627596D01*
X134246883Y-137633328D01*
X134275601Y-137639943D01*
X134302975Y-137647439D01*
X134329003Y-137655817D01*
X134353686Y-137665077D01*
X134377024Y-137675219D01*
X134399018Y-137686243D01*
X134419666Y-137698149D01*
X134438970Y-137710936D01*
X134456928Y-137724606D01*
X134474016Y-137739148D01*
X134490001Y-137754549D01*
X134504884Y-137770811D01*
X134518665Y-137787932D01*
X134531343Y-137805913D01*
X134542919Y-137824754D01*
X134553392Y-137844454D01*
X134562763Y-137865014D01*
X134571031Y-137886435D01*
X134578197Y-137908715D01*
X134584261Y-137931854D01*
X134589222Y-137955854D01*
X134593081Y-137980714D01*
X134595837Y-138006433D01*
X134597490Y-138033013D01*
X134598042Y-138060452D01*
X134598072Y-138083074D01*
X134597463Y-138105079D01*
X134596215Y-138126467D01*
X134594329Y-138147237D01*
X134591803Y-138167390D01*
X134588638Y-138186925D01*
X134584834Y-138205843D01*
X134580391Y-138224143D01*
X134575309Y-138241827D01*
X134569588Y-138258892D01*
X134563227Y-138275341D01*
X134556228Y-138291172D01*
X134548590Y-138306386D01*
X134540312Y-138320983D01*
X134531395Y-138334962D01*
X134521839Y-138348324D01*
X134511598Y-138360627D01*
X134500630Y-138372137D01*
X134488933Y-138382852D01*
X134476509Y-138392773D01*
X134463358Y-138401901D01*
X134449478Y-138410235D01*
X134434871Y-138417775D01*
X134419536Y-138424521D01*
X134403474Y-138430473D01*
X134386684Y-138435632D01*
X134369166Y-138439997D01*
X134350921Y-138443568D01*
X134331948Y-138446346D01*
X134312248Y-138448330D01*
X134291820Y-138449520D01*
X134270664Y-138449917D01*
X133632091Y-138449917D01*
X133633146Y-138464877D01*
X133637776Y-138508488D01*
X133643729Y-138548836D01*
X133651005Y-138585922D01*
X133655139Y-138603241D01*
X133659604Y-138619744D01*
X133664399Y-138635432D01*
X133669525Y-138650303D01*
X133675368Y-138664481D01*
X133681609Y-138678085D01*
X133688246Y-138691115D01*
X133695279Y-138703573D01*
X133702710Y-138715457D01*
X133710537Y-138726768D01*
X133718762Y-138737505D01*
X133727383Y-138747670D01*
X133736401Y-138757261D01*
X133745815Y-138766278D01*
X133755627Y-138774723D01*
X133765835Y-138782594D01*
X133776440Y-138789892D01*
X133787441Y-138796617D01*
X133798840Y-138802768D01*
X133810635Y-138808346D01*
X133822872Y-138813474D01*
X133835594Y-138818270D01*
X133848802Y-138822736D01*
X133862494Y-138826870D01*
X133876672Y-138830674D01*
X133891334Y-138834147D01*
X133906482Y-138837289D01*
X133922114Y-138840100D01*
X133938232Y-138842580D01*
X133954835Y-138844730D01*
X133971922Y-138846548D01*
X133989495Y-138848036D01*
X134007553Y-138849194D01*
X134026096Y-138850020D01*
X134045123Y-138850516D01*
X134064636Y-138850682D01*
X134120903Y-138850151D01*
X134179640Y-138848558D01*
X134240847Y-138845902D01*
X134304524Y-138842183D01*
X134369083Y-138836359D01*
X134430113Y-138830184D01*
X134487615Y-138823659D01*
X134541592Y-138816784D01*
X134566990Y-138977650D01*
X134550277Y-138983867D01*
X134532595Y-138989819D01*
X134513942Y-138995508D01*
X134494319Y-139000932D01*
X134473726Y-139006092D01*
X134452162Y-139010988D01*
X134429629Y-139015619D01*
X134406124Y-139019986D01*
X134382709Y-139024085D01*
X134359029Y-139027919D01*
X134335084Y-139031489D01*
X134310875Y-139034795D01*
X134286401Y-139037837D01*
X134261663Y-139040614D01*
X134236659Y-139043127D01*
X134211391Y-139045376D01*
X134163237Y-139049096D01*
X134117552Y-139051752D01*
X134074338Y-139053344D01*
X134053656Y-139053743D01*
X134033592Y-139053875D01*
X133975780Y-139052773D01*
X133947966Y-139051395D01*
X133920879Y-139049466D01*
X133894519Y-139046986D01*
X133868888Y-139043955D01*
X133843984Y-139040372D01*
X133819808Y-139036238D01*
X133796359Y-139031553D01*
X133773638Y-139026316D01*
X133751645Y-139020529D01*
X133730379Y-139014189D01*
X133709841Y-139007299D01*
X133690030Y-138999857D01*
X133670947Y-138991864D01*
X133652592Y-138983319D01*
X133634898Y-138973816D01*
X133617799Y-138963651D01*
X133601296Y-138952825D01*
X133585388Y-138941337D01*
X133570075Y-138929189D01*
X133555358Y-138916378D01*
X133541235Y-138902907D01*
X133527709Y-138888773D01*
X133514777Y-138873979D01*
X133502441Y-138858523D01*
X133490700Y-138842405D01*
X133479554Y-138825626D01*
X133469004Y-138808186D01*
X133459049Y-138790084D01*
X133449690Y-138771321D01*
X133440926Y-138751896D01*
X133433065Y-138731391D01*
X133425712Y-138710091D01*
X133418866Y-138687998D01*
X133412527Y-138665112D01*
X133406695Y-138641431D01*
X133401371Y-138616957D01*
X133396553Y-138591689D01*
X133392242Y-138565627D01*
X133388439Y-138538772D01*
X133385143Y-138511123D01*
X133382354Y-138482681D01*
X133380072Y-138453445D01*
X133379863Y-138449917D01*
X133469154Y-138449917D01*
X133632091Y-138449917D01*
X133629839Y-138418003D01*
X133627855Y-138367865D01*
X133627193Y-138314465D01*
X133627723Y-138267149D01*
X133627847Y-138263653D01*
X134208576Y-138263653D01*
X134219964Y-138263411D01*
X134230844Y-138262683D01*
X134241217Y-138261470D01*
X134251084Y-138259772D01*
X134260443Y-138257589D01*
X134269295Y-138254921D01*
X134277641Y-138251768D01*
X134285479Y-138248130D01*
X134292810Y-138244007D01*
X134299634Y-138239399D01*
X134305952Y-138234306D01*
X134311761Y-138228728D01*
X134317064Y-138222664D01*
X134321860Y-138216116D01*
X134326148Y-138209083D01*
X134329929Y-138201565D01*
X134333347Y-138193407D01*
X134336544Y-138185161D01*
X134339520Y-138176826D01*
X134342276Y-138168403D01*
X134344812Y-138159892D01*
X134347127Y-138151293D01*
X134349221Y-138142605D01*
X134351095Y-138133829D01*
X134352749Y-138124966D01*
X134354182Y-138116014D01*
X134355395Y-138106973D01*
X134356387Y-138097845D01*
X134357158Y-138088629D01*
X134357710Y-138079325D01*
X134358040Y-138069932D01*
X134358151Y-138060452D01*
X134357514Y-138044170D01*
X134356304Y-138028483D01*
X134354520Y-138013391D01*
X134352163Y-137998894D01*
X134349231Y-137984993D01*
X134345727Y-137971687D01*
X134341648Y-137958976D01*
X134336997Y-137946860D01*
X134331771Y-137935339D01*
X134325972Y-137924414D01*
X134319600Y-137914084D01*
X134312653Y-137904350D01*
X134305134Y-137895210D01*
X134297040Y-137886666D01*
X134288373Y-137878718D01*
X134279133Y-137871365D01*
X134269189Y-137864530D01*
X134258407Y-137858136D01*
X134246787Y-137852183D01*
X134234329Y-137846671D01*
X134221034Y-137841601D01*
X134206900Y-137836970D01*
X134191929Y-137832781D01*
X134176120Y-137829033D01*
X134159473Y-137825726D01*
X134141988Y-137822860D01*
X134123665Y-137820435D01*
X134104505Y-137818450D01*
X134084507Y-137816907D01*
X134063671Y-137815805D01*
X134041997Y-137815143D01*
X134019486Y-137814923D01*
X134001031Y-137815099D01*
X133983061Y-137815629D01*
X133965576Y-137816511D01*
X133948576Y-137817746D01*
X133932062Y-137819335D01*
X133916033Y-137821276D01*
X133900489Y-137823569D01*
X133885429Y-137826216D01*
X133870855Y-137829216D01*
X133856767Y-137832568D01*
X133843163Y-137836273D01*
X133830044Y-137840331D01*
X133817411Y-137844741D01*
X133805262Y-137849504D01*
X133793599Y-137854620D01*
X133782421Y-137860089D01*
X133772024Y-137865643D01*
X133762002Y-137871728D01*
X133752355Y-137878341D01*
X133743083Y-137885484D01*
X133734186Y-137893157D01*
X133725664Y-137901359D01*
X133717517Y-137910090D01*
X133709745Y-137919350D01*
X133702348Y-137929140D01*
X133695325Y-137939459D01*
X133688678Y-137950307D01*
X133682405Y-137961684D01*
X133676508Y-137973591D01*
X133670985Y-137986027D01*
X133665837Y-137998992D01*
X133661064Y-138012486D01*
X133656963Y-138026233D01*
X133653126Y-138040664D01*
X133649554Y-138055778D01*
X133646246Y-138071576D01*
X133643203Y-138088057D01*
X133640425Y-138105222D01*
X133637911Y-138123071D01*
X133635662Y-138141603D01*
X133631957Y-138180718D01*
X133629311Y-138222566D01*
X133627847Y-138263653D01*
X133469154Y-138263653D01*
X133469154Y-138449917D01*
X133379863Y-138449917D01*
X133378297Y-138423415D01*
X133377029Y-138392592D01*
G37*
D10*
X96399824Y-66659582D02*
X96337009Y-66623464D01*
X107588845Y-65642926D02*
X107575654Y-65569059D01*
X98584338Y-65642926D02*
X98567589Y-65715497D01*
X107739413Y-64625636D02*
X107775531Y-64562820D01*
X120047774Y-64183152D02*
X120104440Y-64138621D01*
X110260374Y-66238098D02*
X110215843Y-66294763D01*
X110302194Y-64501960D02*
X110341210Y-64562820D01*
X136710671Y-150846009D02*
X136545043Y-151169394D01*
X122159385Y-66294763D02*
X122112239Y-66349190D01*
X122905351Y-150173200D02*
X122787438Y-149824719D01*
X119532388Y-65642926D02*
X119519197Y-65569059D01*
X95870990Y-64501960D02*
X95912810Y-64443151D01*
X132167669Y-64057784D02*
X132230484Y-64021666D01*
X132768214Y-148625948D02*
X132714498Y-148762183D01*
X131462756Y-65569059D02*
X131453217Y-65493990D01*
X97114813Y-66840624D02*
X97114813Y-66840624D01*
X128782518Y-144830204D02*
X128918753Y-144776488D01*
X98567589Y-64965751D02*
X98584338Y-65038322D01*
X126954156Y-147440069D02*
X126965741Y-147287716D01*
X97765125Y-63988541D02*
X97829802Y-64021666D01*
X121585780Y-63958502D02*
X121652224Y-63988541D01*
X95831973Y-64562820D02*
X95870990Y-64501960D01*
X133723277Y-64057784D02*
X133784137Y-64096801D01*
X129564304Y-140104207D02*
X129950253Y-140094448D01*
X98567589Y-65715497D02*
X98547376Y-65786678D01*
X123940237Y-143107079D02*
X124162888Y-142823752D01*
X97114813Y-66840624D02*
X97037624Y-66838672D01*
X98068953Y-66498097D02*
X98012287Y-66542627D01*
X122536669Y-148736625D02*
X122488974Y-148361280D01*
X132588169Y-149024426D02*
X132515933Y-149150057D01*
X120351601Y-63988541D02*
X120418046Y-63958502D01*
X122284752Y-64562820D02*
X122320870Y-64625636D01*
X120555859Y-66773187D02*
X120486163Y-66749605D01*
X132934764Y-147901181D02*
X132915686Y-148051319D01*
X109504424Y-66773187D02*
X109433244Y-66793400D01*
X134398249Y-64965751D02*
X134414998Y-65038322D01*
D11*
X125501911Y-60340624D02*
X125501911Y-60340624D01*
D10*
X122686372Y-149468815D02*
X122602626Y-149105960D01*
X122499959Y-65263434D02*
X122501911Y-65340624D01*
X124162888Y-152365145D02*
X123940237Y-152081818D01*
X96337009Y-64057784D02*
X96399824Y-64021666D01*
X108408059Y-63988541D02*
X108474503Y-63958502D01*
X130256986Y-150578960D02*
X130104632Y-150590545D01*
X97268180Y-66832880D02*
X97192003Y-66838672D01*
X133391527Y-66773187D02*
X133320346Y-66793400D01*
X97698681Y-63958502D02*
X97765125Y-63988541D01*
X110558371Y-65340624D02*
X110558371Y-65340624D01*
X131092429Y-155008032D02*
X130717084Y-155055727D01*
X128808077Y-140180865D02*
X129183421Y-140133170D01*
X124162888Y-142823752D02*
X124398617Y-142551618D01*
X119519197Y-65112189D02*
X119532388Y-65038322D01*
D12*
G36*
X132992035Y-56998455D02*
G01*
X132447346Y-58149922D01*
X132444358Y-58156878D01*
X132441746Y-58163635D01*
X132439509Y-58170194D01*
X132437646Y-58176555D01*
X132436159Y-58182717D01*
X132435046Y-58188681D01*
X132434309Y-58194447D01*
X132433947Y-58200014D01*
X132433959Y-58205383D01*
X132434347Y-58210554D01*
X132435109Y-58215526D01*
X132436247Y-58220300D01*
X132437759Y-58224875D01*
X132439646Y-58229253D01*
X132441909Y-58233431D01*
X132444546Y-58237412D01*
X132447809Y-58240829D01*
X132451249Y-58244026D01*
X132454865Y-58247002D01*
X132458657Y-58249758D01*
X132462626Y-58252293D01*
X132466771Y-58254608D01*
X132471093Y-58256702D01*
X132475591Y-58258576D01*
X132480265Y-58260230D01*
X132485116Y-58261663D01*
X132490143Y-58262875D01*
X132495347Y-58263867D01*
X132500727Y-58264639D01*
X132506283Y-58265190D01*
X132512016Y-58265521D01*
X132517925Y-58265631D01*
X133186768Y-58265631D01*
X133186768Y-58468830D01*
X132379639Y-58468830D01*
X132369860Y-58468654D01*
X132360280Y-58468125D01*
X132350898Y-58467243D01*
X132341715Y-58466008D01*
X132332730Y-58464420D01*
X132323944Y-58462480D01*
X132315356Y-58460187D01*
X132306966Y-58457541D01*
X132298775Y-58454542D01*
X132290783Y-58451190D01*
X132282988Y-58447486D01*
X132275393Y-58443428D01*
X132267995Y-58439018D01*
X132260796Y-58434255D01*
X132253796Y-58429139D01*
X132246994Y-58423670D01*
X132240435Y-58417926D01*
X132234162Y-58411983D01*
X132228176Y-58405842D01*
X132222476Y-58399503D01*
X132217064Y-58392965D01*
X132211937Y-58386229D01*
X132207098Y-58379295D01*
X132202544Y-58372162D01*
X132198278Y-58364831D01*
X132194298Y-58357301D01*
X132190604Y-58349573D01*
X132187197Y-58341647D01*
X132184076Y-58333523D01*
X132181242Y-58325200D01*
X132178695Y-58316679D01*
X132176434Y-58307959D01*
X132174846Y-58299140D01*
X132173611Y-58290321D01*
X132172729Y-58281502D01*
X132172200Y-58272683D01*
X132172024Y-58263864D01*
X132172200Y-58255045D01*
X132172729Y-58246226D01*
X132173610Y-58237406D01*
X132174845Y-58228587D01*
X132176432Y-58219767D01*
X132178372Y-58210947D01*
X132180665Y-58202128D01*
X132183310Y-58193308D01*
X132186308Y-58184488D01*
X132189659Y-58175668D01*
X132193363Y-58166848D01*
X132746517Y-56998448D01*
X132992035Y-56998455D01*
G37*
D10*
X134437728Y-65493990D02*
X134428189Y-65569059D01*
X128394644Y-150160128D02*
X128272925Y-150082095D01*
X121001913Y-66840624D02*
X120924723Y-66838672D01*
X98433771Y-66055613D02*
X98397653Y-66118428D01*
X134993083Y-153146084D02*
X134720949Y-153381813D01*
X131626515Y-64625636D02*
X131662633Y-64562820D01*
D11*
X116501913Y-60340624D02*
X125501911Y-60340624D01*
D10*
X132515933Y-149150057D02*
X132437900Y-149271776D01*
X122062572Y-64279964D02*
X122112239Y-64332058D01*
X133247775Y-63871099D02*
X133320346Y-63887848D01*
X132815379Y-148486556D02*
X132768214Y-148625948D01*
X129493383Y-144629015D02*
X129643520Y-144609937D01*
X96276149Y-64096801D02*
X96337009Y-64057784D01*
X132714498Y-148762183D02*
X132654420Y-148895072D01*
X134327595Y-65924492D02*
X134297556Y-65990936D01*
X107575654Y-65569059D02*
X107566115Y-65493990D01*
X128272925Y-150082095D02*
X128155305Y-149998454D01*
X129950253Y-144594448D02*
X130104632Y-144598352D01*
X132354260Y-149389396D02*
X132265199Y-149502726D01*
X119549137Y-65715497D02*
X119532388Y-65642926D01*
X129200506Y-150500000D02*
X129058145Y-150459574D01*
X110527896Y-65642926D02*
X110511147Y-65715497D01*
X96961447Y-66832880D02*
X96886378Y-66823341D01*
X122494167Y-65187258D02*
X122499959Y-65263434D01*
X109642238Y-66722747D02*
X109574121Y-66749605D01*
X95614813Y-65340624D02*
X95616765Y-65263434D01*
X95831973Y-66118428D02*
X95795855Y-66055613D01*
X108343382Y-66659582D02*
X108280566Y-66623464D01*
D11*
X101614814Y-70340624D02*
X92614814Y-70340624D01*
D10*
X131461764Y-140246822D02*
X131824619Y-140330568D01*
X135253553Y-142291148D02*
X135501889Y-142551618D01*
X121155279Y-63848369D02*
X121230348Y-63857908D01*
X120351601Y-66692708D02*
X120286924Y-66659582D01*
X119503865Y-65417814D02*
X119501913Y-65340624D01*
X125756931Y-153813566D02*
X125462883Y-153604464D01*
X122602626Y-149105960D02*
X122536669Y-148736625D01*
D12*
G36*
X115266325Y-49456110D02*
G01*
X114748011Y-49456110D01*
X114748011Y-47713581D01*
X115266325Y-47713581D01*
X115266325Y-49456110D01*
G37*
D10*
X127030914Y-154505061D02*
X126698692Y-154354867D01*
X131967386Y-149815102D02*
X131858532Y-149909394D01*
X107558371Y-65340624D02*
X107560322Y-65263434D01*
X130842362Y-150459574D02*
X130700000Y-150500000D01*
X121899386Y-64138621D02*
X121956051Y-64183152D01*
X121001913Y-66840624D02*
X121001913Y-66840624D01*
X130842362Y-144729323D02*
X130981754Y-144776488D01*
X107566115Y-65187258D02*
X107575654Y-65112189D01*
X136545043Y-151169394D02*
X136364452Y-151483471D01*
X124646952Y-152897749D02*
X124398617Y-152637279D01*
X132071574Y-145473129D02*
X132170908Y-145577317D01*
X123039640Y-150513787D02*
X122905351Y-150173200D01*
X133525198Y-154189239D02*
X133201813Y-154354867D01*
X132361605Y-66722747D02*
X132295161Y-66692708D01*
X119799910Y-64443151D02*
X119844440Y-64386485D01*
X96530946Y-66722747D02*
X96464501Y-66692708D01*
X110541087Y-65112189D02*
X110550626Y-65187258D01*
X128272925Y-145106802D02*
X128394644Y-145028769D01*
X98358637Y-64501960D02*
X98397653Y-64562820D01*
X132499419Y-63908061D02*
X132570600Y-63887848D01*
X132855805Y-146844702D02*
X132889303Y-146989844D01*
X131563350Y-64756757D02*
X131593389Y-64690313D01*
X132295161Y-63988541D02*
X132361605Y-63958502D01*
X120047774Y-66498097D02*
X119993347Y-66450951D01*
X98433771Y-64625636D02*
X98466897Y-64690313D01*
X133529340Y-66722747D02*
X133461223Y-66749605D01*
X110168698Y-64332058D02*
X110215843Y-64386485D01*
X122501911Y-65340624D02*
X122499959Y-65417814D01*
X109836175Y-64057784D02*
X109897035Y-64096801D01*
X137411531Y-146827617D02*
X137440494Y-147208499D01*
X131626515Y-66055613D02*
X131593389Y-65990936D01*
X133899612Y-64183152D02*
X133954039Y-64230297D01*
X119592933Y-65856374D02*
X119569350Y-65786678D01*
X133201813Y-140834030D02*
X133525198Y-140999658D01*
X121079103Y-66838672D02*
X121001913Y-66840624D01*
X134445473Y-65340624D02*
X134443521Y-65417814D01*
X95632097Y-65569059D02*
X95622558Y-65493990D01*
D12*
G36*
X115677869Y-141891166D02*
G01*
X115715970Y-141867300D01*
X115730053Y-141858258D01*
X115730053Y-140854199D01*
X115969959Y-140854153D01*
X115969959Y-142228589D01*
X115778050Y-142228589D01*
X115760617Y-142028296D01*
X115746397Y-142039216D01*
X115706579Y-142068056D01*
X115667024Y-142094955D01*
X115627734Y-142119913D01*
X115588708Y-142142932D01*
X115549947Y-142164009D01*
X115511450Y-142183147D01*
X115473217Y-142200344D01*
X115454497Y-142208202D01*
X115435733Y-142215553D01*
X115416925Y-142222397D01*
X115398072Y-142228734D01*
X115379176Y-142234565D01*
X115360236Y-142239888D01*
X115341252Y-142244705D01*
X115322224Y-142249014D01*
X115303152Y-142252817D01*
X115284036Y-142256113D01*
X115264875Y-142258902D01*
X115245671Y-142261183D01*
X115226423Y-142262958D01*
X115207131Y-142264226D01*
X115187795Y-142264987D01*
X115168415Y-142265240D01*
X115145322Y-142264871D01*
X115122962Y-142263763D01*
X115101335Y-142261916D01*
X115080441Y-142259331D01*
X115060281Y-142256008D01*
X115040853Y-142251945D01*
X115022158Y-142247144D01*
X115004197Y-142241605D01*
X114986969Y-142235327D01*
X114970473Y-142228310D01*
X114954711Y-142220555D01*
X114939682Y-142212061D01*
X114925386Y-142202828D01*
X114911823Y-142192857D01*
X114898994Y-142182147D01*
X114886897Y-142170699D01*
X114875534Y-142158511D01*
X114864903Y-142145586D01*
X114855006Y-142131921D01*
X114845842Y-142117518D01*
X114837411Y-142102376D01*
X114829713Y-142086496D01*
X114822748Y-142069877D01*
X114816517Y-142052519D01*
X114811018Y-142034423D01*
X114806253Y-142015588D01*
X114802221Y-141996015D01*
X114798922Y-141975702D01*
X114796356Y-141954651D01*
X114794523Y-141932862D01*
X114793423Y-141910333D01*
X114793057Y-141887066D01*
X114793057Y-140854123D01*
X115032978Y-140854153D01*
X115032978Y-141819348D01*
X115032814Y-141835280D01*
X115033072Y-141850617D01*
X115033752Y-141865359D01*
X115034854Y-141879504D01*
X115036377Y-141893054D01*
X115038322Y-141906008D01*
X115040689Y-141918367D01*
X115043478Y-141930130D01*
X115046689Y-141941298D01*
X115050321Y-141951871D01*
X115054376Y-141961848D01*
X115058852Y-141971230D01*
X115063750Y-141980016D01*
X115069070Y-141988207D01*
X115074811Y-141995803D01*
X115080975Y-142002804D01*
X115087589Y-142009295D01*
X115094733Y-142015368D01*
X115102406Y-142021021D01*
X115110608Y-142026256D01*
X115119339Y-142031072D01*
X115128599Y-142035469D01*
X115138388Y-142039448D01*
X115148707Y-142043007D01*
X115159554Y-142046148D01*
X115170931Y-142048870D01*
X115182836Y-142051174D01*
X115195271Y-142053058D01*
X115208235Y-142054524D01*
X115221728Y-142055571D01*
X115235750Y-142056199D01*
X115250301Y-142056408D01*
X115264754Y-142056199D01*
X115279185Y-142055571D01*
X115293593Y-142054524D01*
X115307980Y-142053058D01*
X115322344Y-142051174D01*
X115336686Y-142048870D01*
X115351007Y-142046148D01*
X115365305Y-142043007D01*
X115379581Y-142039448D01*
X115393836Y-142035469D01*
X115408068Y-142031072D01*
X115422278Y-142026256D01*
X115436467Y-142021021D01*
X115450633Y-142015368D01*
X115464778Y-142009295D01*
X115478901Y-142002804D01*
X115508534Y-141987954D01*
X115539579Y-141971602D01*
X115572035Y-141953747D01*
X115605902Y-141934390D01*
X115618995Y-141926648D01*
X115730053Y-141926648D01*
X115755451Y-141968945D01*
X115760617Y-142028296D01*
X115786480Y-142008435D01*
X115755482Y-141841931D01*
X115730053Y-141858258D01*
X115730053Y-141926648D01*
X115618995Y-141926648D01*
X115641180Y-141913529D01*
X115677869Y-141891166D01*
G37*
D10*
X97630564Y-66749605D02*
X97560868Y-66773187D01*
X133595784Y-63988541D02*
X133660462Y-64021666D01*
X132855805Y-148344195D02*
X132815379Y-148486556D01*
X109058371Y-66840624D02*
X108981181Y-66838672D01*
X134378036Y-65786678D02*
X134354453Y-65856374D01*
X129643520Y-150578960D02*
X129493383Y-150559882D01*
X97417116Y-63871099D02*
X97489687Y-63887848D01*
X120627040Y-66793400D02*
X120555859Y-66773187D01*
X134189296Y-66179288D02*
X134147476Y-66238098D01*
X119569350Y-64894570D02*
X119592933Y-64824874D01*
X134143574Y-153813566D02*
X133839275Y-154008648D01*
X132180523Y-140431634D02*
X132529004Y-140549546D01*
X127933121Y-145373795D02*
X128041975Y-145279503D01*
X126698692Y-154354867D02*
X126375307Y-154189239D01*
X121779717Y-66623464D02*
X121716901Y-66659582D01*
X125462883Y-141584433D02*
X125756931Y-141375331D01*
X128808077Y-155008032D02*
X128438741Y-154942075D01*
X132106809Y-66584448D02*
X132047999Y-66542627D01*
X132815379Y-146702341D02*
X132855805Y-146844702D01*
X107605595Y-65715497D02*
X107588845Y-65642926D01*
X129950253Y-150594448D02*
X129950253Y-150594448D01*
X129183421Y-140133170D02*
X129564304Y-140104207D01*
X132915686Y-147137578D02*
X132934764Y-147287716D01*
X123189834Y-150846009D02*
X123039640Y-150513787D01*
X107856368Y-66238098D02*
X107814547Y-66179288D01*
X133595784Y-66692708D02*
X133529340Y-66722747D01*
X107775531Y-64562820D02*
X107814547Y-64501960D01*
X119891586Y-64332058D02*
X119941253Y-64279964D01*
X107560322Y-65263434D02*
X107566115Y-65187258D01*
X131512910Y-65786678D02*
X131492697Y-65715497D01*
X109897035Y-64096801D02*
X109955844Y-64138621D01*
X97953478Y-64096801D02*
X98012287Y-64138621D01*
X127011202Y-148199053D02*
X126984819Y-148051319D01*
X127371501Y-140549546D02*
X127719982Y-140431634D01*
X128041975Y-149909394D02*
X127933121Y-149815102D01*
X122501911Y-65340624D02*
X122501911Y-65340624D01*
X123189834Y-144342888D02*
X123355462Y-144019503D01*
X108280566Y-66623464D02*
X108219707Y-66584448D01*
X121585780Y-66722747D02*
X121517663Y-66749605D01*
X130700000Y-144688897D02*
X130842362Y-144729323D01*
X120286924Y-64021666D02*
X120351601Y-63988541D01*
X136169370Y-143401127D02*
X136364452Y-143705426D01*
X119592933Y-64824874D02*
X119619791Y-64756757D01*
X108683498Y-66793400D02*
X108612317Y-66773187D01*
X95705833Y-65856374D02*
X95682250Y-65786678D01*
X132946349Y-147440069D02*
X132950253Y-147594448D01*
X122450253Y-147594448D02*
X122460012Y-147208499D01*
X98397653Y-64562820D02*
X98433771Y-64625636D01*
X97343249Y-66823341D02*
X97268180Y-66832880D01*
X122460012Y-147980397D02*
X122450253Y-147594448D01*
X137411531Y-148361280D02*
X137363836Y-148736625D01*
X122245735Y-66179288D02*
X122203915Y-66238098D01*
X120699611Y-66810150D02*
X120627040Y-66793400D01*
X120286924Y-66659582D02*
X120224109Y-66623464D01*
X119993347Y-66450951D02*
X119941253Y-66401284D01*
X131593389Y-65990936D02*
X131563350Y-65924492D01*
X119719073Y-66118428D02*
X119682955Y-66055613D01*
X129345648Y-150533499D02*
X129200506Y-150500000D01*
X95632097Y-65112189D02*
X95645288Y-65038322D01*
X129564304Y-155084690D02*
X129183421Y-155055727D01*
X97560868Y-66773187D02*
X97489687Y-66793400D01*
X107625808Y-64894570D02*
X107649390Y-64824874D01*
X133320346Y-63887848D02*
X133391527Y-63908061D01*
X121779717Y-64057784D02*
X121840576Y-64096801D01*
X136860865Y-150513787D02*
X136710671Y-150846009D01*
X110341210Y-66118428D02*
X110302194Y-66179288D01*
X134443521Y-65417814D02*
X134437728Y-65493990D01*
X131858532Y-149909394D02*
X131745201Y-149998454D01*
X136364452Y-143705426D02*
X136545043Y-144019503D01*
X98496936Y-64756757D02*
X98523793Y-64824874D01*
X119844440Y-64386485D02*
X119891586Y-64332058D01*
X108612317Y-66773187D02*
X108542621Y-66749605D01*
X120224109Y-66623464D02*
X120163249Y-66584448D01*
X121447967Y-63908061D02*
X121517663Y-63931644D01*
X108542621Y-66749605D02*
X108474503Y-66722747D01*
X121899386Y-66542627D02*
X121840576Y-66584448D01*
X129795873Y-150590545D02*
X129643520Y-150578960D01*
X107625808Y-65786678D02*
X107605595Y-65715497D01*
X96276149Y-66584448D02*
X96217339Y-66542627D01*
X109955844Y-64138621D02*
X110012510Y-64183152D01*
X131492697Y-65715497D02*
X131475947Y-65642926D01*
X134055800Y-64332058D02*
X134102945Y-64386485D01*
X96399824Y-64021666D02*
X96464501Y-63988541D01*
X109135560Y-66838672D02*
X109058371Y-66840624D01*
X121652224Y-66692708D02*
X121585780Y-66722747D01*
X131563350Y-65924492D02*
X131536492Y-65856374D01*
X95682250Y-65786678D02*
X95662037Y-65715497D01*
X98584338Y-65038322D02*
X98597530Y-65112189D01*
X98316816Y-66238098D02*
X98272286Y-66294763D01*
X131835146Y-64332058D02*
X131884813Y-64279964D01*
X119569350Y-65786678D02*
X119549137Y-65715497D01*
X132180523Y-154757263D02*
X131824619Y-154858329D01*
X127085127Y-148486556D02*
X127044701Y-148344195D01*
X95732691Y-64756757D02*
X95762730Y-64690313D01*
X98614813Y-65340624D02*
X98614813Y-65340624D01*
X129183421Y-155055727D02*
X128808077Y-155008032D01*
D12*
G36*
X127235592Y-139020009D02*
G01*
X126998524Y-139020009D01*
X126998524Y-137645588D01*
X127235592Y-137645588D01*
X127235592Y-139020009D01*
G37*
D10*
X95616765Y-65417814D02*
X95614813Y-65340624D01*
X120924723Y-63842576D02*
X121001913Y-63840624D01*
X131536492Y-64824874D02*
X131563350Y-64756757D01*
X126375307Y-140999658D02*
X126698692Y-140834030D01*
X119549137Y-64965751D02*
X119569350Y-64894570D01*
X131462756Y-65112189D02*
X131475947Y-65038322D01*
X109642238Y-63958502D02*
X109708682Y-63988541D01*
X95622558Y-65493990D02*
X95616765Y-65417814D01*
X131835146Y-66349190D02*
X131788000Y-66294763D01*
X121517663Y-66749605D02*
X121447967Y-66773187D01*
X119503865Y-65263434D02*
X119509657Y-65187258D01*
X127546247Y-145799501D02*
X127635307Y-145686171D01*
X97953478Y-66584448D02*
X97892618Y-66623464D01*
X131743470Y-66238098D02*
X131701649Y-66179288D01*
X123731135Y-151787770D02*
X123536053Y-151483471D01*
X119532388Y-65038322D02*
X119549137Y-64965751D01*
D12*
G36*
X115131181Y-46944791D02*
G01*
X115140430Y-46945255D01*
X115149378Y-46946029D01*
X115158024Y-46947112D01*
X115166369Y-46948505D01*
X115174412Y-46950208D01*
X115182152Y-46952220D01*
X115189591Y-46954542D01*
X115196727Y-46957174D01*
X115203561Y-46960115D01*
X115210093Y-46963366D01*
X115216322Y-46966928D01*
X115222248Y-46970799D01*
X115227871Y-46974980D01*
X115233192Y-46979471D01*
X115238209Y-46984272D01*
X115242923Y-46989383D01*
X115247334Y-46994804D01*
X115251442Y-47000536D01*
X115255246Y-47006577D01*
X115258746Y-47012929D01*
X115261943Y-47019591D01*
X115264835Y-47026563D01*
X115267424Y-47033846D01*
X115269709Y-47041439D01*
X115271689Y-47049342D01*
X115273365Y-47057556D01*
X115274737Y-47066080D01*
X115275804Y-47074915D01*
X115276566Y-47084060D01*
X115277176Y-47103283D01*
X115277176Y-47290352D01*
X115277023Y-47300118D01*
X115276566Y-47309574D01*
X115275804Y-47318719D01*
X115274737Y-47327554D01*
X115273365Y-47336079D01*
X115271689Y-47344292D01*
X115269709Y-47352196D01*
X115267424Y-47359789D01*
X115264835Y-47367071D01*
X115261943Y-47374043D01*
X115258746Y-47380705D01*
X115255246Y-47387057D01*
X115251442Y-47393099D01*
X115247334Y-47398830D01*
X115242923Y-47404251D01*
X115238209Y-47409362D01*
X115233192Y-47414164D01*
X115227871Y-47418655D01*
X115222248Y-47422836D01*
X115216322Y-47426707D01*
X115210093Y-47430268D01*
X115203561Y-47433519D01*
X115196727Y-47436461D01*
X115189591Y-47439093D01*
X115182152Y-47441415D01*
X115174412Y-47443427D01*
X115166369Y-47445129D01*
X115158024Y-47446522D01*
X115149378Y-47447606D01*
X115140430Y-47448379D01*
X115131181Y-47448844D01*
X115121630Y-47448998D01*
X114896320Y-47448998D01*
X114886770Y-47448844D01*
X114877520Y-47448379D01*
X114868573Y-47447606D01*
X114859926Y-47446522D01*
X114851582Y-47445129D01*
X114843539Y-47443427D01*
X114835799Y-47441415D01*
X114828360Y-47439093D01*
X114821224Y-47436461D01*
X114814390Y-47433519D01*
X114807858Y-47430268D01*
X114801629Y-47426707D01*
X114795703Y-47422836D01*
X114790080Y-47418655D01*
X114784759Y-47414164D01*
X114779742Y-47409362D01*
X114775028Y-47404251D01*
X114770617Y-47398830D01*
X114766509Y-47393099D01*
X114762705Y-47387057D01*
X114759204Y-47380705D01*
X114756008Y-47374043D01*
X114753115Y-47367071D01*
X114750526Y-47359789D01*
X114748242Y-47352196D01*
X114746261Y-47344292D01*
X114744585Y-47336079D01*
X114743214Y-47327554D01*
X114742147Y-47318719D01*
X114741384Y-47309574D01*
X114740774Y-47290352D01*
X114740774Y-47103283D01*
X114740927Y-47093516D01*
X114741384Y-47084060D01*
X114742147Y-47074915D01*
X114743214Y-47066080D01*
X114744585Y-47057556D01*
X114746261Y-47049342D01*
X114748242Y-47041439D01*
X114750526Y-47033846D01*
X114753115Y-47026563D01*
X114756008Y-47019591D01*
X114759204Y-47012929D01*
X114762705Y-47006577D01*
X114766509Y-47000536D01*
X114770617Y-46994804D01*
X114775028Y-46989383D01*
X114779742Y-46984272D01*
X114784759Y-46979471D01*
X114790080Y-46974980D01*
X114795703Y-46970799D01*
X114801629Y-46966928D01*
X114807858Y-46963367D01*
X114814390Y-46960115D01*
X114821224Y-46957174D01*
X114828360Y-46954542D01*
X114835799Y-46952220D01*
X114843539Y-46950208D01*
X114851582Y-46948505D01*
X114859926Y-46947112D01*
X114868573Y-46946029D01*
X114877520Y-46945255D01*
X114886770Y-46944791D01*
X114896320Y-46944636D01*
X115121630Y-46944636D01*
X115131181Y-46944791D01*
G37*
D10*
X131475947Y-65642926D02*
X131462756Y-65569059D01*
X122536669Y-146452272D02*
X122602626Y-146082937D01*
X107676248Y-65924492D02*
X107649390Y-65856374D01*
X134147476Y-64443151D02*
X134189296Y-64501960D01*
X132717038Y-66823341D02*
X132643171Y-66810150D01*
X126954156Y-147748828D02*
X126950253Y-147594448D01*
X110341210Y-64562820D02*
X110377329Y-64625636D01*
X130104632Y-150590545D02*
X129950253Y-150594448D01*
X131701649Y-64501960D02*
X131743470Y-64443151D01*
X122245735Y-64501960D02*
X122284752Y-64562820D01*
X127828933Y-149715768D02*
X127729599Y-149611580D01*
X95682250Y-64894570D02*
X95705833Y-64824874D01*
X127933121Y-149815102D02*
X127828933Y-149715768D01*
X121447967Y-66773187D02*
X121376786Y-66793400D01*
X121001913Y-63840624D02*
X121079103Y-63842576D01*
X128438741Y-140246822D02*
X128808077Y-140180865D01*
X109574121Y-63931644D02*
X109642238Y-63958502D01*
X134445473Y-65340624D02*
X134445473Y-65340624D01*
X133954039Y-66450951D02*
X133899612Y-66498097D01*
X127312337Y-149024426D02*
X127246085Y-148895072D01*
X137363836Y-148736625D02*
X137297879Y-149105960D01*
X134264431Y-64625636D02*
X134297556Y-64690313D01*
X136995155Y-145015697D02*
X137113067Y-145364178D01*
X119758090Y-64501960D02*
X119799910Y-64443151D01*
X122787438Y-145364178D02*
X122905351Y-145015697D01*
X97892618Y-64057784D02*
X97953478Y-64096801D01*
X121230348Y-66823341D02*
X121155279Y-66832880D01*
X120848547Y-66832880D02*
X120773478Y-66823341D01*
X98614813Y-65340624D02*
X98612861Y-65417814D01*
X131250878Y-150298616D02*
X131117989Y-150358693D01*
X137214133Y-145720082D02*
X137297879Y-146082937D01*
X97892618Y-66623464D02*
X97829802Y-66659582D01*
X120104440Y-66542627D02*
X120047774Y-66498097D01*
X128782518Y-150358693D02*
X128649629Y-150298616D01*
X131991334Y-64183152D02*
X132047999Y-64138621D01*
X134443521Y-65263434D02*
X134445473Y-65340624D01*
X133461223Y-63931644D02*
X133529340Y-63958502D01*
X110168698Y-66349190D02*
X110119031Y-66401284D01*
X132714498Y-146426714D02*
X132768214Y-146562948D01*
X96054153Y-64279964D02*
X96106247Y-64230297D01*
X119649830Y-65990936D02*
X119619791Y-65924492D01*
X121155279Y-66832880D02*
X121079103Y-66838672D01*
X132265199Y-149502726D02*
X132170908Y-149611580D01*
X98175473Y-64279964D02*
X98225140Y-64332058D01*
X98547376Y-64894570D02*
X98567589Y-64965751D01*
X132354260Y-145799501D02*
X132437900Y-145917121D01*
X126965741Y-147901181D02*
X126954156Y-147748828D01*
X98068953Y-64183152D02*
X98123379Y-64230297D01*
X96739940Y-66793400D02*
X96668759Y-66773187D01*
X97489687Y-66793400D02*
X97417116Y-66810150D01*
X120418046Y-66722747D02*
X120351601Y-66692708D01*
X108981181Y-66838672D02*
X108905005Y-66832880D01*
X133098839Y-63848369D02*
X133173908Y-63857908D01*
X108683498Y-63887848D02*
X108756069Y-63871099D01*
X134720949Y-141807084D02*
X134993083Y-142042813D01*
X108829936Y-66823341D02*
X108756069Y-66810150D01*
D11*
X137445473Y-60340624D02*
X137445473Y-70340624D01*
D10*
X119619791Y-65924492D02*
X119592933Y-65856374D01*
X132170908Y-145577317D02*
X132265199Y-145686171D01*
X97829802Y-64021666D02*
X97892618Y-64057784D01*
D12*
G36*
X120980846Y-56999119D02*
G01*
X121030499Y-57001103D01*
X121077507Y-57004410D01*
X121121869Y-57009040D01*
X121163585Y-57014993D01*
X121202655Y-57022268D01*
X121239079Y-57030866D01*
X121272858Y-57040787D01*
X121289163Y-57045957D01*
X121304917Y-57051591D01*
X121320119Y-57057687D01*
X121334771Y-57064247D01*
X121348871Y-57071269D01*
X121362420Y-57078755D01*
X121375417Y-57086703D01*
X121387864Y-57095115D01*
X121399759Y-57103989D01*
X121411103Y-57113327D01*
X121421896Y-57123128D01*
X121432137Y-57133391D01*
X121441827Y-57144118D01*
X121450966Y-57155307D01*
X121459554Y-57166960D01*
X121467590Y-57179076D01*
X121475109Y-57191710D01*
X121482143Y-57204917D01*
X121488691Y-57218698D01*
X121494755Y-57233051D01*
X121500333Y-57247978D01*
X121505426Y-57263479D01*
X121510035Y-57279552D01*
X121514158Y-57296199D01*
X121517796Y-57313419D01*
X121520949Y-57331212D01*
X121523617Y-57349578D01*
X121525800Y-57368518D01*
X121527498Y-57388031D01*
X121528710Y-57408117D01*
X121529438Y-57428776D01*
X121529680Y-57450009D01*
X121529283Y-57480744D01*
X121528093Y-57510863D01*
X121526108Y-57540364D01*
X121523330Y-57569247D01*
X121519758Y-57597514D01*
X121515393Y-57625163D01*
X121510233Y-57652194D01*
X121504280Y-57678608D01*
X121500962Y-57691187D01*
X121497357Y-57703523D01*
X121493465Y-57715617D01*
X121489287Y-57727468D01*
X121484822Y-57739077D01*
X121480071Y-57750443D01*
X121475032Y-57761566D01*
X121469708Y-57772447D01*
X121464096Y-57783086D01*
X121458198Y-57793482D01*
X121452013Y-57803635D01*
X121445542Y-57813546D01*
X121438784Y-57823214D01*
X121431739Y-57832640D01*
X121424408Y-57841823D01*
X121416790Y-57850764D01*
X121409172Y-57859054D01*
X121401134Y-57866991D01*
X121392678Y-57874575D01*
X121383803Y-57881806D01*
X121374510Y-57888685D01*
X121364797Y-57895212D01*
X121354666Y-57901385D01*
X121344116Y-57907206D01*
X121333146Y-57912674D01*
X121321759Y-57917789D01*
X121309952Y-57922551D01*
X121297726Y-57926961D01*
X121285081Y-57931018D01*
X121272018Y-57934723D01*
X121258536Y-57938074D01*
X121244635Y-57941073D01*
X121244635Y-57952362D01*
X121268150Y-57956628D01*
X121290716Y-57961666D01*
X121312335Y-57967475D01*
X121333006Y-57974056D01*
X121352728Y-57981409D01*
X121371502Y-57989534D01*
X121389329Y-57998431D01*
X121406207Y-58008099D01*
X121422137Y-58018539D01*
X121437119Y-58029751D01*
X121451153Y-58041735D01*
X121464239Y-58054490D01*
X121476376Y-58068018D01*
X121487566Y-58082317D01*
X121497808Y-58097388D01*
X121507101Y-58113230D01*
X121515998Y-58129392D01*
X121524344Y-58146127D01*
X121532138Y-58163435D01*
X121539381Y-58181316D01*
X121546073Y-58199771D01*
X121552213Y-58218799D01*
X121557803Y-58238400D01*
X121562841Y-58258575D01*
X121567328Y-58279322D01*
X121571264Y-58300643D01*
X121574648Y-58322537D01*
X121577481Y-58345005D01*
X121579763Y-58368046D01*
X121581494Y-58391660D01*
X121582673Y-58415847D01*
X121583302Y-58440607D01*
X121583409Y-58465037D01*
X121583032Y-58488938D01*
X121582171Y-58512310D01*
X121580824Y-58535152D01*
X121578993Y-58557465D01*
X121576677Y-58579249D01*
X121573877Y-58600504D01*
X121570592Y-58621230D01*
X121566822Y-58641426D01*
X121562567Y-58661093D01*
X121557828Y-58680232D01*
X121552604Y-58698841D01*
X121546895Y-58716920D01*
X121540702Y-58734471D01*
X121534024Y-58751493D01*
X121526861Y-58767985D01*
X121519155Y-58783606D01*
X121510853Y-58798721D01*
X121501956Y-58813328D01*
X121492464Y-58827428D01*
X121482376Y-58841021D01*
X121471693Y-58854107D01*
X121460415Y-58866686D01*
X121448542Y-58878758D01*
X121436074Y-58890322D01*
X121423010Y-58901380D01*
X121409351Y-58911930D01*
X121395097Y-58921973D01*
X121380248Y-58931509D01*
X121364803Y-58940538D01*
X121348764Y-58949059D01*
X121332129Y-58957074D01*
X121314820Y-58964592D01*
X121296763Y-58971626D01*
X121277955Y-58978174D01*
X121258398Y-58984238D01*
X121238091Y-58989816D01*
X121217035Y-58994910D01*
X121195229Y-58999518D01*
X121172673Y-59003641D01*
X121149367Y-59007279D01*
X121125312Y-59010432D01*
X121100508Y-59013100D01*
X121074954Y-59015283D01*
X121048650Y-59016981D01*
X121021596Y-59018193D01*
X120993793Y-59018921D01*
X120965241Y-59019163D01*
X120926391Y-59018899D01*
X120887453Y-59018105D01*
X120848427Y-59016783D01*
X120809313Y-59014931D01*
X120770111Y-59012550D01*
X120730820Y-59009640D01*
X120691441Y-59006202D01*
X120651974Y-59002234D01*
X120574715Y-58994826D01*
X120498162Y-58986711D01*
X120422315Y-58977890D01*
X120347174Y-58968363D01*
X120364103Y-58767987D01*
X120457945Y-58776469D01*
X120547546Y-58784916D01*
X120592525Y-58787547D01*
X120637151Y-58789841D01*
X120681424Y-58791797D01*
X120725346Y-58793415D01*
X120769267Y-58794641D01*
X120813541Y-58795516D01*
X120858167Y-58796040D01*
X120903145Y-58796215D01*
X120941642Y-58795686D01*
X120978111Y-58794099D01*
X121012551Y-58791453D01*
X121044962Y-58787748D01*
X121075345Y-58782985D01*
X121103700Y-58777163D01*
X121117116Y-58773856D01*
X121130026Y-58770283D01*
X121142428Y-58766446D01*
X121154324Y-58762345D01*
X121166109Y-58757571D01*
X121177476Y-58752423D01*
X121188424Y-58746899D01*
X121198952Y-58741001D01*
X121209062Y-58734729D01*
X121218752Y-58728081D01*
X121228024Y-58721059D01*
X121236876Y-58713661D01*
X121245310Y-58705889D01*
X121253324Y-58697742D01*
X121260919Y-58689221D01*
X121268096Y-58680324D01*
X121274854Y-58671053D01*
X121281192Y-58661407D01*
X121287112Y-58651386D01*
X121292612Y-58640990D01*
X121298081Y-58630186D01*
X121303197Y-58618941D01*
X121307960Y-58607254D01*
X121312370Y-58595127D01*
X121316427Y-58582560D01*
X121320132Y-58569551D01*
X121323484Y-58556101D01*
X121326483Y-58542210D01*
X121329129Y-58527879D01*
X121331422Y-58513106D01*
X121333362Y-58497892D01*
X121334950Y-58482238D01*
X121336185Y-58466143D01*
X121337067Y-58449606D01*
X121337596Y-58432629D01*
X121337772Y-58415211D01*
X121337287Y-58388841D01*
X121335832Y-58363352D01*
X121333407Y-58338746D01*
X121331831Y-58326774D01*
X121330012Y-58315022D01*
X121327951Y-58303491D01*
X121325647Y-58292180D01*
X121323101Y-58281090D01*
X121320312Y-58270220D01*
X121317281Y-58259570D01*
X121314007Y-58249141D01*
X121310491Y-58238933D01*
X121306732Y-58228945D01*
X121302984Y-58218858D01*
X121298796Y-58209058D01*
X121294166Y-58199545D01*
X121289095Y-58190318D01*
X121283583Y-58181377D01*
X121277630Y-58172723D01*
X121271236Y-58164356D01*
X121264401Y-58156275D01*
X121257125Y-58148481D01*
X121249408Y-58140973D01*
X121241250Y-58133752D01*
X121232650Y-58126817D01*
X121223610Y-58120169D01*
X121214129Y-58113808D01*
X121204207Y-58107733D01*
X121193844Y-58101944D01*
X121183304Y-58096476D01*
X121172147Y-58091360D01*
X121160372Y-58086597D01*
X121147981Y-58082186D01*
X121134972Y-58078129D01*
X121121345Y-58074424D01*
X121107102Y-58071073D01*
X121092241Y-58068074D01*
X121076763Y-58065428D01*
X121060668Y-58063135D01*
X121043956Y-58061194D01*
X121026626Y-58059606D01*
X121008679Y-58058372D01*
X120990114Y-58057490D01*
X120970933Y-58056960D01*
X120951134Y-58056784D01*
X120589890Y-58056784D01*
X120589890Y-57862051D01*
X120951134Y-57862051D01*
X120979312Y-57861566D01*
X121005991Y-57860111D01*
X121018768Y-57859020D01*
X121031170Y-57857686D01*
X121043198Y-57856110D01*
X121054850Y-57854291D01*
X121066128Y-57852230D01*
X121077031Y-57849926D01*
X121087559Y-57847380D01*
X121097712Y-57844591D01*
X121107491Y-57841560D01*
X121116894Y-57838286D01*
X121125923Y-57834770D01*
X121134577Y-57831011D01*
X121143254Y-57827065D01*
X121151644Y-57822987D01*
X121159747Y-57818776D01*
X121167564Y-57814433D01*
X121175094Y-57809957D01*
X121182337Y-57805349D01*
X121189293Y-57800609D01*
X121195963Y-57795736D01*
X121202346Y-57790731D01*
X121208442Y-57785594D01*
X121214252Y-57780325D01*
X121219775Y-57774923D01*
X121225011Y-57769388D01*
X121229960Y-57763722D01*
X121234623Y-57757923D01*
X121238999Y-57751992D01*
X121243133Y-57745597D01*
X121247069Y-57739115D01*
X121250807Y-57732545D01*
X121254346Y-57725886D01*
X121257686Y-57719139D01*
X121260828Y-57712304D01*
X121263772Y-57705381D01*
X121266516Y-57698369D01*
X121269063Y-57691270D01*
X121271410Y-57684082D01*
X121273560Y-57676806D01*
X121275510Y-57669442D01*
X121277263Y-57661989D01*
X121278816Y-57654449D01*
X121280172Y-57646820D01*
X121281328Y-57639103D01*
X121283974Y-57622832D01*
X121286268Y-57606472D01*
X121288208Y-57590023D01*
X121289795Y-57573487D01*
X121291030Y-57556862D01*
X121291912Y-57540149D01*
X121292441Y-57523348D01*
X121292618Y-57506459D01*
X121291388Y-57476429D01*
X121290375Y-57462174D01*
X121289098Y-57448427D01*
X121287556Y-57435187D01*
X121285749Y-57422454D01*
X121283677Y-57410228D01*
X121281340Y-57398509D01*
X121278738Y-57387298D01*
X121275871Y-57376593D01*
X121272739Y-57366396D01*
X121269343Y-57356706D01*
X121265681Y-57347522D01*
X121261755Y-57338846D01*
X121257563Y-57330677D01*
X121253107Y-57323016D01*
X121248322Y-57315420D01*
X121243141Y-57308155D01*
X121237563Y-57301220D01*
X121231587Y-57294617D01*
X121225215Y-57288344D01*
X121218446Y-57282402D01*
X121211280Y-57276791D01*
X121203718Y-57271510D01*
X121195758Y-57266561D01*
X121187402Y-57261942D01*
X121178648Y-57257654D01*
X121169498Y-57253696D01*
X121159951Y-57250070D01*
X121150007Y-57246774D01*
X121139667Y-57243809D01*
X121128929Y-57241175D01*
X121118092Y-57238441D01*
X121106748Y-57235883D01*
X121082538Y-57231297D01*
X121056300Y-57227416D01*
X121028034Y-57224241D01*
X120997739Y-57221771D01*
X120965416Y-57220007D01*
X120931064Y-57218949D01*
X120894684Y-57218596D01*
X120826069Y-57219127D01*
X120758512Y-57220720D01*
X120692014Y-57223376D01*
X120626574Y-57227095D01*
X120564837Y-57230077D01*
X120506628Y-57233422D01*
X120451948Y-57237132D01*
X120400795Y-57241206D01*
X120381041Y-57049298D01*
X120416848Y-57043168D01*
X120452302Y-57037480D01*
X120487404Y-57032232D01*
X120522153Y-57027425D01*
X120556548Y-57023059D01*
X120590591Y-57019135D01*
X120624282Y-57015651D01*
X120657620Y-57012608D01*
X120691486Y-57009301D01*
X120725353Y-57006435D01*
X120759219Y-57004009D01*
X120793086Y-57002025D01*
X120826953Y-57000482D01*
X120860819Y-56999379D01*
X120894686Y-56998718D01*
X120928553Y-56998497D01*
X120928547Y-56998457D01*
X120980846Y-56999119D01*
G37*
D10*
X95614813Y-65340624D02*
X95614813Y-65340624D01*
X108612317Y-63908061D02*
X108683498Y-63887848D01*
X123039640Y-144675110D02*
X123189834Y-144342888D01*
D11*
X125501911Y-70340624D02*
X116501913Y-70340624D01*
D10*
X109773359Y-64021666D02*
X109836175Y-64057784D01*
X131453217Y-65493990D02*
X131447425Y-65417814D01*
X132047999Y-64138621D02*
X132106809Y-64096801D01*
X108542621Y-63931644D02*
X108612317Y-63908061D01*
X126061230Y-141180249D02*
X126375307Y-140999658D01*
D12*
G36*
X116382313Y-141043240D02*
G01*
X116133991Y-141043240D01*
X116133991Y-140868267D01*
X116382313Y-140855345D01*
X116382313Y-141043240D01*
G37*
D10*
X132950253Y-147594448D02*
X132950253Y-147594448D01*
X131447425Y-65263434D02*
X131453217Y-65187258D01*
X128394644Y-145028769D02*
X128520275Y-144956533D01*
X127132292Y-148625948D02*
X127085127Y-148486556D01*
X98523793Y-64824874D02*
X98547376Y-64894570D01*
X107588845Y-65038322D02*
X107605595Y-64965751D01*
X119993347Y-64230297D02*
X120047774Y-64183152D01*
X132654420Y-148895072D02*
X132588169Y-149024426D01*
X109360673Y-63871099D02*
X109433244Y-63887848D01*
D11*
X92614814Y-70340624D02*
X92614814Y-60340624D01*
D10*
X110377329Y-64625636D02*
X110410454Y-64690313D01*
X96739940Y-63887848D02*
X96812511Y-63871099D01*
X122471437Y-65642926D02*
X122454687Y-65715497D01*
X97417116Y-66810150D02*
X97343249Y-66823341D01*
X119844440Y-66294763D02*
X119799910Y-66238098D01*
X107575654Y-65112189D02*
X107588845Y-65038322D01*
D11*
X101614814Y-60340624D02*
X101614814Y-60340624D01*
D10*
X131461764Y-154942075D02*
X131092429Y-155008032D01*
D12*
G36*
X110531193Y-143542823D02*
G01*
X110535045Y-143491907D01*
X110541388Y-143441748D01*
X110550162Y-143392408D01*
X110561302Y-143343949D01*
X110574749Y-143296432D01*
X110590439Y-143249920D01*
X110608311Y-143204474D01*
X110628302Y-143160156D01*
X110650351Y-143117028D01*
X110674395Y-143075151D01*
X110700373Y-143034589D01*
X110728221Y-142995402D01*
X110757879Y-142957653D01*
X110789284Y-142921402D01*
X110822374Y-142886713D01*
X110857088Y-142853648D01*
X110893362Y-142822266D01*
X110931135Y-142792632D01*
X110970345Y-142764807D01*
X111010930Y-142738852D01*
X111052828Y-142714829D01*
X111095976Y-142692801D01*
X111140313Y-142672828D01*
X111185777Y-142654974D01*
X111232305Y-142639300D01*
X111279835Y-142625867D01*
X111328306Y-142614738D01*
X111377656Y-142605974D01*
X111427821Y-142599638D01*
X111478741Y-142595790D01*
X111530354Y-142594494D01*
X118529926Y-142594494D01*
X118581539Y-142595790D01*
X118632459Y-142599638D01*
X118682624Y-142605974D01*
X118731974Y-142614738D01*
X118780445Y-142625867D01*
X118827975Y-142639300D01*
X118874503Y-142654974D01*
X118919967Y-142672828D01*
X118964304Y-142692801D01*
X119007452Y-142714829D01*
X119049350Y-142738852D01*
X119089935Y-142764807D01*
X119129145Y-142792632D01*
X119166918Y-142822266D01*
X119203192Y-142853648D01*
X119237906Y-142886713D01*
X119270996Y-142921402D01*
X119302401Y-142957653D01*
X119332059Y-142995402D01*
X119359907Y-143034589D01*
X119385885Y-143075151D01*
X119409929Y-143117028D01*
X119431978Y-143160156D01*
X119451969Y-143204474D01*
X119469841Y-143249920D01*
X119485531Y-143296432D01*
X119498978Y-143343949D01*
X119510118Y-143392408D01*
X119518892Y-143441748D01*
X119525235Y-143491907D01*
X119529087Y-143542823D01*
X119530384Y-143594433D01*
X119530384Y-151594464D01*
X119529087Y-151646074D01*
X119525235Y-151696990D01*
X119518892Y-151747149D01*
X119510118Y-151796489D01*
X119498978Y-151844948D01*
X119485531Y-151892465D01*
X119469841Y-151938977D01*
X119451969Y-151984423D01*
X119431978Y-152028741D01*
X119409929Y-152071869D01*
X119385885Y-152113746D01*
X119359907Y-152154308D01*
X119332059Y-152193495D01*
X119302401Y-152231244D01*
X119270996Y-152267495D01*
X119237906Y-152302184D01*
X119203192Y-152335249D01*
X119166918Y-152366630D01*
X119129145Y-152396265D01*
X119089935Y-152424090D01*
X119049350Y-152450045D01*
X119007452Y-152474068D01*
X118964304Y-152496096D01*
X118919967Y-152516069D01*
X118874503Y-152533923D01*
X118827975Y-152549597D01*
X118780445Y-152563030D01*
X118731974Y-152574159D01*
X118682624Y-152582923D01*
X118632459Y-152589259D01*
X118581539Y-152593107D01*
X118529926Y-152594403D01*
X111530354Y-152594403D01*
X111478741Y-152593107D01*
X111427821Y-152589259D01*
X111377656Y-152582923D01*
X111328306Y-152574159D01*
X111279835Y-152563030D01*
X111232305Y-152549597D01*
X111185777Y-152533923D01*
X111140313Y-152516069D01*
X111095976Y-152496096D01*
X111052828Y-152474068D01*
X111010930Y-152450045D01*
X110970345Y-152424090D01*
X110931135Y-152396265D01*
X110893362Y-152366630D01*
X110857088Y-152335249D01*
X110822374Y-152302184D01*
X110789284Y-152267495D01*
X110757879Y-152231244D01*
X110728221Y-152193495D01*
X110700373Y-152154308D01*
X110674395Y-152113746D01*
X110650351Y-152071869D01*
X110628302Y-152028741D01*
X110608311Y-151984423D01*
X110590439Y-151938977D01*
X110574749Y-151892465D01*
X110561302Y-151844948D01*
X110550162Y-151796489D01*
X110541388Y-151747149D01*
X110535045Y-151696990D01*
X110531193Y-151646074D01*
X110529896Y-151594464D01*
X110529896Y-147594677D01*
X113530209Y-147594677D01*
X113532178Y-147671860D01*
X113537987Y-147748029D01*
X113547542Y-147823089D01*
X113560749Y-147896947D01*
X113577513Y-147969509D01*
X113597741Y-148040680D01*
X113621337Y-148110366D01*
X113648209Y-148178472D01*
X113678261Y-148244905D01*
X113711399Y-148309571D01*
X113747531Y-148372375D01*
X113786560Y-148433223D01*
X113828393Y-148492020D01*
X113872936Y-148548673D01*
X113920095Y-148603087D01*
X113969775Y-148655169D01*
X114021883Y-148704823D01*
X114076323Y-148751956D01*
X114133003Y-148796474D01*
X114191827Y-148838282D01*
X114252702Y-148877286D01*
X114315533Y-148913392D01*
X114380227Y-148946505D01*
X114446688Y-148976532D01*
X114514824Y-149003378D01*
X114584539Y-149026949D01*
X114655739Y-149047151D01*
X114728331Y-149063890D01*
X114802220Y-149077071D01*
X114877312Y-149086600D01*
X114953512Y-149092384D01*
X115030728Y-149094326D01*
X115107891Y-149092340D01*
X115184041Y-149086516D01*
X115259083Y-149076949D01*
X115332922Y-149063732D01*
X115405464Y-149046960D01*
X115476616Y-149026727D01*
X115546283Y-149003127D01*
X115614371Y-148976256D01*
X115680786Y-148946206D01*
X115745433Y-148913072D01*
X115808220Y-148876949D01*
X115869050Y-148837930D01*
X115927831Y-148796110D01*
X115984468Y-148751584D01*
X116038868Y-148704445D01*
X116090935Y-148654787D01*
X116140576Y-148602706D01*
X116187696Y-148548295D01*
X116232202Y-148491648D01*
X116274000Y-148432860D01*
X116312994Y-148372025D01*
X116349092Y-148309237D01*
X116382198Y-148244591D01*
X116412220Y-148178180D01*
X116439062Y-148110100D01*
X116462630Y-148040443D01*
X116482831Y-147969306D01*
X116499570Y-147896780D01*
X116512753Y-147822962D01*
X116522286Y-147747945D01*
X116528075Y-147671824D01*
X116530026Y-147594693D01*
X116528082Y-147517509D01*
X116522298Y-147441339D01*
X116512768Y-147366275D01*
X116499587Y-147292413D01*
X116482848Y-147219846D01*
X116462645Y-147148669D01*
X116439073Y-147078975D01*
X116412227Y-147010860D01*
X116382200Y-146944417D01*
X116349086Y-146879741D01*
X116312980Y-146816925D01*
X116273975Y-146756065D01*
X116232167Y-146697253D01*
X116187649Y-146640586D01*
X116140516Y-146586156D01*
X116090861Y-146534058D01*
X116038780Y-146484386D01*
X115984365Y-146437235D01*
X115927712Y-146392699D01*
X115868914Y-146350871D01*
X115808067Y-146311847D01*
X115745263Y-146275720D01*
X115680597Y-146242585D01*
X115614164Y-146212535D01*
X115546057Y-146185666D01*
X115476371Y-146162071D01*
X115405200Y-146141845D01*
X115332639Y-146125081D01*
X115258781Y-146111875D01*
X115183720Y-146102320D01*
X115107551Y-146096510D01*
X115030369Y-146094540D01*
X115017723Y-146094483D01*
X115005077Y-146094540D01*
X115005428Y-146094525D01*
X114929170Y-146097694D01*
X114853952Y-146104603D01*
X114779864Y-146115161D01*
X114706998Y-146129274D01*
X114635444Y-146146850D01*
X114565292Y-146167799D01*
X114496633Y-146192028D01*
X114429558Y-146219444D01*
X114364156Y-146249957D01*
X114300519Y-146283474D01*
X114238738Y-146319902D01*
X114178902Y-146359151D01*
X114121102Y-146401127D01*
X114065429Y-146445740D01*
X114011973Y-146492897D01*
X113960825Y-146542506D01*
X113912075Y-146594475D01*
X113865815Y-146648712D01*
X113822134Y-146705125D01*
X113781123Y-146763623D01*
X113742872Y-146824112D01*
X113707473Y-146886502D01*
X113675015Y-146950700D01*
X113645589Y-147016615D01*
X113619286Y-147084153D01*
X113596197Y-147153224D01*
X113576411Y-147223735D01*
X113560020Y-147295595D01*
X113547113Y-147368711D01*
X113537782Y-147442991D01*
X113532117Y-147518344D01*
X113530209Y-147594677D01*
X110529896Y-147594677D01*
X110529896Y-143594433D01*
X110531193Y-143542823D01*
G37*
D10*
X95762730Y-64690313D02*
X95795855Y-64625636D01*
X131445473Y-65340624D02*
X131445473Y-65340624D01*
X107948044Y-64332058D02*
X107997711Y-64279964D01*
D11*
X104558372Y-60340624D02*
X113558373Y-60340624D01*
D10*
X137297879Y-146082937D02*
X137363836Y-146452272D01*
X120486163Y-63931644D02*
X120555859Y-63908061D01*
X107676248Y-64756757D02*
X107706287Y-64690313D01*
X136545043Y-144019503D02*
X136710671Y-144342888D01*
D11*
X92614814Y-60340624D02*
X101614814Y-60340624D01*
D10*
X133201813Y-154354867D02*
X132869591Y-154505061D01*
X133899612Y-66498097D02*
X133842946Y-66542627D01*
X96599063Y-63931644D02*
X96668759Y-63908061D01*
X131492697Y-64965751D02*
X131512910Y-64894570D01*
X108280566Y-64057784D02*
X108343382Y-64021666D01*
D11*
X125501911Y-70340624D02*
X125501911Y-70340624D01*
D10*
X109836175Y-66623464D02*
X109773359Y-66659582D01*
X132429723Y-63931644D02*
X132499419Y-63908061D01*
X122010478Y-64230297D02*
X122062572Y-64279964D01*
X119619791Y-64756757D02*
X119649830Y-64690313D01*
D12*
G36*
X125102846Y-137073005D02*
G01*
X125107523Y-137073418D01*
X125112096Y-137073997D01*
X125116563Y-137074742D01*
X125120926Y-137075651D01*
X125125184Y-137076726D01*
X125129337Y-137077967D01*
X125133386Y-137079373D01*
X125137330Y-137080944D01*
X125141169Y-137082680D01*
X125144904Y-137084582D01*
X125148534Y-137086650D01*
X125152059Y-137088882D01*
X125155479Y-137091280D01*
X125158795Y-137093844D01*
X125162005Y-137096573D01*
X125165111Y-137099467D01*
X125168113Y-137102526D01*
X125171009Y-137105751D01*
X125173801Y-137109141D01*
X125176488Y-137112697D01*
X125179071Y-137116418D01*
X125181548Y-137120304D01*
X125186189Y-137128572D01*
X125190411Y-137137502D01*
X125194214Y-137147093D01*
X125197598Y-137157345D01*
X125561665Y-138345501D01*
X125567177Y-138361729D01*
X125572425Y-138377957D01*
X125577408Y-138394185D01*
X125582127Y-138410412D01*
X125586581Y-138426640D01*
X125590770Y-138442868D01*
X125594694Y-138459095D01*
X125598354Y-138475323D01*
X125606997Y-138507956D01*
X125615993Y-138540942D01*
X125625342Y-138574279D01*
X125635044Y-138607968D01*
X125685845Y-138607968D01*
X125695545Y-138574280D01*
X125704893Y-138540945D01*
X125713888Y-138507959D01*
X125722530Y-138475323D01*
X125740172Y-138409003D01*
X125759220Y-138339856D01*
X126123287Y-137157345D01*
X126126352Y-137147093D01*
X126128067Y-137142215D01*
X126129902Y-137137502D01*
X126131859Y-137132954D01*
X126133937Y-137128572D01*
X126136137Y-137124355D01*
X126138457Y-137120304D01*
X126140899Y-137116418D01*
X126143462Y-137112697D01*
X126146147Y-137109141D01*
X126148952Y-137105751D01*
X126151879Y-137102526D01*
X126154928Y-137099467D01*
X126158097Y-137096573D01*
X126161388Y-137093844D01*
X126164800Y-137091280D01*
X126168333Y-137088882D01*
X126171988Y-137086650D01*
X126175764Y-137084582D01*
X126179661Y-137082680D01*
X126183679Y-137080944D01*
X126187819Y-137079373D01*
X126192080Y-137077967D01*
X126196462Y-137076726D01*
X126200966Y-137075651D01*
X126205591Y-137074742D01*
X126210337Y-137073997D01*
X126215204Y-137073418D01*
X126220193Y-137073005D01*
X126230534Y-137072674D01*
X126509930Y-137072674D01*
X126516181Y-137072776D01*
X126522233Y-137073082D01*
X126528087Y-137073592D01*
X126533742Y-137074306D01*
X126539199Y-137075224D01*
X126544458Y-137076346D01*
X126549518Y-137077672D01*
X126554380Y-137079201D01*
X126559043Y-137080935D01*
X126563508Y-137082873D01*
X126567775Y-137085015D01*
X126571843Y-137087360D01*
X126575712Y-137089910D01*
X126579383Y-137092664D01*
X126582856Y-137095621D01*
X126586130Y-137098783D01*
X126589206Y-137102148D01*
X126592083Y-137105718D01*
X126594762Y-137109491D01*
X126597243Y-137113469D01*
X126599525Y-137117650D01*
X126601608Y-137122035D01*
X126603494Y-137126625D01*
X126605180Y-137131418D01*
X126606669Y-137136415D01*
X126607958Y-137141616D01*
X126609050Y-137147021D01*
X126609943Y-137152630D01*
X126610637Y-137158443D01*
X126611134Y-137164460D01*
X126611431Y-137170681D01*
X126611530Y-137177105D01*
X126693375Y-139020016D01*
X126445019Y-139020016D01*
X126374462Y-137278698D01*
X126315197Y-137278698D01*
X125880577Y-138715207D01*
X125877512Y-138725460D01*
X125875798Y-138730339D01*
X125873962Y-138735052D01*
X125872005Y-138739600D01*
X125869927Y-138743982D01*
X125867728Y-138748199D01*
X125865407Y-138752251D01*
X125862965Y-138756137D01*
X125860402Y-138759858D01*
X125857718Y-138763414D01*
X125854912Y-138766804D01*
X125851985Y-138770029D01*
X125848937Y-138773088D01*
X125845767Y-138775982D01*
X125842476Y-138778711D01*
X125839064Y-138781274D01*
X125835531Y-138783672D01*
X125831876Y-138785904D01*
X125828101Y-138787971D01*
X125824203Y-138789873D01*
X125820185Y-138791609D01*
X125816045Y-138793180D01*
X125811784Y-138794586D01*
X125807402Y-138795826D01*
X125802899Y-138796901D01*
X125798274Y-138797811D01*
X125793528Y-138798555D01*
X125788660Y-138799133D01*
X125783672Y-138799547D01*
X125773331Y-138799877D01*
X125550377Y-138799877D01*
X125539683Y-138799547D01*
X125529475Y-138798555D01*
X125519751Y-138796901D01*
X125510513Y-138794586D01*
X125506076Y-138793180D01*
X125501760Y-138791609D01*
X125497565Y-138789873D01*
X125493491Y-138787971D01*
X125489539Y-138785904D01*
X125485708Y-138783672D01*
X125481999Y-138781274D01*
X125478410Y-138778711D01*
X125474943Y-138775982D01*
X125471597Y-138773088D01*
X125468373Y-138770029D01*
X125465270Y-138766804D01*
X125462288Y-138763414D01*
X125459427Y-138759858D01*
X125456687Y-138756137D01*
X125454069Y-138752251D01*
X125449196Y-138743982D01*
X125444809Y-138735052D01*
X125440906Y-138725460D01*
X125437489Y-138715207D01*
X125002865Y-137278698D01*
X124946423Y-137278698D01*
X124878689Y-139020016D01*
X124630333Y-139020016D01*
X124706532Y-137177105D01*
X124707601Y-137164460D01*
X124708408Y-137158443D01*
X124709397Y-137152630D01*
X124710569Y-137147021D01*
X124711922Y-137141616D01*
X124713457Y-137136415D01*
X124715174Y-137131418D01*
X124717073Y-137126625D01*
X124719154Y-137122035D01*
X124721417Y-137117650D01*
X124723861Y-137113469D01*
X124726488Y-137109491D01*
X124729296Y-137105718D01*
X124732287Y-137102148D01*
X124735459Y-137098783D01*
X124738813Y-137095621D01*
X124742349Y-137092664D01*
X124746067Y-137089910D01*
X124749967Y-137087360D01*
X124754049Y-137085015D01*
X124758313Y-137082873D01*
X124762759Y-137080935D01*
X124767386Y-137079201D01*
X124772196Y-137077672D01*
X124777187Y-137076346D01*
X124782360Y-137075224D01*
X124787715Y-137074306D01*
X124793252Y-137073592D01*
X124798971Y-137073082D01*
X124804872Y-137072776D01*
X124810955Y-137072674D01*
X125093178Y-137072674D01*
X125102846Y-137073005D01*
G37*
D10*
X97114813Y-63840624D02*
X97192003Y-63842576D01*
X108219707Y-66584448D02*
X108160897Y-66542627D01*
X137450253Y-147594448D02*
X137440494Y-147980397D01*
X107706287Y-64690313D02*
X107739413Y-64625636D01*
X132768214Y-146562948D02*
X132815379Y-146702341D01*
X134228313Y-64562820D02*
X134264431Y-64625636D01*
D12*
G36*
X112331619Y-49456110D02*
G01*
X111812788Y-49456110D01*
X111812788Y-47713581D01*
X112331619Y-47713581D01*
X112331619Y-49456110D01*
G37*
D10*
X127011202Y-146989844D02*
X127044701Y-146844702D01*
X96160674Y-64183152D02*
X96217339Y-64138621D01*
X128041975Y-145279503D02*
X128155305Y-145190443D01*
X130104632Y-144598352D02*
X130256986Y-144609937D01*
X107997711Y-64279964D02*
X108049805Y-64230297D01*
X124646952Y-142291148D02*
X124907422Y-142042813D01*
X110558371Y-65340624D02*
X110558371Y-65340624D01*
X109708682Y-66692708D02*
X109642238Y-66722747D01*
X132170908Y-149611580D02*
X132071574Y-149715768D01*
X95622558Y-65187258D02*
X95632097Y-65112189D01*
X121079103Y-63842576D02*
X121155279Y-63848369D01*
X123940237Y-152081818D02*
X123731135Y-151787770D01*
X108981181Y-63842576D02*
X109058371Y-63840624D01*
X132643171Y-66810150D02*
X132570600Y-66793400D01*
X132499419Y-66773187D02*
X132429723Y-66749605D01*
X135960268Y-152081818D02*
X135737617Y-152365145D01*
X127371501Y-154639350D02*
X127030914Y-154505061D01*
X96160674Y-66498097D02*
X96106247Y-66450951D01*
X128649629Y-150298616D02*
X128520275Y-150232364D01*
X96464501Y-63988541D02*
X96530946Y-63958502D01*
X132167669Y-66623464D02*
X132106809Y-66584448D01*
X129950253Y-144594448D02*
X129950253Y-144594448D01*
X131936907Y-66450951D02*
X131884813Y-66401284D01*
D11*
X104558372Y-70340624D02*
X104558372Y-60340624D01*
D10*
X132717038Y-63857908D02*
X132792107Y-63848369D01*
X121840576Y-64096801D02*
X121899386Y-64138621D01*
X108474503Y-66722747D02*
X108408059Y-66692708D01*
X129643520Y-144609937D02*
X129795873Y-144598352D01*
X121376786Y-63887848D02*
X121447967Y-63908061D01*
X124907422Y-142042813D02*
X125179556Y-141807084D01*
X98466897Y-64690313D02*
X98496936Y-64756757D01*
X109286806Y-63857908D02*
X109360673Y-63871099D01*
X96464501Y-66692708D02*
X96399824Y-66659582D01*
X127312337Y-146164471D02*
X127384573Y-146038840D01*
X98607069Y-65187258D02*
X98612861Y-65263434D01*
X110302194Y-66179288D02*
X110260374Y-66238098D01*
X122320870Y-64625636D02*
X122353995Y-64690313D01*
X123355462Y-151169394D02*
X123189834Y-150846009D01*
X109773359Y-66659582D02*
X109708682Y-66692708D01*
X132945473Y-63840624D02*
X132945473Y-63840624D01*
X96599063Y-66749605D02*
X96530946Y-66722747D01*
X110511147Y-65715497D02*
X110490934Y-65786678D01*
X110490934Y-64894570D02*
X110511147Y-64965751D01*
X136364452Y-151483471D02*
X136169370Y-151787770D01*
X133320346Y-66793400D02*
X133247775Y-66810150D01*
X120555859Y-63908061D02*
X120627040Y-63887848D01*
X119891586Y-66349190D02*
X119844440Y-66294763D01*
D11*
X104558372Y-70340624D02*
X104558372Y-70340624D01*
D10*
X132654420Y-146293825D02*
X132714498Y-146426714D01*
X98272286Y-66294763D02*
X98225140Y-66349190D01*
X97765125Y-66692708D02*
X97698681Y-66722747D01*
X129493383Y-150559882D02*
X129345648Y-150533499D01*
X96106247Y-66450951D02*
X96054153Y-66401284D01*
X122488974Y-146827617D02*
X122536669Y-146452272D01*
X131512910Y-64894570D02*
X131536492Y-64824874D01*
X109211737Y-66832880D02*
X109135560Y-66838672D01*
X122602626Y-146082937D02*
X122686372Y-145720082D01*
X98123379Y-66450951D02*
X98068953Y-66498097D01*
X134143574Y-141375331D02*
X134437622Y-141584433D01*
X133525198Y-140999658D02*
X133839275Y-141180249D01*
X119501913Y-65340624D02*
X119503865Y-65263434D01*
X108219707Y-64096801D02*
X108280566Y-64057784D01*
X97698681Y-66722747D02*
X97630564Y-66749605D01*
X132869591Y-154505061D02*
X132529004Y-154639350D01*
X108905005Y-66832880D02*
X108829936Y-66823341D01*
D12*
G36*
X113937102Y-47668061D02*
G01*
X113966520Y-47669476D01*
X113994971Y-47671834D01*
X114022456Y-47675136D01*
X114048975Y-47679380D01*
X114074528Y-47684569D01*
X114099114Y-47690700D01*
X114122735Y-47697776D01*
X114145390Y-47705795D01*
X114167079Y-47714757D01*
X114187803Y-47724663D01*
X114207561Y-47735513D01*
X114226354Y-47747307D01*
X114244183Y-47760044D01*
X114261046Y-47773725D01*
X114276944Y-47788350D01*
X114291878Y-47803919D01*
X114305848Y-47820433D01*
X114318853Y-47837890D01*
X114330894Y-47856291D01*
X114341971Y-47875637D01*
X114352083Y-47895926D01*
X114361233Y-47917160D01*
X114369418Y-47939338D01*
X114376640Y-47962461D01*
X114382898Y-47986528D01*
X114388194Y-48011539D01*
X114392526Y-48037495D01*
X114395895Y-48064395D01*
X114398302Y-48092240D01*
X114399745Y-48121030D01*
X114400227Y-48150764D01*
X114400227Y-49456110D01*
X113878296Y-49456110D01*
X113878296Y-48313028D01*
X113878130Y-48298766D01*
X113877633Y-48285086D01*
X113876804Y-48271986D01*
X113875643Y-48259466D01*
X113874152Y-48247526D01*
X113872329Y-48236166D01*
X113870176Y-48225385D01*
X113867691Y-48215184D01*
X113864876Y-48205561D01*
X113861730Y-48196516D01*
X113858254Y-48188050D01*
X113854447Y-48180162D01*
X113850311Y-48172851D01*
X113845844Y-48166118D01*
X113841047Y-48159961D01*
X113835920Y-48154381D01*
X113830394Y-48148826D01*
X113824399Y-48143627D01*
X113817933Y-48138783D01*
X113810999Y-48134296D01*
X113803595Y-48130166D01*
X113795722Y-48126393D01*
X113787380Y-48122977D01*
X113778569Y-48119920D01*
X113769290Y-48117220D01*
X113759542Y-48114880D01*
X113749326Y-48112898D01*
X113738642Y-48111276D01*
X113727490Y-48110014D01*
X113715870Y-48109111D01*
X113703782Y-48108570D01*
X113691227Y-48108389D01*
X113677091Y-48108570D01*
X113662907Y-48109111D01*
X113648672Y-48110014D01*
X113634387Y-48111276D01*
X113620049Y-48112898D01*
X113605660Y-48114880D01*
X113591216Y-48117221D01*
X113576719Y-48119920D01*
X113562166Y-48122978D01*
X113547558Y-48126393D01*
X113532892Y-48130166D01*
X113518169Y-48134297D01*
X113503388Y-48138784D01*
X113488547Y-48143627D01*
X113458683Y-48154381D01*
X113433121Y-48163899D01*
X113405765Y-48174975D01*
X113376818Y-48187436D01*
X113346481Y-48201108D01*
X113314958Y-48215818D01*
X113282449Y-48231395D01*
X113215286Y-48264452D01*
X113215286Y-49456110D01*
X112692839Y-49456110D01*
X112692839Y-47713581D01*
X113112967Y-47713581D01*
X113158960Y-47979715D01*
X113203222Y-47944249D01*
X113247689Y-47910706D01*
X113292358Y-47879131D01*
X113337225Y-47849568D01*
X113382289Y-47822063D01*
X113404893Y-47809096D01*
X113427546Y-47796660D01*
X113450246Y-47784760D01*
X113472993Y-47773403D01*
X113495787Y-47762594D01*
X113518627Y-47752339D01*
X113543295Y-47742085D01*
X113567908Y-47732492D01*
X113592466Y-47723558D01*
X113616970Y-47715284D01*
X113641419Y-47707671D01*
X113665813Y-47700719D01*
X113690152Y-47694428D01*
X113714436Y-47688798D01*
X113738665Y-47683829D01*
X113762839Y-47679522D01*
X113786958Y-47675877D01*
X113811021Y-47672894D01*
X113835028Y-47670574D01*
X113858980Y-47668916D01*
X113882877Y-47667921D01*
X113906717Y-47667590D01*
X113937102Y-47668061D01*
G37*
D10*
X129950253Y-155094448D02*
X129564304Y-155084690D01*
X133391527Y-63908061D02*
X133461223Y-63931644D01*
X129058145Y-150459574D02*
X128918753Y-150412409D01*
X126375307Y-154189239D02*
X126061230Y-154008648D01*
X132588169Y-146164471D02*
X132654420Y-146293825D01*
X131743470Y-64443151D02*
X131788000Y-64386485D01*
X127246085Y-148895072D02*
X127186008Y-148762183D01*
X122488974Y-148361280D02*
X122460012Y-147980397D01*
X110012510Y-64183152D02*
X110066936Y-64230297D01*
X134354453Y-65856374D02*
X134327595Y-65924492D01*
X122499959Y-65417814D02*
X122494167Y-65493990D01*
X98612861Y-65417814D02*
X98607069Y-65493990D01*
X130407124Y-144629015D02*
X130554858Y-144655398D01*
X132515933Y-146038840D02*
X132588169Y-146164471D01*
X124398617Y-142551618D02*
X124646952Y-142291148D01*
X134354453Y-64824874D02*
X134378036Y-64894570D01*
X134147476Y-66238098D02*
X134102945Y-66294763D01*
X127719982Y-140431634D02*
X128075886Y-140330568D01*
X96812511Y-66810150D02*
X96739940Y-66793400D01*
X128918753Y-144776488D02*
X129058145Y-144729323D01*
X109058371Y-66840624D02*
X109058371Y-66840624D01*
X133022663Y-66838672D02*
X132945473Y-66840624D01*
X107566115Y-65493990D02*
X107560322Y-65417814D01*
X133098839Y-66832880D02*
X133022663Y-66838672D01*
X95645288Y-65642926D02*
X95632097Y-65569059D01*
X121001913Y-63840624D02*
X121001913Y-63840624D01*
X133173908Y-63857908D02*
X133247775Y-63871099D01*
X122484628Y-65112189D02*
X122494167Y-65187258D01*
X124398617Y-152637279D02*
X124162888Y-152365145D01*
D11*
X125501911Y-60340624D02*
X125501911Y-70340624D01*
D10*
X98225140Y-64332058D02*
X98272286Y-64386485D01*
D12*
G36*
X130655716Y-138392592D02*
G01*
X130654955Y-138360975D01*
X130654701Y-138328564D01*
X130655716Y-138262640D01*
X130658758Y-138200330D01*
X130663829Y-138141637D01*
X130670929Y-138086559D01*
X130675239Y-138060376D01*
X130680056Y-138035097D01*
X130685381Y-138010722D01*
X130691212Y-137987251D01*
X130697551Y-137964684D01*
X130704396Y-137943022D01*
X130711749Y-137922263D01*
X130719608Y-137902409D01*
X130728350Y-137883017D01*
X130737644Y-137864353D01*
X130747489Y-137846417D01*
X130757885Y-137829208D01*
X130768832Y-137812727D01*
X130780330Y-137796974D01*
X130792380Y-137781947D01*
X130804981Y-137767649D01*
X130818133Y-137754078D01*
X130831836Y-137741235D01*
X130846091Y-137729119D01*
X130860897Y-137717731D01*
X130876254Y-137707071D01*
X130892162Y-137697138D01*
X130908622Y-137687933D01*
X130925633Y-137679455D01*
X130943580Y-137671254D01*
X130962145Y-137663582D01*
X130981327Y-137656438D01*
X131001127Y-137649824D01*
X131021544Y-137643738D01*
X131042578Y-137638182D01*
X131064230Y-137633155D01*
X131086499Y-137628657D01*
X131109386Y-137624688D01*
X131132890Y-137621248D01*
X131157011Y-137618337D01*
X131181749Y-137615955D01*
X131207105Y-137614103D01*
X131233078Y-137612780D01*
X131259669Y-137611986D01*
X131286877Y-137611721D01*
X131286881Y-137611721D01*
X131325014Y-137612162D01*
X131361802Y-137613485D01*
X131397245Y-137615690D01*
X131431343Y-137618777D01*
X131464096Y-137622745D01*
X131495504Y-137627596D01*
X131525568Y-137633328D01*
X131554286Y-137639943D01*
X131581660Y-137647439D01*
X131607688Y-137655817D01*
X131632371Y-137665077D01*
X131655710Y-137675219D01*
X131677704Y-137686243D01*
X131698352Y-137698149D01*
X131717656Y-137710936D01*
X131735615Y-137724606D01*
X131752702Y-137739148D01*
X131768687Y-137754549D01*
X131783569Y-137770811D01*
X131797349Y-137787932D01*
X131810027Y-137805913D01*
X131821602Y-137824754D01*
X131832075Y-137844454D01*
X131841446Y-137865014D01*
X131849714Y-137886435D01*
X131856880Y-137908715D01*
X131862944Y-137931854D01*
X131867905Y-137955854D01*
X131871763Y-137980714D01*
X131874519Y-138006433D01*
X131876173Y-138033013D01*
X131876724Y-138060452D01*
X131876755Y-138083074D01*
X131876146Y-138105079D01*
X131874898Y-138126467D01*
X131873011Y-138147237D01*
X131870486Y-138167390D01*
X131867321Y-138186925D01*
X131863517Y-138205843D01*
X131859074Y-138224143D01*
X131853992Y-138241827D01*
X131848271Y-138258892D01*
X131841911Y-138275341D01*
X131834912Y-138291172D01*
X131827274Y-138306386D01*
X131818997Y-138320983D01*
X131810081Y-138334962D01*
X131800526Y-138348324D01*
X131790284Y-138360627D01*
X131779315Y-138372137D01*
X131767618Y-138382852D01*
X131755194Y-138392773D01*
X131742042Y-138401901D01*
X131728163Y-138410235D01*
X131713556Y-138417775D01*
X131698221Y-138424521D01*
X131682158Y-138430473D01*
X131665368Y-138435632D01*
X131647851Y-138439997D01*
X131629605Y-138443568D01*
X131610632Y-138446346D01*
X131590931Y-138448330D01*
X131570503Y-138449520D01*
X131549347Y-138449917D01*
X130910776Y-138449917D01*
X130911832Y-138464877D01*
X130916461Y-138508488D01*
X130922413Y-138548836D01*
X130929688Y-138585922D01*
X130933822Y-138603241D01*
X130938287Y-138619744D01*
X130943082Y-138635432D01*
X130948208Y-138650303D01*
X130954051Y-138664481D01*
X130960291Y-138678085D01*
X130966928Y-138691115D01*
X130973962Y-138703573D01*
X130981393Y-138715457D01*
X130989220Y-138726768D01*
X130997445Y-138737505D01*
X131006066Y-138747670D01*
X131015084Y-138757261D01*
X131024499Y-138766278D01*
X131034311Y-138774723D01*
X131044519Y-138782594D01*
X131055124Y-138789892D01*
X131066127Y-138796617D01*
X131077525Y-138802768D01*
X131089321Y-138808346D01*
X131101559Y-138813474D01*
X131114281Y-138818270D01*
X131127488Y-138822736D01*
X131141181Y-138826870D01*
X131155358Y-138830674D01*
X131170021Y-138834147D01*
X131185168Y-138837289D01*
X131200800Y-138840100D01*
X131216918Y-138842580D01*
X131233520Y-138844730D01*
X131250608Y-138846548D01*
X131268180Y-138848036D01*
X131286237Y-138849194D01*
X131304780Y-138850020D01*
X131323807Y-138850516D01*
X131343319Y-138850682D01*
X131399588Y-138850151D01*
X131458326Y-138848558D01*
X131519534Y-138845902D01*
X131583210Y-138842183D01*
X131647768Y-138836359D01*
X131708798Y-138830184D01*
X131766300Y-138823659D01*
X131820274Y-138816784D01*
X131845677Y-138977650D01*
X131828964Y-138983867D01*
X131811281Y-138989819D01*
X131792627Y-138995508D01*
X131773004Y-139000932D01*
X131752411Y-139006092D01*
X131730847Y-139010988D01*
X131708314Y-139015619D01*
X131684811Y-139019986D01*
X131661395Y-139024085D01*
X131637715Y-139027919D01*
X131613771Y-139031489D01*
X131589562Y-139034795D01*
X131565088Y-139037837D01*
X131540349Y-139040614D01*
X131515346Y-139043127D01*
X131490078Y-139045376D01*
X131441923Y-139049096D01*
X131396237Y-139051752D01*
X131353021Y-139053344D01*
X131332339Y-139053743D01*
X131312275Y-139053875D01*
X131254464Y-139052773D01*
X131226650Y-139051395D01*
X131199564Y-139049466D01*
X131173205Y-139046986D01*
X131147573Y-139043955D01*
X131122670Y-139040372D01*
X131098494Y-139036238D01*
X131075045Y-139031553D01*
X131052324Y-139026316D01*
X131030331Y-139020529D01*
X131009065Y-139014189D01*
X130988527Y-139007299D01*
X130968717Y-138999857D01*
X130949634Y-138991864D01*
X130931278Y-138983319D01*
X130913584Y-138973816D01*
X130896486Y-138963651D01*
X130879982Y-138952825D01*
X130864074Y-138941337D01*
X130848762Y-138929189D01*
X130834044Y-138916378D01*
X130819922Y-138902907D01*
X130806395Y-138888773D01*
X130793463Y-138873979D01*
X130781126Y-138858523D01*
X130769385Y-138842405D01*
X130758239Y-138825626D01*
X130747689Y-138808186D01*
X130737733Y-138790084D01*
X130728373Y-138771321D01*
X130719608Y-138751896D01*
X130711749Y-138731391D01*
X130704396Y-138710091D01*
X130697551Y-138687998D01*
X130691212Y-138665112D01*
X130685381Y-138641431D01*
X130680056Y-138616957D01*
X130675239Y-138591689D01*
X130670929Y-138565627D01*
X130667125Y-138538772D01*
X130663829Y-138511123D01*
X130661040Y-138482681D01*
X130658758Y-138453445D01*
X130658550Y-138449917D01*
X130747837Y-138449917D01*
X130910776Y-138449917D01*
X130908525Y-138418003D01*
X130906541Y-138367865D01*
X130905880Y-138314465D01*
X130906409Y-138267149D01*
X130906534Y-138263653D01*
X131487259Y-138263653D01*
X131498646Y-138263411D01*
X131509527Y-138262683D01*
X131519900Y-138261470D01*
X131529766Y-138259772D01*
X131539126Y-138257589D01*
X131547978Y-138254921D01*
X131556324Y-138251768D01*
X131564162Y-138248130D01*
X131571494Y-138244007D01*
X131578318Y-138239399D01*
X131584635Y-138234306D01*
X131590446Y-138228728D01*
X131595749Y-138222664D01*
X131600545Y-138216116D01*
X131604834Y-138209083D01*
X131608616Y-138201565D01*
X131612033Y-138193407D01*
X131615229Y-138185161D01*
X131618205Y-138176826D01*
X131620961Y-138168403D01*
X131623496Y-138159892D01*
X131625810Y-138151293D01*
X131627905Y-138142605D01*
X131629778Y-138133829D01*
X131631432Y-138124966D01*
X131632865Y-138116014D01*
X131634077Y-138106973D01*
X131635070Y-138097845D01*
X131635841Y-138088629D01*
X131636392Y-138079325D01*
X131636723Y-138069932D01*
X131636833Y-138060452D01*
X131636197Y-138044170D01*
X131634986Y-138028483D01*
X131633203Y-138013391D01*
X131630845Y-137998894D01*
X131627914Y-137984993D01*
X131624409Y-137971687D01*
X131620331Y-137958976D01*
X131615679Y-137946860D01*
X131610454Y-137935339D01*
X131604655Y-137924414D01*
X131598282Y-137914084D01*
X131591336Y-137904350D01*
X131583816Y-137895210D01*
X131575723Y-137886666D01*
X131567056Y-137878718D01*
X131557816Y-137871365D01*
X131547872Y-137864530D01*
X131537090Y-137858136D01*
X131525470Y-137852183D01*
X131513013Y-137846671D01*
X131499717Y-137841601D01*
X131485584Y-137836970D01*
X131470613Y-137832781D01*
X131454805Y-137829033D01*
X131438158Y-137825726D01*
X131420673Y-137822860D01*
X131402351Y-137820435D01*
X131383191Y-137818450D01*
X131363193Y-137816907D01*
X131342357Y-137815805D01*
X131320683Y-137815143D01*
X131298172Y-137814923D01*
X131279717Y-137815099D01*
X131261747Y-137815629D01*
X131244263Y-137816511D01*
X131227263Y-137817746D01*
X131210748Y-137819335D01*
X131194719Y-137821276D01*
X131179175Y-137823569D01*
X131164116Y-137826216D01*
X131149541Y-137829216D01*
X131135452Y-137832568D01*
X131121848Y-137836273D01*
X131108729Y-137840331D01*
X131096095Y-137844741D01*
X131083946Y-137849504D01*
X131072283Y-137854620D01*
X131061104Y-137860089D01*
X131050708Y-137865643D01*
X131040686Y-137871728D01*
X131031040Y-137878341D01*
X131021768Y-137885484D01*
X131012872Y-137893157D01*
X131004350Y-137901359D01*
X130996203Y-137910090D01*
X130988431Y-137919350D01*
X130981033Y-137929140D01*
X130974011Y-137939459D01*
X130967363Y-137950307D01*
X130961090Y-137961684D01*
X130955192Y-137973591D01*
X130949669Y-137986027D01*
X130944521Y-137998992D01*
X130939747Y-138012486D01*
X130935646Y-138026233D01*
X130931809Y-138040664D01*
X130928237Y-138055778D01*
X130924930Y-138071576D01*
X130921887Y-138088057D01*
X130919109Y-138105222D01*
X130916595Y-138123071D01*
X130914346Y-138141603D01*
X130910642Y-138180718D01*
X130907997Y-138222566D01*
X130906534Y-138263653D01*
X130747837Y-138263653D01*
X130747837Y-138449917D01*
X130658550Y-138449917D01*
X130656983Y-138423415D01*
X130655716Y-138392592D01*
G37*
G36*
X132523354Y-138607968D02*
G01*
X132534468Y-138637774D01*
X132545228Y-138667935D01*
X132555633Y-138698450D01*
X132565685Y-138729321D01*
X132575564Y-138760011D01*
X132585443Y-138789996D01*
X132595320Y-138819277D01*
X132605194Y-138847851D01*
X132641884Y-138847851D01*
X132652997Y-138818217D01*
X132663756Y-138788583D01*
X132674163Y-138758951D01*
X132684216Y-138729321D01*
X132695328Y-138698450D01*
X132706086Y-138667935D01*
X132716491Y-138637774D01*
X132726543Y-138607968D01*
X133065208Y-137645588D01*
X133319225Y-137645588D01*
X132816872Y-138960743D01*
X132815416Y-138964227D01*
X132813873Y-138967622D01*
X132812241Y-138970930D01*
X132810521Y-138974149D01*
X132808713Y-138977280D01*
X132806816Y-138980322D01*
X132804832Y-138983277D01*
X132802759Y-138986144D01*
X132800598Y-138988922D01*
X132798348Y-138991612D01*
X132796011Y-138994214D01*
X132793585Y-138996728D01*
X132791072Y-138999154D01*
X132788469Y-139001491D01*
X132785779Y-139003740D01*
X132783001Y-139005902D01*
X132780487Y-139007611D01*
X132777885Y-139009209D01*
X132775195Y-139010697D01*
X132772417Y-139012076D01*
X132769550Y-139013344D01*
X132766596Y-139014502D01*
X132763553Y-139015549D01*
X132760422Y-139016487D01*
X132757203Y-139017314D01*
X132753895Y-139018031D01*
X132750500Y-139018637D01*
X132747017Y-139019134D01*
X132743445Y-139019520D01*
X132739785Y-139019795D01*
X132736037Y-139019961D01*
X132732201Y-139020016D01*
X132514893Y-139020016D01*
X132511387Y-139019961D01*
X132507925Y-139019795D01*
X132504508Y-139019520D01*
X132501135Y-139019134D01*
X132497805Y-139018637D01*
X132494520Y-139018031D01*
X132491279Y-139017314D01*
X132488082Y-139016487D01*
X132484929Y-139015549D01*
X132481820Y-139014502D01*
X132478755Y-139013344D01*
X132475735Y-139012076D01*
X132472758Y-139010697D01*
X132469825Y-139009209D01*
X132466937Y-139007611D01*
X132464092Y-139005902D01*
X132461314Y-139003741D01*
X132458624Y-139001491D01*
X132456022Y-138999154D01*
X132453508Y-138996729D01*
X132451082Y-138994215D01*
X132448745Y-138991614D01*
X132446496Y-138988924D01*
X132444335Y-138986146D01*
X132442262Y-138983280D01*
X132440277Y-138980326D01*
X132438381Y-138977283D01*
X132436572Y-138974152D01*
X132434852Y-138970932D01*
X132433221Y-138967624D01*
X132431677Y-138964228D01*
X132430222Y-138960743D01*
X131927868Y-137645588D01*
X132184689Y-137645588D01*
X132523354Y-138607968D01*
G37*
D10*
X131788000Y-66294763D02*
X131743470Y-66238098D01*
X128918753Y-150412409D02*
X128782518Y-150358693D01*
X108160897Y-64138621D02*
X108219707Y-64096801D01*
D11*
X137445473Y-70340624D02*
X137445473Y-70340624D01*
D10*
X127384573Y-149150057D02*
X127312337Y-149024426D01*
X122062572Y-66401284D02*
X122010478Y-66450951D01*
X95912810Y-64443151D02*
X95957340Y-64386485D01*
D12*
G36*
X116432553Y-47022823D02*
G01*
X116442698Y-47023664D01*
X116452579Y-47024841D01*
X116462198Y-47026354D01*
X116471553Y-47028204D01*
X116480645Y-47030390D01*
X116489475Y-47032914D01*
X116498042Y-47035774D01*
X116506346Y-47038971D01*
X116514387Y-47042505D01*
X116522167Y-47046377D01*
X116529684Y-47050585D01*
X116536939Y-47055131D01*
X116543931Y-47060014D01*
X116550662Y-47065235D01*
X116557131Y-47070794D01*
X116563338Y-47076690D01*
X116569284Y-47082924D01*
X116574969Y-47089496D01*
X116580392Y-47096406D01*
X116585553Y-47103654D01*
X116590454Y-47111240D01*
X116595094Y-47119164D01*
X116599473Y-47127427D01*
X116603591Y-47136029D01*
X116607448Y-47144968D01*
X116611045Y-47154247D01*
X116614381Y-47163864D01*
X116617458Y-47173821D01*
X116622830Y-47194750D01*
X116937021Y-48418965D01*
X116942195Y-48440197D01*
X116947139Y-48461558D01*
X116951855Y-48483041D01*
X116956349Y-48504641D01*
X116964680Y-48548164D01*
X116972160Y-48592080D01*
X116979402Y-48634594D01*
X116987044Y-48677499D01*
X116995126Y-48720845D01*
X117003685Y-48764680D01*
X117049675Y-48764680D01*
X117058314Y-48720845D01*
X117066570Y-48677499D01*
X117074389Y-48634594D01*
X117081717Y-48592080D01*
X117116858Y-48415347D01*
X117427433Y-47194750D01*
X117432390Y-47173821D01*
X117438444Y-47154247D01*
X117441882Y-47144968D01*
X117445594Y-47136029D01*
X117449581Y-47127427D01*
X117453843Y-47119164D01*
X117458379Y-47111240D01*
X117463190Y-47103654D01*
X117468276Y-47096406D01*
X117473637Y-47089496D01*
X117479273Y-47082924D01*
X117485184Y-47076690D01*
X117491371Y-47070794D01*
X117497833Y-47065235D01*
X117504571Y-47060014D01*
X117511585Y-47055131D01*
X117518874Y-47050585D01*
X117526439Y-47046377D01*
X117534281Y-47042505D01*
X117542399Y-47038971D01*
X117550793Y-47035774D01*
X117559463Y-47032914D01*
X117568410Y-47030390D01*
X117577633Y-47028204D01*
X117587134Y-47026354D01*
X117596911Y-47024841D01*
X117617296Y-47022823D01*
X117638790Y-47022151D01*
X118154001Y-47022151D01*
X118165728Y-47022343D01*
X118177096Y-47022921D01*
X118188104Y-47023884D01*
X118198754Y-47025231D01*
X118209044Y-47026964D01*
X118218976Y-47029082D01*
X118228548Y-47031586D01*
X118237762Y-47034474D01*
X118246617Y-47037749D01*
X118255114Y-47041408D01*
X118263251Y-47045453D01*
X118271031Y-47049884D01*
X118278452Y-47054700D01*
X118285514Y-47059903D01*
X118292218Y-47065490D01*
X118298563Y-47071464D01*
X118304551Y-47077823D01*
X118310180Y-47084569D01*
X118315451Y-47091700D01*
X118320364Y-47099217D01*
X118324918Y-47107121D01*
X118329115Y-47115410D01*
X118332954Y-47124086D01*
X118336435Y-47133148D01*
X118339558Y-47142596D01*
X118342324Y-47152431D01*
X118344732Y-47162652D01*
X118346782Y-47173259D01*
X118348475Y-47184253D01*
X118349810Y-47195634D01*
X118351408Y-47219555D01*
X118443390Y-49456110D01*
X117945746Y-49456110D01*
X117864613Y-47438146D01*
X117801054Y-47438146D01*
X117409861Y-48955367D01*
X117405311Y-48975868D01*
X117399599Y-48995039D01*
X117396307Y-49004126D01*
X117392726Y-49012881D01*
X117388854Y-49021304D01*
X117384692Y-49029395D01*
X117380241Y-49037154D01*
X117375499Y-49044582D01*
X117370467Y-49051678D01*
X117365146Y-49058442D01*
X117359535Y-49064876D01*
X117353634Y-49070978D01*
X117347444Y-49076750D01*
X117340965Y-49082190D01*
X117334196Y-49087300D01*
X117327137Y-49092080D01*
X117319790Y-49096528D01*
X117312153Y-49100647D01*
X117304227Y-49104435D01*
X117296013Y-49107893D01*
X117287509Y-49111021D01*
X117278717Y-49113820D01*
X117269635Y-49116288D01*
X117260265Y-49118427D01*
X117240659Y-49121717D01*
X117219900Y-49123691D01*
X117197987Y-49124348D01*
X116859507Y-49124348D01*
X116837564Y-49123691D01*
X116827003Y-49122869D01*
X116816716Y-49121717D01*
X116806703Y-49120237D01*
X116796964Y-49118427D01*
X116787500Y-49116288D01*
X116778309Y-49113820D01*
X116769393Y-49111021D01*
X116760752Y-49107893D01*
X116752385Y-49104435D01*
X116744293Y-49100647D01*
X116736477Y-49096528D01*
X116728935Y-49092080D01*
X116721669Y-49087300D01*
X116714678Y-49082190D01*
X116707963Y-49076750D01*
X116701524Y-49070978D01*
X116695360Y-49064876D01*
X116689473Y-49058442D01*
X116683861Y-49051678D01*
X116678526Y-49044582D01*
X116673467Y-49037154D01*
X116668685Y-49029395D01*
X116664180Y-49021304D01*
X116659951Y-49012881D01*
X116655999Y-49004126D01*
X116652325Y-48995039D01*
X116648927Y-48985619D01*
X116645807Y-48975868D01*
X116642965Y-48965783D01*
X116640400Y-48955367D01*
X116249210Y-47438146D01*
X116189266Y-47438146D01*
X116114851Y-49456110D01*
X115614107Y-49456110D01*
X115705574Y-47219555D01*
X115707191Y-47195634D01*
X115708547Y-47184253D01*
X115710267Y-47173259D01*
X115712352Y-47162652D01*
X115714801Y-47152431D01*
X115717616Y-47142596D01*
X115720795Y-47133148D01*
X115724339Y-47124086D01*
X115728248Y-47115410D01*
X115732522Y-47107121D01*
X115737160Y-47099217D01*
X115742164Y-47091700D01*
X115747532Y-47084569D01*
X115753266Y-47077823D01*
X115759364Y-47071464D01*
X115765828Y-47065490D01*
X115772656Y-47059903D01*
X115779850Y-47054700D01*
X115787408Y-47049884D01*
X115795332Y-47045453D01*
X115803621Y-47041408D01*
X115812275Y-47037749D01*
X115821294Y-47034474D01*
X115830678Y-47031586D01*
X115840428Y-47029082D01*
X115850542Y-47026964D01*
X115861022Y-47025231D01*
X115871868Y-47023884D01*
X115883078Y-47022921D01*
X115894654Y-47022343D01*
X115906595Y-47022151D01*
X116411472Y-47022151D01*
X116432553Y-47022823D01*
G37*
D10*
X122494167Y-65493990D02*
X122484628Y-65569059D01*
X133784137Y-66584448D02*
X133723277Y-66623464D01*
X132889303Y-148199053D02*
X132855805Y-148344195D01*
X98523793Y-65856374D02*
X98496936Y-65924492D01*
X134428189Y-65112189D02*
X134437728Y-65187258D01*
X132529004Y-140549546D02*
X132869591Y-140683836D01*
X122450253Y-147594448D02*
X122450253Y-147594448D01*
X96886378Y-63857908D02*
X96961447Y-63848369D01*
X97192003Y-66838672D02*
X97114813Y-66840624D01*
X122320870Y-66055613D02*
X122284752Y-66118428D01*
D12*
G36*
X133421013Y-58265631D02*
G01*
X133186768Y-58265631D01*
X133186768Y-57692723D01*
X133229099Y-57370989D01*
X133421013Y-57370989D01*
X133421013Y-58265631D01*
G37*
D10*
X132047999Y-66542627D02*
X131991334Y-66498097D01*
X96217339Y-66542627D02*
X96160674Y-66498097D01*
X130981754Y-150412409D02*
X130842362Y-150459574D01*
X109708682Y-63988541D02*
X109773359Y-64021666D01*
X132295161Y-66692708D02*
X132230484Y-66659582D01*
X128438741Y-154942075D02*
X128075886Y-154858329D01*
X131967386Y-145373795D02*
X132071574Y-145473129D01*
X136995155Y-150173200D02*
X136860865Y-150513787D01*
X134102945Y-64386485D02*
X134147476Y-64443151D01*
X98175473Y-66401284D02*
X98123379Y-66450951D01*
X137363836Y-146452272D02*
X137411531Y-146827617D01*
X120627040Y-63887848D02*
X120699611Y-63871099D01*
X127462606Y-149271776D02*
X127384573Y-149150057D01*
D12*
G36*
X97343411Y-56998455D02*
G01*
X97343411Y-58945788D01*
X97095056Y-58945788D01*
X97095056Y-57402033D01*
X97095232Y-57380868D01*
X97095761Y-57359702D01*
X97096642Y-57338534D01*
X97097876Y-57317364D01*
X97098669Y-57306782D01*
X97099639Y-57296199D01*
X97100785Y-57285616D01*
X97102108Y-57275032D01*
X97103607Y-57264449D01*
X97105283Y-57253864D01*
X97107136Y-57243280D01*
X97109165Y-57232695D01*
X96632209Y-57382271D01*
X96598342Y-57198826D01*
X97095053Y-56998450D01*
X97343411Y-56998455D01*
G37*
D10*
X132570600Y-63887848D02*
X132643171Y-63871099D01*
X131991334Y-66498097D02*
X131936907Y-66450951D01*
X110410454Y-65990936D02*
X110377329Y-66055613D01*
X132946349Y-147748828D02*
X132934764Y-147901181D01*
X119682955Y-64625636D02*
X119719073Y-64562820D01*
X130554858Y-150533499D02*
X130407124Y-150559882D01*
X98272286Y-64386485D02*
X98316816Y-64443151D01*
X127044701Y-148344195D02*
X127011202Y-148199053D01*
X110558371Y-65340624D02*
X110556419Y-65417814D01*
X97114813Y-63840624D02*
X97114813Y-63840624D01*
X98466897Y-65990936D02*
X98433771Y-66055613D01*
D12*
G36*
X129675041Y-137072674D02*
G01*
X129675041Y-138624897D01*
X129675218Y-138636694D01*
X129675747Y-138648093D01*
X129676629Y-138659096D01*
X129677864Y-138669701D01*
X129679452Y-138679909D01*
X129681393Y-138689721D01*
X129683686Y-138699136D01*
X129686333Y-138708153D01*
X129689332Y-138716774D01*
X129692684Y-138724997D01*
X129696389Y-138732824D01*
X129700446Y-138740254D01*
X129704856Y-138747287D01*
X129709619Y-138753922D01*
X129714735Y-138760161D01*
X129720203Y-138766003D01*
X129726388Y-138771472D01*
X129732948Y-138776587D01*
X129739882Y-138781351D01*
X129747192Y-138785761D01*
X129754875Y-138789819D01*
X129762934Y-138793524D01*
X129771368Y-138796876D01*
X129780176Y-138799876D01*
X129789359Y-138802522D01*
X129798917Y-138804816D01*
X129808850Y-138806757D01*
X129819158Y-138808345D01*
X129829840Y-138809581D01*
X129840897Y-138810463D01*
X129852329Y-138810993D01*
X129864136Y-138811169D01*
X130566868Y-138811169D01*
X130578159Y-139003079D01*
X130485906Y-139009424D01*
X130392596Y-139014361D01*
X130298227Y-139017887D01*
X130202801Y-139020001D01*
X130013715Y-139022106D01*
X129824627Y-139022808D01*
X129798301Y-139022401D01*
X129772945Y-139021177D01*
X129748559Y-139019137D01*
X129725143Y-139016281D01*
X129702697Y-139012610D01*
X129681222Y-139008122D01*
X129660716Y-139002819D01*
X129641181Y-138996700D01*
X129622616Y-138989765D01*
X129605021Y-138982014D01*
X129588396Y-138973447D01*
X129572742Y-138964065D01*
X129558057Y-138953867D01*
X129544343Y-138942853D01*
X129531599Y-138931023D01*
X129519825Y-138918377D01*
X129508889Y-138905116D01*
X129498659Y-138891435D01*
X129489134Y-138877335D01*
X129480314Y-138862816D01*
X129472201Y-138847879D01*
X129464792Y-138832522D01*
X129458090Y-138816746D01*
X129452093Y-138800551D01*
X129446801Y-138783937D01*
X129442215Y-138766904D01*
X129438335Y-138749452D01*
X129435160Y-138731582D01*
X129432691Y-138713292D01*
X129430927Y-138694584D01*
X129429869Y-138675457D01*
X129429516Y-138655911D01*
X129429516Y-137072644D01*
X129675041Y-137072674D01*
G37*
D10*
X127186008Y-148762183D02*
X127132292Y-148625948D01*
X122384034Y-65924492D02*
X122353995Y-65990936D01*
D12*
G36*
X109013214Y-56998455D02*
G01*
X109058943Y-56998940D01*
X109102996Y-57000395D01*
X109145373Y-57002821D01*
X109186075Y-57006216D01*
X109225101Y-57010581D01*
X109262451Y-57015916D01*
X109298126Y-57022221D01*
X109332125Y-57029496D01*
X109348805Y-57033607D01*
X109364977Y-57038182D01*
X109380643Y-57043219D01*
X109395801Y-57048720D01*
X109410452Y-57054684D01*
X109424597Y-57061111D01*
X109438234Y-57068001D01*
X109451364Y-57075355D01*
X109463986Y-57083171D01*
X109476102Y-57091450D01*
X109487711Y-57100193D01*
X109498812Y-57109398D01*
X109509407Y-57119067D01*
X109519494Y-57129198D01*
X109529074Y-57139793D01*
X109538147Y-57150851D01*
X109547033Y-57162481D01*
X109555345Y-57174795D01*
X109563085Y-57187792D01*
X109570251Y-57201473D01*
X109576843Y-57215838D01*
X109582863Y-57230886D01*
X109588309Y-57246617D01*
X109593182Y-57263033D01*
X109597481Y-57280131D01*
X109601208Y-57297913D01*
X109604361Y-57316379D01*
X109606940Y-57335529D01*
X109608947Y-57355361D01*
X109610380Y-57375878D01*
X109611240Y-57397078D01*
X109611527Y-57418961D01*
X109610997Y-57449079D01*
X109609410Y-57478757D01*
X109606764Y-57507993D01*
X109603059Y-57536788D01*
X109598296Y-57565143D01*
X109592475Y-57593056D01*
X109585595Y-57620529D01*
X109577656Y-57647561D01*
X109573599Y-57660999D01*
X109569190Y-57674504D01*
X109564428Y-57688075D01*
X109559313Y-57701712D01*
X109553845Y-57715415D01*
X109548025Y-57729185D01*
X109541851Y-57743020D01*
X109535325Y-57756922D01*
X109521213Y-57784924D01*
X109505691Y-57813190D01*
X109488757Y-57841721D01*
X109470411Y-57870516D01*
X109450523Y-57899223D01*
X109428960Y-57928900D01*
X109405721Y-57959548D01*
X109380806Y-57991166D01*
X109354215Y-58023753D01*
X109325949Y-58057312D01*
X109296007Y-58091840D01*
X109264389Y-58127339D01*
X108705589Y-58751049D01*
X108742808Y-58748418D01*
X108781085Y-58746125D01*
X108820419Y-58744168D01*
X108860811Y-58742550D01*
X108902616Y-58741325D01*
X108943362Y-58740450D01*
X108983049Y-58739925D01*
X109021677Y-58739750D01*
X109682078Y-58739750D01*
X109682078Y-58979639D01*
X108403612Y-58979639D01*
X108403612Y-58824417D01*
X108403745Y-58816743D01*
X108404143Y-58809245D01*
X108404807Y-58801924D01*
X108405737Y-58794780D01*
X108406932Y-58787812D01*
X108408393Y-58781021D01*
X108410119Y-58774406D01*
X108412111Y-58767968D01*
X108413218Y-58764462D01*
X108414412Y-58761001D01*
X108415693Y-58757584D01*
X108417062Y-58754211D01*
X108418519Y-58750882D01*
X108420064Y-58747596D01*
X108421696Y-58744355D01*
X108423416Y-58741158D01*
X108425223Y-58738005D01*
X108427118Y-58734896D01*
X108429101Y-58731832D01*
X108431172Y-58728811D01*
X108433330Y-58725834D01*
X108435576Y-58722901D01*
X108437909Y-58720012D01*
X108440331Y-58717167D01*
X109004774Y-58079346D01*
X109049797Y-58029957D01*
X109091734Y-57981980D01*
X109130583Y-57935413D01*
X109166346Y-57890258D01*
X109199022Y-57846514D01*
X109228611Y-57804181D01*
X109255113Y-57763259D01*
X109278528Y-57723748D01*
X109289101Y-57704411D01*
X109298946Y-57685207D01*
X109308063Y-57666135D01*
X109316453Y-57647195D01*
X109324115Y-57628387D01*
X109331049Y-57609712D01*
X109337256Y-57591169D01*
X109342736Y-57572759D01*
X109347487Y-57554481D01*
X109351512Y-57536335D01*
X109354808Y-57518321D01*
X109357377Y-57500440D01*
X109359219Y-57482690D01*
X109360333Y-57465074D01*
X109360719Y-57447589D01*
X109360378Y-57430237D01*
X109359863Y-57418452D01*
X109359016Y-57407085D01*
X109357838Y-57396137D01*
X109356329Y-57385609D01*
X109354489Y-57375499D01*
X109352318Y-57365809D01*
X109349816Y-57356537D01*
X109346983Y-57347685D01*
X109343819Y-57339251D01*
X109340323Y-57331237D01*
X109336497Y-57323641D01*
X109332340Y-57316465D01*
X109327851Y-57309707D01*
X109323031Y-57303369D01*
X109317881Y-57297449D01*
X109312399Y-57291949D01*
X109306954Y-57286426D01*
X109301199Y-57281146D01*
X109295136Y-57276108D01*
X109288764Y-57271313D01*
X109282084Y-57266760D01*
X109275095Y-57262449D01*
X109267797Y-57258381D01*
X109260190Y-57254556D01*
X109252274Y-57250972D01*
X109244050Y-57247631D01*
X109235517Y-57244533D01*
X109226675Y-57241677D01*
X109217525Y-57239064D01*
X109208066Y-57236693D01*
X109198298Y-57234564D01*
X109188221Y-57232678D01*
X109167937Y-57229371D01*
X109146595Y-57226504D01*
X109124193Y-57224079D01*
X109100734Y-57222095D01*
X109076216Y-57220552D01*
X109050639Y-57219449D01*
X109024003Y-57218788D01*
X108996309Y-57218567D01*
X108951684Y-57218742D01*
X108908116Y-57219267D01*
X108865606Y-57220142D01*
X108824154Y-57221367D01*
X108803518Y-57222200D01*
X108782528Y-57223299D01*
X108761185Y-57224664D01*
X108739489Y-57226295D01*
X108717441Y-57228192D01*
X108695039Y-57230355D01*
X108649176Y-57235478D01*
X108602081Y-57240429D01*
X108551105Y-57246782D01*
X108496247Y-57254538D01*
X108437510Y-57263697D01*
X108420580Y-57071785D01*
X108484786Y-57057319D01*
X108544758Y-57044970D01*
X108600497Y-57034739D01*
X108626779Y-57030417D01*
X108652002Y-57026625D01*
X108677138Y-57022569D01*
X108701744Y-57018866D01*
X108725822Y-57015514D01*
X108749370Y-57012516D01*
X108772389Y-57009870D01*
X108794879Y-57007576D01*
X108816839Y-57005635D01*
X108838270Y-57004046D01*
X108882015Y-57001596D01*
X108925760Y-56999846D01*
X108969505Y-56998796D01*
X109013249Y-56998446D01*
X109013214Y-56998455D01*
G37*
D10*
X127132292Y-146562948D02*
X127186008Y-146426714D01*
X110215843Y-66294763D02*
X110168698Y-66349190D01*
X131117989Y-144830204D02*
X131250878Y-144890281D01*
X125462883Y-153604464D02*
X125179556Y-153381813D01*
X134437622Y-141584433D02*
X134720949Y-141807084D01*
X130256986Y-144609937D02*
X130407124Y-144629015D01*
D12*
G36*
X116622234Y-140854163D02*
G01*
X116404919Y-140854168D01*
X116382313Y-140855345D01*
X116382313Y-140447995D01*
X116622234Y-140447750D01*
X116622234Y-140854163D01*
G37*
D10*
X109433244Y-66793400D02*
X109360673Y-66810150D01*
X126950253Y-147594448D02*
X126954156Y-147440069D01*
X130700000Y-150500000D02*
X130554858Y-150533499D01*
X110215843Y-64386485D02*
X110260374Y-64443151D01*
X131505863Y-150160128D02*
X131380232Y-150232364D01*
X131884813Y-64279964D02*
X131936907Y-64230297D01*
X127246085Y-146293825D02*
X127312337Y-146164471D01*
X122112239Y-66349190D02*
X122062572Y-66401284D01*
X95705833Y-64824874D02*
X95732691Y-64756757D01*
X134378036Y-64894570D02*
X134398249Y-64965751D01*
X128075886Y-154858329D02*
X127719982Y-154757263D01*
X130336202Y-155084690D02*
X129950253Y-155094448D01*
X96668759Y-66773187D02*
X96599063Y-66749605D01*
X109897035Y-66584448D02*
X109836175Y-66623464D01*
X119719073Y-64562820D02*
X119758090Y-64501960D01*
X129058145Y-144729323D02*
X129200506Y-144688897D01*
D11*
X113558373Y-70340624D02*
X104558372Y-70340624D01*
D10*
X109360673Y-66810150D02*
X109286806Y-66823341D01*
X122112239Y-64332058D02*
X122159385Y-64386485D01*
X98612861Y-65263434D02*
X98614813Y-65340624D01*
X122460012Y-147208499D02*
X122488974Y-146827617D01*
X131447425Y-65417814D02*
X131445473Y-65340624D01*
X122787438Y-149824719D02*
X122686372Y-149468815D01*
X131745201Y-149998454D02*
X131627582Y-150082095D01*
X135253553Y-152897749D02*
X134993083Y-153146084D01*
X128075886Y-140330568D02*
X128438741Y-140246822D01*
X132869591Y-140683836D02*
X133201813Y-140834030D01*
X110119031Y-64279964D02*
X110168698Y-64332058D01*
X127828933Y-145473129D02*
X127933121Y-145373795D01*
X120104440Y-64138621D02*
X120163249Y-64096801D01*
X131505863Y-145028769D02*
X131627582Y-145106802D01*
X119509657Y-65187258D02*
X119519197Y-65112189D01*
X119649830Y-64690313D02*
X119682955Y-64625636D01*
X134428189Y-65569059D02*
X134414998Y-65642926D01*
X122501911Y-65340624D02*
X122501911Y-65340624D01*
X122686372Y-145720082D02*
X122787438Y-145364178D01*
D12*
G36*
X119309488Y-49456110D02*
G01*
X118790657Y-49456110D01*
X118790657Y-47713581D01*
X119309488Y-47713581D01*
X119309488Y-49456110D01*
G37*
D10*
X97268180Y-63848369D02*
X97343249Y-63857908D01*
X126965741Y-147287716D02*
X126984819Y-147137578D01*
X131936907Y-64230297D02*
X131991334Y-64183152D01*
X131627582Y-145106802D02*
X131745201Y-145190443D01*
X132889303Y-146989844D02*
X132915686Y-147137578D01*
X110467351Y-64824874D02*
X110490934Y-64894570D01*
X137297879Y-149105960D02*
X137214133Y-149468815D01*
D12*
G36*
X127178018Y-137061454D02*
G01*
X127182389Y-137061669D01*
X127186617Y-137062028D01*
X127190701Y-137062529D01*
X127194642Y-137063174D01*
X127198440Y-137063962D01*
X127202094Y-137064894D01*
X127205605Y-137065969D01*
X127208973Y-137067187D01*
X127212198Y-137068549D01*
X127215279Y-137070053D01*
X127218217Y-137071702D01*
X127221011Y-137073493D01*
X127223663Y-137075428D01*
X127226171Y-137077506D01*
X127228535Y-137079728D01*
X127230757Y-137082092D01*
X127232835Y-137084600D01*
X127234769Y-137087252D01*
X127236561Y-137090047D01*
X127238209Y-137092985D01*
X127239714Y-137096066D01*
X127241075Y-137099291D01*
X127242293Y-137102659D01*
X127243368Y-137106170D01*
X127244300Y-137109825D01*
X127245088Y-137113623D01*
X127245733Y-137117564D01*
X127246235Y-137121648D01*
X127246593Y-137125876D01*
X127246808Y-137130248D01*
X127246880Y-137134762D01*
X127246880Y-137295636D01*
X127246808Y-137300150D01*
X127246593Y-137304521D01*
X127246235Y-137308749D01*
X127245733Y-137312834D01*
X127245088Y-137316775D01*
X127244300Y-137320573D01*
X127243368Y-137324228D01*
X127242293Y-137327739D01*
X127241075Y-137331107D01*
X127239714Y-137334332D01*
X127238209Y-137337413D01*
X127236561Y-137340351D01*
X127234769Y-137343146D01*
X127232835Y-137345797D01*
X127230757Y-137348305D01*
X127228535Y-137350670D01*
X127226171Y-137352892D01*
X127223663Y-137354970D01*
X127221011Y-137356905D01*
X127218217Y-137358696D01*
X127215279Y-137360344D01*
X127212198Y-137361849D01*
X127208973Y-137363211D01*
X127205605Y-137364429D01*
X127202094Y-137365504D01*
X127198440Y-137366435D01*
X127194642Y-137367224D01*
X127190701Y-137367869D01*
X127186617Y-137368370D01*
X127182389Y-137368728D01*
X127178018Y-137368943D01*
X127173504Y-137369015D01*
X127060612Y-137369015D01*
X127056098Y-137368943D01*
X127051727Y-137368728D01*
X127047499Y-137368370D01*
X127043415Y-137367869D01*
X127039474Y-137367224D01*
X127035676Y-137366435D01*
X127032022Y-137365504D01*
X127028510Y-137364429D01*
X127025143Y-137363211D01*
X127021918Y-137361849D01*
X127018837Y-137360344D01*
X127015899Y-137358696D01*
X127013104Y-137356905D01*
X127010453Y-137354970D01*
X127007945Y-137352892D01*
X127005581Y-137350670D01*
X127003359Y-137348305D01*
X127001281Y-137345797D01*
X126999346Y-137343146D01*
X126997555Y-137340351D01*
X126995907Y-137337413D01*
X126994402Y-137334332D01*
X126993040Y-137331107D01*
X126991822Y-137327739D01*
X126990747Y-137324228D01*
X126989816Y-137320573D01*
X126989028Y-137316775D01*
X126988383Y-137312834D01*
X126987881Y-137308749D01*
X126987523Y-137304521D01*
X126987308Y-137300150D01*
X126987236Y-137295636D01*
X126987236Y-137134762D01*
X126987308Y-137130248D01*
X126987523Y-137125876D01*
X126987881Y-137121648D01*
X126988383Y-137117564D01*
X126989028Y-137113623D01*
X126989816Y-137109825D01*
X126990747Y-137106170D01*
X126991822Y-137102659D01*
X126993040Y-137099291D01*
X126994402Y-137096066D01*
X126995907Y-137092985D01*
X126997555Y-137090047D01*
X126999346Y-137087252D01*
X127001281Y-137084600D01*
X127003359Y-137082092D01*
X127005581Y-137079728D01*
X127007945Y-137077506D01*
X127010453Y-137075428D01*
X127013104Y-137073493D01*
X127015899Y-137071702D01*
X127018837Y-137070053D01*
X127021918Y-137068549D01*
X127025143Y-137067187D01*
X127028510Y-137065969D01*
X127032022Y-137064894D01*
X127035676Y-137063962D01*
X127039474Y-137063174D01*
X127043415Y-137062529D01*
X127047499Y-137062028D01*
X127051727Y-137061669D01*
X127056098Y-137061454D01*
X127060612Y-137061383D01*
X127173504Y-137061383D01*
X127178018Y-137061454D01*
G37*
D11*
X101614814Y-70340624D02*
X101614814Y-70340624D01*
D10*
X110511147Y-64965751D02*
X110527896Y-65038322D01*
X108829936Y-63857908D02*
X108905005Y-63848369D01*
X134398249Y-65715497D02*
X134378036Y-65786678D01*
X127635307Y-145686171D02*
X127729599Y-145577317D01*
X137450253Y-147594448D02*
X137450253Y-147594448D01*
X110550626Y-65187258D02*
X110556419Y-65263434D01*
X96004486Y-64332058D02*
X96054153Y-64279964D01*
X110467351Y-65856374D02*
X110440493Y-65924492D01*
X121956051Y-64183152D02*
X122010478Y-64230297D01*
X122454687Y-65715497D02*
X122434474Y-65786678D01*
X110260374Y-64443151D02*
X110302194Y-64501960D01*
X107706287Y-65990936D02*
X107676248Y-65924492D01*
X98012287Y-64138621D02*
X98068953Y-64183152D01*
X129950253Y-140094448D02*
X130336202Y-140104207D01*
X131250878Y-144890281D02*
X131380232Y-144956533D01*
X108160897Y-66542627D02*
X108104232Y-66498097D01*
X120418046Y-63958502D02*
X120486163Y-63931644D01*
D12*
G36*
X135069698Y-137044453D02*
G01*
X135066898Y-138641827D01*
X135067086Y-138652951D01*
X135067648Y-138663745D01*
X135068585Y-138674207D01*
X135069897Y-138684339D01*
X135071584Y-138694140D01*
X135073646Y-138703610D01*
X135076083Y-138712749D01*
X135078894Y-138721558D01*
X135082081Y-138730036D01*
X135085642Y-138738183D01*
X135089578Y-138745999D01*
X135093888Y-138753484D01*
X135098574Y-138760639D01*
X135103634Y-138767462D01*
X135109070Y-138773955D01*
X135114880Y-138780117D01*
X135121384Y-138785586D01*
X135128197Y-138790701D01*
X135135319Y-138795464D01*
X135142749Y-138799874D01*
X135150488Y-138803931D01*
X135158536Y-138807636D01*
X135166892Y-138810987D01*
X135175557Y-138813986D01*
X135184531Y-138816632D01*
X135193814Y-138818925D01*
X135203405Y-138820866D01*
X135213305Y-138822453D01*
X135223514Y-138823688D01*
X135234031Y-138824570D01*
X135244858Y-138825099D01*
X135255993Y-138825276D01*
X135388634Y-138825276D01*
X135416855Y-139008725D01*
X135413592Y-139010124D01*
X135410152Y-139011502D01*
X135402744Y-139014192D01*
X135394630Y-139016794D01*
X135385810Y-139019308D01*
X135376285Y-139021735D01*
X135366054Y-139024073D01*
X135355117Y-139026323D01*
X135343475Y-139028485D01*
X135332096Y-139030519D01*
X135320541Y-139032375D01*
X135308811Y-139034054D01*
X135296904Y-139035555D01*
X135284821Y-139036878D01*
X135272562Y-139038023D01*
X135260127Y-139038989D01*
X135247517Y-139039776D01*
X135235741Y-139041088D01*
X135224408Y-139042225D01*
X135213515Y-139043188D01*
X135203065Y-139043975D01*
X135193055Y-139044588D01*
X135183488Y-139045026D01*
X135174361Y-139045289D01*
X135165676Y-139045376D01*
X135146858Y-139045023D01*
X135128502Y-139043965D01*
X135110609Y-139042201D01*
X135093180Y-139039731D01*
X135076214Y-139036556D01*
X135059710Y-139032675D01*
X135043670Y-139028089D01*
X135028092Y-139022797D01*
X135012978Y-139016799D01*
X134998327Y-139010096D01*
X134984139Y-139002687D01*
X134970414Y-138994573D01*
X134957151Y-138985753D01*
X134944352Y-138976227D01*
X134932016Y-138965996D01*
X134920143Y-138955059D01*
X134909207Y-138943463D01*
X134898976Y-138931248D01*
X134889451Y-138918416D01*
X134880632Y-138904967D01*
X134872518Y-138890901D01*
X134865109Y-138876216D01*
X134858406Y-138860915D01*
X134852409Y-138844996D01*
X134847117Y-138828459D01*
X134842531Y-138811306D01*
X134838650Y-138793534D01*
X134835475Y-138775145D01*
X134833005Y-138756139D01*
X134831241Y-138736516D01*
X134830183Y-138716274D01*
X134829830Y-138695416D01*
X134829830Y-137044423D01*
X135069698Y-137044453D01*
G37*
D10*
X97560868Y-63908061D02*
X97630564Y-63931644D01*
X119941253Y-66401284D02*
X119891586Y-66349190D01*
X96530946Y-63958502D02*
X96599063Y-63931644D01*
X137214133Y-149468815D02*
X137113067Y-149824719D01*
X120224109Y-64057784D02*
X120286924Y-64021666D01*
X109433244Y-63887848D02*
X109504424Y-63908061D01*
X129950253Y-155094448D02*
X129950253Y-155094448D01*
D12*
G36*
X109454175Y-47022823D02*
G01*
X109464327Y-47023664D01*
X109474218Y-47024841D01*
X109483849Y-47026354D01*
X109493218Y-47028204D01*
X109502326Y-47030390D01*
X109511173Y-47032914D01*
X109519759Y-47035774D01*
X109528084Y-47038971D01*
X109536147Y-47042505D01*
X109543949Y-47046377D01*
X109551489Y-47050585D01*
X109558767Y-47055131D01*
X109565784Y-47060014D01*
X109572539Y-47065235D01*
X109579033Y-47070794D01*
X109585264Y-47076690D01*
X109591234Y-47082924D01*
X109596941Y-47089496D01*
X109602386Y-47096406D01*
X109607569Y-47103654D01*
X109612490Y-47111240D01*
X109617149Y-47119164D01*
X109621545Y-47127427D01*
X109625678Y-47136029D01*
X109629549Y-47144968D01*
X109633157Y-47154247D01*
X109636503Y-47163864D01*
X109639586Y-47173821D01*
X109644962Y-47194750D01*
X109959154Y-48418965D01*
X109964331Y-48440197D01*
X109969277Y-48461558D01*
X109973995Y-48483041D01*
X109978490Y-48504641D01*
X109986821Y-48548164D01*
X109994295Y-48592080D01*
X110001535Y-48634594D01*
X110009174Y-48677499D01*
X110017254Y-48720845D01*
X110025818Y-48764680D01*
X110071810Y-48764680D01*
X110080454Y-48720845D01*
X110088712Y-48677499D01*
X110096528Y-48634594D01*
X110103849Y-48592080D01*
X110138989Y-48415347D01*
X110449564Y-47194750D01*
X110454522Y-47173821D01*
X110460576Y-47154247D01*
X110464014Y-47144968D01*
X110467727Y-47136029D01*
X110471714Y-47127427D01*
X110475975Y-47119164D01*
X110480512Y-47111240D01*
X110485323Y-47103654D01*
X110490409Y-47096406D01*
X110495770Y-47089496D01*
X110501406Y-47082924D01*
X110507317Y-47076690D01*
X110513504Y-47070794D01*
X110519966Y-47065235D01*
X110526704Y-47060014D01*
X110533718Y-47055131D01*
X110541007Y-47050585D01*
X110548572Y-47046377D01*
X110556414Y-47042505D01*
X110564531Y-47038971D01*
X110572925Y-47035774D01*
X110581595Y-47032914D01*
X110590542Y-47030390D01*
X110599765Y-47028204D01*
X110609265Y-47026354D01*
X110619042Y-47024841D01*
X110639427Y-47022823D01*
X110660921Y-47022151D01*
X111176134Y-47022151D01*
X111187861Y-47022343D01*
X111199229Y-47022921D01*
X111210237Y-47023884D01*
X111220887Y-47025231D01*
X111231177Y-47026964D01*
X111241109Y-47029082D01*
X111250682Y-47031586D01*
X111259896Y-47034474D01*
X111268751Y-47037749D01*
X111277248Y-47041408D01*
X111285386Y-47045453D01*
X111293165Y-47049884D01*
X111300586Y-47054700D01*
X111307648Y-47059903D01*
X111314352Y-47065490D01*
X111320698Y-47071464D01*
X111326685Y-47077823D01*
X111332315Y-47084569D01*
X111337586Y-47091700D01*
X111342498Y-47099217D01*
X111347053Y-47107121D01*
X111351250Y-47115410D01*
X111355089Y-47124086D01*
X111358570Y-47133148D01*
X111361693Y-47142596D01*
X111364458Y-47152431D01*
X111366866Y-47162652D01*
X111368915Y-47173259D01*
X111370608Y-47184253D01*
X111371942Y-47195634D01*
X111373539Y-47219555D01*
X111465523Y-49456110D01*
X110967878Y-49456110D01*
X110886747Y-47438146D01*
X110823185Y-47438146D01*
X110431479Y-48955367D01*
X110426934Y-48975868D01*
X110421239Y-48995039D01*
X110417959Y-49004126D01*
X110414391Y-49012881D01*
X110410535Y-49021304D01*
X110406391Y-49029395D01*
X110401958Y-49037154D01*
X110397237Y-49044582D01*
X110392226Y-49051678D01*
X110386927Y-49058442D01*
X110381340Y-49064876D01*
X110375463Y-49070978D01*
X110369296Y-49076750D01*
X110362841Y-49082190D01*
X110356096Y-49087300D01*
X110349062Y-49092080D01*
X110341738Y-49096528D01*
X110334124Y-49100647D01*
X110326221Y-49104435D01*
X110318028Y-49107893D01*
X110309544Y-49111021D01*
X110300770Y-49113820D01*
X110291707Y-49116288D01*
X110282352Y-49118427D01*
X110262772Y-49121717D01*
X110242029Y-49123691D01*
X110220121Y-49124348D01*
X109881125Y-49124348D01*
X109859188Y-49123691D01*
X109848633Y-49122869D01*
X109838355Y-49121717D01*
X109828354Y-49120237D01*
X109818628Y-49118427D01*
X109809179Y-49116288D01*
X109800005Y-49113820D01*
X109791108Y-49111021D01*
X109782487Y-49107893D01*
X109774141Y-49104435D01*
X109766071Y-49100647D01*
X109758278Y-49096528D01*
X109750759Y-49092080D01*
X109743517Y-49087300D01*
X109736550Y-49082190D01*
X109729859Y-49076750D01*
X109723443Y-49070978D01*
X109717303Y-49064876D01*
X109711439Y-49058442D01*
X109705850Y-49051678D01*
X109700536Y-49044582D01*
X109695497Y-49037154D01*
X109690734Y-49029395D01*
X109686246Y-49021304D01*
X109682033Y-49012881D01*
X109678096Y-49004126D01*
X109674433Y-48995039D01*
X109671046Y-48985619D01*
X109667933Y-48975868D01*
X109665096Y-48965783D01*
X109662533Y-48955367D01*
X109270824Y-47438146D01*
X109210880Y-47438146D01*
X109136984Y-49456110D01*
X108636238Y-49456110D01*
X108727705Y-47219555D01*
X108729322Y-47195634D01*
X108730677Y-47184253D01*
X108732398Y-47173259D01*
X108734483Y-47162652D01*
X108736932Y-47152431D01*
X108739747Y-47142596D01*
X108742926Y-47133148D01*
X108746470Y-47124086D01*
X108750379Y-47115410D01*
X108754653Y-47107121D01*
X108759291Y-47099217D01*
X108764295Y-47091700D01*
X108769663Y-47084569D01*
X108775397Y-47077823D01*
X108781495Y-47071464D01*
X108787959Y-47065490D01*
X108794787Y-47059903D01*
X108801981Y-47054700D01*
X108809539Y-47049884D01*
X108817463Y-47045453D01*
X108825752Y-47041408D01*
X108834406Y-47037749D01*
X108843425Y-47034474D01*
X108852809Y-47031586D01*
X108862558Y-47029082D01*
X108872673Y-47026964D01*
X108883153Y-47025231D01*
X108893998Y-47023884D01*
X108905209Y-47022921D01*
X108916785Y-47022343D01*
X108928726Y-47022151D01*
X109433088Y-47022151D01*
X109454175Y-47022823D01*
G37*
D10*
X132570600Y-66793400D02*
X132499419Y-66773187D01*
X107997711Y-66401284D02*
X107948044Y-66349190D01*
X132950253Y-147594448D02*
X132950253Y-147594448D01*
X119509657Y-65493990D02*
X119503865Y-65417814D01*
X122454687Y-64965751D02*
X122471437Y-65038322D01*
X125179556Y-153381813D02*
X124907422Y-153146084D01*
X133839275Y-141180249D02*
X134143574Y-141375331D01*
X133022663Y-63842576D02*
X133098839Y-63848369D01*
X131701649Y-66179288D02*
X131662633Y-66118428D01*
X126984819Y-148051319D02*
X126965741Y-147901181D01*
X120773478Y-66823341D02*
X120699611Y-66810150D01*
X120699611Y-63871099D02*
X120773478Y-63857908D01*
X133660462Y-64021666D02*
X133723277Y-64057784D01*
X128155305Y-149998454D02*
X128041975Y-149909394D01*
X107856368Y-64443151D02*
X107900898Y-64386485D01*
X134297556Y-64690313D02*
X134327595Y-64756757D01*
X132265199Y-145686171D02*
X132354260Y-145799501D01*
X119758090Y-66179288D02*
X119719073Y-66118428D01*
X123731135Y-143401127D02*
X123940237Y-143107079D01*
X109504424Y-63908061D02*
X109574121Y-63931644D01*
X95662037Y-65715497D02*
X95645288Y-65642926D01*
X130717084Y-140133170D02*
X131092429Y-140180865D01*
D11*
X116501913Y-70340624D02*
X116501913Y-70340624D01*
D10*
X134006133Y-64279964D02*
X134055800Y-64332058D01*
D12*
G36*
X128299919Y-138311627D02*
G01*
X128759941Y-139020009D01*
X128500294Y-139020009D01*
X128106987Y-138399121D01*
X128052931Y-138399121D01*
X128079874Y-138356318D01*
X128051563Y-138311627D01*
X128079784Y-138266319D01*
X128108006Y-138311627D01*
X128079874Y-138356318D01*
X128106987Y-138399121D01*
X128229363Y-138399121D01*
X128229363Y-138212857D01*
X128113085Y-138212857D01*
X128079784Y-138266319D01*
X128046483Y-138212857D01*
X128113085Y-138212857D01*
X128466427Y-137645588D01*
X128726074Y-137645588D01*
X128299919Y-138311627D01*
G37*
D10*
X132915686Y-148051319D02*
X132889303Y-148199053D01*
X121956051Y-66498097D02*
X121899386Y-66542627D01*
X134437728Y-65187258D02*
X134443521Y-65263434D01*
X98607069Y-65493990D02*
X98597530Y-65569059D01*
X133839275Y-154008648D02*
X133525198Y-154189239D01*
X122905351Y-145015697D02*
X123039640Y-144675110D01*
X95957340Y-64386485D02*
X96004486Y-64332058D01*
X119941253Y-64279964D02*
X119993347Y-64230297D01*
X123536053Y-143705426D02*
X123731135Y-143401127D01*
X132529004Y-154639350D02*
X132180523Y-154757263D01*
X107775531Y-66118428D02*
X107739413Y-66055613D01*
X96961447Y-63848369D02*
X97037624Y-63842576D01*
X131662633Y-64562820D02*
X131701649Y-64501960D01*
X137113067Y-145364178D02*
X137214133Y-145720082D01*
X132361605Y-63958502D02*
X132429723Y-63931644D01*
X132230484Y-64021666D02*
X132295161Y-63988541D01*
X131788000Y-64386485D02*
X131835146Y-64332058D01*
X95732691Y-65924492D02*
X95705833Y-65856374D01*
X131745201Y-145190443D02*
X131858532Y-145279503D01*
X110410454Y-64690313D02*
X110440493Y-64756757D01*
X133660462Y-66659582D02*
X133595784Y-66692708D01*
X122484628Y-65569059D02*
X122471437Y-65642926D01*
X132071574Y-149715768D02*
X131967386Y-149815102D01*
X107814547Y-64501960D02*
X107856368Y-64443151D01*
X129795873Y-144598352D02*
X129950253Y-144594448D01*
X95912810Y-66238098D02*
X95870990Y-66179288D01*
X108756069Y-66810150D02*
X108683498Y-66793400D01*
X107900898Y-66294763D02*
X107856368Y-66238098D01*
X135501889Y-142551618D02*
X135737617Y-142823752D01*
X98397653Y-66118428D02*
X98358637Y-66179288D01*
X95645288Y-65038322D02*
X95662037Y-64965751D01*
D11*
X113558373Y-70340624D02*
X113558373Y-70340624D01*
D10*
X120163249Y-66584448D02*
X120104440Y-66542627D01*
X132437900Y-149271776D02*
X132354260Y-149389396D01*
X137113067Y-149824719D02*
X136995155Y-150173200D01*
X122410892Y-64824874D02*
X122434474Y-64894570D01*
X95957340Y-66294763D02*
X95912810Y-66238098D01*
X107649390Y-65856374D02*
X107625808Y-65786678D01*
D11*
X101614814Y-60340624D02*
X101614814Y-70340624D01*
D10*
X108408059Y-66692708D02*
X108343382Y-66659582D01*
X119501913Y-65340624D02*
X119501913Y-65340624D01*
X131858532Y-145279503D02*
X131967386Y-145373795D01*
D12*
G36*
X116622234Y-141850399D02*
G01*
X116622400Y-141862530D01*
X116622895Y-141874218D01*
X116623721Y-141885465D01*
X116624878Y-141896271D01*
X116626365Y-141906635D01*
X116628183Y-141916557D01*
X116630330Y-141926038D01*
X116632809Y-141935078D01*
X116635618Y-141943676D01*
X116638757Y-141951834D01*
X116642227Y-141959550D01*
X116646027Y-141966824D01*
X116650157Y-141973658D01*
X116654618Y-141980051D01*
X116659410Y-141986002D01*
X116664532Y-141991513D01*
X116670051Y-141996635D01*
X116676033Y-142001426D01*
X116682480Y-142005887D01*
X116689390Y-142010018D01*
X116696763Y-142013818D01*
X116704601Y-142017288D01*
X116712902Y-142020427D01*
X116721666Y-142023236D01*
X116730895Y-142025714D01*
X116740587Y-142027862D01*
X116750742Y-142029679D01*
X116761362Y-142031166D01*
X116772445Y-142032323D01*
X116783991Y-142033149D01*
X116796002Y-142033645D01*
X116808476Y-142033810D01*
X117017315Y-142033810D01*
X117045513Y-142217266D01*
X117033996Y-142220047D01*
X117022039Y-142222737D01*
X117009643Y-142225335D01*
X116996809Y-142227843D01*
X116983536Y-142230259D01*
X116969826Y-142232585D01*
X116955677Y-142234820D01*
X116941090Y-142236966D01*
X116911620Y-142240668D01*
X116882512Y-142243786D01*
X116853767Y-142246321D01*
X116825382Y-142248272D01*
X116798590Y-142250896D01*
X116774610Y-142252770D01*
X116763674Y-142253426D01*
X116753440Y-142253894D01*
X116743909Y-142254175D01*
X116735081Y-142254269D01*
X116713881Y-142253894D01*
X116693321Y-142252769D01*
X116673400Y-142250894D01*
X116654118Y-142248269D01*
X116635476Y-142244895D01*
X116617473Y-142240770D01*
X116600110Y-142235895D01*
X116583386Y-142230271D01*
X116567301Y-142223896D01*
X116551856Y-142216772D01*
X116537050Y-142208897D01*
X116522884Y-142200273D01*
X116509357Y-142190899D01*
X116496470Y-142180774D01*
X116484222Y-142169900D01*
X116472614Y-142158276D01*
X116461679Y-142145946D01*
X116451449Y-142132956D01*
X116441925Y-142119305D01*
X116433106Y-142104992D01*
X116424993Y-142090019D01*
X116417586Y-142074385D01*
X116410884Y-142058090D01*
X116404887Y-142041134D01*
X116399596Y-142023517D01*
X116395011Y-142005240D01*
X116391131Y-141986301D01*
X116387956Y-141966702D01*
X116385487Y-141946442D01*
X116383724Y-141925520D01*
X116382666Y-141903938D01*
X116382313Y-141881695D01*
X116382313Y-141043240D01*
X116622234Y-141043240D01*
X116622234Y-141850399D01*
G37*
D10*
X132230484Y-66659582D02*
X132167669Y-66623464D01*
X108049805Y-66450951D02*
X107997711Y-66401284D01*
X122203915Y-66238098D02*
X122159385Y-66294763D01*
X98597530Y-65569059D02*
X98584338Y-65642926D01*
X110556419Y-65263434D02*
X110558371Y-65340624D01*
X127729599Y-149611580D02*
X127635307Y-149502726D01*
X132643171Y-63871099D02*
X132717038Y-63857908D01*
X137440494Y-147208499D02*
X137450253Y-147594448D01*
X95662037Y-64965751D02*
X95682250Y-64894570D01*
X129200506Y-144688897D02*
X129345648Y-144655398D01*
X110012510Y-66498097D02*
X109955844Y-66542627D01*
X122384034Y-64756757D02*
X122410892Y-64824874D01*
X134055800Y-66349190D02*
X134006133Y-66401284D01*
X131824619Y-140330568D02*
X132180523Y-140431634D01*
D11*
X128445473Y-70340624D02*
X128445473Y-60340624D01*
D10*
X128520275Y-150232364D02*
X128394644Y-150160128D01*
X121716901Y-64021666D02*
X121779717Y-64057784D01*
X122410892Y-65856374D02*
X122384034Y-65924492D01*
X109955844Y-66542627D02*
X109897035Y-66584448D01*
X95870990Y-66179288D02*
X95831973Y-66118428D01*
X121517663Y-63931644D02*
X121585780Y-63958502D01*
X131380232Y-144956533D02*
X131505863Y-145028769D01*
X134445473Y-65340624D02*
X134445473Y-65340624D01*
X98123379Y-64230297D02*
X98175473Y-64279964D01*
X128520275Y-144956533D02*
X128649629Y-144890281D01*
X95616765Y-65263434D02*
X95622558Y-65187258D01*
X122203915Y-64443151D02*
X122245735Y-64501960D01*
X132934764Y-147287716D02*
X132946349Y-147440069D01*
X96106247Y-64230297D02*
X96160674Y-64183152D01*
X134102945Y-66294763D02*
X134055800Y-66349190D01*
X132792107Y-66832880D02*
X132717038Y-66823341D01*
X133529340Y-63958502D02*
X133595784Y-63988541D01*
X130717084Y-155055727D02*
X130336202Y-155084690D01*
X96886378Y-66823341D02*
X96812511Y-66810150D01*
X135501889Y-152637279D02*
X135253553Y-152897749D01*
X130407124Y-150559882D02*
X130256986Y-150578960D01*
X109058371Y-63840624D02*
X109135560Y-63842576D01*
X95795855Y-66055613D02*
X95762730Y-65990936D01*
X133461223Y-66749605D02*
X133391527Y-66773187D01*
X96217339Y-64138621D02*
X96276149Y-64096801D01*
D12*
G36*
X119174343Y-46944791D02*
G01*
X119183588Y-46945255D01*
X119192529Y-46946029D01*
X119201166Y-46947112D01*
X119209498Y-46948505D01*
X119217527Y-46950208D01*
X119225252Y-46952220D01*
X119232673Y-46954542D01*
X119239791Y-46957174D01*
X119246605Y-46960115D01*
X119253115Y-46963366D01*
X119259321Y-46966928D01*
X119265224Y-46970799D01*
X119270824Y-46974980D01*
X119276121Y-46979471D01*
X119281114Y-46984272D01*
X119285804Y-46989383D01*
X119290191Y-46994804D01*
X119294275Y-47000536D01*
X119298056Y-47006577D01*
X119301534Y-47012929D01*
X119304709Y-47019591D01*
X119307582Y-47026563D01*
X119310151Y-47033846D01*
X119312419Y-47041439D01*
X119314383Y-47049342D01*
X119316046Y-47057556D01*
X119317405Y-47066080D01*
X119318463Y-47074915D01*
X119319218Y-47084060D01*
X119319822Y-47103283D01*
X119319822Y-47290352D01*
X119319671Y-47300118D01*
X119319218Y-47309574D01*
X119318463Y-47318719D01*
X119317405Y-47327554D01*
X119316046Y-47336079D01*
X119314383Y-47344292D01*
X119312419Y-47352196D01*
X119310151Y-47359789D01*
X119307582Y-47367071D01*
X119304709Y-47374043D01*
X119301534Y-47380705D01*
X119298056Y-47387057D01*
X119294275Y-47393099D01*
X119290191Y-47398830D01*
X119285804Y-47404251D01*
X119281114Y-47409362D01*
X119276121Y-47414164D01*
X119270824Y-47418655D01*
X119265224Y-47422836D01*
X119259321Y-47426707D01*
X119253115Y-47430268D01*
X119246605Y-47433519D01*
X119239791Y-47436461D01*
X119232673Y-47439093D01*
X119225252Y-47441415D01*
X119217527Y-47443427D01*
X119209498Y-47445129D01*
X119201166Y-47446522D01*
X119192529Y-47447606D01*
X119183588Y-47448379D01*
X119174343Y-47448844D01*
X119164793Y-47448998D01*
X118938969Y-47448998D01*
X118929420Y-47448844D01*
X118920175Y-47448379D01*
X118911234Y-47447606D01*
X118902597Y-47446522D01*
X118894264Y-47445129D01*
X118886235Y-47443427D01*
X118878510Y-47441415D01*
X118871089Y-47439093D01*
X118863972Y-47436461D01*
X118857158Y-47433519D01*
X118850648Y-47430268D01*
X118844441Y-47426707D01*
X118838538Y-47422836D01*
X118832938Y-47418655D01*
X118827642Y-47414164D01*
X118822649Y-47409362D01*
X118817958Y-47404251D01*
X118813571Y-47398830D01*
X118809488Y-47393099D01*
X118805707Y-47387057D01*
X118802228Y-47380705D01*
X118799053Y-47374043D01*
X118796181Y-47367071D01*
X118793611Y-47359789D01*
X118791343Y-47352196D01*
X118789379Y-47344292D01*
X118787716Y-47336079D01*
X118786357Y-47327554D01*
X118785299Y-47318719D01*
X118784544Y-47309574D01*
X118783939Y-47290352D01*
X118783939Y-47103283D01*
X118784090Y-47093516D01*
X118784544Y-47084060D01*
X118785299Y-47074915D01*
X118786356Y-47066080D01*
X118787716Y-47057556D01*
X118789379Y-47049342D01*
X118791343Y-47041439D01*
X118793610Y-47033846D01*
X118796180Y-47026563D01*
X118799053Y-47019591D01*
X118802228Y-47012929D01*
X118805706Y-47006577D01*
X118809487Y-47000536D01*
X118813571Y-46994804D01*
X118817958Y-46989383D01*
X118822648Y-46984272D01*
X118827641Y-46979471D01*
X118832938Y-46974980D01*
X118838537Y-46970799D01*
X118844440Y-46966928D01*
X118850647Y-46963367D01*
X118857157Y-46960115D01*
X118863971Y-46957174D01*
X118871088Y-46954542D01*
X118878510Y-46952220D01*
X118886235Y-46950208D01*
X118894264Y-46948505D01*
X118902596Y-46947112D01*
X118911233Y-46946029D01*
X118920174Y-46945255D01*
X118929419Y-46944791D01*
X118938969Y-46944636D01*
X119164793Y-46944636D01*
X119174343Y-46944791D01*
G37*
D10*
X137450253Y-147594448D02*
X137450253Y-147594448D01*
X131824619Y-154858329D02*
X131461764Y-154942075D01*
X121652224Y-63988541D02*
X121716901Y-64021666D01*
X127044701Y-146844702D02*
X127085127Y-146702341D01*
X132945473Y-63840624D02*
X133022663Y-63842576D01*
X97489687Y-63887848D02*
X97560868Y-63908061D01*
X121840576Y-66584448D02*
X121779717Y-66623464D01*
X132437900Y-145917121D02*
X132515933Y-146038840D01*
X132106809Y-64096801D02*
X132167669Y-64057784D01*
X108474503Y-63958502D02*
X108542621Y-63931644D01*
X109574121Y-66749605D02*
X109504424Y-66773187D01*
D12*
G36*
X113001247Y-141185064D02*
G01*
X113003098Y-141118039D01*
X113006184Y-141053834D01*
X113010505Y-140992451D01*
X113016059Y-140933889D01*
X113022848Y-140878148D01*
X113030870Y-140825227D01*
X113040127Y-140775128D01*
X113045602Y-140751095D01*
X113051452Y-140727679D01*
X113057678Y-140704881D01*
X113064280Y-140682700D01*
X113071256Y-140661136D01*
X113078609Y-140640190D01*
X113086336Y-140619861D01*
X113094440Y-140600150D01*
X113102918Y-140581056D01*
X113111772Y-140562579D01*
X113121002Y-140544720D01*
X113130606Y-140527478D01*
X113140587Y-140510854D01*
X113150942Y-140494848D01*
X113161673Y-140479459D01*
X113172779Y-140464688D01*
X113184288Y-140450135D01*
X113196237Y-140436111D01*
X113208628Y-140422616D01*
X113221460Y-140409651D01*
X113234732Y-140397214D01*
X113248446Y-140385307D01*
X113262600Y-140373928D01*
X113277196Y-140363079D01*
X113292233Y-140352760D01*
X113307710Y-140342969D01*
X113323629Y-140333708D01*
X113339989Y-140324977D01*
X113356790Y-140316775D01*
X113374032Y-140309102D01*
X113391715Y-140301959D01*
X113409840Y-140295346D01*
X113428780Y-140289195D01*
X113448206Y-140283442D01*
X113468117Y-140278085D01*
X113488512Y-140273124D01*
X113509393Y-140268561D01*
X113530758Y-140264394D01*
X113552609Y-140260624D01*
X113574945Y-140257250D01*
X113597765Y-140254274D01*
X113621071Y-140251694D01*
X113669137Y-140247725D01*
X113719144Y-140245343D01*
X113771092Y-140244549D01*
X113822992Y-140245343D01*
X113872865Y-140247725D01*
X113920710Y-140251694D01*
X113966527Y-140257250D01*
X114010316Y-140264394D01*
X114052077Y-140273124D01*
X114091809Y-140283442D01*
X114110914Y-140289195D01*
X114129513Y-140295346D01*
X114147968Y-140301959D01*
X114165939Y-140309102D01*
X114183424Y-140316775D01*
X114200424Y-140324977D01*
X114216938Y-140333708D01*
X114232968Y-140342969D01*
X114248512Y-140352760D01*
X114263571Y-140363079D01*
X114278145Y-140373928D01*
X114292234Y-140385307D01*
X114305838Y-140397214D01*
X114318956Y-140409651D01*
X114331590Y-140422616D01*
X114343739Y-140436111D01*
X114355402Y-140450135D01*
X114366581Y-140464688D01*
X114377671Y-140479459D01*
X114388364Y-140494848D01*
X114398660Y-140510854D01*
X114408559Y-140527478D01*
X114418062Y-140544720D01*
X114427168Y-140562579D01*
X114435877Y-140581056D01*
X114444189Y-140600150D01*
X114452105Y-140619861D01*
X114459623Y-140640190D01*
X114466745Y-140661136D01*
X114473470Y-140682700D01*
X114479799Y-140704881D01*
X114485730Y-140727679D01*
X114491265Y-140751095D01*
X114496403Y-140775128D01*
X114506316Y-140825222D01*
X114514908Y-140878139D01*
X114522178Y-140933878D01*
X114528126Y-140992440D01*
X114532752Y-141053824D01*
X114536057Y-141118030D01*
X114538039Y-141185059D01*
X114538700Y-141254910D01*
X114538039Y-141324756D01*
X114536057Y-141391781D01*
X114532752Y-141455985D01*
X114528126Y-141517369D01*
X114522178Y-141575931D01*
X114514908Y-141631672D01*
X114506316Y-141684593D01*
X114496403Y-141734692D01*
X114491268Y-141758736D01*
X114485735Y-141782184D01*
X114479806Y-141805037D01*
X114473479Y-141827295D01*
X114466755Y-141848957D01*
X114459634Y-141870024D01*
X114452116Y-141890496D01*
X114444201Y-141910372D01*
X114435888Y-141929653D01*
X114427179Y-141948339D01*
X114418072Y-141966430D01*
X114408568Y-141983925D01*
X114398667Y-142000825D01*
X114388369Y-142017130D01*
X114377673Y-142032840D01*
X114366581Y-142047955D01*
X114355401Y-142062164D01*
X114343736Y-142075866D01*
X114331586Y-142089062D01*
X114318951Y-142101750D01*
X114305831Y-142113932D01*
X114292226Y-142125607D01*
X114278137Y-142136774D01*
X114263562Y-142147435D01*
X114248503Y-142157588D01*
X114232959Y-142167234D01*
X114216930Y-142176373D01*
X114200416Y-142185005D01*
X114183417Y-142193130D01*
X114165934Y-142200747D01*
X114147966Y-142207856D01*
X114129513Y-142214459D01*
X114110914Y-142220609D01*
X114091809Y-142226363D01*
X114072196Y-142231720D01*
X114052077Y-142236680D01*
X114031450Y-142241244D01*
X114010316Y-142245411D01*
X113988675Y-142249181D01*
X113966527Y-142252554D01*
X113943872Y-142255531D01*
X113920710Y-142258111D01*
X113897041Y-142260294D01*
X113872865Y-142262080D01*
X113822992Y-142264461D01*
X113771092Y-142265255D01*
X113719144Y-142264461D01*
X113669137Y-142262080D01*
X113621071Y-142258111D01*
X113574945Y-142252554D01*
X113530758Y-142245411D01*
X113488512Y-142236680D01*
X113448206Y-142226363D01*
X113409840Y-142214459D01*
X113391717Y-142207856D01*
X113374034Y-142200747D01*
X113356793Y-142193130D01*
X113339992Y-142185005D01*
X113323633Y-142176373D01*
X113307714Y-142167234D01*
X113292236Y-142157588D01*
X113277199Y-142147435D01*
X113262603Y-142136774D01*
X113248448Y-142125607D01*
X113234734Y-142113932D01*
X113221461Y-142101750D01*
X113208629Y-142089062D01*
X113196238Y-142075866D01*
X113184288Y-142062164D01*
X113172779Y-142047955D01*
X113161678Y-142032840D01*
X113150952Y-142017130D01*
X113140601Y-142000825D01*
X113130625Y-141983925D01*
X113121023Y-141966430D01*
X113111796Y-141948339D01*
X113102943Y-141929653D01*
X113094465Y-141910372D01*
X113086362Y-141890496D01*
X113078634Y-141870024D01*
X113071279Y-141848957D01*
X113064300Y-141827295D01*
X113057695Y-141805037D01*
X113051464Y-141782184D01*
X113045608Y-141758736D01*
X113040127Y-141734692D01*
X113030870Y-141684598D01*
X113022848Y-141631681D01*
X113016059Y-141575942D01*
X113010505Y-141517380D01*
X113006184Y-141455996D01*
X113003098Y-141391790D01*
X113001247Y-141324761D01*
X113000630Y-141254925D01*
X113263142Y-141254925D01*
X113263846Y-141327068D01*
X113265960Y-141395330D01*
X113269483Y-141459712D01*
X113274415Y-141520213D01*
X113280757Y-141576833D01*
X113288508Y-141629574D01*
X113297669Y-141678435D01*
X113308239Y-141723416D01*
X113314481Y-141744548D01*
X113321208Y-141764908D01*
X113328419Y-141784498D01*
X113336116Y-141803315D01*
X113344297Y-141821362D01*
X113352963Y-141838636D01*
X113362113Y-141855139D01*
X113371749Y-141870871D01*
X113381869Y-141885831D01*
X113392475Y-141900019D01*
X113403565Y-141913436D01*
X113415140Y-141926081D01*
X113427200Y-141937955D01*
X113439745Y-141949057D01*
X113452775Y-141959387D01*
X113466290Y-141968945D01*
X113480710Y-141977833D01*
X113495748Y-141986148D01*
X113511403Y-141993890D01*
X113527676Y-142001057D01*
X113544565Y-142007651D01*
X113562072Y-142013672D01*
X113580197Y-142019119D01*
X113598938Y-142023993D01*
X113618297Y-142028293D01*
X113638273Y-142032020D01*
X113658866Y-142035173D01*
X113680077Y-142037753D01*
X113701904Y-142039760D01*
X113724350Y-142041193D01*
X113747412Y-142042053D01*
X113771092Y-142042340D01*
X113794760Y-142042053D01*
X113817789Y-142041193D01*
X113840180Y-142039760D01*
X113861930Y-142037753D01*
X113883042Y-142035173D01*
X113903513Y-142032020D01*
X113923346Y-142028293D01*
X113942539Y-142023993D01*
X113961093Y-142019119D01*
X113979007Y-142013672D01*
X113996282Y-142007651D01*
X114012917Y-142001057D01*
X114028913Y-141993890D01*
X114044269Y-141986148D01*
X114058986Y-141977833D01*
X114073063Y-141968945D01*
X114086910Y-141959384D01*
X114100228Y-141949052D01*
X114113017Y-141937949D01*
X114125277Y-141926075D01*
X114137007Y-141913429D01*
X114148208Y-141900013D01*
X114158880Y-141885825D01*
X114169023Y-141870865D01*
X114178636Y-141855134D01*
X114187720Y-141838632D01*
X114196275Y-141821358D01*
X114204301Y-141803313D01*
X114211798Y-141784496D01*
X114218766Y-141764908D01*
X114225204Y-141744548D01*
X114231114Y-141723416D01*
X114236926Y-141701410D01*
X114242363Y-141678435D01*
X114247425Y-141654489D01*
X114252112Y-141629574D01*
X114260361Y-141576833D01*
X114267111Y-141520213D01*
X114272360Y-141459712D01*
X114276110Y-141395330D01*
X114278360Y-141327068D01*
X114279110Y-141254925D01*
X114278360Y-141182161D01*
X114276110Y-141113456D01*
X114272360Y-141048808D01*
X114267111Y-140988219D01*
X114260361Y-140931687D01*
X114252112Y-140879212D01*
X114242363Y-140830795D01*
X114231114Y-140786435D01*
X114225200Y-140765303D01*
X114218758Y-140744942D01*
X114211787Y-140725353D01*
X114204287Y-140706535D01*
X114196259Y-140688489D01*
X114187702Y-140671214D01*
X114178617Y-140654711D01*
X114169003Y-140638979D01*
X114158860Y-140624019D01*
X114148189Y-140609831D01*
X114136989Y-140596414D01*
X114125261Y-140583769D01*
X114113004Y-140571895D01*
X114100219Y-140560794D01*
X114086905Y-140550464D01*
X114073063Y-140540905D01*
X114058986Y-140532017D01*
X114044269Y-140523702D01*
X114028913Y-140515961D01*
X114012917Y-140508793D01*
X113996282Y-140502199D01*
X113979007Y-140496178D01*
X113961093Y-140490731D01*
X113942539Y-140485857D01*
X113923346Y-140481557D01*
X113903513Y-140477830D01*
X113883042Y-140474677D01*
X113861930Y-140472097D01*
X113840180Y-140470090D01*
X113817789Y-140468657D01*
X113794760Y-140467797D01*
X113771092Y-140467511D01*
X113747412Y-140467797D01*
X113724350Y-140468657D01*
X113701904Y-140470090D01*
X113680077Y-140472097D01*
X113658866Y-140474677D01*
X113638273Y-140477830D01*
X113618297Y-140481557D01*
X113598938Y-140485857D01*
X113580197Y-140490731D01*
X113562072Y-140496178D01*
X113544565Y-140502199D01*
X113527676Y-140508793D01*
X113511403Y-140515961D01*
X113495748Y-140523702D01*
X113480710Y-140532017D01*
X113466290Y-140540905D01*
X113452773Y-140550466D01*
X113439743Y-140560798D01*
X113427197Y-140571901D01*
X113415136Y-140583775D01*
X113403560Y-140596421D01*
X113392469Y-140609838D01*
X113381864Y-140624026D01*
X113371743Y-140638985D01*
X113362108Y-140654716D01*
X113352957Y-140671218D01*
X113344292Y-140688492D01*
X113336111Y-140706537D01*
X113328416Y-140725354D01*
X113321205Y-140744943D01*
X113314480Y-140765303D01*
X113308239Y-140786435D01*
X113302778Y-140808108D01*
X113297669Y-140830795D01*
X113288508Y-140879212D01*
X113280757Y-140931687D01*
X113274415Y-140988219D01*
X113269483Y-141048808D01*
X113265960Y-141113456D01*
X113263846Y-141182161D01*
X113263142Y-141254925D01*
X113000630Y-141254925D01*
X113000630Y-141254910D01*
X113001247Y-141185064D01*
G37*
D10*
X121230348Y-63857908D02*
X121304215Y-63871099D01*
X122353995Y-65990936D02*
X122320870Y-66055613D01*
X122159385Y-64386485D02*
X122203915Y-64443151D01*
X131627582Y-150082095D02*
X131505863Y-150160128D01*
X130554858Y-144655398D02*
X130700000Y-144688897D01*
X110066936Y-66450951D02*
X110012510Y-66498097D01*
X122353995Y-64690313D02*
X122384034Y-64756757D01*
X131884813Y-66401284D02*
X131835146Y-66349190D01*
X97192003Y-63842576D02*
X97268180Y-63848369D01*
D11*
X137445473Y-60340624D02*
X137445473Y-60340624D01*
D10*
X127719982Y-154757263D02*
X127371501Y-154639350D01*
X126984819Y-147137578D02*
X127011202Y-146989844D01*
X132868283Y-66838672D02*
X132792107Y-66832880D01*
X110377329Y-66055613D02*
X110341210Y-66118428D01*
X96668759Y-63908061D02*
X96739940Y-63887848D01*
X127546247Y-149389396D02*
X127462606Y-149271776D01*
X121716901Y-66659582D02*
X121652224Y-66692708D01*
X122471437Y-65038322D02*
X122484628Y-65112189D01*
X97630564Y-63931644D02*
X97698681Y-63958502D01*
D12*
G36*
X133421013Y-58945788D02*
G01*
X133186768Y-58945788D01*
X133186768Y-58468830D01*
X133412571Y-58468830D01*
X133421013Y-58468005D01*
X133421013Y-58945788D01*
G37*
D10*
X136860865Y-144675110D02*
X136995155Y-145015697D01*
X131117989Y-150358693D02*
X130981754Y-150412409D01*
X133954039Y-64230297D02*
X134006133Y-64279964D01*
D11*
X128445473Y-60340624D02*
X137445473Y-60340624D01*
D10*
X98316816Y-64443151D02*
X98358637Y-64501960D01*
X127085127Y-146702341D02*
X127132292Y-146562948D01*
X135960268Y-143107079D02*
X136169370Y-143401127D01*
X132792107Y-63848369D02*
X132868283Y-63842576D01*
X122434474Y-64894570D02*
X122454687Y-64965751D01*
X110440493Y-65924492D02*
X110410454Y-65990936D01*
X121304215Y-63871099D02*
X121376786Y-63887848D01*
X98597530Y-65112189D02*
X98607069Y-65187258D01*
X134720949Y-153381813D02*
X134437622Y-153604464D01*
X98547376Y-65786678D02*
X98523793Y-65856374D01*
D12*
G36*
X128046483Y-138212857D02*
G01*
X127933029Y-138212857D01*
X127933029Y-138399121D01*
X128052931Y-138399121D01*
X127662098Y-139020009D01*
X127399632Y-139020009D01*
X127859654Y-138311627D01*
X127433495Y-137645588D01*
X127693142Y-137645588D01*
X128046483Y-138212857D01*
G37*
D10*
X130981754Y-144776488D02*
X131117989Y-144830204D01*
X110066936Y-64230297D02*
X110119031Y-64279964D01*
X132950253Y-147594448D02*
X132946349Y-147748828D01*
X135737617Y-142823752D02*
X135960268Y-143107079D01*
X134006133Y-66401284D02*
X133954039Y-66450951D01*
X107739413Y-66055613D02*
X107706287Y-65990936D01*
X107948044Y-66349190D02*
X107900898Y-66294763D01*
X124907422Y-153146084D02*
X124646952Y-152897749D01*
X134414998Y-65038322D02*
X134428189Y-65112189D01*
X131475947Y-65038322D02*
X131492697Y-64965751D01*
X109135560Y-63842576D02*
X109211737Y-63848369D01*
D12*
G36*
X117059681Y-141043240D02*
G01*
X116622234Y-141043240D01*
X116622234Y-140854163D01*
X117059681Y-140854153D01*
X117059681Y-141043240D01*
G37*
D10*
X98614813Y-65340624D02*
X98614813Y-65340624D01*
X133784137Y-64096801D02*
X133842946Y-64138621D01*
X132429723Y-66749605D02*
X132361605Y-66722747D01*
X122010478Y-66450951D02*
X121956051Y-66498097D01*
X135737617Y-152365145D02*
X135501889Y-152637279D01*
X107814547Y-66179288D02*
X107775531Y-66118428D01*
D11*
X113558373Y-60340624D02*
X113558373Y-70340624D01*
D10*
X110550626Y-65493990D02*
X110541087Y-65569059D01*
X109058371Y-63840624D02*
X109058371Y-63840624D01*
X120773478Y-63857908D02*
X120848547Y-63848369D01*
D11*
X113558373Y-60340624D02*
X113558373Y-60340624D01*
D10*
X122284752Y-66118428D02*
X122245735Y-66179288D01*
X131453217Y-65187258D02*
X131462756Y-65112189D01*
D11*
X92614814Y-70340624D02*
X92614814Y-70340624D01*
D10*
X110556419Y-65417814D02*
X110550626Y-65493990D01*
X133842946Y-66542627D02*
X133784137Y-66584448D01*
X131445473Y-65340624D02*
X131447425Y-65263434D01*
X120924723Y-66838672D02*
X120848547Y-66832880D01*
D12*
G36*
X120443787Y-48394160D02*
G01*
X120475308Y-48394160D01*
X120856159Y-47713581D01*
X121385326Y-47713581D01*
X120880964Y-48563659D01*
X121424086Y-49456110D01*
X120894918Y-49456110D01*
X120469622Y-48718688D01*
X120449989Y-48718688D01*
X120027275Y-49456110D01*
X119494492Y-49456110D01*
X120037609Y-48563659D01*
X119533247Y-47713581D01*
X120062414Y-47713581D01*
X120443787Y-48394160D01*
G37*
D10*
X119799910Y-66238098D02*
X119758090Y-66179288D01*
X125756931Y-141375331D02*
X126061230Y-141180249D01*
X110527896Y-65038322D02*
X110541087Y-65112189D01*
X134437622Y-153604464D02*
X134143574Y-153813566D01*
X122434474Y-65786678D02*
X122410892Y-65856374D01*
X132945473Y-66840624D02*
X132868283Y-66838672D01*
X129345648Y-144655398D02*
X129493383Y-144629015D01*
X137440494Y-147980397D02*
X137411531Y-148361280D01*
X136169370Y-151787770D02*
X135960268Y-152081818D01*
D11*
X116501913Y-70340624D02*
X116501913Y-60340624D01*
D10*
X133723277Y-66623464D02*
X133660462Y-66659582D01*
X110490934Y-65786678D02*
X110467351Y-65856374D01*
X128155305Y-145190443D02*
X128272925Y-145106802D01*
D12*
G36*
X112196475Y-46944791D02*
G01*
X112205720Y-46945255D01*
X112214661Y-46946029D01*
X112223298Y-46947112D01*
X112231631Y-46948505D01*
X112239659Y-46950208D01*
X112247384Y-46952220D01*
X112254805Y-46954542D01*
X112261923Y-46957174D01*
X112268737Y-46960115D01*
X112275247Y-46963366D01*
X112281453Y-46966928D01*
X112287357Y-46970799D01*
X112292956Y-46974980D01*
X112298253Y-46979471D01*
X112303246Y-46984272D01*
X112307936Y-46989383D01*
X112312323Y-46994804D01*
X112316407Y-47000536D01*
X112320188Y-47006577D01*
X112323666Y-47012929D01*
X112326842Y-47019591D01*
X112329714Y-47026563D01*
X112332284Y-47033846D01*
X112334551Y-47041439D01*
X112336516Y-47049342D01*
X112338178Y-47057556D01*
X112339538Y-47066080D01*
X112340596Y-47074915D01*
X112341351Y-47084060D01*
X112341955Y-47103283D01*
X112341955Y-47290352D01*
X112341804Y-47300118D01*
X112341351Y-47309574D01*
X112340596Y-47318719D01*
X112339538Y-47327554D01*
X112338178Y-47336079D01*
X112336516Y-47344292D01*
X112334551Y-47352196D01*
X112332284Y-47359789D01*
X112329714Y-47367071D01*
X112326842Y-47374043D01*
X112323666Y-47380705D01*
X112320188Y-47387057D01*
X112316407Y-47393099D01*
X112312323Y-47398830D01*
X112307936Y-47404251D01*
X112303246Y-47409362D01*
X112298253Y-47414164D01*
X112292956Y-47418655D01*
X112287357Y-47422836D01*
X112281453Y-47426707D01*
X112275247Y-47430268D01*
X112268737Y-47433519D01*
X112261923Y-47436461D01*
X112254805Y-47439093D01*
X112247384Y-47441415D01*
X112239659Y-47443427D01*
X112231631Y-47445129D01*
X112223298Y-47446522D01*
X112214661Y-47447606D01*
X112205720Y-47448379D01*
X112196475Y-47448844D01*
X112186926Y-47448998D01*
X111961100Y-47448998D01*
X111951549Y-47448844D01*
X111942300Y-47448379D01*
X111933352Y-47447606D01*
X111924706Y-47446522D01*
X111916361Y-47445129D01*
X111908319Y-47443427D01*
X111900578Y-47441415D01*
X111893139Y-47439093D01*
X111886003Y-47436461D01*
X111879169Y-47433519D01*
X111872638Y-47430268D01*
X111866409Y-47426707D01*
X111860483Y-47422836D01*
X111854859Y-47418655D01*
X111849539Y-47414164D01*
X111844521Y-47409362D01*
X111839807Y-47404251D01*
X111835396Y-47398830D01*
X111831288Y-47393099D01*
X111827484Y-47387057D01*
X111823984Y-47380705D01*
X111820787Y-47374043D01*
X111817894Y-47367071D01*
X111815306Y-47359789D01*
X111813021Y-47352196D01*
X111811040Y-47344292D01*
X111809364Y-47336079D01*
X111807993Y-47327554D01*
X111806926Y-47318719D01*
X111806164Y-47309574D01*
X111805554Y-47290352D01*
X111805554Y-47103283D01*
X111805706Y-47093516D01*
X111806164Y-47084060D01*
X111806926Y-47074915D01*
X111807993Y-47066080D01*
X111809364Y-47057556D01*
X111811040Y-47049342D01*
X111813021Y-47041439D01*
X111815306Y-47033846D01*
X111817894Y-47026563D01*
X111820787Y-47019591D01*
X111823984Y-47012929D01*
X111827484Y-47006577D01*
X111831288Y-47000536D01*
X111835396Y-46994804D01*
X111839807Y-46989383D01*
X111844521Y-46984272D01*
X111849539Y-46979471D01*
X111854859Y-46974980D01*
X111860483Y-46970799D01*
X111866409Y-46966928D01*
X111872638Y-46963367D01*
X111879169Y-46960115D01*
X111886003Y-46957174D01*
X111893139Y-46954542D01*
X111900578Y-46952220D01*
X111908319Y-46950208D01*
X111916361Y-46948505D01*
X111924706Y-46947112D01*
X111933352Y-46946029D01*
X111942300Y-46945255D01*
X111951549Y-46944791D01*
X111961100Y-46944636D01*
X112186926Y-46944636D01*
X112196475Y-46944791D01*
G37*
D10*
X134264431Y-66055613D02*
X134228313Y-66118428D01*
X132945473Y-66840624D02*
X132945473Y-66840624D01*
X98496936Y-65924492D02*
X98466897Y-65990936D01*
X127384573Y-146038840D02*
X127462606Y-145917121D01*
X107900898Y-64386485D02*
X107948044Y-64332058D01*
X126698692Y-140834030D02*
X127030914Y-140683836D01*
X107558371Y-65340624D02*
X107558371Y-65340624D01*
X98225140Y-66349190D02*
X98175473Y-66401284D01*
X120486163Y-66749605D02*
X120418046Y-66722747D01*
X132868283Y-63842576D02*
X132945473Y-63840624D01*
X119519197Y-65569059D02*
X119509657Y-65493990D01*
X97037624Y-63842576D02*
X97114813Y-63840624D01*
X109211737Y-63848369D02*
X109286806Y-63857908D01*
X126950253Y-147594448D02*
X126950253Y-147594448D01*
D12*
G36*
X133672215Y-58443430D02*
G01*
X133421013Y-58468005D01*
X133421013Y-58265631D01*
X133672215Y-58265631D01*
X133672215Y-58443430D01*
G37*
D10*
X131092429Y-140180865D02*
X131461764Y-140246822D01*
X127186008Y-146426714D02*
X127246085Y-146293825D01*
X110440493Y-64756757D02*
X110467351Y-64824874D01*
X97829802Y-66659582D02*
X97765125Y-66692708D01*
X125179556Y-141807084D02*
X125462883Y-141584433D01*
M02*
