%TF.GenerationSoftware,KiCad,Pcbnew,6.0.11+dfsg-1~bpo11+1*%
%TF.CreationDate,2023-04-14T14:39:14+08:00*%
%TF.ProjectId,MiniMix - Front,4d696e69-4d69-4782-902d-2046726f6e74,rev?*%
%TF.SameCoordinates,Original*%
%TF.FileFunction,Copper,L1,Top*%
%TF.FilePolarity,Positive*%
%FSLAX46Y46*%
G04 Gerber Fmt 4.6, Leading zero omitted, Abs format (unit mm)*
G04 Created by KiCad (PCBNEW 6.0.11+dfsg-1~bpo11+1) date 2023-04-14 14:39:14*
%MOMM*%
%LPD*%
G01*
G04 APERTURE LIST*
%TA.AperFunction,ComponentPad*%
%ADD10C,7.000000*%
%TD*%
%TA.AperFunction,ComponentPad*%
%ADD11C,8.000000*%
%TD*%
%TA.AperFunction,ComponentPad*%
%ADD12O,7.000000X4.200000*%
%TD*%
G04 APERTURE END LIST*
D10*
%TO.P,REF\u002A\u002A,*%
%TO.N,*%
X115000000Y-147500000D03*
%TD*%
%TO.P,REF\u002A\u002A,*%
%TO.N,*%
X97050000Y-65250000D03*
%TD*%
%TO.P,REF\u002A\u002A,*%
%TO.N,*%
X132950000Y-65300000D03*
%TD*%
%TO.P,REF\u002A\u002A,*%
%TO.N,*%
X121000000Y-65300000D03*
%TD*%
D11*
%TO.P,REF\u002A\u002A,*%
%TO.N,*%
X129950000Y-147550000D03*
%TD*%
D10*
%TO.P,REF\u002A\u002A,*%
%TO.N,*%
X108750000Y-65300000D03*
%TD*%
D12*
%TO.P,REF\u002A\u002A,*%
%TO.N,*%
X97400000Y-165500000D03*
X132400000Y-165500000D03*
X97400000Y-43000000D03*
X132400000Y-43000000D03*
%TD*%
%TA.AperFunction,NonConductor*%
G36*
X129708471Y-40520002D02*
G01*
X129754964Y-40573658D01*
X129765068Y-40643932D01*
X129735574Y-40708512D01*
X129706186Y-40733432D01*
X129698432Y-40738184D01*
X129584224Y-40808171D01*
X129500983Y-40859181D01*
X129497979Y-40861571D01*
X129497974Y-40861574D01*
X129329370Y-40995688D01*
X129251256Y-41057823D01*
X129027599Y-41285418D01*
X129025254Y-41288474D01*
X128888195Y-41467093D01*
X128833346Y-41538573D01*
X128671393Y-41813515D01*
X128544154Y-42106145D01*
X128453526Y-42412100D01*
X128400860Y-42726819D01*
X128386941Y-43045611D01*
X128411977Y-43363723D01*
X128475594Y-43676412D01*
X128576845Y-43979018D01*
X128714219Y-44267029D01*
X128885669Y-44536151D01*
X128888112Y-44539114D01*
X128888113Y-44539116D01*
X129035016Y-44717323D01*
X129088639Y-44782373D01*
X129320102Y-45002024D01*
X129576609Y-45191829D01*
X129579942Y-45193715D01*
X129579947Y-45193718D01*
X129739104Y-45283765D01*
X129854336Y-45348960D01*
X129857879Y-45350427D01*
X129857884Y-45350430D01*
X130035032Y-45423806D01*
X130149142Y-45471072D01*
X130251532Y-45499467D01*
X130452916Y-45555317D01*
X130452924Y-45555319D01*
X130456632Y-45556347D01*
X130772222Y-45603512D01*
X130775520Y-45603656D01*
X130885090Y-45608440D01*
X130885094Y-45608440D01*
X130886466Y-45608500D01*
X133881047Y-45608500D01*
X134118500Y-45593977D01*
X134122283Y-45593276D01*
X134122290Y-45593275D01*
X134275376Y-45564901D01*
X134432252Y-45535826D01*
X134642300Y-45469598D01*
X134732907Y-45441030D01*
X134732910Y-45441029D01*
X134736579Y-45439872D01*
X134740076Y-45438278D01*
X134740082Y-45438276D01*
X135023436Y-45309145D01*
X135023440Y-45309143D01*
X135026944Y-45307546D01*
X135212694Y-45193718D01*
X135295739Y-45142828D01*
X135295742Y-45142826D01*
X135299017Y-45140819D01*
X135302021Y-45138429D01*
X135302026Y-45138426D01*
X135545733Y-44944572D01*
X135548744Y-44942177D01*
X135772401Y-44714582D01*
X135909316Y-44536151D01*
X135964304Y-44464490D01*
X135964306Y-44464486D01*
X135966654Y-44461427D01*
X136128607Y-44186485D01*
X136255846Y-43893855D01*
X136346474Y-43587900D01*
X136399140Y-43273181D01*
X136413059Y-42954389D01*
X136388023Y-42636277D01*
X136324406Y-42323588D01*
X136223155Y-42020982D01*
X136085781Y-41732971D01*
X135914331Y-41463849D01*
X135767244Y-41285418D01*
X135713804Y-41220590D01*
X135713800Y-41220585D01*
X135711361Y-41217627D01*
X135479898Y-40997976D01*
X135223391Y-40808171D01*
X135220058Y-40806285D01*
X135220053Y-40806282D01*
X135095238Y-40735665D01*
X135045799Y-40684711D01*
X135031755Y-40615118D01*
X135057566Y-40548979D01*
X135115036Y-40507294D01*
X135157284Y-40500000D01*
X139366009Y-40500000D01*
X139434130Y-40520002D01*
X139480623Y-40573658D01*
X139492009Y-40625902D01*
X139492472Y-41220590D01*
X139494619Y-43979018D01*
X139500000Y-50894048D01*
X139500000Y-167836500D01*
X139479998Y-167904621D01*
X139426342Y-167951114D01*
X139374076Y-167962499D01*
X135216932Y-167964942D01*
X135148802Y-167944980D01*
X135102277Y-167891352D01*
X135092132Y-167821084D01*
X135121587Y-167756485D01*
X135151025Y-167731509D01*
X135295739Y-167642828D01*
X135295742Y-167642826D01*
X135299017Y-167640819D01*
X135302021Y-167638429D01*
X135302026Y-167638426D01*
X135545733Y-167444572D01*
X135548744Y-167442177D01*
X135772401Y-167214582D01*
X135909316Y-167036151D01*
X135964304Y-166964490D01*
X135964306Y-166964486D01*
X135966654Y-166961427D01*
X136128607Y-166686485D01*
X136255846Y-166393855D01*
X136346474Y-166087900D01*
X136399140Y-165773181D01*
X136413059Y-165454389D01*
X136388023Y-165136277D01*
X136324406Y-164823588D01*
X136223155Y-164520982D01*
X136085781Y-164232971D01*
X135914331Y-163963849D01*
X135767244Y-163785418D01*
X135713804Y-163720590D01*
X135713800Y-163720585D01*
X135711361Y-163717627D01*
X135479898Y-163497976D01*
X135223391Y-163308171D01*
X135220058Y-163306285D01*
X135220053Y-163306282D01*
X135022417Y-163194465D01*
X134945664Y-163151040D01*
X134942121Y-163149573D01*
X134942116Y-163149570D01*
X134723386Y-163058970D01*
X134650858Y-163028928D01*
X134548468Y-163000533D01*
X134347084Y-162944683D01*
X134347076Y-162944681D01*
X134343368Y-162943653D01*
X134027778Y-162896488D01*
X134024480Y-162896344D01*
X133914910Y-162891560D01*
X133914906Y-162891560D01*
X133913534Y-162891500D01*
X130918953Y-162891500D01*
X130681500Y-162906023D01*
X130677717Y-162906724D01*
X130677710Y-162906725D01*
X130524624Y-162935098D01*
X130367748Y-162964174D01*
X130186491Y-163021324D01*
X130067093Y-163058970D01*
X130067090Y-163058971D01*
X130063421Y-163060128D01*
X130059924Y-163061722D01*
X130059918Y-163061724D01*
X129776564Y-163190855D01*
X129776560Y-163190857D01*
X129773056Y-163192454D01*
X129769777Y-163194464D01*
X129769774Y-163194465D01*
X129584224Y-163308171D01*
X129500983Y-163359181D01*
X129497979Y-163361571D01*
X129497974Y-163361574D01*
X129329370Y-163495688D01*
X129251256Y-163557823D01*
X129027599Y-163785418D01*
X129025254Y-163788474D01*
X128888195Y-163967093D01*
X128833346Y-164038573D01*
X128671393Y-164313515D01*
X128544154Y-164606145D01*
X128453526Y-164912100D01*
X128400860Y-165226819D01*
X128386941Y-165545611D01*
X128411977Y-165863723D01*
X128475594Y-166176412D01*
X128576845Y-166479018D01*
X128714219Y-166767029D01*
X128885669Y-167036151D01*
X128888112Y-167039114D01*
X128888113Y-167039116D01*
X129035016Y-167217323D01*
X129088639Y-167282373D01*
X129320102Y-167502024D01*
X129576609Y-167691829D01*
X129579942Y-167693715D01*
X129579947Y-167693718D01*
X129648641Y-167732583D01*
X129698080Y-167783537D01*
X129712124Y-167853130D01*
X129686313Y-167919269D01*
X129628843Y-167960954D01*
X129586669Y-167968248D01*
X100183355Y-167985519D01*
X100115223Y-167965557D01*
X100068698Y-167911929D01*
X100058553Y-167841661D01*
X100088008Y-167777062D01*
X100117446Y-167752086D01*
X100295739Y-167642828D01*
X100295742Y-167642826D01*
X100299017Y-167640819D01*
X100302021Y-167638429D01*
X100302026Y-167638426D01*
X100545733Y-167444572D01*
X100548744Y-167442177D01*
X100772401Y-167214582D01*
X100909316Y-167036151D01*
X100964304Y-166964490D01*
X100964306Y-166964486D01*
X100966654Y-166961427D01*
X101128607Y-166686485D01*
X101255846Y-166393855D01*
X101346474Y-166087900D01*
X101399140Y-165773181D01*
X101413059Y-165454389D01*
X101388023Y-165136277D01*
X101324406Y-164823588D01*
X101223155Y-164520982D01*
X101085781Y-164232971D01*
X100914331Y-163963849D01*
X100767244Y-163785418D01*
X100713804Y-163720590D01*
X100713800Y-163720585D01*
X100711361Y-163717627D01*
X100479898Y-163497976D01*
X100223391Y-163308171D01*
X100220058Y-163306285D01*
X100220053Y-163306282D01*
X100022417Y-163194465D01*
X99945664Y-163151040D01*
X99942121Y-163149573D01*
X99942116Y-163149570D01*
X99723386Y-163058970D01*
X99650858Y-163028928D01*
X99548468Y-163000533D01*
X99347084Y-162944683D01*
X99347076Y-162944681D01*
X99343368Y-162943653D01*
X99027778Y-162896488D01*
X99024480Y-162896344D01*
X98914910Y-162891560D01*
X98914906Y-162891560D01*
X98913534Y-162891500D01*
X95918953Y-162891500D01*
X95681500Y-162906023D01*
X95677717Y-162906724D01*
X95677710Y-162906725D01*
X95524624Y-162935098D01*
X95367748Y-162964174D01*
X95186491Y-163021324D01*
X95067093Y-163058970D01*
X95067090Y-163058971D01*
X95063421Y-163060128D01*
X95059924Y-163061722D01*
X95059918Y-163061724D01*
X94776564Y-163190855D01*
X94776560Y-163190857D01*
X94773056Y-163192454D01*
X94769777Y-163194464D01*
X94769774Y-163194465D01*
X94584224Y-163308171D01*
X94500983Y-163359181D01*
X94497979Y-163361571D01*
X94497974Y-163361574D01*
X94329370Y-163495688D01*
X94251256Y-163557823D01*
X94027599Y-163785418D01*
X94025254Y-163788474D01*
X93888195Y-163967093D01*
X93833346Y-164038573D01*
X93671393Y-164313515D01*
X93544154Y-164606145D01*
X93453526Y-164912100D01*
X93400860Y-165226819D01*
X93386941Y-165545611D01*
X93411977Y-165863723D01*
X93475594Y-166176412D01*
X93576845Y-166479018D01*
X93714219Y-166767029D01*
X93885669Y-167036151D01*
X93888112Y-167039114D01*
X93888113Y-167039116D01*
X94035016Y-167217323D01*
X94088639Y-167282373D01*
X94320102Y-167502024D01*
X94576609Y-167691829D01*
X94579942Y-167693715D01*
X94579947Y-167693718D01*
X94684940Y-167753120D01*
X94734379Y-167804074D01*
X94748423Y-167873667D01*
X94722612Y-167939806D01*
X94665142Y-167981491D01*
X94622969Y-167988785D01*
X90634574Y-167991128D01*
X90566442Y-167971166D01*
X90519917Y-167917538D01*
X90508500Y-167865128D01*
X90508500Y-147443965D01*
X110987057Y-147443965D01*
X110987165Y-147447054D01*
X110996360Y-147710360D01*
X111000741Y-147835827D01*
X111052599Y-148224484D01*
X111142136Y-148606225D01*
X111268496Y-148977407D01*
X111430475Y-149334487D01*
X111626525Y-149674056D01*
X111628314Y-149676554D01*
X111628316Y-149676558D01*
X111838895Y-149970691D01*
X111854776Y-149992874D01*
X111856802Y-149995189D01*
X111856805Y-149995192D01*
X111966040Y-150119970D01*
X112113049Y-150287896D01*
X112398878Y-150556308D01*
X112709536Y-150795546D01*
X112712139Y-150797173D01*
X112712144Y-150797176D01*
X112831576Y-150871805D01*
X113042056Y-151003328D01*
X113393266Y-151177670D01*
X113759812Y-151316907D01*
X114138195Y-151419712D01*
X114436419Y-151470153D01*
X114521783Y-151484591D01*
X114521786Y-151484591D01*
X114524805Y-151485102D01*
X114679444Y-151495916D01*
X114912885Y-151512240D01*
X114912893Y-151512240D01*
X114915951Y-151512454D01*
X115168037Y-151505413D01*
X115304825Y-151501592D01*
X115304828Y-151501592D01*
X115307899Y-151501506D01*
X115310952Y-151501120D01*
X115310956Y-151501120D01*
X115452576Y-151483229D01*
X115696908Y-151452362D01*
X115699912Y-151451680D01*
X115699915Y-151451679D01*
X116076269Y-151366174D01*
X116076275Y-151366172D01*
X116079265Y-151365493D01*
X116082184Y-151364522D01*
X116448396Y-151242700D01*
X116448402Y-151242698D01*
X116451320Y-151241727D01*
X116538484Y-151202919D01*
X116806722Y-151083492D01*
X116806728Y-151083489D01*
X116809522Y-151082245D01*
X116812191Y-151080729D01*
X117147784Y-150890086D01*
X117147790Y-150890083D01*
X117150452Y-150888570D01*
X117290118Y-150790047D01*
X117468342Y-150664323D01*
X117468346Y-150664320D01*
X117470855Y-150662550D01*
X117767674Y-150406344D01*
X117816001Y-150355596D01*
X118035957Y-150124618D01*
X118038074Y-150122395D01*
X118160351Y-149965888D01*
X118277565Y-149815860D01*
X118277567Y-149815857D01*
X118279475Y-149813415D01*
X118489574Y-149482354D01*
X118666363Y-149132370D01*
X118726469Y-148977407D01*
X118807041Y-148769681D01*
X118807044Y-148769672D01*
X118808156Y-148766805D01*
X118913600Y-148389148D01*
X118981688Y-148003004D01*
X118994788Y-147832747D01*
X119004425Y-147707512D01*
X125439433Y-147707512D01*
X125439662Y-147710357D01*
X125439662Y-147710360D01*
X125467465Y-148055910D01*
X125472273Y-148115668D01*
X125541969Y-148519168D01*
X125647949Y-148914691D01*
X125789340Y-149298980D01*
X125790565Y-149301560D01*
X125790568Y-149301567D01*
X125877649Y-149484958D01*
X125964979Y-149668874D01*
X126048911Y-149810796D01*
X126156592Y-149992874D01*
X126173418Y-150021326D01*
X126175080Y-150023630D01*
X126175081Y-150023632D01*
X126244563Y-150119970D01*
X126412944Y-150353436D01*
X126681584Y-150662471D01*
X126977126Y-150945886D01*
X126979344Y-150947656D01*
X126979349Y-150947661D01*
X127049082Y-151003328D01*
X127297139Y-151201349D01*
X127299520Y-151202919D01*
X127628305Y-151419712D01*
X127638989Y-151426757D01*
X127641519Y-151428113D01*
X127641518Y-151428113D01*
X127948340Y-151592630D01*
X127999860Y-151620255D01*
X128376784Y-151780250D01*
X128379522Y-151781129D01*
X128763931Y-151904549D01*
X128763935Y-151904550D01*
X128766657Y-151905424D01*
X128769447Y-151906048D01*
X128769452Y-151906049D01*
X129163477Y-151994125D01*
X129163488Y-151994127D01*
X129166271Y-151994749D01*
X129572335Y-152047487D01*
X129981509Y-152063206D01*
X129984371Y-152063056D01*
X129984372Y-152063056D01*
X130387566Y-152041926D01*
X130387573Y-152041925D01*
X130390422Y-152041776D01*
X130393245Y-152041369D01*
X130393247Y-152041369D01*
X130792889Y-151983780D01*
X130792896Y-151983779D01*
X130795711Y-151983373D01*
X131194038Y-151888478D01*
X131196736Y-151887570D01*
X131196743Y-151887568D01*
X131579414Y-151758785D01*
X131579420Y-151758783D01*
X131582126Y-151757872D01*
X131956779Y-151592630D01*
X132314914Y-151394113D01*
X132537712Y-151242700D01*
X132651198Y-151165575D01*
X132651200Y-151165573D01*
X132653583Y-151163954D01*
X132753057Y-151082245D01*
X132967779Y-150905870D01*
X132967783Y-150905867D01*
X132969998Y-150904047D01*
X132972036Y-150902038D01*
X132972043Y-150902031D01*
X133213093Y-150664323D01*
X133261555Y-150616533D01*
X133441062Y-150404116D01*
X133524008Y-150305963D01*
X133524013Y-150305957D01*
X133525854Y-150303778D01*
X133760719Y-149968356D01*
X133964217Y-149613027D01*
X134091743Y-149334487D01*
X134133485Y-149243316D01*
X134133488Y-149243307D01*
X134134674Y-149240718D01*
X134270685Y-148854492D01*
X134371133Y-148457528D01*
X134381964Y-148389148D01*
X134434743Y-148055910D01*
X134435189Y-148053095D01*
X134462326Y-147644520D01*
X134463316Y-147550000D01*
X134444741Y-147140947D01*
X134433067Y-147055720D01*
X134389556Y-146738087D01*
X134389169Y-146735260D01*
X134297057Y-146336280D01*
X134279733Y-146283590D01*
X134170057Y-145950005D01*
X134170054Y-145949998D01*
X134169164Y-145947290D01*
X134006542Y-145571492D01*
X133810529Y-145211980D01*
X133730190Y-145091971D01*
X133584332Y-144874090D01*
X133584324Y-144874079D01*
X133582740Y-144871713D01*
X133325049Y-144553491D01*
X133148806Y-144372256D01*
X133041567Y-144261980D01*
X133041563Y-144261976D01*
X133039577Y-144259934D01*
X133037419Y-144258084D01*
X133037409Y-144258075D01*
X132730849Y-143995321D01*
X132730844Y-143995317D01*
X132728675Y-143993458D01*
X132726344Y-143991801D01*
X132726337Y-143991796D01*
X132520663Y-143845632D01*
X132394900Y-143756257D01*
X132168345Y-143624399D01*
X132043474Y-143551722D01*
X132043469Y-143551719D01*
X132041001Y-143550283D01*
X131806846Y-143441095D01*
X131672487Y-143378442D01*
X131672477Y-143378438D01*
X131669891Y-143377232D01*
X131667194Y-143376261D01*
X131287314Y-143239495D01*
X131287305Y-143239492D01*
X131284624Y-143238527D01*
X131022247Y-143170183D01*
X130891140Y-143136032D01*
X130891134Y-143136031D01*
X130888371Y-143135311D01*
X130484395Y-143068433D01*
X130481552Y-143068224D01*
X130481550Y-143068224D01*
X130078865Y-143038653D01*
X130076019Y-143038444D01*
X129906043Y-143041411D01*
X129669458Y-143045540D01*
X129669453Y-143045540D01*
X129666607Y-143045590D01*
X129663774Y-143045898D01*
X129663770Y-143045898D01*
X129334896Y-143081625D01*
X129259527Y-143089813D01*
X128858130Y-143170749D01*
X128855402Y-143171562D01*
X128855391Y-143171565D01*
X128542867Y-143264733D01*
X128465721Y-143287731D01*
X128463060Y-143288795D01*
X128463058Y-143288796D01*
X128238927Y-143378442D01*
X128085529Y-143439797D01*
X128082982Y-143441095D01*
X127723227Y-143624399D01*
X127723222Y-143624402D01*
X127720684Y-143625695D01*
X127718265Y-143627218D01*
X127718262Y-143627220D01*
X127547436Y-143734795D01*
X127374189Y-143843894D01*
X127048896Y-144092599D01*
X126747483Y-144369763D01*
X126472430Y-144673104D01*
X126470706Y-144675391D01*
X126470705Y-144675393D01*
X126284329Y-144922723D01*
X126226002Y-145000125D01*
X126010227Y-145348135D01*
X126008947Y-145350691D01*
X126008942Y-145350700D01*
X125876163Y-145615854D01*
X125826881Y-145714269D01*
X125825840Y-145716925D01*
X125825837Y-145716932D01*
X125735561Y-145947290D01*
X125677473Y-146095513D01*
X125676681Y-146098240D01*
X125676677Y-146098251D01*
X125606715Y-146339063D01*
X125563233Y-146488729D01*
X125485101Y-146890681D01*
X125443721Y-147298060D01*
X125439433Y-147707512D01*
X119004425Y-147707512D01*
X119011619Y-147614013D01*
X119011619Y-147614002D01*
X119011769Y-147612059D01*
X119013334Y-147500000D01*
X119010594Y-147443965D01*
X118994330Y-147111440D01*
X118994180Y-147108367D01*
X118936901Y-146720473D01*
X118842043Y-146340019D01*
X118710512Y-145970637D01*
X118543564Y-145615854D01*
X118541997Y-145613225D01*
X118541992Y-145613216D01*
X118344361Y-145281689D01*
X118342791Y-145279055D01*
X118340977Y-145276595D01*
X118340972Y-145276587D01*
X118111933Y-144965926D01*
X118111931Y-144965923D01*
X118110111Y-144963455D01*
X117847744Y-144672068D01*
X117558195Y-144407673D01*
X117244228Y-144172795D01*
X117196015Y-144143596D01*
X116911467Y-143971267D01*
X116911458Y-143971262D01*
X116908839Y-143969676D01*
X116555229Y-143800255D01*
X116552339Y-143799203D01*
X116552334Y-143799201D01*
X116189674Y-143667204D01*
X116189671Y-143667203D01*
X116186775Y-143666149D01*
X115910563Y-143595229D01*
X115809977Y-143569403D01*
X115809974Y-143569402D01*
X115806993Y-143568637D01*
X115419508Y-143508651D01*
X115028018Y-143486764D01*
X115024939Y-143486893D01*
X115024936Y-143486893D01*
X114769188Y-143497612D01*
X114636261Y-143503183D01*
X114633217Y-143503611D01*
X114633215Y-143503611D01*
X114422778Y-143533186D01*
X114247976Y-143557753D01*
X113866869Y-143649953D01*
X113496579Y-143778902D01*
X113140638Y-143943369D01*
X112802446Y-144141785D01*
X112642444Y-144258033D01*
X112487711Y-144370453D01*
X112487705Y-144370458D01*
X112485230Y-144372256D01*
X112482944Y-144374285D01*
X112482941Y-144374288D01*
X112403123Y-144445154D01*
X112192017Y-144632583D01*
X112189938Y-144634828D01*
X112189931Y-144634835D01*
X111968379Y-144874090D01*
X111925608Y-144920279D01*
X111688544Y-145232599D01*
X111483089Y-145566562D01*
X111311203Y-145918980D01*
X111310131Y-145921864D01*
X111310130Y-145921865D01*
X111300675Y-145947290D01*
X111174527Y-146286489D01*
X111074367Y-146665581D01*
X111011677Y-147052638D01*
X111011483Y-147055718D01*
X111011483Y-147055720D01*
X111007978Y-147111440D01*
X110987057Y-147443965D01*
X90508500Y-147443965D01*
X90508500Y-130169721D01*
X95091024Y-130169721D01*
X95093491Y-130178352D01*
X95099150Y-130198153D01*
X95102728Y-130214915D01*
X95106920Y-130244187D01*
X95110634Y-130252355D01*
X95110634Y-130252356D01*
X95117548Y-130267562D01*
X95123996Y-130285086D01*
X95131051Y-130309771D01*
X95135843Y-130317365D01*
X95135844Y-130317368D01*
X95146830Y-130334780D01*
X95154969Y-130349863D01*
X95167208Y-130376782D01*
X95173069Y-130383584D01*
X95183970Y-130396235D01*
X95195073Y-130411239D01*
X95208776Y-130432958D01*
X95215501Y-130438897D01*
X95215504Y-130438901D01*
X95230938Y-130452532D01*
X95242982Y-130464724D01*
X95256427Y-130480327D01*
X95256430Y-130480329D01*
X95262287Y-130487127D01*
X95269816Y-130492007D01*
X95269817Y-130492008D01*
X95283835Y-130501094D01*
X95298709Y-130512385D01*
X95311217Y-130523431D01*
X95317951Y-130529378D01*
X95344711Y-130541942D01*
X95359691Y-130550263D01*
X95376983Y-130561471D01*
X95376988Y-130561473D01*
X95384515Y-130566352D01*
X95393108Y-130568922D01*
X95393113Y-130568924D01*
X95409120Y-130573711D01*
X95426564Y-130580372D01*
X95441676Y-130587467D01*
X95441678Y-130587468D01*
X95449800Y-130591281D01*
X95458667Y-130592662D01*
X95458668Y-130592662D01*
X95461353Y-130593080D01*
X95479017Y-130595830D01*
X95495732Y-130599613D01*
X95515466Y-130605515D01*
X95515472Y-130605516D01*
X95524066Y-130608086D01*
X95533037Y-130608141D01*
X95533038Y-130608141D01*
X95543097Y-130608202D01*
X95558506Y-130608296D01*
X95559289Y-130608329D01*
X95560386Y-130608500D01*
X95591377Y-130608500D01*
X95592147Y-130608502D01*
X95665785Y-130608952D01*
X95665786Y-130608952D01*
X95669721Y-130608976D01*
X95671065Y-130608592D01*
X95672410Y-130608500D01*
X98591377Y-130608500D01*
X98592148Y-130608502D01*
X98669721Y-130608976D01*
X98698152Y-130600850D01*
X98714915Y-130597272D01*
X98715753Y-130597152D01*
X98744187Y-130593080D01*
X98767564Y-130582451D01*
X98785087Y-130576004D01*
X98809771Y-130568949D01*
X98817365Y-130564157D01*
X98817368Y-130564156D01*
X98834780Y-130553170D01*
X98849865Y-130545030D01*
X98876782Y-130532792D01*
X98896235Y-130516030D01*
X98911239Y-130504927D01*
X98932958Y-130491224D01*
X98938897Y-130484499D01*
X98938901Y-130484496D01*
X98952532Y-130469062D01*
X98964724Y-130457018D01*
X98980327Y-130443573D01*
X98980329Y-130443570D01*
X98987127Y-130437713D01*
X99001094Y-130416165D01*
X99012385Y-130401291D01*
X99023431Y-130388783D01*
X99023432Y-130388782D01*
X99029378Y-130382049D01*
X99041943Y-130355287D01*
X99050263Y-130340309D01*
X99061471Y-130323017D01*
X99061473Y-130323012D01*
X99066352Y-130315485D01*
X99068922Y-130306892D01*
X99068924Y-130306887D01*
X99073711Y-130290880D01*
X99080372Y-130273436D01*
X99087467Y-130258324D01*
X99087468Y-130258322D01*
X99091281Y-130250200D01*
X99095830Y-130220983D01*
X99099613Y-130204268D01*
X99105515Y-130184534D01*
X99105516Y-130184528D01*
X99108086Y-130175934D01*
X99108124Y-130169721D01*
X106991024Y-130169721D01*
X106993491Y-130178352D01*
X106999150Y-130198153D01*
X107002728Y-130214915D01*
X107006920Y-130244187D01*
X107010634Y-130252355D01*
X107010634Y-130252356D01*
X107017548Y-130267562D01*
X107023996Y-130285086D01*
X107031051Y-130309771D01*
X107035843Y-130317365D01*
X107035844Y-130317368D01*
X107046830Y-130334780D01*
X107054969Y-130349863D01*
X107067208Y-130376782D01*
X107073069Y-130383584D01*
X107083970Y-130396235D01*
X107095073Y-130411239D01*
X107108776Y-130432958D01*
X107115501Y-130438897D01*
X107115504Y-130438901D01*
X107130938Y-130452532D01*
X107142982Y-130464724D01*
X107156427Y-130480327D01*
X107156430Y-130480329D01*
X107162287Y-130487127D01*
X107169816Y-130492007D01*
X107169817Y-130492008D01*
X107183835Y-130501094D01*
X107198709Y-130512385D01*
X107211217Y-130523431D01*
X107217951Y-130529378D01*
X107244711Y-130541942D01*
X107259691Y-130550263D01*
X107276983Y-130561471D01*
X107276988Y-130561473D01*
X107284515Y-130566352D01*
X107293108Y-130568922D01*
X107293113Y-130568924D01*
X107309120Y-130573711D01*
X107326564Y-130580372D01*
X107341676Y-130587467D01*
X107341678Y-130587468D01*
X107349800Y-130591281D01*
X107358667Y-130592662D01*
X107358668Y-130592662D01*
X107361353Y-130593080D01*
X107379017Y-130595830D01*
X107395732Y-130599613D01*
X107415466Y-130605515D01*
X107415472Y-130605516D01*
X107424066Y-130608086D01*
X107433037Y-130608141D01*
X107433038Y-130608141D01*
X107443097Y-130608202D01*
X107458506Y-130608296D01*
X107459289Y-130608329D01*
X107460386Y-130608500D01*
X107491377Y-130608500D01*
X107492147Y-130608502D01*
X107565785Y-130608952D01*
X107565786Y-130608952D01*
X107569721Y-130608976D01*
X107571065Y-130608592D01*
X107572410Y-130608500D01*
X110491377Y-130608500D01*
X110492148Y-130608502D01*
X110569721Y-130608976D01*
X110598152Y-130600850D01*
X110614915Y-130597272D01*
X110615753Y-130597152D01*
X110644187Y-130593080D01*
X110667564Y-130582451D01*
X110685087Y-130576004D01*
X110709771Y-130568949D01*
X110717365Y-130564157D01*
X110717368Y-130564156D01*
X110734780Y-130553170D01*
X110749865Y-130545030D01*
X110776782Y-130532792D01*
X110796235Y-130516030D01*
X110811239Y-130504927D01*
X110832958Y-130491224D01*
X110838897Y-130484499D01*
X110838901Y-130484496D01*
X110852532Y-130469062D01*
X110864724Y-130457018D01*
X110880327Y-130443573D01*
X110880329Y-130443570D01*
X110887127Y-130437713D01*
X110901094Y-130416165D01*
X110912385Y-130401291D01*
X110923431Y-130388783D01*
X110923432Y-130388782D01*
X110929378Y-130382049D01*
X110941943Y-130355287D01*
X110950263Y-130340309D01*
X110961471Y-130323017D01*
X110961473Y-130323012D01*
X110966352Y-130315485D01*
X110968922Y-130306892D01*
X110968924Y-130306887D01*
X110973711Y-130290880D01*
X110980372Y-130273436D01*
X110987467Y-130258324D01*
X110987468Y-130258322D01*
X110991281Y-130250200D01*
X110995830Y-130220983D01*
X110999613Y-130204268D01*
X111005515Y-130184534D01*
X111005516Y-130184528D01*
X111008086Y-130175934D01*
X111008124Y-130169721D01*
X118991024Y-130169721D01*
X118993491Y-130178352D01*
X118999150Y-130198153D01*
X119002728Y-130214915D01*
X119006920Y-130244187D01*
X119010634Y-130252355D01*
X119010634Y-130252356D01*
X119017548Y-130267562D01*
X119023996Y-130285086D01*
X119031051Y-130309771D01*
X119035843Y-130317365D01*
X119035844Y-130317368D01*
X119046830Y-130334780D01*
X119054969Y-130349863D01*
X119067208Y-130376782D01*
X119073069Y-130383584D01*
X119083970Y-130396235D01*
X119095073Y-130411239D01*
X119108776Y-130432958D01*
X119115501Y-130438897D01*
X119115504Y-130438901D01*
X119130938Y-130452532D01*
X119142982Y-130464724D01*
X119156427Y-130480327D01*
X119156430Y-130480329D01*
X119162287Y-130487127D01*
X119169816Y-130492007D01*
X119169817Y-130492008D01*
X119183835Y-130501094D01*
X119198709Y-130512385D01*
X119211217Y-130523431D01*
X119217951Y-130529378D01*
X119244711Y-130541942D01*
X119259691Y-130550263D01*
X119276983Y-130561471D01*
X119276988Y-130561473D01*
X119284515Y-130566352D01*
X119293108Y-130568922D01*
X119293113Y-130568924D01*
X119309120Y-130573711D01*
X119326564Y-130580372D01*
X119341676Y-130587467D01*
X119341678Y-130587468D01*
X119349800Y-130591281D01*
X119358667Y-130592662D01*
X119358668Y-130592662D01*
X119361353Y-130593080D01*
X119379017Y-130595830D01*
X119395732Y-130599613D01*
X119415466Y-130605515D01*
X119415472Y-130605516D01*
X119424066Y-130608086D01*
X119433037Y-130608141D01*
X119433038Y-130608141D01*
X119443097Y-130608202D01*
X119458506Y-130608296D01*
X119459289Y-130608329D01*
X119460386Y-130608500D01*
X119491377Y-130608500D01*
X119492147Y-130608502D01*
X119565785Y-130608952D01*
X119565786Y-130608952D01*
X119569721Y-130608976D01*
X119571065Y-130608592D01*
X119572410Y-130608500D01*
X122491377Y-130608500D01*
X122492148Y-130608502D01*
X122569721Y-130608976D01*
X122598152Y-130600850D01*
X122614915Y-130597272D01*
X122615753Y-130597152D01*
X122644187Y-130593080D01*
X122667564Y-130582451D01*
X122685087Y-130576004D01*
X122709771Y-130568949D01*
X122717365Y-130564157D01*
X122717368Y-130564156D01*
X122734780Y-130553170D01*
X122749865Y-130545030D01*
X122776782Y-130532792D01*
X122796235Y-130516030D01*
X122811239Y-130504927D01*
X122832958Y-130491224D01*
X122838897Y-130484499D01*
X122838901Y-130484496D01*
X122852532Y-130469062D01*
X122864724Y-130457018D01*
X122880327Y-130443573D01*
X122880329Y-130443570D01*
X122887127Y-130437713D01*
X122901094Y-130416165D01*
X122912385Y-130401291D01*
X122923431Y-130388783D01*
X122923432Y-130388782D01*
X122929378Y-130382049D01*
X122941943Y-130355287D01*
X122950263Y-130340309D01*
X122961471Y-130323017D01*
X122961473Y-130323012D01*
X122966352Y-130315485D01*
X122968922Y-130306892D01*
X122968924Y-130306887D01*
X122973711Y-130290880D01*
X122980372Y-130273436D01*
X122987467Y-130258324D01*
X122987468Y-130258322D01*
X122991281Y-130250200D01*
X122995830Y-130220983D01*
X122999613Y-130204268D01*
X123005515Y-130184534D01*
X123005516Y-130184528D01*
X123008086Y-130175934D01*
X123008124Y-130169721D01*
X130941024Y-130169721D01*
X130943491Y-130178352D01*
X130949150Y-130198153D01*
X130952728Y-130214915D01*
X130956920Y-130244187D01*
X130960634Y-130252355D01*
X130960634Y-130252356D01*
X130967548Y-130267562D01*
X130973996Y-130285086D01*
X130981051Y-130309771D01*
X130985843Y-130317365D01*
X130985844Y-130317368D01*
X130996830Y-130334780D01*
X131004969Y-130349863D01*
X131017208Y-130376782D01*
X131023069Y-130383584D01*
X131033970Y-130396235D01*
X131045073Y-130411239D01*
X131058776Y-130432958D01*
X131065501Y-130438897D01*
X131065504Y-130438901D01*
X131080938Y-130452532D01*
X131092982Y-130464724D01*
X131106427Y-130480327D01*
X131106430Y-130480329D01*
X131112287Y-130487127D01*
X131119816Y-130492007D01*
X131119817Y-130492008D01*
X131133835Y-130501094D01*
X131148709Y-130512385D01*
X131161217Y-130523431D01*
X131167951Y-130529378D01*
X131194711Y-130541942D01*
X131209691Y-130550263D01*
X131226983Y-130561471D01*
X131226988Y-130561473D01*
X131234515Y-130566352D01*
X131243108Y-130568922D01*
X131243113Y-130568924D01*
X131259120Y-130573711D01*
X131276564Y-130580372D01*
X131291676Y-130587467D01*
X131291678Y-130587468D01*
X131299800Y-130591281D01*
X131308667Y-130592662D01*
X131308668Y-130592662D01*
X131311353Y-130593080D01*
X131329017Y-130595830D01*
X131345732Y-130599613D01*
X131365466Y-130605515D01*
X131365472Y-130605516D01*
X131374066Y-130608086D01*
X131383037Y-130608141D01*
X131383038Y-130608141D01*
X131393097Y-130608202D01*
X131408506Y-130608296D01*
X131409289Y-130608329D01*
X131410386Y-130608500D01*
X131441377Y-130608500D01*
X131442147Y-130608502D01*
X131515785Y-130608952D01*
X131515786Y-130608952D01*
X131519721Y-130608976D01*
X131521065Y-130608592D01*
X131522410Y-130608500D01*
X134441377Y-130608500D01*
X134442148Y-130608502D01*
X134519721Y-130608976D01*
X134548152Y-130600850D01*
X134564915Y-130597272D01*
X134565753Y-130597152D01*
X134594187Y-130593080D01*
X134617564Y-130582451D01*
X134635087Y-130576004D01*
X134659771Y-130568949D01*
X134667365Y-130564157D01*
X134667368Y-130564156D01*
X134684780Y-130553170D01*
X134699865Y-130545030D01*
X134726782Y-130532792D01*
X134746235Y-130516030D01*
X134761239Y-130504927D01*
X134782958Y-130491224D01*
X134788897Y-130484499D01*
X134788901Y-130484496D01*
X134802532Y-130469062D01*
X134814724Y-130457018D01*
X134830327Y-130443573D01*
X134830329Y-130443570D01*
X134837127Y-130437713D01*
X134851094Y-130416165D01*
X134862385Y-130401291D01*
X134873431Y-130388783D01*
X134873432Y-130388782D01*
X134879378Y-130382049D01*
X134891943Y-130355287D01*
X134900263Y-130340309D01*
X134911471Y-130323017D01*
X134911473Y-130323012D01*
X134916352Y-130315485D01*
X134918922Y-130306892D01*
X134918924Y-130306887D01*
X134923711Y-130290880D01*
X134930372Y-130273436D01*
X134937467Y-130258324D01*
X134937468Y-130258322D01*
X134941281Y-130250200D01*
X134945830Y-130220983D01*
X134949613Y-130204268D01*
X134955515Y-130184534D01*
X134955516Y-130184528D01*
X134958086Y-130175934D01*
X134958296Y-130141494D01*
X134958329Y-130140711D01*
X134958500Y-130139614D01*
X134958500Y-130108623D01*
X134958502Y-130107853D01*
X134958952Y-130034215D01*
X134958952Y-130034214D01*
X134958976Y-130030279D01*
X134958592Y-130028935D01*
X134958500Y-130027590D01*
X134958500Y-77608623D01*
X134958502Y-77607853D01*
X134958800Y-77559102D01*
X134958976Y-77530279D01*
X134950850Y-77501847D01*
X134947272Y-77485085D01*
X134944352Y-77464698D01*
X134943080Y-77455813D01*
X134932451Y-77432436D01*
X134926004Y-77414913D01*
X134921416Y-77398862D01*
X134918949Y-77390229D01*
X134914156Y-77382632D01*
X134903170Y-77365220D01*
X134895030Y-77350135D01*
X134892564Y-77344711D01*
X134882792Y-77323218D01*
X134866030Y-77303765D01*
X134854927Y-77288761D01*
X134841224Y-77267042D01*
X134834499Y-77261103D01*
X134834496Y-77261099D01*
X134819062Y-77247468D01*
X134807018Y-77235276D01*
X134793573Y-77219673D01*
X134793570Y-77219671D01*
X134787713Y-77212873D01*
X134774009Y-77203990D01*
X134766165Y-77198906D01*
X134751291Y-77187615D01*
X134738783Y-77176569D01*
X134738782Y-77176568D01*
X134732049Y-77170622D01*
X134705287Y-77158057D01*
X134690309Y-77149737D01*
X134673017Y-77138529D01*
X134673012Y-77138527D01*
X134665485Y-77133648D01*
X134656892Y-77131078D01*
X134656887Y-77131076D01*
X134640880Y-77126289D01*
X134623436Y-77119628D01*
X134608324Y-77112533D01*
X134608322Y-77112532D01*
X134600200Y-77108719D01*
X134591333Y-77107338D01*
X134591332Y-77107338D01*
X134580478Y-77105648D01*
X134570983Y-77104170D01*
X134554268Y-77100387D01*
X134534534Y-77094485D01*
X134534528Y-77094484D01*
X134525934Y-77091914D01*
X134516963Y-77091859D01*
X134516962Y-77091859D01*
X134506903Y-77091798D01*
X134491494Y-77091704D01*
X134490711Y-77091671D01*
X134489614Y-77091500D01*
X134458623Y-77091500D01*
X134457853Y-77091498D01*
X134384215Y-77091048D01*
X134384214Y-77091048D01*
X134380279Y-77091024D01*
X134378935Y-77091408D01*
X134377590Y-77091500D01*
X131458623Y-77091500D01*
X131457853Y-77091498D01*
X131457037Y-77091493D01*
X131380279Y-77091024D01*
X131357918Y-77097415D01*
X131351847Y-77099150D01*
X131335085Y-77102728D01*
X131305813Y-77106920D01*
X131297645Y-77110634D01*
X131297644Y-77110634D01*
X131282438Y-77117548D01*
X131264914Y-77123996D01*
X131240229Y-77131051D01*
X131232635Y-77135843D01*
X131232632Y-77135844D01*
X131215220Y-77146830D01*
X131200137Y-77154969D01*
X131173218Y-77167208D01*
X131166416Y-77173069D01*
X131153765Y-77183970D01*
X131138761Y-77195073D01*
X131117042Y-77208776D01*
X131111103Y-77215501D01*
X131111099Y-77215504D01*
X131097468Y-77230938D01*
X131085276Y-77242982D01*
X131069673Y-77256427D01*
X131069671Y-77256430D01*
X131062873Y-77262287D01*
X131057993Y-77269816D01*
X131057992Y-77269817D01*
X131048906Y-77283835D01*
X131037615Y-77298709D01*
X131026569Y-77311217D01*
X131020622Y-77317951D01*
X131014312Y-77331391D01*
X131008058Y-77344711D01*
X130999737Y-77359691D01*
X130988529Y-77376983D01*
X130988527Y-77376988D01*
X130983648Y-77384515D01*
X130981078Y-77393108D01*
X130981076Y-77393113D01*
X130976289Y-77409120D01*
X130969628Y-77426564D01*
X130962533Y-77441676D01*
X130958719Y-77449800D01*
X130957338Y-77458667D01*
X130957338Y-77458668D01*
X130954170Y-77479015D01*
X130950387Y-77495732D01*
X130944485Y-77515466D01*
X130944484Y-77515472D01*
X130941914Y-77524066D01*
X130941859Y-77533037D01*
X130941859Y-77533038D01*
X130941704Y-77558497D01*
X130941671Y-77559289D01*
X130941500Y-77560386D01*
X130941500Y-77591377D01*
X130941498Y-77592147D01*
X130941024Y-77669721D01*
X130941408Y-77671065D01*
X130941500Y-77672410D01*
X130941500Y-130091377D01*
X130941498Y-130092147D01*
X130941024Y-130169721D01*
X123008124Y-130169721D01*
X123008296Y-130141494D01*
X123008329Y-130140711D01*
X123008500Y-130139614D01*
X123008500Y-130108623D01*
X123008502Y-130107853D01*
X123008952Y-130034215D01*
X123008952Y-130034214D01*
X123008976Y-130030279D01*
X123008592Y-130028935D01*
X123008500Y-130027590D01*
X123008500Y-77608623D01*
X123008502Y-77607853D01*
X123008800Y-77559102D01*
X123008976Y-77530279D01*
X123000850Y-77501847D01*
X122997272Y-77485085D01*
X122994352Y-77464698D01*
X122993080Y-77455813D01*
X122982451Y-77432436D01*
X122976004Y-77414913D01*
X122971416Y-77398862D01*
X122968949Y-77390229D01*
X122964156Y-77382632D01*
X122953170Y-77365220D01*
X122945030Y-77350135D01*
X122942564Y-77344711D01*
X122932792Y-77323218D01*
X122916030Y-77303765D01*
X122904927Y-77288761D01*
X122891224Y-77267042D01*
X122884499Y-77261103D01*
X122884496Y-77261099D01*
X122869062Y-77247468D01*
X122857018Y-77235276D01*
X122843573Y-77219673D01*
X122843570Y-77219671D01*
X122837713Y-77212873D01*
X122824009Y-77203990D01*
X122816165Y-77198906D01*
X122801291Y-77187615D01*
X122788783Y-77176569D01*
X122788782Y-77176568D01*
X122782049Y-77170622D01*
X122755287Y-77158057D01*
X122740309Y-77149737D01*
X122723017Y-77138529D01*
X122723012Y-77138527D01*
X122715485Y-77133648D01*
X122706892Y-77131078D01*
X122706887Y-77131076D01*
X122690880Y-77126289D01*
X122673436Y-77119628D01*
X122658324Y-77112533D01*
X122658322Y-77112532D01*
X122650200Y-77108719D01*
X122641333Y-77107338D01*
X122641332Y-77107338D01*
X122630478Y-77105648D01*
X122620983Y-77104170D01*
X122604268Y-77100387D01*
X122584534Y-77094485D01*
X122584528Y-77094484D01*
X122575934Y-77091914D01*
X122566963Y-77091859D01*
X122566962Y-77091859D01*
X122556903Y-77091798D01*
X122541494Y-77091704D01*
X122540711Y-77091671D01*
X122539614Y-77091500D01*
X122508623Y-77091500D01*
X122507853Y-77091498D01*
X122434215Y-77091048D01*
X122434214Y-77091048D01*
X122430279Y-77091024D01*
X122428935Y-77091408D01*
X122427590Y-77091500D01*
X119508623Y-77091500D01*
X119507853Y-77091498D01*
X119507037Y-77091493D01*
X119430279Y-77091024D01*
X119407918Y-77097415D01*
X119401847Y-77099150D01*
X119385085Y-77102728D01*
X119355813Y-77106920D01*
X119347645Y-77110634D01*
X119347644Y-77110634D01*
X119332438Y-77117548D01*
X119314914Y-77123996D01*
X119290229Y-77131051D01*
X119282635Y-77135843D01*
X119282632Y-77135844D01*
X119265220Y-77146830D01*
X119250137Y-77154969D01*
X119223218Y-77167208D01*
X119216416Y-77173069D01*
X119203765Y-77183970D01*
X119188761Y-77195073D01*
X119167042Y-77208776D01*
X119161103Y-77215501D01*
X119161099Y-77215504D01*
X119147468Y-77230938D01*
X119135276Y-77242982D01*
X119119673Y-77256427D01*
X119119671Y-77256430D01*
X119112873Y-77262287D01*
X119107993Y-77269816D01*
X119107992Y-77269817D01*
X119098906Y-77283835D01*
X119087615Y-77298709D01*
X119076569Y-77311217D01*
X119070622Y-77317951D01*
X119064312Y-77331391D01*
X119058058Y-77344711D01*
X119049737Y-77359691D01*
X119038529Y-77376983D01*
X119038527Y-77376988D01*
X119033648Y-77384515D01*
X119031078Y-77393108D01*
X119031076Y-77393113D01*
X119026289Y-77409120D01*
X119019628Y-77426564D01*
X119012533Y-77441676D01*
X119008719Y-77449800D01*
X119007338Y-77458667D01*
X119007338Y-77458668D01*
X119004170Y-77479015D01*
X119000387Y-77495732D01*
X118994485Y-77515466D01*
X118994484Y-77515472D01*
X118991914Y-77524066D01*
X118991859Y-77533037D01*
X118991859Y-77533038D01*
X118991704Y-77558497D01*
X118991671Y-77559289D01*
X118991500Y-77560386D01*
X118991500Y-77591377D01*
X118991498Y-77592147D01*
X118991024Y-77669721D01*
X118991408Y-77671065D01*
X118991500Y-77672410D01*
X118991500Y-130091377D01*
X118991498Y-130092147D01*
X118991024Y-130169721D01*
X111008124Y-130169721D01*
X111008296Y-130141494D01*
X111008329Y-130140711D01*
X111008500Y-130139614D01*
X111008500Y-130108623D01*
X111008502Y-130107853D01*
X111008952Y-130034215D01*
X111008952Y-130034214D01*
X111008976Y-130030279D01*
X111008592Y-130028935D01*
X111008500Y-130027590D01*
X111008500Y-77608623D01*
X111008502Y-77607853D01*
X111008800Y-77559102D01*
X111008976Y-77530279D01*
X111000850Y-77501847D01*
X110997272Y-77485085D01*
X110994352Y-77464698D01*
X110993080Y-77455813D01*
X110982451Y-77432436D01*
X110976004Y-77414913D01*
X110971416Y-77398862D01*
X110968949Y-77390229D01*
X110964156Y-77382632D01*
X110953170Y-77365220D01*
X110945030Y-77350135D01*
X110942564Y-77344711D01*
X110932792Y-77323218D01*
X110916030Y-77303765D01*
X110904927Y-77288761D01*
X110891224Y-77267042D01*
X110884499Y-77261103D01*
X110884496Y-77261099D01*
X110869062Y-77247468D01*
X110857018Y-77235276D01*
X110843573Y-77219673D01*
X110843570Y-77219671D01*
X110837713Y-77212873D01*
X110824009Y-77203990D01*
X110816165Y-77198906D01*
X110801291Y-77187615D01*
X110788783Y-77176569D01*
X110788782Y-77176568D01*
X110782049Y-77170622D01*
X110755287Y-77158057D01*
X110740309Y-77149737D01*
X110723017Y-77138529D01*
X110723012Y-77138527D01*
X110715485Y-77133648D01*
X110706892Y-77131078D01*
X110706887Y-77131076D01*
X110690880Y-77126289D01*
X110673436Y-77119628D01*
X110658324Y-77112533D01*
X110658322Y-77112532D01*
X110650200Y-77108719D01*
X110641333Y-77107338D01*
X110641332Y-77107338D01*
X110630478Y-77105648D01*
X110620983Y-77104170D01*
X110604268Y-77100387D01*
X110584534Y-77094485D01*
X110584528Y-77094484D01*
X110575934Y-77091914D01*
X110566963Y-77091859D01*
X110566962Y-77091859D01*
X110556903Y-77091798D01*
X110541494Y-77091704D01*
X110540711Y-77091671D01*
X110539614Y-77091500D01*
X110508623Y-77091500D01*
X110507853Y-77091498D01*
X110434215Y-77091048D01*
X110434214Y-77091048D01*
X110430279Y-77091024D01*
X110428935Y-77091408D01*
X110427590Y-77091500D01*
X107508623Y-77091500D01*
X107507853Y-77091498D01*
X107507037Y-77091493D01*
X107430279Y-77091024D01*
X107407918Y-77097415D01*
X107401847Y-77099150D01*
X107385085Y-77102728D01*
X107355813Y-77106920D01*
X107347645Y-77110634D01*
X107347644Y-77110634D01*
X107332438Y-77117548D01*
X107314914Y-77123996D01*
X107290229Y-77131051D01*
X107282635Y-77135843D01*
X107282632Y-77135844D01*
X107265220Y-77146830D01*
X107250137Y-77154969D01*
X107223218Y-77167208D01*
X107216416Y-77173069D01*
X107203765Y-77183970D01*
X107188761Y-77195073D01*
X107167042Y-77208776D01*
X107161103Y-77215501D01*
X107161099Y-77215504D01*
X107147468Y-77230938D01*
X107135276Y-77242982D01*
X107119673Y-77256427D01*
X107119671Y-77256430D01*
X107112873Y-77262287D01*
X107107993Y-77269816D01*
X107107992Y-77269817D01*
X107098906Y-77283835D01*
X107087615Y-77298709D01*
X107076569Y-77311217D01*
X107070622Y-77317951D01*
X107064312Y-77331391D01*
X107058058Y-77344711D01*
X107049737Y-77359691D01*
X107038529Y-77376983D01*
X107038527Y-77376988D01*
X107033648Y-77384515D01*
X107031078Y-77393108D01*
X107031076Y-77393113D01*
X107026289Y-77409120D01*
X107019628Y-77426564D01*
X107012533Y-77441676D01*
X107008719Y-77449800D01*
X107007338Y-77458667D01*
X107007338Y-77458668D01*
X107004170Y-77479015D01*
X107000387Y-77495732D01*
X106994485Y-77515466D01*
X106994484Y-77515472D01*
X106991914Y-77524066D01*
X106991859Y-77533037D01*
X106991859Y-77533038D01*
X106991704Y-77558497D01*
X106991671Y-77559289D01*
X106991500Y-77560386D01*
X106991500Y-77591377D01*
X106991498Y-77592147D01*
X106991024Y-77669721D01*
X106991408Y-77671065D01*
X106991500Y-77672410D01*
X106991500Y-130091377D01*
X106991498Y-130092147D01*
X106991024Y-130169721D01*
X99108124Y-130169721D01*
X99108296Y-130141494D01*
X99108329Y-130140711D01*
X99108500Y-130139614D01*
X99108500Y-130108623D01*
X99108502Y-130107853D01*
X99108952Y-130034215D01*
X99108952Y-130034214D01*
X99108976Y-130030279D01*
X99108592Y-130028935D01*
X99108500Y-130027590D01*
X99108500Y-77608623D01*
X99108502Y-77607853D01*
X99108800Y-77559102D01*
X99108976Y-77530279D01*
X99100850Y-77501847D01*
X99097272Y-77485085D01*
X99094352Y-77464698D01*
X99093080Y-77455813D01*
X99082451Y-77432436D01*
X99076004Y-77414913D01*
X99071416Y-77398862D01*
X99068949Y-77390229D01*
X99064156Y-77382632D01*
X99053170Y-77365220D01*
X99045030Y-77350135D01*
X99042564Y-77344711D01*
X99032792Y-77323218D01*
X99016030Y-77303765D01*
X99004927Y-77288761D01*
X98991224Y-77267042D01*
X98984499Y-77261103D01*
X98984496Y-77261099D01*
X98969062Y-77247468D01*
X98957018Y-77235276D01*
X98943573Y-77219673D01*
X98943570Y-77219671D01*
X98937713Y-77212873D01*
X98924009Y-77203990D01*
X98916165Y-77198906D01*
X98901291Y-77187615D01*
X98888783Y-77176569D01*
X98888782Y-77176568D01*
X98882049Y-77170622D01*
X98855287Y-77158057D01*
X98840309Y-77149737D01*
X98823017Y-77138529D01*
X98823012Y-77138527D01*
X98815485Y-77133648D01*
X98806892Y-77131078D01*
X98806887Y-77131076D01*
X98790880Y-77126289D01*
X98773436Y-77119628D01*
X98758324Y-77112533D01*
X98758322Y-77112532D01*
X98750200Y-77108719D01*
X98741333Y-77107338D01*
X98741332Y-77107338D01*
X98730478Y-77105648D01*
X98720983Y-77104170D01*
X98704268Y-77100387D01*
X98684534Y-77094485D01*
X98684528Y-77094484D01*
X98675934Y-77091914D01*
X98666963Y-77091859D01*
X98666962Y-77091859D01*
X98656903Y-77091798D01*
X98641494Y-77091704D01*
X98640711Y-77091671D01*
X98639614Y-77091500D01*
X98608623Y-77091500D01*
X98607853Y-77091498D01*
X98534215Y-77091048D01*
X98534214Y-77091048D01*
X98530279Y-77091024D01*
X98528935Y-77091408D01*
X98527590Y-77091500D01*
X95608623Y-77091500D01*
X95607853Y-77091498D01*
X95607037Y-77091493D01*
X95530279Y-77091024D01*
X95507918Y-77097415D01*
X95501847Y-77099150D01*
X95485085Y-77102728D01*
X95455813Y-77106920D01*
X95447645Y-77110634D01*
X95447644Y-77110634D01*
X95432438Y-77117548D01*
X95414914Y-77123996D01*
X95390229Y-77131051D01*
X95382635Y-77135843D01*
X95382632Y-77135844D01*
X95365220Y-77146830D01*
X95350137Y-77154969D01*
X95323218Y-77167208D01*
X95316416Y-77173069D01*
X95303765Y-77183970D01*
X95288761Y-77195073D01*
X95267042Y-77208776D01*
X95261103Y-77215501D01*
X95261099Y-77215504D01*
X95247468Y-77230938D01*
X95235276Y-77242982D01*
X95219673Y-77256427D01*
X95219671Y-77256430D01*
X95212873Y-77262287D01*
X95207993Y-77269816D01*
X95207992Y-77269817D01*
X95198906Y-77283835D01*
X95187615Y-77298709D01*
X95176569Y-77311217D01*
X95170622Y-77317951D01*
X95164312Y-77331391D01*
X95158058Y-77344711D01*
X95149737Y-77359691D01*
X95138529Y-77376983D01*
X95138527Y-77376988D01*
X95133648Y-77384515D01*
X95131078Y-77393108D01*
X95131076Y-77393113D01*
X95126289Y-77409120D01*
X95119628Y-77426564D01*
X95112533Y-77441676D01*
X95108719Y-77449800D01*
X95107338Y-77458667D01*
X95107338Y-77458668D01*
X95104170Y-77479015D01*
X95100387Y-77495732D01*
X95094485Y-77515466D01*
X95094484Y-77515472D01*
X95091914Y-77524066D01*
X95091859Y-77533037D01*
X95091859Y-77533038D01*
X95091704Y-77558497D01*
X95091671Y-77559289D01*
X95091500Y-77560386D01*
X95091500Y-77591377D01*
X95091498Y-77592147D01*
X95091024Y-77669721D01*
X95091408Y-77671065D01*
X95091500Y-77672410D01*
X95091500Y-130091377D01*
X95091498Y-130092147D01*
X95091024Y-130169721D01*
X90508500Y-130169721D01*
X90508500Y-65193965D01*
X93037057Y-65193965D01*
X93050741Y-65585827D01*
X93102599Y-65974484D01*
X93103299Y-65977468D01*
X93103300Y-65977474D01*
X93140511Y-66136122D01*
X93192136Y-66356225D01*
X93318496Y-66727407D01*
X93480475Y-67084487D01*
X93676525Y-67424056D01*
X93678314Y-67426554D01*
X93678316Y-67426558D01*
X93812093Y-67613415D01*
X93904776Y-67742874D01*
X93906802Y-67745189D01*
X93906805Y-67745192D01*
X93948548Y-67792874D01*
X94163049Y-68037896D01*
X94448878Y-68306308D01*
X94759536Y-68545546D01*
X94762139Y-68547173D01*
X94762144Y-68547176D01*
X94842161Y-68597176D01*
X95092056Y-68753328D01*
X95443266Y-68927670D01*
X95809812Y-69066907D01*
X96188195Y-69169712D01*
X96479060Y-69218908D01*
X96571783Y-69234591D01*
X96571786Y-69234591D01*
X96574805Y-69235102D01*
X96729444Y-69245916D01*
X96962885Y-69262240D01*
X96962893Y-69262240D01*
X96965951Y-69262454D01*
X97218037Y-69255413D01*
X97354825Y-69251592D01*
X97354828Y-69251592D01*
X97357899Y-69251506D01*
X97360952Y-69251120D01*
X97360956Y-69251120D01*
X97502576Y-69233229D01*
X97746908Y-69202362D01*
X97749912Y-69201680D01*
X97749915Y-69201679D01*
X98126269Y-69116174D01*
X98126275Y-69116172D01*
X98129265Y-69115493D01*
X98132184Y-69114522D01*
X98498396Y-68992700D01*
X98498402Y-68992698D01*
X98501320Y-68991727D01*
X98532893Y-68977670D01*
X98856722Y-68833492D01*
X98856728Y-68833489D01*
X98859522Y-68832245D01*
X98862191Y-68830729D01*
X99197784Y-68640086D01*
X99197790Y-68640083D01*
X99200452Y-68638570D01*
X99340118Y-68540047D01*
X99518342Y-68414323D01*
X99518346Y-68414320D01*
X99520855Y-68412550D01*
X99759748Y-68206344D01*
X99815347Y-68158353D01*
X99815351Y-68158349D01*
X99817674Y-68156344D01*
X100088074Y-67872395D01*
X100148392Y-67795192D01*
X100327565Y-67565860D01*
X100327567Y-67565857D01*
X100329475Y-67563415D01*
X100539574Y-67232354D01*
X100590432Y-67131673D01*
X100623452Y-67066303D01*
X100716363Y-66882370D01*
X100717473Y-66879509D01*
X100857041Y-66519681D01*
X100857044Y-66519672D01*
X100858156Y-66516805D01*
X100963600Y-66139148D01*
X101016587Y-65838646D01*
X101031156Y-65756022D01*
X101031156Y-65756019D01*
X101031688Y-65753004D01*
X101044788Y-65582747D01*
X101061619Y-65364013D01*
X101061619Y-65364002D01*
X101061769Y-65362059D01*
X101063334Y-65250000D01*
X101063039Y-65243965D01*
X104737057Y-65243965D01*
X104737165Y-65247054D01*
X104749102Y-65588881D01*
X104750741Y-65635827D01*
X104802599Y-66024484D01*
X104803299Y-66027468D01*
X104803300Y-66027474D01*
X104881092Y-66359138D01*
X104892136Y-66406225D01*
X105018496Y-66777407D01*
X105180475Y-67134487D01*
X105376525Y-67474056D01*
X105378314Y-67476554D01*
X105378316Y-67476558D01*
X105568980Y-67742874D01*
X105604776Y-67792874D01*
X105606802Y-67795189D01*
X105606805Y-67795192D01*
X105716040Y-67919970D01*
X105863049Y-68087896D01*
X106148878Y-68356308D01*
X106459536Y-68595546D01*
X106462139Y-68597173D01*
X106462144Y-68597176D01*
X106530815Y-68640086D01*
X106792056Y-68803328D01*
X107143266Y-68977670D01*
X107509812Y-69116907D01*
X107888195Y-69219712D01*
X108140902Y-69262454D01*
X108271783Y-69284591D01*
X108271786Y-69284591D01*
X108274805Y-69285102D01*
X108429444Y-69295916D01*
X108662885Y-69312240D01*
X108662893Y-69312240D01*
X108665951Y-69312454D01*
X108918037Y-69305413D01*
X109054825Y-69301592D01*
X109054828Y-69301592D01*
X109057899Y-69301506D01*
X109060952Y-69301120D01*
X109060956Y-69301120D01*
X109202576Y-69283229D01*
X109446908Y-69252362D01*
X109449912Y-69251680D01*
X109449915Y-69251679D01*
X109826269Y-69166174D01*
X109826275Y-69166172D01*
X109829265Y-69165493D01*
X109832184Y-69164522D01*
X110198396Y-69042700D01*
X110198402Y-69042698D01*
X110201320Y-69041727D01*
X110204130Y-69040476D01*
X110556722Y-68883492D01*
X110556728Y-68883489D01*
X110559522Y-68882245D01*
X110650207Y-68830729D01*
X110897784Y-68690086D01*
X110897790Y-68690083D01*
X110900452Y-68688570D01*
X111220855Y-68462550D01*
X111346390Y-68354192D01*
X111515347Y-68208353D01*
X111515351Y-68208349D01*
X111517674Y-68206344D01*
X111788074Y-67922395D01*
X111825402Y-67874618D01*
X112027565Y-67615860D01*
X112027567Y-67615857D01*
X112029475Y-67613415D01*
X112239574Y-67282354D01*
X112263516Y-67234958D01*
X112414977Y-66935113D01*
X112416363Y-66932370D01*
X112435757Y-66882370D01*
X112557041Y-66569681D01*
X112557044Y-66569672D01*
X112558156Y-66566805D01*
X112663600Y-66189148D01*
X112731688Y-65803004D01*
X112761769Y-65412059D01*
X112763334Y-65300000D01*
X112760793Y-65248030D01*
X112760594Y-65243965D01*
X116987057Y-65243965D01*
X116987165Y-65247054D01*
X116999102Y-65588881D01*
X117000741Y-65635827D01*
X117052599Y-66024484D01*
X117053299Y-66027468D01*
X117053300Y-66027474D01*
X117131092Y-66359138D01*
X117142136Y-66406225D01*
X117268496Y-66777407D01*
X117430475Y-67134487D01*
X117626525Y-67474056D01*
X117628314Y-67476554D01*
X117628316Y-67476558D01*
X117818980Y-67742874D01*
X117854776Y-67792874D01*
X117856802Y-67795189D01*
X117856805Y-67795192D01*
X117966040Y-67919970D01*
X118113049Y-68087896D01*
X118398878Y-68356308D01*
X118709536Y-68595546D01*
X118712139Y-68597173D01*
X118712144Y-68597176D01*
X118780815Y-68640086D01*
X119042056Y-68803328D01*
X119393266Y-68977670D01*
X119759812Y-69116907D01*
X120138195Y-69219712D01*
X120390902Y-69262454D01*
X120521783Y-69284591D01*
X120521786Y-69284591D01*
X120524805Y-69285102D01*
X120679444Y-69295916D01*
X120912885Y-69312240D01*
X120912893Y-69312240D01*
X120915951Y-69312454D01*
X121168037Y-69305413D01*
X121304825Y-69301592D01*
X121304828Y-69301592D01*
X121307899Y-69301506D01*
X121310952Y-69301120D01*
X121310956Y-69301120D01*
X121452576Y-69283229D01*
X121696908Y-69252362D01*
X121699912Y-69251680D01*
X121699915Y-69251679D01*
X122076269Y-69166174D01*
X122076275Y-69166172D01*
X122079265Y-69165493D01*
X122082184Y-69164522D01*
X122448396Y-69042700D01*
X122448402Y-69042698D01*
X122451320Y-69041727D01*
X122454130Y-69040476D01*
X122806722Y-68883492D01*
X122806728Y-68883489D01*
X122809522Y-68882245D01*
X122900207Y-68830729D01*
X123147784Y-68690086D01*
X123147790Y-68690083D01*
X123150452Y-68688570D01*
X123470855Y-68462550D01*
X123596390Y-68354192D01*
X123765347Y-68208353D01*
X123765351Y-68208349D01*
X123767674Y-68206344D01*
X124038074Y-67922395D01*
X124075402Y-67874618D01*
X124277565Y-67615860D01*
X124277567Y-67615857D01*
X124279475Y-67613415D01*
X124489574Y-67282354D01*
X124513516Y-67234958D01*
X124664977Y-66935113D01*
X124666363Y-66932370D01*
X124685757Y-66882370D01*
X124807041Y-66569681D01*
X124807044Y-66569672D01*
X124808156Y-66566805D01*
X124913600Y-66189148D01*
X124981688Y-65803004D01*
X125011769Y-65412059D01*
X125013334Y-65300000D01*
X125010793Y-65248030D01*
X125010594Y-65243965D01*
X128937057Y-65243965D01*
X128937165Y-65247054D01*
X128949102Y-65588881D01*
X128950741Y-65635827D01*
X129002599Y-66024484D01*
X129003299Y-66027468D01*
X129003300Y-66027474D01*
X129081092Y-66359138D01*
X129092136Y-66406225D01*
X129218496Y-66777407D01*
X129380475Y-67134487D01*
X129576525Y-67474056D01*
X129578314Y-67476554D01*
X129578316Y-67476558D01*
X129768980Y-67742874D01*
X129804776Y-67792874D01*
X129806802Y-67795189D01*
X129806805Y-67795192D01*
X129916040Y-67919970D01*
X130063049Y-68087896D01*
X130348878Y-68356308D01*
X130659536Y-68595546D01*
X130662139Y-68597173D01*
X130662144Y-68597176D01*
X130730815Y-68640086D01*
X130992056Y-68803328D01*
X131343266Y-68977670D01*
X131709812Y-69116907D01*
X132088195Y-69219712D01*
X132340902Y-69262454D01*
X132471783Y-69284591D01*
X132471786Y-69284591D01*
X132474805Y-69285102D01*
X132629444Y-69295916D01*
X132862885Y-69312240D01*
X132862893Y-69312240D01*
X132865951Y-69312454D01*
X133118037Y-69305413D01*
X133254825Y-69301592D01*
X133254828Y-69301592D01*
X133257899Y-69301506D01*
X133260952Y-69301120D01*
X133260956Y-69301120D01*
X133402576Y-69283229D01*
X133646908Y-69252362D01*
X133649912Y-69251680D01*
X133649915Y-69251679D01*
X134026269Y-69166174D01*
X134026275Y-69166172D01*
X134029265Y-69165493D01*
X134032184Y-69164522D01*
X134398396Y-69042700D01*
X134398402Y-69042698D01*
X134401320Y-69041727D01*
X134404130Y-69040476D01*
X134756722Y-68883492D01*
X134756728Y-68883489D01*
X134759522Y-68882245D01*
X134850207Y-68830729D01*
X135097784Y-68690086D01*
X135097790Y-68690083D01*
X135100452Y-68688570D01*
X135420855Y-68462550D01*
X135546390Y-68354192D01*
X135715347Y-68208353D01*
X135715351Y-68208349D01*
X135717674Y-68206344D01*
X135988074Y-67922395D01*
X136025402Y-67874618D01*
X136227565Y-67615860D01*
X136227567Y-67615857D01*
X136229475Y-67613415D01*
X136439574Y-67282354D01*
X136463516Y-67234958D01*
X136614977Y-66935113D01*
X136616363Y-66932370D01*
X136635757Y-66882370D01*
X136757041Y-66569681D01*
X136757044Y-66569672D01*
X136758156Y-66566805D01*
X136863600Y-66189148D01*
X136931688Y-65803004D01*
X136961769Y-65412059D01*
X136963334Y-65300000D01*
X136960793Y-65248030D01*
X136944330Y-64911440D01*
X136944180Y-64908367D01*
X136886901Y-64520473D01*
X136792043Y-64140019D01*
X136660512Y-63770637D01*
X136493564Y-63415854D01*
X136491997Y-63413225D01*
X136491992Y-63413216D01*
X136294361Y-63081689D01*
X136292791Y-63079055D01*
X136290977Y-63076595D01*
X136290972Y-63076587D01*
X136061933Y-62765926D01*
X136061931Y-62765923D01*
X136060111Y-62763455D01*
X135797744Y-62472068D01*
X135508195Y-62207673D01*
X135194228Y-61972795D01*
X135146015Y-61943596D01*
X134861467Y-61771267D01*
X134861458Y-61771262D01*
X134858839Y-61769676D01*
X134505229Y-61600255D01*
X134502339Y-61599203D01*
X134502334Y-61599201D01*
X134139674Y-61467204D01*
X134139671Y-61467203D01*
X134136775Y-61466149D01*
X133860563Y-61395229D01*
X133759977Y-61369403D01*
X133759974Y-61369402D01*
X133756993Y-61368637D01*
X133369508Y-61308651D01*
X132978018Y-61286764D01*
X132974939Y-61286893D01*
X132974936Y-61286893D01*
X132719188Y-61297612D01*
X132586261Y-61303183D01*
X132583217Y-61303611D01*
X132583215Y-61303611D01*
X132479644Y-61318167D01*
X132197976Y-61357753D01*
X131816869Y-61449953D01*
X131446579Y-61578902D01*
X131090638Y-61743369D01*
X130752446Y-61941785D01*
X130592444Y-62058033D01*
X130437711Y-62170453D01*
X130437705Y-62170458D01*
X130435230Y-62172256D01*
X130432944Y-62174285D01*
X130432941Y-62174288D01*
X130353123Y-62245154D01*
X130142017Y-62432583D01*
X130139938Y-62434828D01*
X130139931Y-62434835D01*
X129921908Y-62670279D01*
X129875608Y-62720279D01*
X129638544Y-63032599D01*
X129433089Y-63366562D01*
X129261203Y-63718980D01*
X129260131Y-63721864D01*
X129260130Y-63721865D01*
X129142013Y-64039472D01*
X129124527Y-64086489D01*
X129024367Y-64465581D01*
X129014981Y-64523534D01*
X128970269Y-64799592D01*
X128961677Y-64852638D01*
X128961483Y-64855718D01*
X128961483Y-64855720D01*
X128957978Y-64911440D01*
X128937057Y-65243965D01*
X125010594Y-65243965D01*
X124994330Y-64911440D01*
X124994180Y-64908367D01*
X124936901Y-64520473D01*
X124842043Y-64140019D01*
X124710512Y-63770637D01*
X124543564Y-63415854D01*
X124541997Y-63413225D01*
X124541992Y-63413216D01*
X124344361Y-63081689D01*
X124342791Y-63079055D01*
X124340977Y-63076595D01*
X124340972Y-63076587D01*
X124111933Y-62765926D01*
X124111931Y-62765923D01*
X124110111Y-62763455D01*
X123847744Y-62472068D01*
X123558195Y-62207673D01*
X123244228Y-61972795D01*
X123196015Y-61943596D01*
X122911467Y-61771267D01*
X122911458Y-61771262D01*
X122908839Y-61769676D01*
X122555229Y-61600255D01*
X122552339Y-61599203D01*
X122552334Y-61599201D01*
X122189674Y-61467204D01*
X122189671Y-61467203D01*
X122186775Y-61466149D01*
X121910563Y-61395229D01*
X121809977Y-61369403D01*
X121809974Y-61369402D01*
X121806993Y-61368637D01*
X121419508Y-61308651D01*
X121028018Y-61286764D01*
X121024939Y-61286893D01*
X121024936Y-61286893D01*
X120769188Y-61297612D01*
X120636261Y-61303183D01*
X120633217Y-61303611D01*
X120633215Y-61303611D01*
X120529644Y-61318167D01*
X120247976Y-61357753D01*
X119866869Y-61449953D01*
X119496579Y-61578902D01*
X119140638Y-61743369D01*
X118802446Y-61941785D01*
X118642444Y-62058033D01*
X118487711Y-62170453D01*
X118487705Y-62170458D01*
X118485230Y-62172256D01*
X118482944Y-62174285D01*
X118482941Y-62174288D01*
X118403123Y-62245154D01*
X118192017Y-62432583D01*
X118189938Y-62434828D01*
X118189931Y-62434835D01*
X117971908Y-62670279D01*
X117925608Y-62720279D01*
X117688544Y-63032599D01*
X117483089Y-63366562D01*
X117311203Y-63718980D01*
X117310131Y-63721864D01*
X117310130Y-63721865D01*
X117192013Y-64039472D01*
X117174527Y-64086489D01*
X117074367Y-64465581D01*
X117064981Y-64523534D01*
X117020269Y-64799592D01*
X117011677Y-64852638D01*
X117011483Y-64855718D01*
X117011483Y-64855720D01*
X117007978Y-64911440D01*
X116987057Y-65243965D01*
X112760594Y-65243965D01*
X112744330Y-64911440D01*
X112744180Y-64908367D01*
X112686901Y-64520473D01*
X112592043Y-64140019D01*
X112460512Y-63770637D01*
X112293564Y-63415854D01*
X112291997Y-63413225D01*
X112291992Y-63413216D01*
X112094361Y-63081689D01*
X112092791Y-63079055D01*
X112090977Y-63076595D01*
X112090972Y-63076587D01*
X111861933Y-62765926D01*
X111861931Y-62765923D01*
X111860111Y-62763455D01*
X111597744Y-62472068D01*
X111308195Y-62207673D01*
X110994228Y-61972795D01*
X110946015Y-61943596D01*
X110661467Y-61771267D01*
X110661458Y-61771262D01*
X110658839Y-61769676D01*
X110305229Y-61600255D01*
X110302339Y-61599203D01*
X110302334Y-61599201D01*
X109939674Y-61467204D01*
X109939671Y-61467203D01*
X109936775Y-61466149D01*
X109660563Y-61395229D01*
X109559977Y-61369403D01*
X109559974Y-61369402D01*
X109556993Y-61368637D01*
X109169508Y-61308651D01*
X108778018Y-61286764D01*
X108774939Y-61286893D01*
X108774936Y-61286893D01*
X108519188Y-61297612D01*
X108386261Y-61303183D01*
X108383217Y-61303611D01*
X108383215Y-61303611D01*
X108279644Y-61318167D01*
X107997976Y-61357753D01*
X107616869Y-61449953D01*
X107246579Y-61578902D01*
X106890638Y-61743369D01*
X106552446Y-61941785D01*
X106392444Y-62058033D01*
X106237711Y-62170453D01*
X106237705Y-62170458D01*
X106235230Y-62172256D01*
X106232944Y-62174285D01*
X106232941Y-62174288D01*
X106153123Y-62245154D01*
X105942017Y-62432583D01*
X105939938Y-62434828D01*
X105939931Y-62434835D01*
X105721908Y-62670279D01*
X105675608Y-62720279D01*
X105438544Y-63032599D01*
X105233089Y-63366562D01*
X105061203Y-63718980D01*
X105060131Y-63721864D01*
X105060130Y-63721865D01*
X104942013Y-64039472D01*
X104924527Y-64086489D01*
X104824367Y-64465581D01*
X104814981Y-64523534D01*
X104770269Y-64799592D01*
X104761677Y-64852638D01*
X104761483Y-64855718D01*
X104761483Y-64855720D01*
X104757978Y-64911440D01*
X104737057Y-65243965D01*
X101063039Y-65243965D01*
X101060594Y-65193965D01*
X101052984Y-65038375D01*
X101044180Y-64858367D01*
X100986901Y-64470473D01*
X100985682Y-64465581D01*
X100892791Y-64093021D01*
X100892043Y-64090019D01*
X100760512Y-63720637D01*
X100593564Y-63365854D01*
X100591997Y-63363225D01*
X100591992Y-63363216D01*
X100396468Y-63035223D01*
X100392791Y-63029055D01*
X100390977Y-63026595D01*
X100390972Y-63026587D01*
X100161933Y-62715926D01*
X100161931Y-62715923D01*
X100160111Y-62713455D01*
X99897744Y-62422068D01*
X99608195Y-62157673D01*
X99294228Y-61922795D01*
X99246015Y-61893596D01*
X98961467Y-61721267D01*
X98961458Y-61721262D01*
X98958839Y-61719676D01*
X98709587Y-61600255D01*
X98608001Y-61551583D01*
X98607999Y-61551582D01*
X98605229Y-61550255D01*
X98602339Y-61549203D01*
X98602334Y-61549201D01*
X98239674Y-61417204D01*
X98239671Y-61417203D01*
X98236775Y-61416149D01*
X97960563Y-61345229D01*
X97859977Y-61319403D01*
X97859974Y-61319402D01*
X97856993Y-61318637D01*
X97469508Y-61258651D01*
X97078018Y-61236764D01*
X97074939Y-61236893D01*
X97074936Y-61236893D01*
X96819188Y-61247612D01*
X96686261Y-61253183D01*
X96683217Y-61253611D01*
X96683215Y-61253611D01*
X96472778Y-61283186D01*
X96297976Y-61307753D01*
X95916869Y-61399953D01*
X95546579Y-61528902D01*
X95190638Y-61693369D01*
X94852446Y-61891785D01*
X94738403Y-61974642D01*
X94537711Y-62120453D01*
X94537705Y-62120458D01*
X94535230Y-62122256D01*
X94532944Y-62124285D01*
X94532941Y-62124288D01*
X94480944Y-62170453D01*
X94242017Y-62382583D01*
X94239938Y-62384828D01*
X94239931Y-62384835D01*
X94193631Y-62434835D01*
X93975608Y-62670279D01*
X93738544Y-62982599D01*
X93533089Y-63316562D01*
X93361203Y-63668980D01*
X93224527Y-64036489D01*
X93124367Y-64415581D01*
X93061677Y-64802638D01*
X93061483Y-64805718D01*
X93061483Y-64805720D01*
X93057978Y-64861440D01*
X93037057Y-65193965D01*
X90508500Y-65193965D01*
X90508500Y-40634127D01*
X90528502Y-40566006D01*
X90582158Y-40519513D01*
X90634426Y-40508127D01*
X94630852Y-40505775D01*
X94698984Y-40525737D01*
X94745509Y-40579365D01*
X94755654Y-40649633D01*
X94726199Y-40714231D01*
X94696761Y-40739208D01*
X94584224Y-40808171D01*
X94500983Y-40859181D01*
X94497979Y-40861571D01*
X94497974Y-40861574D01*
X94329370Y-40995688D01*
X94251256Y-41057823D01*
X94027599Y-41285418D01*
X94025254Y-41288474D01*
X93888195Y-41467093D01*
X93833346Y-41538573D01*
X93671393Y-41813515D01*
X93544154Y-42106145D01*
X93453526Y-42412100D01*
X93400860Y-42726819D01*
X93386941Y-43045611D01*
X93411977Y-43363723D01*
X93475594Y-43676412D01*
X93576845Y-43979018D01*
X93714219Y-44267029D01*
X93885669Y-44536151D01*
X93888112Y-44539114D01*
X93888113Y-44539116D01*
X94035016Y-44717323D01*
X94088639Y-44782373D01*
X94320102Y-45002024D01*
X94576609Y-45191829D01*
X94579942Y-45193715D01*
X94579947Y-45193718D01*
X94739104Y-45283765D01*
X94854336Y-45348960D01*
X94857879Y-45350427D01*
X94857884Y-45350430D01*
X95035032Y-45423806D01*
X95149142Y-45471072D01*
X95251532Y-45499467D01*
X95452916Y-45555317D01*
X95452924Y-45555319D01*
X95456632Y-45556347D01*
X95772222Y-45603512D01*
X95775520Y-45603656D01*
X95885090Y-45608440D01*
X95885094Y-45608440D01*
X95886466Y-45608500D01*
X98881047Y-45608500D01*
X99118500Y-45593977D01*
X99122283Y-45593276D01*
X99122290Y-45593275D01*
X99275376Y-45564901D01*
X99432252Y-45535826D01*
X99642300Y-45469598D01*
X99732907Y-45441030D01*
X99732910Y-45441029D01*
X99736579Y-45439872D01*
X99740076Y-45438278D01*
X99740082Y-45438276D01*
X100023436Y-45309145D01*
X100023440Y-45309143D01*
X100026944Y-45307546D01*
X100212694Y-45193718D01*
X100295739Y-45142828D01*
X100295742Y-45142826D01*
X100299017Y-45140819D01*
X100302021Y-45138429D01*
X100302026Y-45138426D01*
X100545733Y-44944572D01*
X100548744Y-44942177D01*
X100772401Y-44714582D01*
X100909316Y-44536151D01*
X100964304Y-44464490D01*
X100964306Y-44464486D01*
X100966654Y-44461427D01*
X101128607Y-44186485D01*
X101255846Y-43893855D01*
X101346474Y-43587900D01*
X101399140Y-43273181D01*
X101413059Y-42954389D01*
X101388023Y-42636277D01*
X101324406Y-42323588D01*
X101223155Y-42020982D01*
X101085781Y-41732971D01*
X100914331Y-41463849D01*
X100767244Y-41285418D01*
X100713804Y-41220590D01*
X100713800Y-41220585D01*
X100711361Y-41217627D01*
X100479898Y-40997976D01*
X100223391Y-40808171D01*
X100220058Y-40806285D01*
X100220053Y-40806282D01*
X100099690Y-40738184D01*
X100050251Y-40687230D01*
X100036207Y-40617637D01*
X100062018Y-40551498D01*
X100119488Y-40509813D01*
X100161662Y-40502519D01*
X104441870Y-40500000D01*
X129640350Y-40500000D01*
X129708471Y-40520002D01*
G37*
%TD.AperFunction*%
M02*
