%TF.GenerationSoftware,KiCad,Pcbnew,6.0.11+dfsg-1~bpo11+1*%
%TF.CreationDate,2023-04-14T14:39:15+08:00*%
%TF.ProjectId,MiniMix - Front,4d696e69-4d69-4782-902d-2046726f6e74,rev?*%
%TF.SameCoordinates,Original*%
%TF.FileFunction,Drillmap*%
%TF.FilePolarity,Positive*%
%FSLAX45Y45*%
G04 Gerber Fmt 4.5, Leading zero omitted, Abs format (unit mm)*
G04 Created by KiCad (PCBNEW 6.0.11+dfsg-1~bpo11+1) date 2023-04-14 14:39:15*
%MOMM*%
%LPD*%
G01*
G04 APERTURE LIST*
%ADD10C,0.100000*%
%ADD11C,0.200000*%
G04 APERTURE END LIST*
D10*
X14000000Y-3997057D02*
X14010000Y-16847057D01*
X9000000Y-16850000D02*
X9000000Y-4000000D01*
X9000000Y-4000000D02*
X14000000Y-3997057D01*
X14010000Y-16847057D02*
X9000000Y-16850000D01*
D11*
X9252619Y-17165476D02*
X9252619Y-16965476D01*
X9300238Y-16965476D01*
X9328810Y-16975000D01*
X9347857Y-16994048D01*
X9357381Y-17013095D01*
X9366905Y-17051190D01*
X9366905Y-17079762D01*
X9357381Y-17117857D01*
X9347857Y-17136905D01*
X9328810Y-17155952D01*
X9300238Y-17165476D01*
X9252619Y-17165476D01*
X9452619Y-17165476D02*
X9452619Y-17032143D01*
X9452619Y-17070238D02*
X9462143Y-17051190D01*
X9471667Y-17041667D01*
X9490714Y-17032143D01*
X9509762Y-17032143D01*
X9576429Y-17165476D02*
X9576429Y-17032143D01*
X9576429Y-16965476D02*
X9566905Y-16975000D01*
X9576429Y-16984524D01*
X9585952Y-16975000D01*
X9576429Y-16965476D01*
X9576429Y-16984524D01*
X9700238Y-17165476D02*
X9681190Y-17155952D01*
X9671667Y-17136905D01*
X9671667Y-16965476D01*
X9805000Y-17165476D02*
X9785952Y-17155952D01*
X9776429Y-17136905D01*
X9776429Y-16965476D01*
X10033571Y-17165476D02*
X10033571Y-16965476D01*
X10100238Y-17108333D01*
X10166905Y-16965476D01*
X10166905Y-17165476D01*
X10347857Y-17165476D02*
X10347857Y-17060714D01*
X10338333Y-17041667D01*
X10319286Y-17032143D01*
X10281190Y-17032143D01*
X10262143Y-17041667D01*
X10347857Y-17155952D02*
X10328810Y-17165476D01*
X10281190Y-17165476D01*
X10262143Y-17155952D01*
X10252619Y-17136905D01*
X10252619Y-17117857D01*
X10262143Y-17098810D01*
X10281190Y-17089286D01*
X10328810Y-17089286D01*
X10347857Y-17079762D01*
X10443095Y-17032143D02*
X10443095Y-17232143D01*
X10443095Y-17041667D02*
X10462143Y-17032143D01*
X10500238Y-17032143D01*
X10519286Y-17041667D01*
X10528810Y-17051190D01*
X10538333Y-17070238D01*
X10538333Y-17127381D01*
X10528810Y-17146429D01*
X10519286Y-17155952D01*
X10500238Y-17165476D01*
X10462143Y-17165476D01*
X10443095Y-17155952D01*
X10624048Y-17146429D02*
X10633571Y-17155952D01*
X10624048Y-17165476D01*
X10614524Y-17155952D01*
X10624048Y-17146429D01*
X10624048Y-17165476D01*
X10624048Y-17041667D02*
X10633571Y-17051190D01*
X10624048Y-17060714D01*
X10614524Y-17051190D01*
X10624048Y-17041667D01*
X10624048Y-17060714D01*
M02*
