%TF.GenerationSoftware,KiCad,Pcbnew,6.0.11+dfsg-1~bpo11+1*%
%TF.CreationDate,2023-04-14T14:39:15+08:00*%
%TF.ProjectId,MiniMix - Front,4d696e69-4d69-4782-902d-2046726f6e74,rev?*%
%TF.SameCoordinates,Original*%
%TF.FileFunction,Drillmap*%
%TF.FilePolarity,Positive*%
%FSLAX45Y45*%
G04 Gerber Fmt 4.5, Leading zero omitted, Abs format (unit mm)*
G04 Created by KiCad (PCBNEW 6.0.11+dfsg-1~bpo11+1) date 2023-04-14 14:39:15*
%MOMM*%
%LPD*%
G01*
G04 APERTURE LIST*
%ADD10C,0.100000*%
%ADD11C,0.200000*%
%ADD12C,0.320000*%
%ADD13C,0.600000*%
%ADD14C,0.700000*%
G04 APERTURE END LIST*
D10*
X14000000Y-3997057D02*
X14010000Y-16847057D01*
X9000000Y-16850000D02*
X9000000Y-4000000D01*
X9000000Y-4000000D02*
X14000000Y-3997057D01*
X14010000Y-16847057D02*
X9000000Y-16850000D01*
D11*
D12*
X9580000Y-4140000D02*
X9900000Y-4460000D01*
X9900000Y-4140000D02*
X9580000Y-4460000D01*
D11*
X9600000Y-4460000D02*
X9880000Y-4460000D01*
X9600000Y-4140000D02*
X9880000Y-4140000D01*
X9880000Y-4460000D02*
G75*
G03*
X9880000Y-4140000I0J160000D01*
G01*
X9600000Y-4140000D02*
G75*
G03*
X9600000Y-4460000I0J-160000D01*
G01*
D12*
X9580000Y-16390000D02*
X9900000Y-16710000D01*
X9900000Y-16390000D02*
X9580000Y-16710000D01*
D11*
X9600000Y-16710000D02*
X9880000Y-16710000D01*
X9600000Y-16390000D02*
X9880000Y-16390000D01*
X9880000Y-16710000D02*
G75*
G03*
X9880000Y-16390000I0J160000D01*
G01*
X9600000Y-16390000D02*
G75*
G03*
X9600000Y-16710000I0J-160000D01*
G01*
D12*
X13080000Y-4140000D02*
X13400000Y-4460000D01*
X13400000Y-4140000D02*
X13080000Y-4460000D01*
D11*
X13100000Y-4460000D02*
X13380000Y-4460000D01*
X13100000Y-4140000D02*
X13380000Y-4140000D01*
X13380000Y-4460000D02*
G75*
G03*
X13380000Y-4140000I0J160000D01*
G01*
X13100000Y-4140000D02*
G75*
G03*
X13100000Y-4460000I0J-160000D01*
G01*
D12*
X13080000Y-16390000D02*
X13400000Y-16710000D01*
X13400000Y-16390000D02*
X13080000Y-16710000D01*
D11*
X13100000Y-16710000D02*
X13380000Y-16710000D01*
X13100000Y-16390000D02*
X13380000Y-16390000D01*
X13380000Y-16710000D02*
G75*
G03*
X13380000Y-16390000I0J160000D01*
G01*
X13100000Y-16390000D02*
G75*
G03*
X13100000Y-16710000I0J-160000D01*
G01*
D13*
X10005000Y-6525000D02*
G75*
G03*
X10005000Y-6525000I-300000J0D01*
G01*
X11175000Y-6530000D02*
G75*
G03*
X11175000Y-6530000I-300000J0D01*
G01*
X11800000Y-14750000D02*
G75*
G03*
X11800000Y-14750000I-300000J0D01*
G01*
X12400000Y-6530000D02*
G75*
G03*
X12400000Y-6530000I-300000J0D01*
G01*
X13595000Y-6530000D02*
G75*
G03*
X13595000Y-6530000I-300000J0D01*
G01*
D14*
X12995000Y-14405000D02*
X12995000Y-15105000D01*
X12645000Y-14755000D02*
X13345000Y-14755000D01*
D11*
X9252619Y-17165476D02*
X9252619Y-16965476D01*
X9300238Y-16965476D01*
X9328810Y-16975000D01*
X9347857Y-16994048D01*
X9357381Y-17013095D01*
X9366905Y-17051190D01*
X9366905Y-17079762D01*
X9357381Y-17117857D01*
X9347857Y-17136905D01*
X9328810Y-17155952D01*
X9300238Y-17165476D01*
X9252619Y-17165476D01*
X9452619Y-17165476D02*
X9452619Y-17032143D01*
X9452619Y-17070238D02*
X9462143Y-17051190D01*
X9471667Y-17041667D01*
X9490714Y-17032143D01*
X9509762Y-17032143D01*
X9576429Y-17165476D02*
X9576429Y-17032143D01*
X9576429Y-16965476D02*
X9566905Y-16975000D01*
X9576429Y-16984524D01*
X9585952Y-16975000D01*
X9576429Y-16965476D01*
X9576429Y-16984524D01*
X9700238Y-17165476D02*
X9681190Y-17155952D01*
X9671667Y-17136905D01*
X9671667Y-16965476D01*
X9805000Y-17165476D02*
X9785952Y-17155952D01*
X9776429Y-17136905D01*
X9776429Y-16965476D01*
X10033571Y-17165476D02*
X10033571Y-16965476D01*
X10100238Y-17108333D01*
X10166905Y-16965476D01*
X10166905Y-17165476D01*
X10347857Y-17165476D02*
X10347857Y-17060714D01*
X10338333Y-17041667D01*
X10319286Y-17032143D01*
X10281190Y-17032143D01*
X10262143Y-17041667D01*
X10347857Y-17155952D02*
X10328810Y-17165476D01*
X10281190Y-17165476D01*
X10262143Y-17155952D01*
X10252619Y-17136905D01*
X10252619Y-17117857D01*
X10262143Y-17098810D01*
X10281190Y-17089286D01*
X10328810Y-17089286D01*
X10347857Y-17079762D01*
X10443095Y-17032143D02*
X10443095Y-17232143D01*
X10443095Y-17041667D02*
X10462143Y-17032143D01*
X10500238Y-17032143D01*
X10519286Y-17041667D01*
X10528810Y-17051190D01*
X10538333Y-17070238D01*
X10538333Y-17127381D01*
X10528810Y-17146429D01*
X10519286Y-17155952D01*
X10500238Y-17165476D01*
X10462143Y-17165476D01*
X10443095Y-17155952D01*
X10624048Y-17146429D02*
X10633571Y-17155952D01*
X10624048Y-17165476D01*
X10614524Y-17155952D01*
X10624048Y-17146429D01*
X10624048Y-17165476D01*
X10624048Y-17041667D02*
X10633571Y-17051190D01*
X10624048Y-17060714D01*
X10614524Y-17051190D01*
X10624048Y-17041667D01*
X10624048Y-17060714D01*
X8795000Y-17395000D02*
X8995000Y-17595000D01*
X8995000Y-17395000D02*
X8795000Y-17595000D01*
X9233571Y-17385476D02*
X9357381Y-17385476D01*
X9290714Y-17461667D01*
X9319286Y-17461667D01*
X9338333Y-17471190D01*
X9347857Y-17480714D01*
X9357381Y-17499762D01*
X9357381Y-17547381D01*
X9347857Y-17566429D01*
X9338333Y-17575952D01*
X9319286Y-17585476D01*
X9262143Y-17585476D01*
X9243095Y-17575952D01*
X9233571Y-17566429D01*
X9443095Y-17566429D02*
X9452619Y-17575952D01*
X9443095Y-17585476D01*
X9433571Y-17575952D01*
X9443095Y-17566429D01*
X9443095Y-17585476D01*
X9528810Y-17404524D02*
X9538333Y-17395000D01*
X9557381Y-17385476D01*
X9605000Y-17385476D01*
X9624048Y-17395000D01*
X9633571Y-17404524D01*
X9643095Y-17423571D01*
X9643095Y-17442619D01*
X9633571Y-17471190D01*
X9519286Y-17585476D01*
X9643095Y-17585476D01*
X9766905Y-17385476D02*
X9785952Y-17385476D01*
X9805000Y-17395000D01*
X9814524Y-17404524D01*
X9824048Y-17423571D01*
X9833571Y-17461667D01*
X9833571Y-17509286D01*
X9824048Y-17547381D01*
X9814524Y-17566429D01*
X9805000Y-17575952D01*
X9785952Y-17585476D01*
X9766905Y-17585476D01*
X9747857Y-17575952D01*
X9738333Y-17566429D01*
X9728810Y-17547381D01*
X9719286Y-17509286D01*
X9719286Y-17461667D01*
X9728810Y-17423571D01*
X9738333Y-17404524D01*
X9747857Y-17395000D01*
X9766905Y-17385476D01*
X9957381Y-17385476D02*
X9976429Y-17385476D01*
X9995476Y-17395000D01*
X10005000Y-17404524D01*
X10014524Y-17423571D01*
X10024048Y-17461667D01*
X10024048Y-17509286D01*
X10014524Y-17547381D01*
X10005000Y-17566429D01*
X9995476Y-17575952D01*
X9976429Y-17585476D01*
X9957381Y-17585476D01*
X9938333Y-17575952D01*
X9928810Y-17566429D01*
X9919286Y-17547381D01*
X9909762Y-17509286D01*
X9909762Y-17461667D01*
X9919286Y-17423571D01*
X9928810Y-17404524D01*
X9938333Y-17395000D01*
X9957381Y-17385476D01*
X10109762Y-17585476D02*
X10109762Y-17452143D01*
X10109762Y-17471190D02*
X10119286Y-17461667D01*
X10138333Y-17452143D01*
X10166905Y-17452143D01*
X10185952Y-17461667D01*
X10195476Y-17480714D01*
X10195476Y-17585476D01*
X10195476Y-17480714D02*
X10205000Y-17461667D01*
X10224048Y-17452143D01*
X10252619Y-17452143D01*
X10271667Y-17461667D01*
X10281190Y-17480714D01*
X10281190Y-17585476D01*
X10376429Y-17585476D02*
X10376429Y-17452143D01*
X10376429Y-17471190D02*
X10385952Y-17461667D01*
X10405000Y-17452143D01*
X10433571Y-17452143D01*
X10452619Y-17461667D01*
X10462143Y-17480714D01*
X10462143Y-17585476D01*
X10462143Y-17480714D02*
X10471667Y-17461667D01*
X10490714Y-17452143D01*
X10519286Y-17452143D01*
X10538333Y-17461667D01*
X10547857Y-17480714D01*
X10547857Y-17585476D01*
X10938333Y-17375952D02*
X10766905Y-17633095D01*
X11195476Y-17385476D02*
X11214524Y-17385476D01*
X11233571Y-17395000D01*
X11243095Y-17404524D01*
X11252619Y-17423571D01*
X11262143Y-17461667D01*
X11262143Y-17509286D01*
X11252619Y-17547381D01*
X11243095Y-17566429D01*
X11233571Y-17575952D01*
X11214524Y-17585476D01*
X11195476Y-17585476D01*
X11176429Y-17575952D01*
X11166905Y-17566429D01*
X11157381Y-17547381D01*
X11147857Y-17509286D01*
X11147857Y-17461667D01*
X11157381Y-17423571D01*
X11166905Y-17404524D01*
X11176429Y-17395000D01*
X11195476Y-17385476D01*
X11347857Y-17566429D02*
X11357381Y-17575952D01*
X11347857Y-17585476D01*
X11338333Y-17575952D01*
X11347857Y-17566429D01*
X11347857Y-17585476D01*
X11547857Y-17585476D02*
X11433571Y-17585476D01*
X11490714Y-17585476D02*
X11490714Y-17385476D01*
X11471667Y-17414048D01*
X11452619Y-17433095D01*
X11433571Y-17442619D01*
X11624048Y-17404524D02*
X11633571Y-17395000D01*
X11652619Y-17385476D01*
X11700238Y-17385476D01*
X11719286Y-17395000D01*
X11728809Y-17404524D01*
X11738333Y-17423571D01*
X11738333Y-17442619D01*
X11728809Y-17471190D01*
X11614524Y-17585476D01*
X11738333Y-17585476D01*
X11909762Y-17385476D02*
X11871667Y-17385476D01*
X11852619Y-17395000D01*
X11843095Y-17404524D01*
X11824048Y-17433095D01*
X11814524Y-17471190D01*
X11814524Y-17547381D01*
X11824048Y-17566429D01*
X11833571Y-17575952D01*
X11852619Y-17585476D01*
X11890714Y-17585476D01*
X11909762Y-17575952D01*
X11919286Y-17566429D01*
X11928809Y-17547381D01*
X11928809Y-17499762D01*
X11919286Y-17480714D01*
X11909762Y-17471190D01*
X11890714Y-17461667D01*
X11852619Y-17461667D01*
X11833571Y-17471190D01*
X11824048Y-17480714D01*
X11814524Y-17499762D01*
X12052619Y-17385476D02*
X12071667Y-17385476D01*
X12090714Y-17395000D01*
X12100238Y-17404524D01*
X12109762Y-17423571D01*
X12119286Y-17461667D01*
X12119286Y-17509286D01*
X12109762Y-17547381D01*
X12100238Y-17566429D01*
X12090714Y-17575952D01*
X12071667Y-17585476D01*
X12052619Y-17585476D01*
X12033571Y-17575952D01*
X12024048Y-17566429D01*
X12014524Y-17547381D01*
X12005000Y-17509286D01*
X12005000Y-17461667D01*
X12014524Y-17423571D01*
X12024048Y-17404524D01*
X12033571Y-17395000D01*
X12052619Y-17385476D01*
X12195476Y-17385476D02*
X12195476Y-17423571D01*
X12271667Y-17385476D02*
X12271667Y-17423571D01*
X12566905Y-17661667D02*
X12557381Y-17652143D01*
X12538333Y-17623571D01*
X12528809Y-17604524D01*
X12519286Y-17575952D01*
X12509762Y-17528333D01*
X12509762Y-17490238D01*
X12519286Y-17442619D01*
X12528809Y-17414048D01*
X12538333Y-17395000D01*
X12557381Y-17366429D01*
X12566905Y-17356905D01*
X12681190Y-17385476D02*
X12700238Y-17385476D01*
X12719286Y-17395000D01*
X12728809Y-17404524D01*
X12738333Y-17423571D01*
X12747857Y-17461667D01*
X12747857Y-17509286D01*
X12738333Y-17547381D01*
X12728809Y-17566429D01*
X12719286Y-17575952D01*
X12700238Y-17585476D01*
X12681190Y-17585476D01*
X12662143Y-17575952D01*
X12652619Y-17566429D01*
X12643095Y-17547381D01*
X12633571Y-17509286D01*
X12633571Y-17461667D01*
X12643095Y-17423571D01*
X12652619Y-17404524D01*
X12662143Y-17395000D01*
X12681190Y-17385476D01*
X12985952Y-17585476D02*
X12985952Y-17385476D01*
X13071667Y-17585476D02*
X13071667Y-17480714D01*
X13062143Y-17461667D01*
X13043095Y-17452143D01*
X13014524Y-17452143D01*
X12995476Y-17461667D01*
X12985952Y-17471190D01*
X13195476Y-17585476D02*
X13176428Y-17575952D01*
X13166905Y-17566429D01*
X13157381Y-17547381D01*
X13157381Y-17490238D01*
X13166905Y-17471190D01*
X13176428Y-17461667D01*
X13195476Y-17452143D01*
X13224048Y-17452143D01*
X13243095Y-17461667D01*
X13252619Y-17471190D01*
X13262143Y-17490238D01*
X13262143Y-17547381D01*
X13252619Y-17566429D01*
X13243095Y-17575952D01*
X13224048Y-17585476D01*
X13195476Y-17585476D01*
X13376428Y-17585476D02*
X13357381Y-17575952D01*
X13347857Y-17556905D01*
X13347857Y-17385476D01*
X13528809Y-17575952D02*
X13509762Y-17585476D01*
X13471667Y-17585476D01*
X13452619Y-17575952D01*
X13443095Y-17556905D01*
X13443095Y-17480714D01*
X13452619Y-17461667D01*
X13471667Y-17452143D01*
X13509762Y-17452143D01*
X13528809Y-17461667D01*
X13538333Y-17480714D01*
X13538333Y-17499762D01*
X13443095Y-17518810D01*
X13614524Y-17575952D02*
X13633571Y-17585476D01*
X13671667Y-17585476D01*
X13690714Y-17575952D01*
X13700238Y-17556905D01*
X13700238Y-17547381D01*
X13690714Y-17528333D01*
X13671667Y-17518810D01*
X13643095Y-17518810D01*
X13624048Y-17509286D01*
X13614524Y-17490238D01*
X13614524Y-17480714D01*
X13624048Y-17461667D01*
X13643095Y-17452143D01*
X13671667Y-17452143D01*
X13690714Y-17461667D01*
X13938333Y-17509286D02*
X14090714Y-17509286D01*
X14014524Y-17585476D02*
X14014524Y-17433095D01*
X14424048Y-17452143D02*
X14424048Y-17585476D01*
X14376428Y-17375952D02*
X14328809Y-17518810D01*
X14452619Y-17518810D01*
X14671667Y-17575952D02*
X14690714Y-17585476D01*
X14728809Y-17585476D01*
X14747857Y-17575952D01*
X14757381Y-17556905D01*
X14757381Y-17547381D01*
X14747857Y-17528333D01*
X14728809Y-17518810D01*
X14700238Y-17518810D01*
X14681190Y-17509286D01*
X14671667Y-17490238D01*
X14671667Y-17480714D01*
X14681190Y-17461667D01*
X14700238Y-17452143D01*
X14728809Y-17452143D01*
X14747857Y-17461667D01*
X14871667Y-17585476D02*
X14852619Y-17575952D01*
X14843095Y-17556905D01*
X14843095Y-17385476D01*
X14976428Y-17585476D02*
X14957381Y-17575952D01*
X14947857Y-17566429D01*
X14938333Y-17547381D01*
X14938333Y-17490238D01*
X14947857Y-17471190D01*
X14957381Y-17461667D01*
X14976428Y-17452143D01*
X15005000Y-17452143D01*
X15024048Y-17461667D01*
X15033571Y-17471190D01*
X15043095Y-17490238D01*
X15043095Y-17547381D01*
X15033571Y-17566429D01*
X15024048Y-17575952D01*
X15005000Y-17585476D01*
X14976428Y-17585476D01*
X15100238Y-17452143D02*
X15176428Y-17452143D01*
X15128809Y-17385476D02*
X15128809Y-17556905D01*
X15138333Y-17575952D01*
X15157381Y-17585476D01*
X15176428Y-17585476D01*
X15233571Y-17575952D02*
X15252619Y-17585476D01*
X15290714Y-17585476D01*
X15309762Y-17575952D01*
X15319286Y-17556905D01*
X15319286Y-17547381D01*
X15309762Y-17528333D01*
X15290714Y-17518810D01*
X15262143Y-17518810D01*
X15243095Y-17509286D01*
X15233571Y-17490238D01*
X15233571Y-17480714D01*
X15243095Y-17461667D01*
X15262143Y-17452143D01*
X15290714Y-17452143D01*
X15309762Y-17461667D01*
X15385952Y-17661667D02*
X15395476Y-17652143D01*
X15414524Y-17623571D01*
X15424048Y-17604524D01*
X15433571Y-17575952D01*
X15443095Y-17528333D01*
X15443095Y-17490238D01*
X15433571Y-17442619D01*
X15424048Y-17414048D01*
X15414524Y-17395000D01*
X15395476Y-17366429D01*
X15385952Y-17356905D01*
X8995000Y-17815000D02*
G75*
G03*
X8995000Y-17815000I-100000J0D01*
G01*
X9338333Y-17705476D02*
X9300238Y-17705476D01*
X9281190Y-17715000D01*
X9271667Y-17724524D01*
X9252619Y-17753095D01*
X9243095Y-17791190D01*
X9243095Y-17867381D01*
X9252619Y-17886429D01*
X9262143Y-17895952D01*
X9281190Y-17905476D01*
X9319286Y-17905476D01*
X9338333Y-17895952D01*
X9347857Y-17886429D01*
X9357381Y-17867381D01*
X9357381Y-17819762D01*
X9347857Y-17800714D01*
X9338333Y-17791190D01*
X9319286Y-17781667D01*
X9281190Y-17781667D01*
X9262143Y-17791190D01*
X9252619Y-17800714D01*
X9243095Y-17819762D01*
X9443095Y-17886429D02*
X9452619Y-17895952D01*
X9443095Y-17905476D01*
X9433571Y-17895952D01*
X9443095Y-17886429D01*
X9443095Y-17905476D01*
X9576429Y-17705476D02*
X9595476Y-17705476D01*
X9614524Y-17715000D01*
X9624048Y-17724524D01*
X9633571Y-17743571D01*
X9643095Y-17781667D01*
X9643095Y-17829286D01*
X9633571Y-17867381D01*
X9624048Y-17886429D01*
X9614524Y-17895952D01*
X9595476Y-17905476D01*
X9576429Y-17905476D01*
X9557381Y-17895952D01*
X9547857Y-17886429D01*
X9538333Y-17867381D01*
X9528810Y-17829286D01*
X9528810Y-17781667D01*
X9538333Y-17743571D01*
X9547857Y-17724524D01*
X9557381Y-17715000D01*
X9576429Y-17705476D01*
X9766905Y-17705476D02*
X9785952Y-17705476D01*
X9805000Y-17715000D01*
X9814524Y-17724524D01*
X9824048Y-17743571D01*
X9833571Y-17781667D01*
X9833571Y-17829286D01*
X9824048Y-17867381D01*
X9814524Y-17886429D01*
X9805000Y-17895952D01*
X9785952Y-17905476D01*
X9766905Y-17905476D01*
X9747857Y-17895952D01*
X9738333Y-17886429D01*
X9728810Y-17867381D01*
X9719286Y-17829286D01*
X9719286Y-17781667D01*
X9728810Y-17743571D01*
X9738333Y-17724524D01*
X9747857Y-17715000D01*
X9766905Y-17705476D01*
X9957381Y-17705476D02*
X9976429Y-17705476D01*
X9995476Y-17715000D01*
X10005000Y-17724524D01*
X10014524Y-17743571D01*
X10024048Y-17781667D01*
X10024048Y-17829286D01*
X10014524Y-17867381D01*
X10005000Y-17886429D01*
X9995476Y-17895952D01*
X9976429Y-17905476D01*
X9957381Y-17905476D01*
X9938333Y-17895952D01*
X9928810Y-17886429D01*
X9919286Y-17867381D01*
X9909762Y-17829286D01*
X9909762Y-17781667D01*
X9919286Y-17743571D01*
X9928810Y-17724524D01*
X9938333Y-17715000D01*
X9957381Y-17705476D01*
X10109762Y-17905476D02*
X10109762Y-17772143D01*
X10109762Y-17791190D02*
X10119286Y-17781667D01*
X10138333Y-17772143D01*
X10166905Y-17772143D01*
X10185952Y-17781667D01*
X10195476Y-17800714D01*
X10195476Y-17905476D01*
X10195476Y-17800714D02*
X10205000Y-17781667D01*
X10224048Y-17772143D01*
X10252619Y-17772143D01*
X10271667Y-17781667D01*
X10281190Y-17800714D01*
X10281190Y-17905476D01*
X10376429Y-17905476D02*
X10376429Y-17772143D01*
X10376429Y-17791190D02*
X10385952Y-17781667D01*
X10405000Y-17772143D01*
X10433571Y-17772143D01*
X10452619Y-17781667D01*
X10462143Y-17800714D01*
X10462143Y-17905476D01*
X10462143Y-17800714D02*
X10471667Y-17781667D01*
X10490714Y-17772143D01*
X10519286Y-17772143D01*
X10538333Y-17781667D01*
X10547857Y-17800714D01*
X10547857Y-17905476D01*
X10938333Y-17695952D02*
X10766905Y-17953095D01*
X11195476Y-17705476D02*
X11214524Y-17705476D01*
X11233571Y-17715000D01*
X11243095Y-17724524D01*
X11252619Y-17743571D01*
X11262143Y-17781667D01*
X11262143Y-17829286D01*
X11252619Y-17867381D01*
X11243095Y-17886429D01*
X11233571Y-17895952D01*
X11214524Y-17905476D01*
X11195476Y-17905476D01*
X11176429Y-17895952D01*
X11166905Y-17886429D01*
X11157381Y-17867381D01*
X11147857Y-17829286D01*
X11147857Y-17781667D01*
X11157381Y-17743571D01*
X11166905Y-17724524D01*
X11176429Y-17715000D01*
X11195476Y-17705476D01*
X11347857Y-17886429D02*
X11357381Y-17895952D01*
X11347857Y-17905476D01*
X11338333Y-17895952D01*
X11347857Y-17886429D01*
X11347857Y-17905476D01*
X11433571Y-17724524D02*
X11443095Y-17715000D01*
X11462143Y-17705476D01*
X11509762Y-17705476D01*
X11528809Y-17715000D01*
X11538333Y-17724524D01*
X11547857Y-17743571D01*
X11547857Y-17762619D01*
X11538333Y-17791190D01*
X11424048Y-17905476D01*
X11547857Y-17905476D01*
X11614524Y-17705476D02*
X11738333Y-17705476D01*
X11671667Y-17781667D01*
X11700238Y-17781667D01*
X11719286Y-17791190D01*
X11728809Y-17800714D01*
X11738333Y-17819762D01*
X11738333Y-17867381D01*
X11728809Y-17886429D01*
X11719286Y-17895952D01*
X11700238Y-17905476D01*
X11643095Y-17905476D01*
X11624048Y-17895952D01*
X11614524Y-17886429D01*
X11909762Y-17705476D02*
X11871667Y-17705476D01*
X11852619Y-17715000D01*
X11843095Y-17724524D01*
X11824048Y-17753095D01*
X11814524Y-17791190D01*
X11814524Y-17867381D01*
X11824048Y-17886429D01*
X11833571Y-17895952D01*
X11852619Y-17905476D01*
X11890714Y-17905476D01*
X11909762Y-17895952D01*
X11919286Y-17886429D01*
X11928809Y-17867381D01*
X11928809Y-17819762D01*
X11919286Y-17800714D01*
X11909762Y-17791190D01*
X11890714Y-17781667D01*
X11852619Y-17781667D01*
X11833571Y-17791190D01*
X11824048Y-17800714D01*
X11814524Y-17819762D01*
X12005000Y-17724524D02*
X12014524Y-17715000D01*
X12033571Y-17705476D01*
X12081190Y-17705476D01*
X12100238Y-17715000D01*
X12109762Y-17724524D01*
X12119286Y-17743571D01*
X12119286Y-17762619D01*
X12109762Y-17791190D01*
X11995476Y-17905476D01*
X12119286Y-17905476D01*
X12195476Y-17705476D02*
X12195476Y-17743571D01*
X12271667Y-17705476D02*
X12271667Y-17743571D01*
X12566905Y-17981667D02*
X12557381Y-17972143D01*
X12538333Y-17943571D01*
X12528809Y-17924524D01*
X12519286Y-17895952D01*
X12509762Y-17848333D01*
X12509762Y-17810238D01*
X12519286Y-17762619D01*
X12528809Y-17734048D01*
X12538333Y-17715000D01*
X12557381Y-17686429D01*
X12566905Y-17676905D01*
X12738333Y-17705476D02*
X12643095Y-17705476D01*
X12633571Y-17800714D01*
X12643095Y-17791190D01*
X12662143Y-17781667D01*
X12709762Y-17781667D01*
X12728809Y-17791190D01*
X12738333Y-17800714D01*
X12747857Y-17819762D01*
X12747857Y-17867381D01*
X12738333Y-17886429D01*
X12728809Y-17895952D01*
X12709762Y-17905476D01*
X12662143Y-17905476D01*
X12643095Y-17895952D01*
X12633571Y-17886429D01*
X12985952Y-17905476D02*
X12985952Y-17705476D01*
X13071667Y-17905476D02*
X13071667Y-17800714D01*
X13062143Y-17781667D01*
X13043095Y-17772143D01*
X13014524Y-17772143D01*
X12995476Y-17781667D01*
X12985952Y-17791190D01*
X13195476Y-17905476D02*
X13176428Y-17895952D01*
X13166905Y-17886429D01*
X13157381Y-17867381D01*
X13157381Y-17810238D01*
X13166905Y-17791190D01*
X13176428Y-17781667D01*
X13195476Y-17772143D01*
X13224048Y-17772143D01*
X13243095Y-17781667D01*
X13252619Y-17791190D01*
X13262143Y-17810238D01*
X13262143Y-17867381D01*
X13252619Y-17886429D01*
X13243095Y-17895952D01*
X13224048Y-17905476D01*
X13195476Y-17905476D01*
X13376428Y-17905476D02*
X13357381Y-17895952D01*
X13347857Y-17876905D01*
X13347857Y-17705476D01*
X13528809Y-17895952D02*
X13509762Y-17905476D01*
X13471667Y-17905476D01*
X13452619Y-17895952D01*
X13443095Y-17876905D01*
X13443095Y-17800714D01*
X13452619Y-17781667D01*
X13471667Y-17772143D01*
X13509762Y-17772143D01*
X13528809Y-17781667D01*
X13538333Y-17800714D01*
X13538333Y-17819762D01*
X13443095Y-17838810D01*
X13614524Y-17895952D02*
X13633571Y-17905476D01*
X13671667Y-17905476D01*
X13690714Y-17895952D01*
X13700238Y-17876905D01*
X13700238Y-17867381D01*
X13690714Y-17848333D01*
X13671667Y-17838810D01*
X13643095Y-17838810D01*
X13624048Y-17829286D01*
X13614524Y-17810238D01*
X13614524Y-17800714D01*
X13624048Y-17781667D01*
X13643095Y-17772143D01*
X13671667Y-17772143D01*
X13690714Y-17781667D01*
X13766905Y-17981667D02*
X13776428Y-17972143D01*
X13795476Y-17943571D01*
X13805000Y-17924524D01*
X13814524Y-17895952D01*
X13824048Y-17848333D01*
X13824048Y-17810238D01*
X13814524Y-17762619D01*
X13805000Y-17734048D01*
X13795476Y-17715000D01*
X13776428Y-17686429D01*
X13766905Y-17676905D01*
X8895000Y-18035000D02*
X8895000Y-18235000D01*
X8795000Y-18135000D02*
X8995000Y-18135000D01*
X9233571Y-18025476D02*
X9366905Y-18025476D01*
X9281190Y-18225476D01*
X9443095Y-18206429D02*
X9452619Y-18215952D01*
X9443095Y-18225476D01*
X9433571Y-18215952D01*
X9443095Y-18206429D01*
X9443095Y-18225476D01*
X9576429Y-18025476D02*
X9595476Y-18025476D01*
X9614524Y-18035000D01*
X9624048Y-18044524D01*
X9633571Y-18063571D01*
X9643095Y-18101667D01*
X9643095Y-18149286D01*
X9633571Y-18187381D01*
X9624048Y-18206429D01*
X9614524Y-18215952D01*
X9595476Y-18225476D01*
X9576429Y-18225476D01*
X9557381Y-18215952D01*
X9547857Y-18206429D01*
X9538333Y-18187381D01*
X9528810Y-18149286D01*
X9528810Y-18101667D01*
X9538333Y-18063571D01*
X9547857Y-18044524D01*
X9557381Y-18035000D01*
X9576429Y-18025476D01*
X9766905Y-18025476D02*
X9785952Y-18025476D01*
X9805000Y-18035000D01*
X9814524Y-18044524D01*
X9824048Y-18063571D01*
X9833571Y-18101667D01*
X9833571Y-18149286D01*
X9824048Y-18187381D01*
X9814524Y-18206429D01*
X9805000Y-18215952D01*
X9785952Y-18225476D01*
X9766905Y-18225476D01*
X9747857Y-18215952D01*
X9738333Y-18206429D01*
X9728810Y-18187381D01*
X9719286Y-18149286D01*
X9719286Y-18101667D01*
X9728810Y-18063571D01*
X9738333Y-18044524D01*
X9747857Y-18035000D01*
X9766905Y-18025476D01*
X9957381Y-18025476D02*
X9976429Y-18025476D01*
X9995476Y-18035000D01*
X10005000Y-18044524D01*
X10014524Y-18063571D01*
X10024048Y-18101667D01*
X10024048Y-18149286D01*
X10014524Y-18187381D01*
X10005000Y-18206429D01*
X9995476Y-18215952D01*
X9976429Y-18225476D01*
X9957381Y-18225476D01*
X9938333Y-18215952D01*
X9928810Y-18206429D01*
X9919286Y-18187381D01*
X9909762Y-18149286D01*
X9909762Y-18101667D01*
X9919286Y-18063571D01*
X9928810Y-18044524D01*
X9938333Y-18035000D01*
X9957381Y-18025476D01*
X10109762Y-18225476D02*
X10109762Y-18092143D01*
X10109762Y-18111190D02*
X10119286Y-18101667D01*
X10138333Y-18092143D01*
X10166905Y-18092143D01*
X10185952Y-18101667D01*
X10195476Y-18120714D01*
X10195476Y-18225476D01*
X10195476Y-18120714D02*
X10205000Y-18101667D01*
X10224048Y-18092143D01*
X10252619Y-18092143D01*
X10271667Y-18101667D01*
X10281190Y-18120714D01*
X10281190Y-18225476D01*
X10376429Y-18225476D02*
X10376429Y-18092143D01*
X10376429Y-18111190D02*
X10385952Y-18101667D01*
X10405000Y-18092143D01*
X10433571Y-18092143D01*
X10452619Y-18101667D01*
X10462143Y-18120714D01*
X10462143Y-18225476D01*
X10462143Y-18120714D02*
X10471667Y-18101667D01*
X10490714Y-18092143D01*
X10519286Y-18092143D01*
X10538333Y-18101667D01*
X10547857Y-18120714D01*
X10547857Y-18225476D01*
X10938333Y-18015952D02*
X10766905Y-18273095D01*
X11195476Y-18025476D02*
X11214524Y-18025476D01*
X11233571Y-18035000D01*
X11243095Y-18044524D01*
X11252619Y-18063571D01*
X11262143Y-18101667D01*
X11262143Y-18149286D01*
X11252619Y-18187381D01*
X11243095Y-18206429D01*
X11233571Y-18215952D01*
X11214524Y-18225476D01*
X11195476Y-18225476D01*
X11176429Y-18215952D01*
X11166905Y-18206429D01*
X11157381Y-18187381D01*
X11147857Y-18149286D01*
X11147857Y-18101667D01*
X11157381Y-18063571D01*
X11166905Y-18044524D01*
X11176429Y-18035000D01*
X11195476Y-18025476D01*
X11347857Y-18206429D02*
X11357381Y-18215952D01*
X11347857Y-18225476D01*
X11338333Y-18215952D01*
X11347857Y-18206429D01*
X11347857Y-18225476D01*
X11433571Y-18044524D02*
X11443095Y-18035000D01*
X11462143Y-18025476D01*
X11509762Y-18025476D01*
X11528809Y-18035000D01*
X11538333Y-18044524D01*
X11547857Y-18063571D01*
X11547857Y-18082619D01*
X11538333Y-18111190D01*
X11424048Y-18225476D01*
X11547857Y-18225476D01*
X11614524Y-18025476D02*
X11747857Y-18025476D01*
X11662143Y-18225476D01*
X11919286Y-18025476D02*
X11824048Y-18025476D01*
X11814524Y-18120714D01*
X11824048Y-18111190D01*
X11843095Y-18101667D01*
X11890714Y-18101667D01*
X11909762Y-18111190D01*
X11919286Y-18120714D01*
X11928809Y-18139762D01*
X11928809Y-18187381D01*
X11919286Y-18206429D01*
X11909762Y-18215952D01*
X11890714Y-18225476D01*
X11843095Y-18225476D01*
X11824048Y-18215952D01*
X11814524Y-18206429D01*
X12100238Y-18025476D02*
X12062143Y-18025476D01*
X12043095Y-18035000D01*
X12033571Y-18044524D01*
X12014524Y-18073095D01*
X12005000Y-18111190D01*
X12005000Y-18187381D01*
X12014524Y-18206429D01*
X12024048Y-18215952D01*
X12043095Y-18225476D01*
X12081190Y-18225476D01*
X12100238Y-18215952D01*
X12109762Y-18206429D01*
X12119286Y-18187381D01*
X12119286Y-18139762D01*
X12109762Y-18120714D01*
X12100238Y-18111190D01*
X12081190Y-18101667D01*
X12043095Y-18101667D01*
X12024048Y-18111190D01*
X12014524Y-18120714D01*
X12005000Y-18139762D01*
X12195476Y-18025476D02*
X12195476Y-18063571D01*
X12271667Y-18025476D02*
X12271667Y-18063571D01*
X12566905Y-18301667D02*
X12557381Y-18292143D01*
X12538333Y-18263571D01*
X12528809Y-18244524D01*
X12519286Y-18215952D01*
X12509762Y-18168333D01*
X12509762Y-18130238D01*
X12519286Y-18082619D01*
X12528809Y-18054048D01*
X12538333Y-18035000D01*
X12557381Y-18006429D01*
X12566905Y-17996905D01*
X12747857Y-18225476D02*
X12633571Y-18225476D01*
X12690714Y-18225476D02*
X12690714Y-18025476D01*
X12671667Y-18054048D01*
X12652619Y-18073095D01*
X12633571Y-18082619D01*
X12985952Y-18225476D02*
X12985952Y-18025476D01*
X13071667Y-18225476D02*
X13071667Y-18120714D01*
X13062143Y-18101667D01*
X13043095Y-18092143D01*
X13014524Y-18092143D01*
X12995476Y-18101667D01*
X12985952Y-18111190D01*
X13195476Y-18225476D02*
X13176428Y-18215952D01*
X13166905Y-18206429D01*
X13157381Y-18187381D01*
X13157381Y-18130238D01*
X13166905Y-18111190D01*
X13176428Y-18101667D01*
X13195476Y-18092143D01*
X13224048Y-18092143D01*
X13243095Y-18101667D01*
X13252619Y-18111190D01*
X13262143Y-18130238D01*
X13262143Y-18187381D01*
X13252619Y-18206429D01*
X13243095Y-18215952D01*
X13224048Y-18225476D01*
X13195476Y-18225476D01*
X13376428Y-18225476D02*
X13357381Y-18215952D01*
X13347857Y-18196905D01*
X13347857Y-18025476D01*
X13528809Y-18215952D02*
X13509762Y-18225476D01*
X13471667Y-18225476D01*
X13452619Y-18215952D01*
X13443095Y-18196905D01*
X13443095Y-18120714D01*
X13452619Y-18101667D01*
X13471667Y-18092143D01*
X13509762Y-18092143D01*
X13528809Y-18101667D01*
X13538333Y-18120714D01*
X13538333Y-18139762D01*
X13443095Y-18158810D01*
X13605000Y-18301667D02*
X13614524Y-18292143D01*
X13633571Y-18263571D01*
X13643095Y-18244524D01*
X13652619Y-18215952D01*
X13662143Y-18168333D01*
X13662143Y-18130238D01*
X13652619Y-18082619D01*
X13643095Y-18054048D01*
X13633571Y-18035000D01*
X13614524Y-18006429D01*
X13605000Y-17996905D01*
M02*
